<svg xmlns="http://www.w3.org/2000/svg" viewBox="0 0 690.8 904.51"><defs><style>.cls-1,.cls-13,.cls-16,.cls-17,.cls-4{fill:#003abf;}.cls-10,.cls-11,.cls-15,.cls-2,.cls-5,.cls-7,.cls-9{fill:#fff;}.cls-3{fill:#00277f;}.cls-10,.cls-11,.cls-12,.cls-14,.cls-15,.cls-4,.cls-5,.cls-7,.cls-8,.cls-9{stroke:#003abf;}.cls-13,.cls-15,.cls-16,.cls-4,.cls-5,.cls-7,.cls-8,.cls-9{stroke-miterlimit:10;}.cls-16,.cls-17,.cls-4,.cls-7{stroke-width:0.25px;}.cls-12,.cls-14,.cls-6,.cls-8{fill:none;}.cls-13,.cls-16,.cls-17,.cls-6{stroke:#fff;}.cls-10,.cls-12,.cls-14,.cls-17,.cls-6{stroke-linecap:round;}.cls-10,.cls-11,.cls-12,.cls-14,.cls-17,.cls-6{stroke-linejoin:round;}.cls-10,.cls-11,.cls-12,.cls-6,.cls-8,.cls-9{stroke-width:0.75px;}.cls-15{stroke-width:0.5px;}</style></defs><title>arbre-gauche</title><g id="Calque_2" data-name="Calque 2"><g id="Calque_1-2" data-name="Calque 1"><path class="cls-1" d="M649.47,196.89c-5.22,7.2,17.4,44,17.4,44l-26.11,26.4,26.11,26.4-26.11,61.61s-34.81,0-52.21,44-78.32,17.6-78.32,17.6H440.62c-9.49,0-20.19,8.18-31.15,18.48l-.17.18-61.78,43.74c-28.37,6.42-80.93,52-80.93,52s-8.7,70.41,0,96.81-43.51-17.6-69.62-44-34.81-35.2-43.51-26.4-43.51,17.6-78.32-8.8,0-52.81,0-105.61-34.81-8.8-60.91-52.81,0-61.61,34.81-70.41,26.11-44,8.7-96.81,17.4-79.21,17.4-79.21,95.72,0,113.13-8.8,43.51-70.41,34.81-114.41,60.91-8.8,69.62,17.6,69.62,35.2,78.32-8.8,17.4-17.6,95.72-17.6,52.21,0,78.32,35.2,0,52.81,34.81,35.2,95.72,35.2,87,52.81S668.56,170.59,649.47,196.89Z"/><path class="cls-1" d="M514.67,895.24l-186.76-.48s69.2-187.41,51.79-240.22S266.58,531.32,266.58,531.32s52.56-45.59,80.93-52l-11.31,8s78.32,105.61,113.13,96.81-8.7-149.61-26.11-158.42l-13.75,9.68c11-10.3,21.67-18.48,31.15-18.48h69.62S471.16,877.64,514.67,895.24Z"/><path class="cls-2" d="M243.81,653c-9.49,0-43.15-28.72-62.78-48.58-18.37-18.58-27.59-27.9-34.66-27.9-2.4,0-4.53,1-6.71,3.23-4,4-13.89,8.08-27.09,8.08-10.9,0-27.63-2.84-45.44-16.35-19.82-15-15.13-30.13-8.62-51,4.13-13.29,8.82-28.34,8.82-47.27,0-26.57-9.6-27.39-21.76-28.43-10.64-.91-23.88-2-35.23-21.17-9.49-16-12.12-29.38-7.8-39.76,4.74-11.41,17.83-19.68,40-25.29,9.2-2.33,15.42-6.64,19-13.18,8.77-16,.8-43.53-10.53-77.92-12.57-38.15,4.3-61.5,12.14-69.77a11.63,11.63,0,0,1,8.32-3.6c20.21-.15,87.25-1.17,101.26-8.26,17.18-8.69,40.73-67.3,32.79-107.45-1.35-6.85-.72-11.93,1.88-15.1,2.08-2.53,5.4-3.81,9.86-3.81,17.84,0,47.19,20,52.35,35.61,3.93,11.92,19.86,20.9,37.07,20.9,19.61,0,33.47-10.91,37.08-29.19S351,63.38,360.49,63.38c4.1,0,9.38.92,16.06,2.08a300.6,300.6,0,0,0,56.19,5.26c54.58,0,54.58,0,61.3,13.6a113.94,113.94,0,0,0,11.48,19.09c10.49,14.15,11.9,25.28,12.74,31.93.6,4.75,1,7.62,4.27,7.62,2.77,0,7.61-2.19,16.14-6.51a29.47,29.47,0,0,1,13.42-3.2c31.63,0,63.7,47,67.25,52.37,10.2,15.39,12,42.72-2.81,60.06-6.85,8-2.94,23.25,0,31.62a11.53,11.53,0,0,1-2.69,12l-10.41,10.53a12.65,12.65,0,0,0,0,17.73L613.71,328a11.57,11.57,0,0,1,2.43,12.69L597.6,384.39a11.67,11.67,0,0,1-8.36,6.84c-11,2.32-31.28,10.7-43.13,40.64-6.16,15.57-18.86,23.47-37.75,23.47-14.2,0-27.68-4.56-32.82-6.52A12.59,12.59,0,0,0,471,448h-62.7c-9.62,0-20.29,8.8-29.45,17.4l-.18.18-55.85,39.53a11.57,11.57,0,0,1-3.58,1.7c-22.57,6.31-59.41,36.08-70.16,45.06a12.52,12.52,0,0,0-4.45,8.31c-1.6,14.88-6.29,65,.57,85.84,1.27,3.84.93,5.49.42,6.19A2.12,2.12,0,0,1,243.81,653Z"/><path class="cls-3" d="M217.29,59.93c8.16,0,19.54,4.39,30.44,11.73s19,16.21,21.43,23.54c4,12.11,20.13,21.25,37.54,21.25,19.86,0,33.91-11.06,37.57-29.59,3.86-19.51,7.6-23,16.22-23,4.05,0,9.32.91,16,2.07a301.06,301.06,0,0,0,56.27,5.27c27.33,0,41.05,0,48.66,1.71,7.25,1.63,8.8,4.76,12.19,11.61a114.39,114.39,0,0,0,11.53,19.17c10.42,14,11.81,25.09,12.64,31.69.59,4.68,1,8.06,4.77,8.06,2.87,0,7.77-2.21,16.37-6.56a29,29,0,0,1,13.19-3.15c12.18,0,25.88,7.09,40.73,21.08a189,189,0,0,1,26.11,31.07c5.27,8,8.13,18.77,7.84,29.67-.31,11.56-4.08,22.14-10.62,29.78-7,8.19-3.07,23.64-.09,32.12A11,11,0,0,1,613.48,289l-10.41,10.53a13.15,13.15,0,0,0,0,18.43l10.28,10.39a11.07,11.07,0,0,1,2.33,12.14L597.14,384.2a11.18,11.18,0,0,1-8,6.55c-11.12,2.35-31.56,10.78-43.49,40.95-6.08,15.36-18.62,23.16-37.28,23.16-14.11,0-27.53-4.54-32.64-6.48a13.08,13.08,0,0,0-4.68-.86h-62.7c-9.8,0-20.56,8.87-29.82,17.57l-.1.1-55.84,39.53a11.08,11.08,0,0,1-3.43,1.63c-22.66,6.33-59.58,36.17-70.35,45.16a13,13,0,0,0-4.62,8.64c-1.6,14.9-6.3,65.15.59,86,1.26,3.84.85,5.25.49,5.75-.1.14-.4.55-1.45.55-9.36,0-42.86-28.64-62.43-48.43-18.47-18.68-27.74-28.05-35-28.05-2.5,0-4.81,1.11-7.06,3.38-3.77,3.82-13.75,7.93-26.73,7.93-10.82,0-27.43-2.82-45.13-16.24-9-6.84-13.47-14.11-14-22.86C52.94,540,55.74,531,59,520.59c4.15-13.32,8.84-28.42,8.84-47.41,0-27-9.81-27.87-22.22-28.93-10.52-.9-23.62-2-34.84-20.93C1.36,407.47-1.25,394.24,3,384c4.68-11.25,17.65-19.43,39.68-25C52,356.65,58.35,352.26,62,345.59c8.87-16.14.87-43.81-10.5-78.32C39,229.38,55.77,206.2,63.55,198a11.13,11.13,0,0,1,8-3.45c20.24-.15,87.38-1.18,101.48-8.31,8.45-4.27,18.62-20.64,25.9-41.68,8.2-23.68,10.8-47.85,7.15-66.31-1.32-6.7-.73-11.64,1.77-14.68,2-2.41,5.17-3.63,9.48-3.63m0-1c-9.19,0-15,5.39-12.23,19.51,8.13,41.12-16.26,98.68-32.53,106.91-14,7.09-82.44,8.07-101,8.2a12.07,12.07,0,0,0-8.68,3.76c-8.15,8.6-24.86,32-12.26,70.27C66.83,316.93,75,349.82,42.44,358s-56.92,24.67-32.53,65.79,56.92,0,56.92,49.34-32.53,74,0,98.68c16.26,12.34,32.53,16.45,45.74,16.45s23.38-4.11,27.44-8.22c2-2.06,4.07-3.08,6.35-3.08,6.86,0,16,9.25,34.3,27.75,19.1,19.32,53.17,48.73,63.14,48.73,2.76,0,3.68-2.26,1.91-7.61-6.8-20.63-2.23-70-.55-85.63a12.06,12.06,0,0,1,4.27-8c11.6-9.68,47.66-38.73,70-45a12.09,12.09,0,0,0,3.74-1.77l55.92-39.58.16-.16c10.25-9.62,20.25-17.27,29.11-17.27H471a12.13,12.13,0,0,1,4.32.79c5,1.9,18.63,6.55,33,6.55,15,0,30.82-5.1,38.21-23.79,11.92-30.14,32.59-38.19,42.77-40.34a12.16,12.16,0,0,0,8.71-7.13l18.54-43.75a12.11,12.11,0,0,0-2.54-13.23l-10.28-10.39a12.11,12.11,0,0,1,0-17l10.41-10.53A12.1,12.1,0,0,0,617,277.14c-3-8.68-6.71-23.4-.09-31.13,14.26-16.66,13.75-44.21,2.85-60.66-8.74-13.2-38.72-52.6-67.67-52.6A29.85,29.85,0,0,0,538.45,136c-8.72,4.41-13.34,6.45-15.92,6.45-7,0,1.25-15.27-16.61-39.35-24.39-32.89,0-32.89-73.18-32.89-39.92,0-60.48-7.34-72.25-7.34-9.8,0-13.5,5.1-17.2,23.79-4.07,20.56-20.33,28.78-36.59,28.78s-32.53-8.22-36.59-20.56c-5.34-16.2-35.23-36-52.82-36Z"/><path class="cls-2" d="M326,894.74c2.73-11.49,41.49-176.91,25.86-224.35-15.49-47-98.12-109.57-105.38-115,4.94-4.22,47.13-39.88,72.28-47.39l-8.32,5.89a.5.5,0,0,0-.11.71c2.76,3.72,68,91.15,102,91.15a17.18,17.18,0,0,0,4.21-.5c6.77-1.71,10.87-8.59,12.18-20.45,4.39-39.62-23.53-122-36.47-128.51a.5.5,0,0,0-.51,0l-6,4.22c7.41-6.31,15.34-11.54,22.55-11.54h64.51c-.6,8.38-7.92,112.24-10.54,216.69-3.52,140.7,2.7,217.69,18.51,229Z"/><path class="cls-3" d="M472.32,449.51c-.82,11.54-7.93,113.58-10.5,216.17-1.59,63.68-1.15,115.12,1.31,152.88,2.82,43.25,8.17,68.13,16.3,75.68H326.68c1.77-7.48,11.17-47.83,18.83-92.67,11.36-66.53,13.67-110.71,6.87-131.33s-26.72-46.36-59.22-76.49c-21.25-19.7-41.2-34.9-45.83-38.38,6.41-5.45,43.87-36.78,68.43-45.81l-5.56,3.93a1,1,0,0,0-.23,1.41c.17.23,17.14,23,38.06,45.56,28.24,30.39,49.89,45.79,64.36,45.79a17.71,17.71,0,0,0,4.34-.52c7-1.77,11.22-8.79,12.56-20.88,1.94-17.49-2.45-46.16-11.73-76.67-7.08-23.29-17.53-48.45-25-52.31,5.34-3.75,10.74-6.36,15.76-6.36h64m1.07-1H408.35c-8.86,0-18.87,7.65-29.11,17.27l12.85-9c16.26,8.22,56.92,139.8,24.39,148a16.63,16.63,0,0,1-4.09.49c-34.17,0-101.62-90.95-101.62-90.95l10.57-7.48c-26.51,6-75.62,48.6-75.62,48.6s89.45,65.79,105.71,115.13-26,224.69-26,224.69H482.74c-40.66-16.45-9.35-446.73-9.35-446.73ZM321.34,506.81h0Z"/><path class="cls-4" d="M550.52,809.8a149.52,149.52,0,0,1-1.38,23.68c-.45,3.26-1,6.5-1.57,9.74l-1.63,9.47c-.41,2.36-.81,4.72-1.27,7.06-1.29,6.65-3.6,30.48-5.67,36.92"/><path class="cls-4" d="M539.55,869A25.72,25.72,0,0,1,533,854.95c2.78,3.5,5.64,7.16,6.7,11.59.26,1.08.4,2.2.77,3.24A8.18,8.18,0,0,1,539.55,869Z"/><path class="cls-4" d="M539,862.23c-2.67-5.42-4.55-11.46-4.06-17.56l2.26,4.56a47.26,47.26,0,0,1,3.68,8.9,21.37,21.37,0,0,1,.79,6.54c-.09,1.46-.58,1-1.23.09A18.79,18.79,0,0,1,539,862.23Z"/><path class="cls-4" d="M535.7,833.81a7.27,7.27,0,0,1-.26-2.89,58.29,58.29,0,0,0,3.36,7.84,37.27,37.27,0,0,1,1.87,3.86,28.73,28.73,0,0,1,.85,2.82l1,3.89c.47,1.77,1.41,4.58.57,6.36-1.18-1.05-1.93-3.49-2.56-5-.75-1.79-1.39-3.62-2-5.48C537.45,841.47,536.57,837.64,535.7,833.81Z"/><path class="cls-4" d="M541.32,841.13c-1.88-4.15-3.78-8.37-4.44-12.92a24.86,24.86,0,0,1-.11-6.21c1.82,4.12,3.64,8.24,5.18,12.48a47.38,47.38,0,0,1,1.9,6.42c.38,1.83,1.12,4.84.43,6.64C543,845.76,542.24,843.16,541.32,841.13Z"/><path class="cls-4" d="M546.36,839.51c.07-2.52-.24-7-.18-9.55,0-.7,0-1.4,0-2.1a27.43,27.43,0,0,0-6.41-17.31c-.76,7.27-.1,14.92,3.27,21.28.47.89,1,1.75,1.43,2.65a34.63,34.63,0,0,1,1.85,5"/><path class="cls-4" d="M547.62,820.27,544.77,813a26.6,26.6,0,0,1-1.93-6.57,23.43,23.43,0,0,1,0-4.4,86.71,86.71,0,0,1,1.21-9.36c.22,2.3,1.13,4.45,1.65,6.69,1.46,6.24.71,14.63,1.9,20.93"/><path class="cls-4" d="M557.51,803.78c1.5-2.77,3.07-5.63,5.53-7.49a26.71,26.71,0,0,1-.86,6.62,26.38,26.38,0,0,1-1,2.68q-1.64,3.81-3.28,7.61a10.25,10.25,0,0,1-1.33,2.43,9.09,9.09,0,0,1-1.24,1.2,23.72,23.72,0,0,1-4.42,3.3c-.46-.73.42-2.63.67-3.41a46.48,46.48,0,0,1,1.71-4.47C554.51,809.34,556,806.56,557.51,803.78Z"/><path class="cls-4" d="M548.53,804.1c-.85-5.79.87-11.68.73-17.55a30.71,30.71,0,0,1,3,17.14c-.14,1.16-.48,3.9-1.68,4.49S548.67,805.07,548.53,804.1Z"/><path class="cls-4" d="M556.13,821.35a89.68,89.68,0,0,1,13.23-12.71c-.85,2.43-.46,5.15-1.11,7.65a18.31,18.31,0,0,1-2.33,4.82,16.24,16.24,0,0,1-1.64,2.36,13.42,13.42,0,0,1-1.75,1.58,43.62,43.62,0,0,1-5.27,3.57c-1.07.62-4.3,2.94-5.51,2.52C548.68,830.09,555.2,822.45,556.13,821.35Z"/><path class="cls-4" d="M562.9,827.87l6.08-5.19a44.53,44.53,0,0,1-11.7,18.09c-1.38,1.28-4.67,3.93-6.7,3.31-1.85-.57-.15-3.32.55-4.32C554.3,835.11,558.7,831.45,562.9,827.87Z"/><path class="cls-4" d="M550,848.19a39.44,39.44,0,0,1,5.34-3.7,58,58,0,0,0,6.18-5l-3,4.16c-.76,1.06-1.52,2.12-2.37,3.1-1.82,2.1-4.52,4.73-7,5.84C545.7,854.1,549,849.08,550,848.19Z"/><path class="cls-4" d="M553.33,852.13a87.45,87.45,0,0,0,10.09-8.34,6,6,0,0,0,1.66-2.21A97.49,97.49,0,0,1,557,852.31a38.6,38.6,0,0,1-4.45,4.21c-1.08.86-3.65,3.28-5.09,3C544.22,859,552.42,852.77,553.33,852.13Z"/><path class="cls-4" d="M547.15,861.9c4.29-4.06,9.81-6.44,14.26-10.31l-3,3.85a25.16,25.16,0,0,1-4.18,4.61,24.14,24.14,0,0,1-3.56,2.19c-1.19.64-4.74,3.36-5.95,2.83C545,863.94,546.31,862.64,547.15,861.9Z"/><path class="cls-4" d="M560,857.43c-.86,1.27-1.73,2.53-2.61,3.78a19.63,19.63,0,0,1-4.09,4.6,20,20,0,0,1-4.62,2.33c-1.09.44-4.81,2.86-4.73.61.07-1.91,2.87-3.3,4.2-4.11C552.13,862.24,556.62,860.7,560,857.43Z"/><path class="cls-5" d="M511,786.13a225,225,0,0,0,4.18,30.77c.87,4.22,1.87,8.4,2.86,12.59l2.9,12.23c.72,3,1.44,6.09,2.22,9.12,2.2,8.59,12,37.57,15.12,45.83"/><path class="cls-5" d="M529.13,862.65a35.07,35.07,0,0,0,5.9-18.8c-2.77,4.75-5.62,9.71-6.34,15.55-.18,1.42-.22,2.89-.51,4.28A9.33,9.33,0,0,0,529.13,862.65Z"/><path class="cls-5" d="M529,853.75c2.44-7.24,3.91-15.25,2.68-23.16l-2.07,6.1a65.56,65.56,0,0,0-3.21,11.84,31.62,31.62,0,0,0-.17,8.58c.26,1.9.77,1.3,1.41,0A25,25,0,0,0,529,853.75Z"/><path class="cls-5" d="M529.62,816.49a10.8,10.8,0,0,0,0-3.79,80.56,80.56,0,0,1-3,10.44,50.7,50.7,0,0,0-1.7,5.15c-.29,1.22-.48,2.47-.66,3.73l-.75,5.13c-.34,2.33-1.1,6.07.06,8.32,1.23-1.45,1.81-4.68,2.36-6.66.65-2.38,1.18-4.82,1.63-7.28C528.48,826.58,529,821.53,529.62,816.49Z"/><path class="cls-5" d="M524,826.4c1.68-5.53,3.38-11.16,3.63-17.13a37.23,37.23,0,0,0-.56-8.1c-1.62,5.49-3.23,11-4.51,16.61a67.76,67.76,0,0,0-1.46,8.5c-.23,2.41-.74,6.39.24,8.68C522.63,832.55,523.21,829.1,524,826.4Z"/><path class="cls-5" d="M518.11,824.62c-.35-3.28-.5-9.18-.85-12.46-.1-.91-.2-1.82-.26-2.73a38.31,38.31,0,0,1,5.38-23c1.67,9.43,1.76,19.43-1.37,28-.44,1.19-.93,2.34-1.34,3.55a48.64,48.64,0,0,0-1.55,6.68"/><path class="cls-5" d="M514.56,799.64l2.43-9.69a38,38,0,0,0,1.47-8.69,35.16,35.16,0,0,0-.5-5.73c-.61-4.08-1.42-8.12-2.41-12.12,0,3-.79,5.87-1.14,8.83-1,8.23.81,19.11.15,27.4"/><path class="cls-5" d="M501.48,778.8c-2-3.51-4.11-7.13-7.12-9.39a40.16,40.16,0,0,0,1.71,8.57c.42,1.18,1,2.3,1.48,3.43q2.28,4.85,4.58,9.69a14.53,14.53,0,0,0,1.78,3.08,11.6,11.6,0,0,0,1.55,1.48,28.75,28.75,0,0,0,5.39,4c.44-1-.77-3.4-1.14-4.4-.72-2-1.55-3.85-2.44-5.71C505.51,785.85,503.5,782.32,501.48,778.8Z"/><path class="cls-5" d="M511.74,778.62c.32-7.6-2.28-15.17-2.77-22.82a44.88,44.88,0,0,0-1.49,22.54c.28,1.5,1,5.05,2.41,5.73S511.69,779.9,511.74,778.62Z"/><path class="cls-5" d="M505,801.61a114.41,114.41,0,0,0-16.46-15.67c1.24,3.11,1.09,6.68,2.11,9.89a26.32,26.32,0,0,0,3.18,6.12,22.3,22.3,0,0,0,2.13,3,16.92,16.92,0,0,0,2.16,1.94,51.86,51.86,0,0,0,6.4,4.3c1.29.73,5.21,3.54,6.55,2.92C514.43,812.5,506.18,803,505,801.61Z"/><path class="cls-5" d="M498,810.56l-7.49-6.35A61.7,61.7,0,0,0,505.84,827c1.71,1.58,5.75,4.81,8,3.86,2-.87-.2-4.33-1.1-5.6C508.59,819.43,503.18,814.95,498,810.56Z"/><path class="cls-5" d="M515,836.18a47.12,47.12,0,0,0-6.48-4.47,71.39,71.39,0,0,1-7.58-6.07l3.84,5.23c1,1.33,2,2.66,3,3.88,2.3,2.61,5.67,5.86,8.67,7.14C520.48,843.6,516.16,837.28,515,836.18Z"/><path class="cls-5" d="M511.59,841.55a108.23,108.23,0,0,1-12.4-10.2,8.13,8.13,0,0,1-2.13-2.77A132.19,132.19,0,0,0,507.44,842a49.11,49.11,0,0,0,5.53,5.19c1.32,1.05,4.52,4,6.13,3.62C522.71,849.89,512.69,842.32,511.59,841.55Z"/><path class="cls-5" d="M519.69,853.86c-5.33-5-11.87-7.74-17.37-12.48l3.78,4.83a33,33,0,0,0,5.27,5.73,28.2,28.2,0,0,0,4.29,2.62c1.42.76,5.76,4.07,7.08,3.28C522.41,856.37,520.74,854.77,519.69,853.86Z"/><path class="cls-5" d="M504.54,848.9c1.12,1.59,2.24,3.18,3.39,4.75a25.83,25.83,0,0,0,5.16,5.73,22.51,22.51,0,0,0,5.51,2.72c1.29.49,5.79,3.4,5.45.48-.29-2.48-3.63-4.11-5.23-5.08C514.06,854.63,508.79,852.93,504.54,848.9Z"/><path class="cls-4" d="M525.7,872.48a50.38,50.38,0,0,0,.57,8.83c.19,1.21.42,2.42.65,3.63l.67,3.53c.17.88.34,1.76.52,2.63a58.29,58.29,0,0,0,2.09,7.33"/><path class="cls-4" d="M529.92,894.57a9.22,9.22,0,0,0,2.71-5.25,11.36,11.36,0,0,0-2.77,4.32,11.75,11.75,0,0,1-.32,1.21A3.34,3.34,0,0,0,529.92,894.57Z"/><path class="cls-4" d="M530.16,892a11.73,11.73,0,0,0,1.68-6.55l-.94,1.7a16.71,16.71,0,0,0-1.52,3.32,7.23,7.23,0,0,0-.33,2.44c0,.54.24.38.51,0A6.86,6.86,0,0,0,530.16,892Z"/><path class="cls-4" d="M531.51,881.43a2.46,2.46,0,0,0,.11-1.08,20.66,20.66,0,0,1-1.39,2.92,13.37,13.37,0,0,0-.77,1.44,10,10,0,0,0-.35,1l-.43,1.45c-.19.66-.58,1.71-.23,2.37a5.44,5.44,0,0,0,1.06-1.86,21.27,21.27,0,0,0,.81-2C530.78,884.29,531.15,882.86,531.51,881.43Z"/><path class="cls-4" d="M529.18,884.16a17,17,0,0,0,1.84-4.82,8.37,8.37,0,0,0,0-2.32c-.75,1.53-1.5,3.07-2.14,4.65a16.39,16.39,0,0,0-.79,2.4,4.76,4.76,0,0,0-.18,2.48A13.81,13.81,0,0,0,529.18,884.16Z"/><path class="cls-4" d="M527.1,883.56c0-.94.1-2.62.07-3.56,0-.26,0-.52,0-.78a9.66,9.66,0,0,1,2.65-6.46,12.75,12.75,0,0,1-1.35,7.94c-.19.33-.41.65-.59,1a12.13,12.13,0,0,0-.76,1.88"/><path class="cls-4" d="M526.58,876.39l1.18-2.72a9.2,9.2,0,0,0,.8-2.45,7.89,7.89,0,0,0,0-1.64,29.34,29.34,0,0,0-.5-3.49,17.76,17.76,0,0,1-.68,2.49c-.6,2.33-.29,5.45-.78,7.8"/><path class="cls-4" d="M522.49,870.23a8.38,8.38,0,0,0-2.29-2.79,9,9,0,0,0,.36,2.47,9.28,9.28,0,0,0,.43,1l1.36,2.84a3.73,3.73,0,0,0,.55.91,3.62,3.62,0,0,0,.51.45,9.8,9.8,0,0,0,1.83,1.23c.19-.27-.17-1-.28-1.27a16.33,16.33,0,0,0-.71-1.67C523.73,872.31,523.11,871.27,522.49,870.23Z"/><path class="cls-4" d="M526.21,870.35c.35-2.16-.36-4.36-.3-6.54a10.48,10.48,0,0,0-1.23,6.39c.06.43.2,1.46.7,1.67S526.15,870.72,526.21,870.35Z"/><path class="cls-4" d="M523.06,876.79a35.71,35.71,0,0,0-5.47-4.74c.35.91.19,1.92.46,2.85a6.57,6.57,0,0,0,1,1.8,6.09,6.09,0,0,0,.68.88,5.39,5.39,0,0,0,.72.59,18.26,18.26,0,0,0,2.18,1.33c.44.23,1.78,1.1,2.28.94C526.14,880,523.45,877.2,523.06,876.79Z"/><path class="cls-4" d="M520.27,879.22l-2.51-1.93a16.54,16.54,0,0,0,4.84,6.75c.57.48,1.93,1.47,2.77,1.23s.06-1.24-.23-1.61A25.4,25.4,0,0,0,520.27,879.22Z"/><path class="cls-4" d="M525.61,886.8a16.45,16.45,0,0,0-2.21-1.38,23.71,23.71,0,0,1-2.55-1.85l1.23,1.55c.31.4.63.79,1,1.16a9.45,9.45,0,0,0,2.91,2.18C527.37,889,526,887.13,525.61,886.8Z"/><path class="cls-4" d="M524.22,888.27a35.61,35.61,0,0,1-4.17-3.11,2.27,2.27,0,0,1-.68-.82,37,37,0,0,0,3.34,4,15.4,15.4,0,0,0,1.84,1.57c.45.32,1.51,1.22,2.11,1.13C528,890.83,524.6,888.51,524.22,888.27Z"/><path class="cls-4" d="M526.77,891.91c-1.77-1.52-4.05-2.4-5.89-3.84l1.22,1.44a9.81,9.81,0,0,0,1.73,1.72,10.22,10.22,0,0,0,1.47.82c.49.24,2,1.25,2.46,1.05C527.68,892.67,527.12,892.19,526.77,891.91Z"/><path class="cls-4" d="M521.45,890.24c.36.47.71.94,1.08,1.41a7.63,7.63,0,0,0,1.69,1.72,8.62,8.62,0,0,0,1.91.87c.45.16,2,1.06,2,.23s-1.19-1.23-1.73-1.53C524.72,892,522.86,891.46,521.45,890.24Z"/><path class="cls-4" d="M462,872.16a50.38,50.38,0,0,0,.57,8.83c.19,1.21.42,2.42.65,3.63l.67,3.53c.17.88.34,1.76.52,2.63a58.29,58.29,0,0,0,2.09,7.33"/><path class="cls-4" d="M466.19,894.25a9.22,9.22,0,0,0,2.71-5.25,11.36,11.36,0,0,0-2.77,4.32,11.75,11.75,0,0,1-.32,1.21A3.34,3.34,0,0,0,466.19,894.25Z"/><path class="cls-4" d="M466.43,891.71a11.73,11.73,0,0,0,1.68-6.55l-.94,1.7a16.71,16.71,0,0,0-1.52,3.32,7.23,7.23,0,0,0-.33,2.44c0,.54.24.38.51,0A6.86,6.86,0,0,0,466.43,891.71Z"/><path class="cls-4" d="M467.78,881.11a2.46,2.46,0,0,0,.11-1.08A20.66,20.66,0,0,1,466.5,883a13.37,13.37,0,0,0-.77,1.44,10,10,0,0,0-.35,1l-.43,1.45c-.19.66-.58,1.71-.23,2.37a5.44,5.44,0,0,0,1.06-1.86,21.27,21.27,0,0,0,.81-2C467.06,884,467.42,882.54,467.78,881.11Z"/><path class="cls-4" d="M465.45,883.84a17,17,0,0,0,1.84-4.82,8.37,8.37,0,0,0,0-2.32c-.75,1.53-1.5,3.07-2.14,4.65a16.39,16.39,0,0,0-.79,2.4,4.76,4.76,0,0,0-.18,2.48A13.81,13.81,0,0,0,465.45,883.84Z"/><path class="cls-4" d="M463.37,883.24c0-.94.1-2.62.07-3.56,0-.26,0-.52,0-.78a9.66,9.66,0,0,1,2.65-6.46,12.75,12.75,0,0,1-1.35,7.94c-.19.33-.41.65-.59,1a12.13,12.13,0,0,0-.76,1.88"/><path class="cls-4" d="M462.85,876.07l1.18-2.72a9.2,9.2,0,0,0,.8-2.45,7.89,7.89,0,0,0,0-1.64,29.34,29.34,0,0,0-.5-3.49,17.76,17.76,0,0,1-.68,2.49c-.6,2.33-.29,5.45-.78,7.8"/><path class="cls-4" d="M458.76,869.91a8.38,8.38,0,0,0-2.29-2.79,9,9,0,0,0,.36,2.47,9.28,9.28,0,0,0,.43,1l1.36,2.84a3.73,3.73,0,0,0,.55.91,3.62,3.62,0,0,0,.51.45,9.8,9.8,0,0,0,1.83,1.23c.19-.27-.17-1-.28-1.27a16.33,16.33,0,0,0-.71-1.67C460,872,459.38,871,458.76,869.91Z"/><path class="cls-4" d="M462.48,870c.35-2.16-.36-4.36-.3-6.54a10.48,10.48,0,0,0-1.23,6.39c.06.43.2,1.46.7,1.67S462.42,870.4,462.48,870Z"/><path class="cls-4" d="M459.33,876.47a35.71,35.71,0,0,0-5.47-4.74c.35.91.19,1.92.46,2.85a6.57,6.57,0,0,0,1,1.8,6.09,6.09,0,0,0,.68.88,5.39,5.39,0,0,0,.72.59,18.26,18.26,0,0,0,2.18,1.33c.44.23,1.78,1.1,2.28.94C462.41,879.73,459.72,876.88,459.33,876.47Z"/><path class="cls-4" d="M456.54,878.9,454,877a16.54,16.54,0,0,0,4.84,6.75c.57.48,1.93,1.47,2.77,1.23s.06-1.24-.23-1.61A25.4,25.4,0,0,0,456.54,878.9Z"/><path class="cls-4" d="M461.88,886.48a16.45,16.45,0,0,0-2.21-1.38,23.71,23.71,0,0,1-2.55-1.85l1.23,1.55c.31.4.63.79,1,1.16a9.45,9.45,0,0,0,2.91,2.18C463.65,888.68,462.28,886.81,461.88,886.48Z"/><path class="cls-4" d="M460.49,887.95a35.61,35.61,0,0,1-4.17-3.11,2.27,2.27,0,0,1-.68-.82,37,37,0,0,0,3.34,4,15.4,15.4,0,0,0,1.84,1.57c.45.32,1.51,1.22,2.11,1.13C464.26,890.51,460.87,888.19,460.49,887.95Z"/><path class="cls-4" d="M463,891.59c-1.77-1.52-4.05-2.4-5.89-3.84l1.22,1.44a9.81,9.81,0,0,0,1.73,1.72,10.22,10.22,0,0,0,1.47.82c.49.24,2,1.25,2.46,1.05C463.95,892.35,463.39,891.87,463,891.59Z"/><path class="cls-4" d="M457.72,889.92c.36.47.71.94,1.08,1.41a7.63,7.63,0,0,0,1.69,1.72,8.62,8.62,0,0,0,1.91.87c.45.16,2,1.06,2,.23s-1.19-1.23-1.73-1.53C461,891.71,459.13,891.14,457.72,889.92Z"/><path class="cls-6" d="M476.32,874.4a54.38,54.38,0,0,1-.91,7.55c-.2,1-.43,2.06-.66,3.09l-.67,3c-.17.75-.33,1.49-.51,2.24a60.29,60.29,0,0,1-1.86,6.19"/><path class="cls-7" d="M472.12,893.16a8.85,8.85,0,0,1-1.53-4.65,10.43,10.43,0,0,1,1.63,3.85c0,.35.06.71.14,1.06A2.42,2.42,0,0,1,472.12,893.16Z"/><path class="cls-7" d="M472.11,891a12.24,12.24,0,0,1-.75-5.71l.54,1.51a16.48,16.48,0,0,1,.84,2.93,7.76,7.76,0,0,1,.08,2.11c-.06.47-.19.32-.35,0A6.34,6.34,0,0,1,472.11,891Z"/><path class="cls-2" d="M471.82,881.79a2.64,2.64,0,0,1,0-.93,20.27,20.27,0,0,0,.77,2.58,12.81,12.81,0,0,1,.44,1.27c.08.3.13.61.18.92l.21,1.27a3.85,3.85,0,0,1,0,2,5.14,5.14,0,0,1-.61-1.65c-.17-.59-.31-1.19-.43-1.8C472.14,884.28,472,883,471.82,881.79Z"/><path class="cls-2" d="M473.24,884.25a17.17,17.17,0,0,1-1-4.23,9.06,9.06,0,0,1,.11-2c.42,1.36.84,2.72,1.18,4.11a16.88,16.88,0,0,1,.39,2.1,5.12,5.12,0,0,1,0,2.14A13.36,13.36,0,0,1,473.24,884.25Z"/><path class="cls-2" d="M474.7,883.84c.07-.81.09-2.26.16-3.06,0-.22,0-.45.05-.67a9.6,9.6,0,0,0-1.42-5.68,13.5,13.5,0,0,0,.45,6.89c.11.29.24.58.35.88a12.19,12.19,0,0,1,.41,1.65"/><path class="cls-2" d="M475.48,877.71l-.64-2.4a9.47,9.47,0,0,1-.4-2.15,8.54,8.54,0,0,1,.1-1.41c.14-1,.32-2,.55-3a18.58,18.58,0,0,0,.32,2.18c.27,2-.13,4.7.07,6.74"/><path class="cls-2" d="M478.64,872.64a7.07,7.07,0,0,1,1.73-2.28,9.65,9.65,0,0,1-.39,2.1c-.1.29-.23.56-.35.84l-1.1,2.37a3.42,3.42,0,0,1-.43.75,2.73,2.73,0,0,1-.38.36,6.78,6.78,0,0,1-1.32,1c-.11-.25.18-.83.26-1.08.17-.48.37-.94.58-1.39C477.67,874.36,478.15,873.5,478.64,872.64Z"/><path class="cls-2" d="M476.1,872.55c-.11-1.87.51-3.72.6-5.6a11.07,11.07,0,0,1,.46,5.55c-.06.37-.22,1.24-.57,1.4S476.11,872.86,476.1,872.55Z"/><path class="cls-2" d="M477.86,878.24a26.88,26.88,0,0,1,4-3.79c-.29.76-.24,1.64-.48,2.43a6.21,6.21,0,0,1-.76,1.49,5.24,5.24,0,0,1-.52.72,4,4,0,0,1-.53.47,12.26,12.26,0,0,1-1.57,1c-.32.17-1.28.85-1.61.69C475.56,880.88,477.57,878.57,477.86,878.24Z"/><path class="cls-2" d="M479.62,880.47l1.83-1.53a14.5,14.5,0,0,1-3.7,5.54c-.42.38-1.4,1.16-2,.92s0-1.07.25-1.37A19.45,19.45,0,0,1,479.62,880.47Z"/><path class="cls-2" d="M475.52,886.7a11.14,11.14,0,0,1,1.59-1.07,16.82,16.82,0,0,0,1.85-1.46l-.93,1.27c-.24.32-.47.65-.74.94a6.77,6.77,0,0,1-2.12,1.72C474.19,888.51,475.23,887,475.52,886.7Z"/><path class="cls-2" d="M476.38,888a25.48,25.48,0,0,0,3-2.46,1.91,1.91,0,0,0,.52-.67,31,31,0,0,1-2.52,3.26,11.54,11.54,0,0,1-1.35,1.25c-.32.25-1.1,1-1.5.86C473.66,890,476.11,888.22,476.38,888Z"/><path class="cls-7" d="M474.42,891c1.3-1.21,2.91-1.85,4.25-3l-.92,1.17a7.74,7.74,0,0,1-1.28,1.39,6.68,6.68,0,0,1-1.05.63c-.35.18-1.41,1-1.74.78A2.21,2.21,0,0,1,474.42,891Z"/><path class="cls-7" d="M478.15,889.88l-.82,1.16a6.06,6.06,0,0,1-1.25,1.39,5.37,5.37,0,0,1-1.35.65c-.32.12-1.42.81-1.35.09s.88-1,1.27-1.23A17.54,17.54,0,0,0,478.15,889.88Z"/><path class="cls-8" d="M494.62,536.26s2.49-4.74,8.62-3.37c0,0-1.75,5.88,2,7.13s9.63-.31,12.25,5.13c0,0,3.38-6.19-2.06-8.75s-6.31-9.37-12.19-3.5"/><path class="cls-8" d="M503.24,532.89s13.84,4.09,14.25,12.25"/><path class="cls-9" d="M514.2,538.82s-3-.44-2.47,2"/><path class="cls-9" d="M510.75,536.28s-4.42-.2-4,4.1"/><path class="cls-9" d="M506.57,534.14s-2.95,1.35-3.33,4"/><path class="cls-9" d="M515.12,539.81s1.78-1.92,3.26,0"/><path class="cls-9" d="M515.12,536.24s-2.84-1-3.13.85"/><path class="cls-9" d="M510.22,532.11s-3-1.72-3.23,2"/><path class="cls-9" d="M655.25,262.52h.23s-.65,12.58,7.45,13.26,19.07-5.29,26.95,4.3c0,0,3.74-14-8.36-16.48s-17.15-15.67-26-1.09"/><path class="cls-8" d="M639.9,273.42s2.65-10.56,15.35-10.9"/><path class="cls-8" d="M655.48,262.52s29.63,1.47,34.4,17.56"/><path class="cls-9" d="M680.65,269.37s-6.16.56-4,5.21"/><path class="cls-9" d="M672.13,265.65s-8.93,1.74-6,10.12"/><path class="cls-9" d="M682.56,270.59s2.63-4.7,6.52-1.58"/><path class="cls-9" d="M680.83,263.45s-6.17-.65-5.83,3.21"/><path class="cls-9" d="M669,257.57s-7.29-1.66-6,5.88"/><path class="cls-9" d="M655.69,320.1a12.4,12.4,0,0,1,1.86,5.72s-10.18,1.79-7.08,9.28,12.45,11.25,12.8,14.4c0,0,9.58-14.76,5.29-20.59s-11-3.09-11-3.09,5.72,9.17,5.72,23.69"/><path class="cls-9" d="M669,329.68s-7.21-4.19-9,1.54"/><path class="cls-9" d="M661.43,335.54s-7.14-4.42-9,3"/><path class="cls-9" d="M667.75,340.86s-2.85-3.59-5.17,0"/><path class="cls-9" d="M663.16,346s-1.59-1.14-2,.64"/><path class="cls-5" d="M640.21,324s1.64-2.09,2.5-1.29"/><path class="cls-10" d="M591.08,398.36l4.59,8.23s-4.59,1.78-4.35,5.82,4.35,8.31,4.48,10.08,6.37-6.89,6.78-8.43c.83-3.07,2.69-8.59-6.91-7.47"/><path class="cls-10" d="M595.67,406.94s5.28,3.33.26,16.12"/><path class="cls-5" d="M603.15,409.79s-3.19-2.25-5.35.89"/><path class="cls-11" d="M627.7,390.07s4.14,4.22,6.72,4c0,0-1-6.12,4.19-5.41s11.27-.82,11.65-3.25c0,0,1.36,12.29-5.48,12.51a13.54,13.54,0,0,1-10.37-3.85"/><path class="cls-12" d="M634.42,394.06s13.74,1.19,15.85-8.66"/><path class="cls-10" d="M641.09,397.6s4.79-1.62-1.78-3.74"/><path class="cls-10" d="M636,393.84s5.52-2.6-.54-4.35"/><path class="cls-10" d="M647.53,396.94s2.6-4-1.85-5.18"/><path class="cls-10" d="M642.35,393.21s4.4-3.32-.47-4.39"/><path class="cls-5" d="M598.37,415.56s-2.9-2.56-5.46,1.05"/><path class="cls-13" d="M567.28,399.92c5.48,1.47,11.24.65,15.93,0L606,396.64c7.08-1,15.1-2.16,21.24-6,6-3.76,10-11.13,6.29-17.94-2.86-5.22-9.16-8.25-14.94-10.52a1.26,1.26,0,0,0-1.62.5,1.11,1.11,0,0,0,.75,1.43c5.31,2.09,11.08,4.83,13.54,9.33,3.13,5.73-.57,12.22-5.64,15.42-5.7,3.6-13.43,4.71-20.26,5.68l-22.74,3.26c-4.78.68-10.73,1.53-15.93-.26-3.48-1.2-6.42-3.49-9.27-5.69l-8.5-6.59a1.41,1.41,0,0,0-1.78,0,1,1,0,0,0,.17,1.52l8.5,6.59c2.89,2.24,6.17,4.78,10.12,6.15Q566.58,399.73,567.28,399.92Z"/><path class="cls-14" d="M544.45,394.85s-3.47-11.22,4.88-12.37"/><path class="cls-8" d="M544.19,391s6.22-3.31,4.34-7.4"/><path class="cls-5" d="M502.09,458.25a16.45,16.45,0,0,0-11.26,3.06c-5.72,4-11.07,7.53-13.46,12.2,0,0-.6,1.51.36,2.26s3.81,5.08,1.14,6.65-3.9-.21-6.79-3.69c0,0-1-.93-2,.38s-4.3,2.55-1.72,7.92.79,6.27.79,6.27-1.07,2-4.93.14c0,0-6.22,6.49,1.23,12.31,4.4,3.44,5.49,1.07,7.19,1.69a3.87,3.87,0,0,1,2.64,4.81l23.2-49s1,.1.72,2.1-9.71,31.12-20.32,48.43a2.41,2.41,0,0,1,2.5.53c1,1.09,1.42,3.68,1.48,4a2.3,2.3,0,0,0,2.31,1.92c1.86,0,5.89.39,8.94-1.86s6.13-6.36,6.19-8.79-2.11-5.61-1.35-6.17,1.75-2.28,3.91-2.21,6-1.52,4.21-3.89-1.3-4.42-4.23-4.07-3.63-6.38-1.16-6.39,4.67-.14,6.46,1.24,4.55-1.82,3.82-4.65-1.55-6.25-.88-7.89S511.9,460.94,502.09,458.25Z"/><path class="cls-15" d="M497.93,464.66s-5.38,14-6.4,14.85-6.79,16.37-7.62,17.35-4.78,11-5.7,12-6.59,11.18-6.92,12,1.85,1.07,1.85,1.07,14.51-27.37,14.73-28.7a65.56,65.56,0,0,1,4-9C492.18,483.82,500.84,466.44,497.93,464.66Z"/><polygon class="cls-15" points="491.89 479.03 487.76 468.81 488.48 468.05 492.35 478.16 491.89 479.03"/><path class="cls-15" d="M486.48,491l-4.35-10.1s0-.75.7-.41,4,9.63,4,9.63Z"/><path class="cls-15" d="M480.63,503.9l-4.92-13s-.24-1.39.83-.35S481,503,481,503Z"/><path class="cls-15" d="M481.59,505.83,495.78,504s.78-.09.57-.6-.79-.49-1.05-.49-13.05,1.62-13.05,1.62Z"/><path class="cls-15" d="M487.39,494.38l10.91-2.74s1.4-.85-.22-.8S488,492.74,488,492.74"/><path class="cls-15" d="M494.65,478.39s7.7-2.38,9.46-2.1-10,3.32-10,3.32Z"/><path class="cls-15" d="M455.81,489.3c9.33,1.46,13.33,9.46,14.33,17.46,0,1,2-1,3-3,4,3,0,7,2,10,1,1,4,1,3,5s-7,1-7,6c-6-10-7-22-14-31,4,10,7,21,11,31,0,2-5,5-8,2-3-6-10-13-3-18-8,0-7-8-6.11-14.26C451.66,492.25,453,490,455.81,489.3Z"/><path class="cls-15" d="M458.15,493.42c4,12.34,9,23.34,14,35.34-6-9-9-18-12.94-28.42C458.14,497.13,457.32,493.93,458.15,493.42Z"/><path class="cls-15" d="M461.61,503.39c-1.47-2.63,4.53-3.63,1.53-7.63-1,2-1,5-1.8,7Z"/><path class="cls-15" d="M464.73,511.78c.41-2,2.41-4,2.41-7-2,1-1,4-2.61,6.43Z"/><path class="cls-15" d="M468,519.9c-2.89-3.14,5.11-4.14,2.11-8.14,0,3-3,5-2.32,7.64Z"/><path class="cls-15" d="M467.47,520.9c-3.33-1.14-5.33-1.14-8.33-2.14,3-1,5,2,8,1.42Z"/><path class="cls-15" d="M464.22,513.82c-2.08-.06-4.08-2.06-6.08-3.06,2,0,4,2,5.73,2"/><path class="cls-15" d="M460,502.74s-4.39-2.19-5.39-2.15,5.71,3,5.71,3Z"/><path class="cls-14" d="M433.92,775.63a195.38,195.38,0,0,0,5,32.14c1.06,4.38,2.27,8.73,3.48,13.08l3.54,12.7c.88,3.16,1.76,6.32,2.71,9.46,2.7,8.9,19.72,52.5,23.51,61"/><path class="cls-4" d="M456.09,855.05a35,35,0,0,0,7.58-20.21c-3.53,5.19-7.15,10.61-8.11,16.81a45.49,45.49,0,0,1-.68,4.54A11.83,11.83,0,0,0,456.09,855.05Z"/><path class="cls-4" d="M456.06,845.67c3.13-7.79,5.05-16.33,3.57-24.59L457,827.65a63.81,63.81,0,0,0-4.14,12.7,28.12,28.12,0,0,0-.29,9.05c.31,2,1,1.32,1.78-.06A25.79,25.79,0,0,0,456.06,845.67Z"/><path class="cls-4" d="M457.1,806.37a9.55,9.55,0,0,0,0-4,78.81,78.81,0,0,1-3.8,11.2,50.69,50.69,0,0,0-2.19,5.54,38.35,38.35,0,0,0-.86,4l-1,5.46c-.45,2.48-1.43,6.47,0,8.77,1.56-1.61,2.32-5.06,3-7.18.84-2.55,1.53-5.16,2.12-7.78C455.58,817.08,456.35,811.72,457.1,806.37Z"/><path class="cls-4" d="M450,817.19c2.16-5.94,4.35-12,4.71-18.3a32.54,32.54,0,0,0-.63-8.5c-2.08,5.89-4.16,11.78-5.82,17.8a63.21,63.21,0,0,0-1.91,9.06c-.31,2.55-1,6.78.23,9.13C448.18,823.77,448.93,820.09,450,817.19Z"/><path class="cls-4" d="M442.57,815.71c-.41-3.43-.55-9.64-1-13.07-.12-1-.23-1.9-.31-2.86a36.93,36.93,0,0,1,7-24.59c2,9.83,2,20.36-2,29.55-.56,1.28-1.19,2.53-1.71,3.83a46.53,46.53,0,0,0-2,7.14"/><path class="cls-4" d="M438.32,789.62l3.14-10.37a35.48,35.48,0,0,0,1.92-9.26,30.65,30.65,0,0,0-.58-6,113.3,113.3,0,0,0-2.93-12.61c0,3.17-1,6.24-1.51,9.38-1.3,8.73.86,20.08,0,28.87"/><path class="cls-4" d="M422.06,768.54c-2.49-3.57-5.11-7.24-8.87-9.42a26.17,26.17,0,0,0,3.91,12.43q2.83,5,5.67,9.91a13.71,13.71,0,0,0,2.21,3.12,12.66,12.66,0,0,0,1.93,1.46,33.64,33.64,0,0,0,6.75,3.86c.57-1.07-.94-3.53-1.39-4.56a61.4,61.4,0,0,0-3-5.85C427.06,775.7,424.56,772.11,422.06,768.54Z"/><path class="cls-4" d="M435,767.66c.47-8-2.74-15.83-3.28-23.86a40.6,40.6,0,0,0-2.07,23.85c.34,1.57,1.18,5.26,3,5.88S434.88,769,435,767.66Z"/><path class="cls-4" d="M426.27,792.34a124.91,124.91,0,0,0-20.56-15.42c1.53,3.2,1.32,7,2.57,10.29a24.38,24.38,0,0,0,3.95,6.24,22,22,0,0,0,2.65,3,18.77,18.77,0,0,0,2.7,1.9,62.27,62.27,0,0,0,8,4.1c1.61.68,6.53,3.38,8.21,2.64C438.05,803.18,427.75,793.71,426.27,792.34Z"/><path class="cls-4" d="M417.42,802.23l-9.36-6.2a60.15,60.15,0,0,0,19.06,23c2.14,1.55,7.19,4.69,10,3.53,2.58-1.05-.21-4.55-1.33-5.83C430.65,810.87,423.88,806.51,417.42,802.23Z"/><path class="cls-4" d="M438.52,828.1c-2.47-1.8-5.38-2.9-8.11-4.28a81.82,81.82,0,0,1-9.48-5.89l4.79,5.25c1.22,1.34,2.44,2.68,3.78,3.89,2.87,2.6,7.08,5.8,10.83,6.94C445.38,835.55,440,829.18,438.52,828.1Z"/><path class="cls-4" d="M434.21,834a123.13,123.13,0,0,1-15.51-9.92,8.17,8.17,0,0,1-2.65-2.78A132.78,132.78,0,0,0,429,834.76a53.82,53.82,0,0,0,6.9,5.1c1.65,1,5.64,4,7.68,3.4C448.13,842,435.59,834.72,434.21,834Z"/><path class="cls-4" d="M444.3,846.42c-6.66-4.92-14.86-7.36-21.73-12l4.72,4.83a26,26,0,0,0,11.94,8.17c1.78.7,7.21,3.9,8.88,3C447.69,848.88,445.61,847.31,444.3,846.42Z"/><path class="cls-4" d="M425.29,842.2c1.4,1.6,2.79,3.2,4.22,4.78a27,27,0,0,0,6.44,5.69,29,29,0,0,0,6.9,2.5c1.62.44,7.25,3.19,6.85.14-.34-2.6-4.53-4.09-6.53-5C437.22,847.6,430.6,846.16,425.29,842.2Z"/><path class="cls-16" d="M408.42,676.24c7.48,0,14.52-3.11,20.27-5.66l27.83-12.31c8.66-3.83,18.48-8.17,25-15.44,6.29-7,9-18.19,1.89-25.85-5.41-5.86-14.46-7.63-22.6-8.58a1.67,1.67,0,0,0-1.89,1.24,1.5,1.5,0,0,0,1.44,1.63c7.47.87,15.74,2.45,20.41,7.51,5.94,6.44,3.44,16.29-1.92,22.3-6,6.75-15.49,10.94-23.84,14.63L427.14,668c-5.85,2.59-13.13,5.81-20.36,5.28-4.84-.36-9.36-2.32-13.74-4.22L380,663.4a1.81,1.81,0,0,0-2.26.63,1.35,1.35,0,0,0,.74,1.94l13.06,5.67c4.45,1.93,9.49,4.12,15,4.53Q407.46,676.24,408.42,676.24Z"/><path class="cls-5" d="M454.9,677.91s-6-1.84-8.09,3.06"/><path class="cls-5" d="M448.63,686.51s-5.68-2.35-8.2,3.31"/><path class="cls-5" d="M449,692.3s2.6-3,4-1.86"/><path class="cls-11" d="M494.89,645.5l.23-.06s-4.2-7.7,4.34-8.6,17.49-5.05,17.06-8.39c0,0,7.36,15.7-3.37,18.41s-18-1.41-18-1.41"/><path class="cls-1" d="M494.89,645.5"/><path class="cls-1" d="M482.8,642.55"/><path class="cls-12" d="M495.12,645.43s22.25-3.28,21.41-17"/><path class="cls-10" d="M507.18,647.74s6.9-3.82-4.39-4.3"/><path class="cls-12" d="M497.49,644.59s7.63-5.37-2.7-5.53"/><path class="cls-10" d="M517.09,644.59s2.42-6.19-5.12-6.16"/><path class="cls-10" d="M507.31,641.51s5.56-5.92-2.6-5.61"/><path class="cls-12" d="M430.6,666.73l10.75,9.22s-6.51,4-4.41,9.2,10.41,9.4,11.36,11.69,7.15-11.32,7.15-13.5c0-4.33.62-12.26-14.1-7.39"/><path class="cls-12" d="M441.35,675.95s9.77,2.52,7.24,21.14"/><path class="cls-10" d="M500.8,560.6a7.59,7.59,0,0,0-1.83-.76c-1.56-.39-3.67-.27-4.45,2.86a10.59,10.59,0,0,1-1.39-2.4c-1.7-4.1,2.29-5.76,4.11-6.3.51-.14.85-.2.85-.2a23.44,23.44,0,0,1,1.74,3.77h0A30.1,30.1,0,0,1,500.8,560.6Z"/><path class="cls-12" d="M495.86,549.36s2.19,2.36,2.23,4.44c0,0-.34.06-.85.2"/><path class="cls-10" d="M502,570a1.33,1.33,0,0,1,.12.42Z"/><path class="cls-10" d="M505.23,564.32a40.44,40.44,0,0,1-3.14,6.06c0-.85,0-1.68-.08-2.48-.08-1.27-.22-2.46-.4-3.58C503.23,561.81,505.23,564.32,505.23,564.32Z"/><path class="cls-10" d="M506.11,556.49s-5-2.92-6.28,1.08a23.44,23.44,0,0,0-1.74-3.77s4.71-1.92,7.71,2.17A3.4,3.4,0,0,1,506.11,556.49Z"/><path class="cls-10" d="M505.23,564.32s-2-2.51-3.62,0a34.73,34.73,0,0,0-.81-3.72,30.1,30.1,0,0,0-1-3h0c1.24-4,6.28-1.08,6.28-1.08C507.1,558.49,506.34,561.57,505.23,564.32Z"/><path class="cls-10" d="M502.09,570.38a8.16,8.16,0,0,0-1.7-2,38.4,38.4,0,0,1-5.87-5.65c.78-3.13,2.89-3.25,4.45-2.86a7.59,7.59,0,0,1,1.83.76,34.73,34.73,0,0,1,.81,3.72c.18,1.12.32,2.31.4,3.58Z"/><path class="cls-10" d="M526.73,607.6a7.59,7.59,0,0,0-1.83-.76c-1.56-.39-3.67-.27-4.45,2.86a10.59,10.59,0,0,1-1.39-2.4c-1.7-4.1,2.29-5.76,4.11-6.3.51-.14.85-.2.85-.2a23.44,23.44,0,0,1,1.74,3.77h0A30.1,30.1,0,0,1,526.73,607.6Z"/><path class="cls-12" d="M521.79,596.36s2.19,2.36,2.23,4.44c0,0-.34.06-.85.2"/><path class="cls-10" d="M527.9,617a1.33,1.33,0,0,1,.12.42Z"/><path class="cls-10" d="M531.16,611.32a40.44,40.44,0,0,1-3.14,6.06c0-.85,0-1.68-.08-2.48-.08-1.27-.22-2.46-.4-3.58C529.16,608.81,531.16,611.32,531.16,611.32Z"/><path class="cls-10" d="M532,603.49s-5-2.92-6.28,1.08A23.44,23.44,0,0,0,524,600.8s4.71-1.92,7.71,2.17A3.4,3.4,0,0,1,532,603.49Z"/><path class="cls-10" d="M531.16,611.32s-2-2.51-3.62,0a34.73,34.73,0,0,0-.81-3.72,30.1,30.1,0,0,0-1-3h0c1.24-4,6.28-1.08,6.28-1.08C533,605.49,532.27,608.57,531.16,611.32Z"/><path class="cls-10" d="M528,617.38a8.16,8.16,0,0,0-1.7-2,38.4,38.4,0,0,1-5.87-5.65c.78-3.13,2.89-3.25,4.45-2.86a7.59,7.59,0,0,1,1.83.76,34.73,34.73,0,0,1,.81,3.72c.18,1.12.32,2.31.4,3.58Z"/><path class="cls-16" d="M519.84,597.82a57.5,57.5,0,0,1-14.16,6.8c-1.46.52-2.92,1-4.41,1.46l-1.88.58-1.86.56c-2,.58-4,1.14-5.9,1.68l-31.47,8.82c-6.49,1.83-14.45,4.06-22.89,4.06-.73,0-1.45,0-2.18-.05-1.68-.08-3.36-.26-5-.5-1.84-.27-3.62-.63-5.36-1-.64-.13-1.27-.29-1.9-.46l-1.9-.49c-.95-.25-1.87-.51-2.78-.76l-14.77-4.07a12.24,12.24,0,0,1-1.15-.43s-5.12-2.83.67-3.71c3.56-.54,3-.33,3-.33v.94s-3.34,1-.74,1.69l14.76,4.06,1.05.29,1.9.51c.63.18,1.26.34,1.9.5,1.75.45,3.54.84,5.36,1.14a44.68,44.68,0,0,0,5.32.6c8.15.38,16.39-1.93,23-3.78l31.44-8.83c2.45-.69,5-1.41,7.54-2.17l1.86-.56,1.88-.6c1.45-.48,2.88-1,4.28-1.5a50,50,0,0,0,11.4-5.66c6-4.31,8.88-11.38,2.18-16-4-2.77-10.43-4.09-17-4.83l-2.45-.26-1.9-.17-1.75-.13-.19,0c0-.66-.07-1.32-.12-2a3.62,3.62,0,0,1,.82,0l1.11.08,1.9.17,2.25.22c7.63.8,15.31,2.27,20.29,5.68C530,584.78,527,592.77,519.84,597.82Z"/><path class="cls-17" d="M487.87,646.19c-1.87,0-7.08-2-7.3-2.11l.36-.93c1.46.56,5.54,2,6.94,2,2.94,0,6.25-.12,6.5-.23l.53.83C494.93,645.88,494.59,646.15,487.87,646.19Z"/></g></g></svg>