<svg xmlns="http://www.w3.org/2000/svg" xmlns:xlink="http://www.w3.org/1999/xlink" viewBox="0 0 320.86 717.9"><defs><style>.cls-1,.cls-10,.cls-13,.cls-14,.cls-15,.cls-3,.cls-8{fill:none;}.cls-2,.cls-4{fill:#003abf;}.cls-10,.cls-12,.cls-13,.cls-14,.cls-15,.cls-3,.cls-4,.cls-5,.cls-7,.cls-8,.cls-9{stroke:#003abf;}.cls-10,.cls-13,.cls-3,.cls-4,.cls-5,.cls-7,.cls-9{stroke-miterlimit:10;}.cls-3,.cls-4,.cls-7{stroke-width:0.25px;}.cls-11,.cls-12,.cls-5,.cls-6,.cls-7,.cls-9{fill:#fff;}.cls-5{stroke-width:0.5px;}.cls-11,.cls-12,.cls-15,.cls-8{stroke-linecap:round;}.cls-11,.cls-12,.cls-14,.cls-15,.cls-8{stroke-linejoin:round;}.cls-8{stroke-width:2px;}.cls-11{stroke:url(#Nouvelle_nuance_de_motif_7);}.cls-13,.cls-14,.cls-15{stroke-width:0.75px;}</style><pattern id="Nouvelle_nuance_de_motif_7" data-name="Nouvelle nuance de motif 7" width="70.33" height="70.33" patternTransform="translate(70.33 -68.49)" patternUnits="userSpaceOnUse" viewBox="0 0 70.33 70.33"><rect class="cls-1" width="70.33" height="70.33"/><rect class="cls-2" width="70.33" height="70.33"/></pattern></defs><title>arbre-droit</title><g id="Calque_2" data-name="Calque 2"><g id="Calque_1-2" data-name="Calque 1"><path class="cls-3" d="M228.57,633.7c0,.07,0,.14,0,.2"/><path class="cls-4" d="M28,.66C20.34,4.72,14.76,12,15.1,22.24c.28,8.33,5.77,15.72,12.56,20.22s14.81,6.56,22.7,8.4c5.89,1.38,11.89,2.7,17.22,5.61s10,7.69,11.45,13.74c1.92,8.16-2.05,18,3.15,24.49a12.53,12.53,0,0,0,3.7,3,25.18,25.18,0,0,0,4.44,1.87,65.34,65.34,0,0,0,21.57,2.83c2.44-.07,4.89-.24,7.34-.5,9.8-1,19.65-3.38,29.25-5.58,19.18-4.43,40-8.1,57.9.27a29.36,29.36,0,0,1,7.65,4.93c5.5,5.13,8,12.74,10.26,20q3.3,10.53,6.58,21.06A62.86,62.86,0,0,0,235,153.51c4,7.53,10.82,12.95,16.81,18.91s9.78,13.67,11.81,22c.38,1.56.74,3.14,1.09,4.71l.23,1,.68,3.2.23,1.06a294.72,294.72,0,0,1,4.57,31.72q.61,6.7,1,13.42c2.28,43.93-3.35,88.63-8.29,133.19-1.73,15.61-3.38,31.2-4.57,46.73,0,.23,0,.45-.05.68-1.25,16.54-2,33.22-2.55,49.93,0,.73-.05,1.45-.07,2.19-.32,10-.59,20.12-.88,30.18l-.06,2.43c-.05,1.66-.09,3.32-.15,5l-.06,2.18c-.3,10.11-.64,20.23-1.07,30.32,0,.81-.07,1.6-.11,2.41h0c-1,22.36-1.49,44.77-5.57,66.5-5.32,28.38-15.74,68.5-24.49,95.61h73.41V1.1S29.74-.28,28,.66Zm229,481.46.06-2.07"/><path class="cls-5" d="M28,.68c-18.79,27.22,14.8,38,21.49,39.17A112.68,112.68,0,0,1,86.94,53.27c5,2.79,9.42,7.37,10.75,13.16,1.8,7.82-1.93,17.28,3,23.46,1.92,2.41,4.8,3.72,7.64,4.67,17.59,5.89,36.58,1.11,54.59-3.1s37.54-7.76,54.35.26a27.51,27.51,0,0,1,7.18,4.72c5.17,4.91,7.5,12.2,9.63,19.17q3.1,10.09,6.17,20.17a61,61,0,0,0,3.91,10.45c3.77,7.21,10.16,12.4,15.78,18.11s9.18,13.09,11.09,21.07c.35,1.5.69,3,1,4.51l.22,1,.64,3.06.22,1a287.68,287.68,0,0,1,4.29,30.38q.57,6.42.9,12.85c2.14,42.08-3.14,84.89-7.78,127.56-1.62,14.95-3.17,29.88-4.29,44.76,0,.22,0,.43,0,.65C265,427,264.28,443,263.75,459c0,.7,0,1.39-.07,2.09-.3,9.62-.56,19.27-.82,28.9l-.06,2.33c0,1.59-.09,3.18-.14,4.77l-.06,2.08c-.28,9.69-.6,19.37-1,29,0,.77-.07,1.54-.11,2.31h0c-1,21.42-2.45,42.71-5.23,63.69-3.61,27.31-23.15,96.8-32.78,122.64h78.71L302,.25ZM264.68,461m.06-2"/><path class="cls-2" d="M311.26,487.14l-7.76,3.93c-.48.24-1,.49-1.46.73l-1,.47c-.33.16-.66.31-1,.44a19.69,19.69,0,0,1-2.82,1,15.31,15.31,0,0,1-2.62.48,10.89,10.89,0,0,1-1.14,0c-4.44,0-8.63-2.15-12-3.92l-16.54-8.52c-1-.52-2.06-1.06-3.1-1.62l-1-.54-1-.56c-.78-.45-1.55-.91-2.32-1.41a28.74,28.74,0,0,1-7.44-6.57c-3.74-4.88-5.33-12.6-1.13-17.91,2.62-3.3,6.66-4.72,10.67-5.49l1.18-.21,1-.16.58-.08a1,1,0,0,1,.43,0c0,.64-.05,1.28-.06,1.92l-.1,0-.92.13-1,.16-1.29.25c-3.44.72-6.8,2-8.92,4.67-3.53,4.45-2,11.28,1.14,15.44a25.59,25.59,0,0,0,6,5.47c.74.51,1.49,1,2.25,1.45l1,.58,1,.54c1.33.74,2.67,1.43,4,2.1l16.53,8.53c3.48,1.79,7.81,4,12.1,3.65a13.31,13.31,0,0,0,2.79-.58,21.09,21.09,0,0,0,2.82-1.1c.34-.15.67-.31,1-.48l1-.49.55-.28,7.76-3.92a1,1,0,0,1,1.35.43A1,1,0,0,1,311.26,487.14Z"/><path class="cls-2" d="M192.54,144.81a12.62,12.62,0,0,1-4.68-7.63c-1.09-5.24-2.22-10-1.09-13.9,0,0,.46-1.16,1.39-1.07s4.8-.83,4.13-3.11-2.28-1.94-5.73-1.51c0,0-1,0-.94-1.29s-1.06-3.69,3.21-5.33,3.74-3.09,3.74-3.09.46-1.68-2.67-2.67c0,0,0-5.19,7.16-6.23s.12.12.12.12,1.72-.3,4.22,1.41a3.84,3.84,0,0,0,4.57,0l-12.86,39.58s.59.45,1.51-.79,11-22.48,14.15-37.73a1.85,1.85,0,0,0,1.67,1,6.87,6.87,0,0,0,2.92-1.44,1.76,1.76,0,0,1,2.3.14c1.06,1,3.49,2.88,4,5.75s.07,6.78-1.17,8.16-4.13,2-4,2.73-.22,2.19,1,3.29,2.56,4,.3,4.39-3,1.78-4.5,0-5.38,1.65-4,3,2.53,2.53,4.26,2.71,1.58,3.41-.32,4.61-4.15,2.67-4.64,3.94S199.44,148.47,192.54,144.81Z"/><path class="cls-6" d="M193.6,139s4.39-10.67,4.25-11.66,4.83-12.71,4.88-13.7,3.1-8.63,3.14-9.71,2.2-9.71,2.44-10.32,1.59.38,1.59.38-6.31,22.91-6.88,23.77a50.3,50.3,0,0,0-2.54,7.14C200.47,125.32,196.15,139.58,193.6,139Z"/><polygon class="cls-6" points="197.78 127.84 190.1 131.37 190.1 132.16 197.59 128.56 197.78 127.84"/><path class="cls-6" d="M201.08,118.3l-7.74,3.34s-.37.44.18.6,7.31-3.27,7.31-3.27Z"/><path class="cls-6" d="M204.59,108,195,112.69s-.86.65.28.63,9.06-4.61,9.06-4.61Z"/><path class="cls-6" d="M206.14,107.46l7,8.47s.39.46,0,.63-.7-.14-.84-.28-6.43-7.77-6.43-7.77Z"/><path class="cls-6" d="M203.36,116.9l4.65,7.27s.33,1.21-.55.33-4.62-6.38-4.62-6.38"/><path class="cls-6" d="M199,129.65s3,5.38,4.18,6.15-3.84-7.12-3.84-7.12Z"/><path class="cls-2" d="M259.07,620.86a12.62,12.62,0,0,1,7.78,4.43c3.48,4.07,6.77,7.72,7.65,11.65,0,0,.16,1.24-.7,1.61s-3.81,3-2.12,4.72,2.94.6,5.75-1.44c0,0,.9-.5,1.44.68s2.7,2.72-.25,6.21-1.79,4.51-1.79,4.51.41,1.69,3.63,1.05c0,0,3.22,3.5-3.44,8.86-.87.7-1.36,1.09-4.38.8a3.84,3.84,0,0,0-4,2.18l-7.81-40.88s-.74-.11-.94,1.42,1.23,25,5.78,39.88a1.85,1.85,0,0,0-2-.08,6.87,6.87,0,0,0-1.86,2.67,1.76,1.76,0,0,1-2.08,1c-1.39-.33-4.45-.84-6.28-3.1s-3.33-5.91-2.91-7.72,2.65-3.76,2.19-4.32-.86-2-2.48-2.4-4.17-2.28-2.38-3.7,1.81-3,3.92-2.21,3.92-4,2.09-4.52-3.44-1-5-.32-3-2.23-1.94-4.19,2.35-4.34,2.17-5.69S251.26,621,259.07,620.86Z"/><path class="cls-7" d="M260.92,626.42s1.3,11.46,1.9,12.26,1.89,13.47,2.33,14.35,1.45,9.05,1.93,10,13,53.19,13.11,53.84-5,0-5,0-12.37-66.3-12.28-67.32a50.3,50.3,0,0,0-1.21-7.48C261.51,641.76,258.42,627.18,260.92,626.42Z"/><polygon class="cls-6" points="262.65 638.26 267.68 631.46 267.29 630.76 262.48 637.53 262.65 638.26"/><path class="cls-6" d="M264.36,648.2l5.18-6.66s.11-.56-.44-.44-4.83,6.38-4.83,6.38Z"/><path class="cls-6" d="M266.23,658.9l6.15-8.7s.44-1-.55-.42-5.72,8.41-5.72,8.41Z"/><path class="cls-6" d="M265.15,660.14l-10.2-4.06s-.56-.22-.31-.56a.76.76,0,0,1,.88-.16c.19.06,9.38,3.71,9.38,3.71Z"/><path class="cls-6" d="M263,650.52l-7.58-4.13s-.88-.9.32-.56,7.12,3.36,7.12,3.36"/><path class="cls-6" d="M260.72,637.25s-5.27-3.25-6.62-3.38,6.8,4.39,6.8,4.39Z"/><path class="cls-2" d="M266,288.46a6.51,6.51,0,0,1,.73-10.06c.71-.71-3.79-.24-2.42-2.42.71-.71,2.18-1.37,2.89-2.08-.76,0-2.32-.9-1.61-1.61l4.4-2c0,.76-.71.71-1.47.66l3.79.24c-1.17,5.21-3.91,9.56-5.85,14.72,3.55-3.55,5.48-8.71,7.41-13.87.86,1.56,2.93-1.32,3.84,1a8,8,0,0,1-5.43,9.46,3.1,3.1,0,0,1,1.56.86c.86,1.56-1.32,2.93-2.33,3.34C271.25,287.2,268.5,290,266,288.46Z"/><path class="cls-6" d="M266.49,286.21c3.39-5.34,4.47-12.07,7.16-17.18-.47,4.5-2.5,8.14-4,11.87C269.65,281,267.44,286.44,266.49,286.21Z"/><path class="cls-6" d="M268.49,282c-.73,1-3.1-.63-3,1.65.71-.71,2.23-.61,2.85-1.37Z"/><path class="cls-6" d="M270.16,278.38c-1.13.92-3.55-1.5-3.35,1.53a3.51,3.51,0,0,1,3.23-1.28Z"/><path class="cls-6" d="M271.85,274.49c-1.59.36-2.3,1.07-3.77,1.73,1.56.86,2.18-1.37,3.66-1.47Z"/><path class="cls-6" d="M272.49,274.31c.79.74,2.4,2.35,2.5,3.87-.81-.81-1.66-2.37-2.64-3.46Z"/><path class="cls-6" d="M271.12,277.9c.89.84,1,2.35,1.79,3.16-1.52-.1-1.61-1.61-2-2.7"/><path class="cls-6" d="M268.89,282.67a12.82,12.82,0,0,0,1.39,2.42c.41.32-1.22-2.78-1.22-2.78Z"/><path class="cls-2" d="M253.75,415.42a6.51,6.51,0,0,1,5.56,8.42c-.13,1,3.15-2.12,3.39.44-.13,1-.89,2.41-1,3.41.63-.42,2.39-.7,2.26.29l-2.28,4.25c-.5-.57.13-1,.76-1.42l-3.15,2.12c-2.25-4.84-2.73-10-4.34-15.23-.65,5,1,10.24,2.58,15.51-1.63-.72-1.52,2.84-3.65,1.55A8,8,0,0,1,252.39,424a3.1,3.1,0,0,1-1.76.28c-1.63-.72-.74-3.13-.19-4.07C250.34,419.64,250.83,415.77,253.75,415.42Z"/><path class="cls-6" d="M254.71,417.52c.57,6.3,3.82,12.29,4.8,18-2.37-3.85-3-8-4.08-11.84C255.36,423.54,253.81,417.92,254.71,417.52Z"/><path class="cls-6" d="M255.72,422.11c-.05-1.27,2.84-1.39,1.34-3.11-.13,1-1.39,1.84-1.42,2.83Z"/><path class="cls-6" d="M256.58,426c.33-1.42,3.73-1,1.73-3.26a3.51,3.51,0,0,1-1.78,3Z"/><path class="cls-6" d="M257.61,430.07c1-1.26,1.17-2.25,1.93-3.67-1.76.28-.89,2.41-2,3.4Z"/><path class="cls-6" d="M257.21,430.61c-1.08-.1-3.34-.4-4.34-1.54,1.13.15,2.76.87,4.2,1.14Z"/><path class="cls-6" d="M256.11,426.93c-1.21-.12-2.22-1.27-3.35-1.41,1.26-.85,2.26.29,3.27.89"/><path class="cls-6" d="M255,421.79a12.82,12.82,0,0,0-2.58-1.07c-.52,0,2.67,1.46,2.67,1.46Z"/><path class="cls-2" d="M1.11,53.29C-1.38,47.42.14,38.94,7.33,38a5,5,0,0,0-2.75-.67c2.65-3.05,4.7-.87,7.09-4.66.47-1,3.46-.83,3.72-.1a4.13,4.13,0,0,0,3.55,2.89C13.6,40.33,3.43,41.09,2.41,49.81c2.76-8.52,12-8.51,17.8-13.13.8,2.22,2.48-.06,3.76,1.15,1.54,1.95,1.37,4.93-1.11,5-3.72.1-4.7.87-7.39,2.68-1.24,0-2.55-2.42-4.76-1.62,2.61,4.9-1.79,7.75-5.16,10.73C4.19,55.31,2.51,55.29,1.11,53.29Z"/><path class="cls-6" d="M2.41,49.81C4.59,42.34,11.85,40.12,18.23,37c1.71-1,1.88-4,4.87-3.85-3.36,4.56-9,6.2-14.17,9.31-1,.77-1.48.54-3.51,2.75A33.76,33.76,0,0,0,2.41,49.81Z"/><path class="cls-6" d="M6.41,42.59C5,43,3,42.09,2,44.11a22.48,22.48,0,0,1,4.09-1.22Z"/><path class="cls-6" d="M11.46,40.07a7.63,7.63,0,0,1-4.84-.55c1.27,1.21,3.25.91,4.45.67Z"/><path class="cls-6" d="M18.41,36.5c-2.9.38-5.62-.9-8.31-.49a49.52,49.52,0,0,0,7.92.73Z"/><path class="cls-6" d="M19.66,36.72c.27,1.38,0,3.75.72,5.75-1.73-1.64-.77-3.69-1.27-5.36Z"/><path class="cls-6" d="M13.11,40.2c-.48.9.05,2.38-1.42,2.91,1-.77.2-1.74.68-2.73"/><path class="cls-6" d="M6.41,43.62a22.22,22.22,0,0,0,.54,4.47c.39.76-.11-4.89-.11-4.89Z"/><path class="cls-2" d="M23.83,63.89c-2.39-.93-2.39-4.11-1.48-6.39.91-1.82,4.1-1.37,4.1-4.1-1.82,0-4.55.46-4.55-1.37-.46-2.28,3.64-.91,3.64-2.28.46-1.37-2.73-.91-2.28-2.73.91-2.73,3.19-.91,5-1.37H26.44c4.1-.91,6.37,1.37,5.46,5.92S27.35,58.41,25.53,62c5-3.64,7.28-9.1,8.65-15.47.46-1.82,3.64.46,4.55,1.82.46,1.37-.91,2.73-1.37,4.1,0,.46.91,1.37.91,1.82-.46,1.82-3.64,0-4.1,1.82,0,.46,1.37.46,1.82.46-.91,3.19-4.55,4.1-6.85,5.84C27.42,63.36,25.36,64.19,23.83,63.89Z"/><path class="cls-6" d="M25.65,61.45c6.25-4,7.62-11.69,6.25-18.52,2.28,5.46.46,10.92-2.49,15.54C28,59.9,26.35,61.4,25.65,61.45Z"/><path class="cls-6" d="M29.84,56.84C28.26,58,26,58,24.62,59.32c1.37-.91,3.64-1.37,5-2.2Z"/><path class="cls-6" d="M31.9,53.15c-1.67.42-2.75,1.35-4.65,1.79,1.95,0,3-1.37,4.54-1.53Z"/><path class="cls-6" d="M32.56,49.12c-1.81.69-2.39,2.12-4.8,2.13,2.57.46,3-1.44,4.79-1.86Z"/><path class="cls-6" d="M33.2,48.84c.46,1.84,3.91.68,3.5,3.1-1.09-.88-2.3-1.77-3.47-2.68Z"/><path class="cls-6" d="M33,52.5a6.59,6.59,0,0,1,2.15,2.32c-1.42.06-1.12-1.33-2.34-1.84"/><path class="cls-6" d="M30.32,57.37s.8,1.6,1.21,1.76S30.61,57,30.61,57Z"/><path class="cls-4" d="M231.56,652a50.36,50.36,0,0,0,10.92-29.11c-5.09,7.48-10.31,15.28-11.69,24.22a65.55,65.55,0,0,1-1,6.55A17.05,17.05,0,0,0,231.56,652Z"/><path class="cls-4" d="M231.51,638.52c4.5-11.22,7.28-23.52,5.15-35.43l-3.83,9.46c-2.41,6-4.84,12-6,18.29a40.52,40.52,0,0,0-.42,13c.45,2.86,1.38,1.9,2.56-.08A37.16,37.16,0,0,0,231.51,638.52Z"/><path class="cls-4" d="M233,581.89a13.77,13.77,0,0,0,0-5.75,113.55,113.55,0,0,1-5.48,16.13,73,73,0,0,0-3.15,8,55.25,55.25,0,0,0-1.24,5.72l-1.42,7.87c-.65,3.57-2.06,9.32,0,12.63,2.25-2.32,3.35-7.29,4.36-10.34,1.21-3.68,2.21-7.43,3.05-11.21C230.83,597.32,231.93,589.6,233,581.89Z"/><path class="cls-4" d="M222.77,597.47c3.12-8.56,6.26-17.27,6.79-26.36a46.89,46.89,0,0,0-.91-12.24c-3,8.48-6,17-8.38,25.65a91.07,91.07,0,0,0-2.75,13c-.45,3.68-1.42,9.77.33,13.16C220.15,607,221.25,601.66,222.77,597.47Z"/><path class="cls-4" d="M212.08,595.35c-.6-4.94-.79-13.89-1.39-18.83-.17-1.37-.33-2.74-.44-4.12a53.21,53.21,0,0,1,10-35.42c2.9,14.16,2.95,29.33-2.84,42.58-.81,1.85-1.72,3.64-2.47,5.51a67,67,0,0,0-2.89,10.29"/><path class="cls-4" d="M206,557.76l4.53-14.95c1.32-4.36,2.65-8.79,2.77-13.34a44.16,44.16,0,0,0-.84-8.65,163.24,163.24,0,0,0-4.22-18.16c0,4.57-1.5,9-2.18,13.51-1.87,12.58,1.23,28.94-.06,41.59"/><path class="cls-4" d="M182.52,527.38c-3.59-5.14-7.36-10.44-12.78-13.58.62,4.37,1.26,8.8,3,12.85a50.22,50.22,0,0,0,2.64,5.06q4.08,7.14,8.17,14.28a19.76,19.76,0,0,0,3.19,4.5,18.23,18.23,0,0,0,2.79,2.1c3,2,6.34,4.39,9.72,5.56.82-1.54-1.35-5.09-2-6.57a88.47,88.47,0,0,0-4.34-8.43C189.73,537.7,186.13,532.53,182.52,527.38Z"/><path class="cls-4" d="M201.11,526.11c.68-11.58-3.95-22.81-4.72-34.38a58.5,58.5,0,0,0-3,34.36c.49,2.26,1.7,7.58,4.3,8.47S201,528.06,201.11,526.11Z"/><path class="cls-4" d="M188.59,561.68A180,180,0,0,0,159,539.46c2.21,4.61,1.89,10,3.7,14.82,1.26,3.33,3.49,6.19,5.69,9a31.72,31.72,0,0,0,3.82,4.3,27,27,0,0,0,3.89,2.74,89.73,89.73,0,0,0,11.53,5.91c2.32,1,9.4,4.87,11.83,3.8C205.57,577.29,190.73,563.65,188.59,561.68Z"/><path class="cls-4" d="M175.84,575.93,162.35,567a86.67,86.67,0,0,0,27.47,33.14c3.08,2.23,10.35,6.76,14.44,5.09,3.72-1.52-.31-6.56-1.92-8.39C194.9,588.38,185.15,582.09,175.84,575.93Z"/><path class="cls-4" d="M206.24,613.2c-3.56-2.6-7.75-4.18-11.68-6.16a117.89,117.89,0,0,1-13.66-8.49l6.9,7.57c1.76,1.93,3.52,3.86,5.45,5.6,4.14,3.75,10.19,8.36,15.61,10C216.13,623.94,208.38,614.75,206.24,613.2Z"/><path class="cls-4" d="M200,621.67a177.41,177.41,0,0,1-22.34-14.29,11.77,11.77,0,0,1-3.82-4c5.91,6.76,11.84,13.55,18.64,19.41a77.54,77.54,0,0,0,9.95,7.35c2.38,1.47,8.13,5.69,11.07,4.9C220.08,633.28,202,622.74,200,621.67Z"/><path class="cls-4" d="M214.57,639.6c-9.6-7.09-21.41-10.61-31.31-17.28l6.79,7c2.92,3,5.89,6,9.47,8.2a49.94,49.94,0,0,0,7.74,3.57c2.57,1,10.39,5.62,12.79,4.3C219.46,643.13,216.45,640.87,214.57,639.6Z"/><path class="cls-4" d="M187.18,633.51c2,2.31,4,4.62,6.07,6.89,2.77,3.08,5.67,6.15,9.28,8.2a41.74,41.74,0,0,0,9.95,3.61c2.33.63,10.45,4.6,9.87.2-.49-3.74-6.53-5.9-9.41-7.21C204.36,641.3,194.83,639.22,187.18,633.51Z"/><path class="cls-8" d="M202.46,547.76a281.51,281.51,0,0,0,7.19,46.31c1.53,6.32,3.27,12.58,5,18.84l5.1,18.3c1.27,4.55,2.54,9.11,3.91,13.63,3.88,12.82,22.29,59.81,27.74,72.05"/><path class="cls-9" d="M234.4,662.19a50.36,50.36,0,0,0,10.92-29.11c-5.09,7.48-10.31,15.28-11.69,24.22a65.55,65.55,0,0,1-1,6.55A17.05,17.05,0,0,0,234.4,662.19Z"/><path class="cls-9" d="M234.36,648.68c4.5-11.22,7.28-23.52,5.15-35.43l-3.83,9.46c-2.41,6-4.84,12-6,18.29a40.52,40.52,0,0,0-.42,13c.45,2.86,1.38,1.9,2.56-.08A37.16,37.16,0,0,0,234.36,648.68Z"/><path class="cls-9" d="M235.86,592.05a13.77,13.77,0,0,0,0-5.75,113.55,113.55,0,0,1-5.48,16.13,73,73,0,0,0-3.15,8,55.25,55.25,0,0,0-1.24,5.72L224.56,624c-.65,3.57-2.06,9.32,0,12.63,2.25-2.32,3.35-7.29,4.36-10.34,1.21-3.68,2.21-7.43,3.05-11.21C233.67,607.49,234.77,599.77,235.86,592.05Z"/><path class="cls-9" d="M225.62,607.64c3.12-8.56,6.26-17.27,6.79-26.36a46.89,46.89,0,0,0-.91-12.24c-3,8.48-6,17-8.38,25.65a91.07,91.07,0,0,0-2.75,13c-.45,3.68-1.42,9.77.33,13.16C223,617.12,224.09,611.83,225.62,607.64Z"/><path class="cls-9" d="M214.92,605.51c-.6-4.94-.79-13.89-1.39-18.83-.17-1.37-.33-2.74-.44-4.12a53.21,53.21,0,0,1,10-35.42c2.9,14.16,2.95,29.33-2.84,42.58-.81,1.85-1.72,3.64-2.47,5.51a67,67,0,0,0-2.89,10.29"/><path class="cls-9" d="M208.81,567.92,213.33,553c1.32-4.36,2.65-8.79,2.77-13.34a44.16,44.16,0,0,0-.84-8.65A163.24,163.24,0,0,0,211,512.82c0,4.57-1.5,9-2.18,13.51-1.87,12.58,1.23,28.94-.06,41.59"/><path class="cls-9" d="M185.36,537.54c-3.59-5.14-7.36-10.44-12.78-13.58.62,4.37,1.26,8.8,3,12.85a50.22,50.22,0,0,0,2.64,5.06q4.08,7.14,8.17,14.28a19.76,19.76,0,0,0,3.19,4.5,18.23,18.23,0,0,0,2.79,2.1c3,2,6.34,4.39,9.72,5.56.82-1.54-1.35-5.09-2-6.57a88.47,88.47,0,0,0-4.34-8.43C192.58,547.86,189,542.7,185.36,537.54Z"/><path class="cls-9" d="M204,536.28c.68-11.58-3.95-22.81-4.72-34.38a58.5,58.5,0,0,0-3,34.36c.49,2.26,1.7,7.58,4.3,8.47S203.84,538.23,204,536.28Z"/><path class="cls-9" d="M191.44,571.84a180,180,0,0,0-29.63-22.22c2.21,4.61,1.89,10,3.7,14.82,1.26,3.33,3.49,6.19,5.69,9a31.72,31.72,0,0,0,3.82,4.3,27,27,0,0,0,3.89,2.74,89.73,89.73,0,0,0,11.53,5.91c2.32,1,9.4,4.87,11.83,3.8C208.41,587.46,193.57,573.82,191.44,571.84Z"/><path class="cls-9" d="M178.68,586.1l-13.49-8.93a86.67,86.67,0,0,0,27.47,33.14c3.08,2.23,10.35,6.76,14.44,5.09,3.72-1.52-.31-6.56-1.92-8.39C197.74,598.54,188,592.26,178.68,586.1Z"/><path class="cls-9" d="M209.09,623.36c-3.56-2.6-7.75-4.18-11.68-6.16a117.89,117.89,0,0,1-13.66-8.49l6.9,7.57c1.76,1.93,3.52,3.86,5.45,5.6,4.14,3.75,10.19,8.36,15.61,10C219,634.1,211.22,624.92,209.09,623.36Z"/><path class="cls-9" d="M202.88,631.84a177.41,177.41,0,0,1-22.34-14.29,11.77,11.77,0,0,1-3.82-4c5.91,6.76,11.84,13.55,18.64,19.41a77.54,77.54,0,0,0,9.95,7.35c2.38,1.47,8.13,5.69,11.07,4.9C222.93,643.44,204.87,632.91,202.88,631.84Z"/><path class="cls-9" d="M217.41,649.76c-9.6-7.09-21.41-10.61-31.31-17.28l6.79,7c2.92,3,5.89,6,9.47,8.2a49.94,49.94,0,0,0,7.74,3.57c2.57,1,10.39,5.62,12.79,4.3C222.3,653.3,219.29,651,217.41,649.76Z"/><path class="cls-9" d="M190,643.67c2,2.31,4,4.62,6.07,6.89,2.77,3.08,5.67,6.15,9.28,8.2a41.74,41.74,0,0,0,9.95,3.61c2.33.63,10.45,4.6,9.87.2-.49-3.74-6.53-5.9-9.41-7.21C207.21,651.47,197.67,649.39,190,643.67Z"/><path class="cls-9" d="M243.83,201.49a6.78,6.78,0,0,1,3.61-5"/><path class="cls-9" d="M248.54,225.52a3.08,3.08,0,0,1,3.88-2.47"/><path class="cls-9" d="M272.54,190.75h0c-.9.49-1.53.86-1.53.86-6.22,6.88-5.79,18.72.91,25.13a19.17,19.17,0,0,0,5,3.43,29.1,29.1,0,0,0,14,2.49,64.68,64.68,0,0,0,11.23-1.78c3-.69,5.91-1.46,8.88-2.14,1-.31,2.32-.86,3.26-1.27a3,3,0,0,1,2.94,0,2.54,2.54,0,0,1,.85,2.57,6,6,0,0,1-1.37,2.49c-3.17,3.87-7.83,4.72-12.21,7.14a20.89,20.89,0,0,1-2.35,1.1c-4.24,1.68-9,2-13.58,2.21a57.93,57.93,0,0,1-10.78-.4,23.69,23.69,0,0,1-9.33-3.25,27.23,27.23,0,0,1-6-5.47c-5.22-6.15-8.92-14.11-8-22.12s7.64-15.58,15.7-15.58c0,0,.48-.17,1.25-.36h0"/><path class="cls-10" d="M259.33,191.35c-.84.09-2-1-2.79-1.35a4.86,4.86,0,0,0-4.18-.22,3.78,3.78,0,0,0-2.25,3.41c-2.6-.23-5.54.09-7.22,2.08s-1.51,4.74-1.31,7.26l.4,5c1-1.48,2.85-2,4.55-2.4s3.59-1.09,4.33-2.68a5.42,5.42,0,0,0,.39-2.26,20.8,20.8,0,0,0-.73-5.64c-.18-.67.08-1.83-.42-1.35"/><path class="cls-10" d="M257.7,216.88c-.25.34-.72.89-1,1.23-2.17,2.91-2.58,0-4.9-.47-2.13-.46-4,.91-5,2.7a9.12,9.12,0,0,0-.7,1.49c-.89,2.62.29,5.63-.75,8.19a5.11,5.11,0,0,1,3-1.44c.65-.08,1.3,0,2-.1a6.48,6.48,0,0,0,4.17-2.34,4.72,4.72,0,0,0,1.25-3.34,5.38,5.38,0,0,0-1.33-3.6"/><path class="cls-9" d="M274.89,243.32a7.27,7.27,0,0,1-2.37,4.54c-1.24,1.24-2.7,2.23-4,3.45a31.12,31.12,0,0,1-1.34-8.09,5.75,5.75,0,0,1,.72-3.06,2.61,2.61,0,0,1,2.71-1.24c.45.13.9.42,1.36.31C273.74,239.53,275,241.58,274.89,243.32Z"/><path class="cls-10" d="M271.06,230.73a11.88,11.88,0,0,1,1.86,6.83c0,.68-.23,1.52-.9,1.67"/><line class="cls-11" x1="271.45" y1="185.82" x2="272.53" y2="190.75"/><path class="cls-9" d="M269.45,247.52a9.42,9.42,0,0,0,2-6"/><path class="cls-12" d="M238.06,344.54h0l0,.3,0,.24h0l-.19,1.91c-.65.83-1.94.82-3,.72a.51.51,0,0,1-.21-.06c-.14-.09-.13-.29-.11-.45a6.76,6.76,0,0,1,.45-1.9,2.26,2.26,0,0,1,1.39-1.3A1.78,1.78,0,0,1,238.06,344.54Z"/><path class="cls-9" d="M240.16,322.41l-.33,3.52a2.74,2.74,0,0,1-.17-.74A7,7,0,0,1,240.16,322.41Z"/><path class="cls-9" d="M318.26,394.37c-1.5-.17-8.42,1.37-8.42,1.37-10.31.74-20.78.71-30.86-1.6a58.23,58.23,0,0,1-16.9-6.67h0a44.21,44.21,0,0,1-9.9-8,82.33,82.33,0,0,1-5.65-7.11,22.19,22.19,0,0,1-4.1-9c.68,1.14,2.12,1.67,4.57,2.27a22.92,22.92,0,0,0,11.8,0c5.45-1.58,10.23-6,11.29-11.56,1.33-7-4.23-14.56-11.33-15.36a17.32,17.32,0,0,0-6.44.63,22.5,22.5,0,0,0-7.24,3.33,19,19,0,0,0-3.73,3.48,20.24,20.24,0,0,0-4.45,10.54c-.06.52-.1,1-.11,1.58a22.73,22.73,0,0,0,.2,3.4,31.22,31.22,0,0,0,.76,3.83,40.82,40.82,0,0,0,7.67,15,51.94,51.94,0,0,0,19.66,14.89c12.78,5.61,27.18,6.57,41.08,5.35,0,0,9.94-.53,12.77-1S319.76,394.54,318.26,394.37ZM241.68,359.7c-1.09-6.15,2.78-10.34,5.31-12.58,6-5.31,15-4.68,17.4,1.08a8.72,8.72,0,0,1,.54,5.14,10.53,10.53,0,0,1-4.75,6.32c-.21.14-.42.27-.64.39-5.34,3.16-12.15,2.71-17.82-.1C241.71,359.87,241.69,359.78,241.68,359.7Z"/><path class="cls-9" d="M244.89,322.11a8.25,8.25,0,0,1-.64,3.05c-.53,1.23-1.7,2.48-3,2.16a2.14,2.14,0,0,1-1.42-1.39l.33-3.52c1-2.8-1.82-5.24-4.79-5.42s-5.71,2-7,4.62-1.52,5.75-1.47,8.72c.14,9.06,2.44,18.52,8.67,25.08q.66.69,1.38,1.32c-.06.52-.1,1-.11,1.58a22.73,22.73,0,0,0,.2,3.4c-7.23-2.45-12.6-9.12-14.79-16.43s-1.68-15.18-.14-22.66c.64-3.11,1.58-6.4,4-8.46a9.19,9.19,0,0,1,2.84-1.61,10.86,10.86,0,0,1,1.1-.36,12.77,12.77,0,0,1,10.73,1.7l0,0,.06,0c.2.14.39.29.57.44A10.09,10.09,0,0,1,244.89,322.11Z"/><path class="cls-10" d="M240.16,322.41a7,7,0,0,0-.5,2.78,2.74,2.74,0,0,0,.17.74"/><path class="cls-10" d="M240.77,313.9h0"/><path class="cls-9" d="M228.9,312.55c.18-1.78-.45-2.18-1.73-3.43a1.2,1.2,0,0,0-.53-.35c-.34-.08-.82,0-.95-.28s-.89-.89-1.32-1.12a2.33,2.33,0,0,0-2.74.74,6,6,0,0,0-1.1,2.84,4.2,4.2,0,0,0-.06,1.77c.69-.47,1.65-.05,2.46-.27,1-.26,1.44-1.31,1.79-2.24l.74-1.94"/><path class="cls-9" d="M244.89,322.11c1.21-.39,1.22,0,2.11.86a3.55,3.55,0,0,1,.83,3.54.88.88,0,0,0-1.14.59,2.54,2.54,0,0,0,.08,1.43l1,3.76a9.56,9.56,0,0,0,2.32-4,2.63,2.63,0,0,0,.14-.94,1.52,1.52,0,0,0-2.82-.65"/><path class="cls-9" d="M242.55,313l-1.78.9-.06,0,0,0A1.74,1.74,0,0,1,242.55,313Z"/><path class="cls-9" d="M243.25,312.65l.08,0a.48.48,0,0,1-.19.23,1.29,1.29,0,0,1-.56.08h0Z"/><path class="cls-9" d="M249.62,307.43c-.15.84-.3,1.68-.46,2.52a4,4,0,0,1-.61,1.76c-.69,1-2,1.12-3.18,1.22a3.53,3.53,0,0,1-2-.24.89.89,0,0,0,0-.6,4.82,4.82,0,0,1-.36-.85,1.51,1.51,0,0,1,.43-1.21c1.41-1.66,4-1.68,5.77-2.95.1-.07.23-.15.34-.1S249.66,307.26,249.62,307.43Z"/><path class="cls-12" d="M224.94,351.54c-.14.81,0,.75-.79,1s-1.64.11-2,.75a1.74,1.74,0,0,0-.18.84,34.86,34.86,0,0,0,.3,6.06c.49-1,1.85-1.38,2.53-2.31.81-1.12.4-2.7-.26-3.91a2.8,2.8,0,0,0-1.06-1.22"/><path class="cls-12" d="M240.82,345.8a.68.68,0,0,1,.17.25l-3-1.2-.17-.07a1.78,1.78,0,0,1,.15.31h0a2,2,0,0,1-.1,1.8l-.09.11c-.65.83-1.94.82-3,.72a.51.51,0,0,1-.21-.06c-.14-.09-.13-.29-.11-.45a6.76,6.76,0,0,1,.45-1.9,2.26,2.26,0,0,1,1.39-1.3,1.78,1.78,0,0,1,1.73.52h0a.82.82,0,0,1,.12.2A3.18,3.18,0,0,1,240.82,345.8Z"/><path class="cls-9" d="M241.35,346.19c-.32-.06-.31-.05-.36-.14Z"/><path class="cls-9" d="M221,328a9.22,9.22,0,0,1-.92-.62,3.2,3.2,0,0,0-3.78.8,2.6,2.6,0,0,1-.89.73,4.26,4.26,0,0,1-1.14.08,3.22,3.22,0,0,0-2.22,1.52,2.36,2.36,0,0,0-.36.67c-.21.7.1,1.6-.45,2.08.94-.71,2.51.17,3.39-.62a2.28,2.28,0,0,0,.57-1.3l.48-2.37"/><path class="cls-12" d="M259.54,360.05c-.2-1.16-.47-.84-1.16-1.79-.33.34-.9.19-1.29-.07a2.91,2.91,0,0,1-.94-3.57,7.36,7.36,0,0,1,2,1.57,2,2,0,0,1-.16,2.37"/><path class="cls-12" d="M254.14,389a4,4,0,0,1-.17,2.18,8.32,8.32,0,0,0-2.21.07,2.8,2.8,0,0,0-1.82,1.16,5,5,0,0,0-.4,2.68,13.56,13.56,0,0,1-1.4,6,5.25,5.25,0,0,1,2.9-1.74,3.32,3.32,0,0,0,3-3.7q0-2.27-.11-4.54"/><path class="cls-12" d="M256.07,383.06c-.06-1.2,1-2,1.15-2.39a3.85,3.85,0,0,0,0-1.75c-.55.32-1.27-.26-1.33-.9a3,3,0,0,1,.63-1.77,5.2,5.2,0,0,0,1.05-3,22.75,22.75,0,0,1,1.5,4.15,1.43,1.43,0,0,1-.07,1.22,1.27,1.27,0,0,1-1.18.33,2.83,2.83,0,0,0-1.27,0"/><path class="cls-12" d="M245.42,380.49c-.85,1.43-2,.19-3.27,1.23a1,1,0,0,0-.13,1.13c-.63.08-1.28,0-1.91,0a1.73,1.73,0,0,0-1.53,1,2.53,2.53,0,0,0-.1.71,10,10,0,0,1-1.57,4.86c1.67-.35,3.64-.14,4.84-1.36,1-1.07,1-2.82.51-4.24a1.56,1.56,0,0,0-.69-1"/><path class="cls-13" d="M252.74,451.74s-2.49-4.74-8.62-3.37c0,0,1.75,5.88-2,7.13s-9.62-.31-12.25,5.13c0,0-3.37-6.19,2.06-8.75s6.31-9.37,12.19-3.5"/><path class="cls-13" d="M244.12,448.37s-13.84,4.09-14.25,12.25"/><path class="cls-13" d="M233,454.5s3-.44,2.47,2"/><path class="cls-13" d="M236.61,451.76s4.42-.2,4,4.1"/><path class="cls-13" d="M241.85,449.18a4.21,4.21,0,0,1,2.57,3.39"/><path class="cls-13" d="M232.24,455.29s-1.78-1.92-3.26,0"/><path class="cls-13" d="M232.24,451.72s2.84-1,3.13.85"/><path class="cls-13" d="M237.14,447.58s3.26-1.62,3.49,2.1"/><path class="cls-13" d="M249.36,468s-2.18,2.36-2.22,4.44c0,0,7.13,1.25,5,6.5s-8.72,7.88-9,10.08c0,0-6.7-10.33-3.7-14.42s7.71-2.17,7.71-2.17-4,6.42-4,16.58"/><path class="cls-13" d="M239.12,475.15s5-2.93,6.27,1.08"/><path class="cls-13" d="M244.42,479.25s5-3.1,6.28,2.1"/><path class="cls-13" d="M240,483s2-2.52,3.62,0"/><path class="cls-13" d="M243.21,486.56s1.12-.8,1.42.45"/><path class="cls-2" d="M292,535.23c-4.44,0-8.63-2.16-12-3.92l-16.54-8.53c-5.15-2.65-11-5.66-14.84-10.7-3.74-4.88-5.32-12.6-1.12-17.91,3.22-4.06,8.59-5.28,13.43-5.94a1,1,0,1,1,.27,2c-4.44.61-9.35,1.7-12.13,5.2-3.53,4.46-2,11.29,1.14,15.45,3.58,4.68,9.2,7.58,14.16,10.14l16.54,8.53c3.48,1.79,7.8,4,12.1,3.65,2.87-.25,5.56-1.61,8.16-2.93l7.76-3.93a1,1,0,0,1,.9,1.78L302,532.05c-2.64,1.34-5.64,2.85-8.9,3.13Q292.54,535.23,292,535.23Z"/><path class="cls-9" d="M264.35,536.39s3.57-1.27,4.81,2.12"/><path class="cls-9" d="M268.08,542.35s3.37-1.63,4.87,2.29"/><path class="cls-9" d="M267.86,546.36s-1.54-2.09-2.35-1.29"/><path class="cls-14" d="M250.51,511.48s-5,2.83-7.32,2c0,0,2.5-5.33-2.58-6s-10.39-3.5-10.14-5.81c0,0-4.37,10.87,2,12.75a13.52,13.52,0,0,0,10.72-1"/><path class="cls-15" d="M243.19,513.48s-13.22-2.27-12.72-11.77"/><path class="cls-15" d="M236,515.08s-4.1-2.65,2.61-3"/><path class="cls-15" d="M241.78,512.9s-4.53-3.72,1.61-3.83"/><path class="cls-15" d="M230.13,512.9s-1.44-4.29,3-4.27"/><path class="cls-15" d="M235.94,510.76s-3.3-4.1,1.55-3.89"/><path class="cls-15" d="M278.79,528.64,272.41,535s3.87,2.75,2.62,6.37-6.19,6.51-6.75,8.1-4.25-7.84-4.25-9.35c0-3-.37-8.49,8.38-5.12"/><path class="cls-15" d="M272.41,535s-5.81,1.75-4.3,14.64"/><path class="cls-5" d="M299.66,606.59a16.45,16.45,0,0,0-10.14,5.78c-4.54,5.3-8.83,10.06-10,15.19,0,0-.21,1.61.91,2.1s5,4,2.77,6.15-3.83.78-7.5-1.87c0,0-1.17-.65-1.88.88s-3.52,3.54.32,8.1,2.34,5.88,2.34,5.88-.53,2.21-4.73,1.37c0,0-3,7.63,4.48,11.55,1.28.68,1.77,1.42,5.71,1a5,5,0,0,1,5.23,2.85l10.17-53.29s1-.14,1.23,1.85-1.6,32.56-7.54,52a2.41,2.41,0,0,1,2.55-.11c1.29.8,2.3,3.2,2.43,3.48a2.3,2.3,0,0,0,2.71,1.28c1.81-.44,5.8-1.1,8.19-4s4.34-7.7,3.79-10.06-3.45-4.9-2.85-5.63,1.12-2.64,3.24-3.12,5.44-3,3.1-4.82-2.36-4-5.11-2.88-5.11-5.27-2.72-5.89,4.48-1.3,6.56-.42,4-2.9,2.53-5.46-3.06-5.66-2.83-7.42S309.83,606.74,299.66,606.59Z"/><path class="cls-5" d="M297.24,613.84s-1.69,14.94-2.47,16-2.47,17.55-3,18.71-1.89,11.8-2.51,13.06-13.93,54.46-14,55.31,5,0,5,0,14.59-71.55,14.48-72.89a65.56,65.56,0,0,1,1.58-9.75C296.47,633.83,300.5,614.83,297.24,613.84Z"/><polygon class="cls-5" points="294.99 629.26 288.43 620.4 288.93 619.49 295.21 628.31 294.99 629.26"/><path class="cls-5" d="M292.76,642.23,286,633.54s-.15-.73.58-.57,6.29,8.32,6.29,8.32Z"/><path class="cls-5" d="M290.32,656.16l-8-11.34s-.58-1.28.72-.55,7.45,11,7.45,11Z"/><path class="cls-5" d="M291.73,657.79,305,652.5s.73-.28.4-.72a1,1,0,0,0-1.14-.21c-.25.07-12.23,4.84-12.23,4.84Z"/><path class="cls-5" d="M294.48,645.25l9.88-5.39s1.14-1.18-.41-.72-9.29,4.38-9.29,4.38"/><path class="cls-5" d="M297.5,628s6.86-4.23,8.63-4.41-8.86,5.72-8.86,5.72Z"/></g></g></svg>