<svg xmlns="http://www.w3.org/2000/svg" viewBox="0 0 1214.53 277.48"><defs><style>.cls-1,.cls-10,.cls-11,.cls-6{fill:none;}.cls-1,.cls-11,.cls-3,.cls-5,.cls-6,.cls-7,.cls-8,.cls-9{stroke:#003abf;}.cls-1,.cls-3,.cls-5,.cls-7,.cls-8{stroke-miterlimit:10;}.cls-1,.cls-3,.cls-5{stroke-width:0.25px;}.cls-2,.cls-5{fill:#003abf;}.cls-3,.cls-4,.cls-7,.cls-8,.cls-9{fill:#fff;}.cls-10,.cls-11,.cls-6,.cls-9{stroke-linecap:round;stroke-linejoin:round;}.cls-6{stroke-width:2px;}.cls-8{stroke-width:0.5px;}.cls-10,.cls-9{stroke-width:0.75px;}.cls-10{stroke:#fff;}.cls-12{fill:#2d71f9;}</style></defs><title>bas-2</title><g id="Calque_2" data-name="Calque 2"><g id="Calque_1-2" data-name="Calque 1"><path class="cls-1" d="M1126.89,142.51c0,.07,0,.14,0,.2"/><path class="cls-2" d="M1157.38,129.67a12.62,12.62,0,0,1,7.78,4.43c3.48,4.07,6.77,7.72,7.65,11.65,0,0,.16,1.24-.7,1.61s-3.81,3-2.12,4.72,2.94.6,5.75-1.44c0,0,.9-.5,1.44.68s2.7,2.72-.25,6.21-1.79,4.51-1.79,4.51.41,1.69,3.63,1.05c0,0,3.22,3.5-3.44,8.86-.87.7-1.36,1.09-4.38.8a3.84,3.84,0,0,0-4,2.18l-7.81-40.88s-.74-.11-.94,1.42,1.23,25,5.78,39.88a1.85,1.85,0,0,0-2-.08,6.87,6.87,0,0,0-1.86,2.67,1.76,1.76,0,0,1-2.08,1c-1.39-.33-4.45-.84-6.28-3.1s-3.33-5.91-2.91-7.72,2.65-3.76,2.19-4.32-.86-2-2.48-2.4-4.17-2.28-2.38-3.7,1.81-3,3.92-2.21,3.92-4,2.09-4.52-3.44-1-5-.32-3-2.23-1.94-4.19,2.35-4.34,2.17-5.69S1149.58,129.79,1157.38,129.67Z"/><path class="cls-3" d="M1159.24,135.24s1.3,11.46,1.9,12.26,1.89,13.47,2.33,14.35,1.45,9.05,1.93,10,13,53.19,13.11,53.84-5,0-5,0-12.37-66.3-12.28-67.32a50.3,50.3,0,0,0-1.21-7.48C1159.83,150.57,1156.74,136,1159.24,135.24Z"/><polygon class="cls-4" points="1160.97 147.07 1166 140.27 1165.61 139.57 1160.79 146.34 1160.97 147.07"/><path class="cls-4" d="M1162.68,157l5.18-6.66s.11-.56-.44-.44-4.83,6.38-4.83,6.38Z"/><path class="cls-4" d="M1164.55,167.71l6.15-8.7s.44-1-.55-.42-5.72,8.41-5.72,8.41Z"/><path class="cls-4" d="M1163.46,169l-10.2-4.06s-.56-.22-.31-.56a.76.76,0,0,1,.88-.16c.19.06,9.38,3.71,9.38,3.71Z"/><path class="cls-4" d="M1161.36,159.34l-7.58-4.13s-.88-.9.32-.56,7.12,3.36,7.12,3.36"/><path class="cls-4" d="M1159,146.06s-5.27-3.25-6.62-3.38,6.8,4.39,6.8,4.39Z"/><path class="cls-5" d="M1129.88,160.84a50.36,50.36,0,0,0,10.92-29.11c-5.09,7.48-10.31,15.28-11.69,24.22a65.55,65.55,0,0,1-1,6.55A17.05,17.05,0,0,0,1129.88,160.84Z"/><path class="cls-5" d="M1129.83,147.33c4.5-11.22,7.28-23.52,5.15-35.43l-3.83,9.46c-2.41,6-4.84,12-6,18.29a40.52,40.52,0,0,0-.42,13c.45,2.86,1.38,1.9,2.56-.08A37.16,37.16,0,0,0,1129.83,147.33Z"/><path class="cls-5" d="M1131.34,90.7a13.77,13.77,0,0,0,0-5.75,113.55,113.55,0,0,1-5.48,16.13,73,73,0,0,0-3.15,8,55.25,55.25,0,0,0-1.24,5.72l-1.42,7.87c-.65,3.57-2.06,9.32,0,12.63,2.25-2.32,3.35-7.29,4.36-10.34,1.21-3.68,2.21-7.43,3.05-11.21C1129.15,106.13,1130.25,98.41,1131.34,90.7Z"/><path class="cls-5" d="M1121.09,106.28c3.12-8.56,6.26-17.27,6.79-26.36a46.89,46.89,0,0,0-.91-12.24c-3,8.48-6,17-8.38,25.65a91.07,91.07,0,0,0-2.75,13c-.45,3.68-1.42,9.77.33,13.16C1118.47,115.76,1119.57,110.47,1121.09,106.28Z"/><path class="cls-5" d="M1110.4,104.16c-.6-4.94-.79-13.89-1.39-18.83-.17-1.37-.33-2.74-.44-4.12a53.21,53.21,0,0,1,10-35.42c2.9,14.16,2.95,29.33-2.84,42.58-.81,1.85-1.72,3.64-2.47,5.51a67,67,0,0,0-2.89,10.29"/><path class="cls-5" d="M1104.28,66.57l4.53-14.95c1.32-4.36,2.65-8.79,2.77-13.34a44.16,44.16,0,0,0-.84-8.65,163.24,163.24,0,0,0-4.22-18.16c0,4.57-1.5,9-2.18,13.51-1.87,12.58,1.23,28.94-.06,41.59"/><path class="cls-5" d="M1080.84,36.19c-3.59-5.14-7.36-10.44-12.78-13.58.62,4.37,1.26,8.8,3,12.85a50.22,50.22,0,0,0,2.64,5.06q4.08,7.14,8.17,14.28a19.76,19.76,0,0,0,3.19,4.5,18.23,18.23,0,0,0,2.79,2.1c3,2,6.34,4.39,9.72,5.56.82-1.54-1.35-5.09-2-6.57a88.47,88.47,0,0,0-4.34-8.43C1088.05,46.51,1084.44,41.34,1080.84,36.19Z"/><path class="cls-5" d="M1099.43,34.93c.68-11.58-3.95-22.81-4.72-34.38a58.5,58.5,0,0,0-3,34.36c.49,2.26,1.7,7.58,4.3,8.47S1099.32,36.88,1099.43,34.93Z"/><path class="cls-5" d="M1086.91,70.49a180,180,0,0,0-29.63-22.22c2.21,4.61,1.89,10,3.7,14.82,1.26,3.33,3.49,6.19,5.69,9a31.72,31.72,0,0,0,3.82,4.3,27,27,0,0,0,3.89,2.74A89.73,89.73,0,0,0,1085.92,85c2.32,1,9.4,4.87,11.83,3.8C1103.88,86.11,1089,72.46,1086.91,70.49Z"/><path class="cls-5" d="M1074.16,84.74l-13.49-8.93A86.67,86.67,0,0,0,1088.13,109c3.08,2.23,10.35,6.76,14.44,5.09,3.72-1.52-.31-6.56-1.92-8.39C1093.22,97.19,1083.47,90.9,1074.16,84.74Z"/><path class="cls-5" d="M1104.56,122c-3.56-2.6-7.75-4.18-11.68-6.16a117.89,117.89,0,0,1-13.66-8.49l6.9,7.57c1.76,1.93,3.52,3.86,5.45,5.6,4.14,3.75,10.19,8.36,15.61,10C1114.45,132.75,1106.69,123.57,1104.56,122Z"/><path class="cls-5" d="M1098.36,130.48A177.41,177.41,0,0,1,1076,116.19a11.77,11.77,0,0,1-3.82-4c5.91,6.76,11.84,13.55,18.64,19.41a77.54,77.54,0,0,0,9.95,7.35c2.38,1.47,8.13,5.69,11.07,4.9C1118.4,142.09,1100.34,131.55,1098.36,130.48Z"/><path class="cls-5" d="M1112.89,148.41c-9.6-7.09-21.41-10.61-31.31-17.28l6.79,7c2.92,3,5.89,6,9.47,8.2a49.94,49.94,0,0,0,7.74,3.57c2.57,1,10.39,5.62,12.79,4.3C1117.77,151.94,1114.77,149.68,1112.89,148.41Z"/><path class="cls-5" d="M1085.49,142.32c2,2.31,4,4.62,6.07,6.89,2.77,3.08,5.67,6.15,9.28,8.2a41.74,41.74,0,0,0,9.95,3.61c2.33.63,10.45,4.6,9.87.2-.49-3.74-6.53-5.9-9.41-7.21C1102.68,150.11,1093.15,148,1085.49,142.32Z"/><path class="cls-6" d="M1100.78,56.57a281.51,281.51,0,0,0,7.19,46.31c1.53,6.32,3.27,12.58,5,18.84l5.1,18.3c1.27,4.55,2.54,9.11,3.91,13.63,3.88,12.82,22.29,59.81,27.74,72.05"/><path class="cls-7" d="M1132.72,171a50.36,50.36,0,0,0,10.92-29.11c-5.09,7.48-10.31,15.28-11.69,24.22a65.55,65.55,0,0,1-1,6.55A17.05,17.05,0,0,0,1132.72,171Z"/><path class="cls-7" d="M1132.68,157.49c4.5-11.22,7.28-23.52,5.15-35.43l-3.83,9.46c-2.41,6-4.84,12-6,18.29a40.52,40.52,0,0,0-.42,13c.45,2.86,1.38,1.9,2.56-.08A37.16,37.16,0,0,0,1132.68,157.49Z"/><path class="cls-7" d="M1134.18,100.87a13.77,13.77,0,0,0,0-5.75,113.55,113.55,0,0,1-5.48,16.13,73,73,0,0,0-3.15,8,55.25,55.25,0,0,0-1.24,5.72l-1.42,7.87c-.65,3.57-2.06,9.32,0,12.63,2.25-2.32,3.35-7.29,4.36-10.34,1.21-3.68,2.21-7.43,3.05-11.21C1132,116.3,1133.09,108.58,1134.18,100.87Z"/><path class="cls-7" d="M1123.94,116.45c3.12-8.56,6.26-17.27,6.79-26.36a46.89,46.89,0,0,0-.91-12.24c-3,8.48-6,17-8.38,25.65a91.07,91.07,0,0,0-2.75,13c-.45,3.68-1.42,9.77.33,13.16C1121.32,125.93,1122.41,120.64,1123.94,116.45Z"/><path class="cls-7" d="M1113.24,114.32c-.6-4.94-.79-13.89-1.39-18.83-.17-1.37-.33-2.74-.44-4.12a53.21,53.21,0,0,1,10-35.42c2.9,14.16,2.95,29.33-2.84,42.58-.81,1.85-1.72,3.64-2.47,5.51a67,67,0,0,0-2.89,10.29"/><path class="cls-7" d="M1107.12,76.74l4.53-14.95c1.32-4.36,2.65-8.79,2.77-13.34a44.16,44.16,0,0,0-.84-8.65,163.24,163.24,0,0,0-4.22-18.16c0,4.57-1.5,9-2.18,13.51-1.87,12.58,1.23,28.94-.06,41.59"/><path class="cls-7" d="M1083.68,46.35c-3.59-5.14-7.36-10.44-12.78-13.58.62,4.37,1.26,8.8,3,12.85a50.22,50.22,0,0,0,2.64,5.06q4.08,7.14,8.17,14.28a19.76,19.76,0,0,0,3.19,4.5,18.23,18.23,0,0,0,2.79,2.1c3,2,6.34,4.39,9.72,5.56.82-1.54-1.35-5.09-2-6.57a88.47,88.47,0,0,0-4.34-8.43C1090.9,56.67,1087.29,51.51,1083.68,46.35Z"/><path class="cls-7" d="M1102.28,45.09c.68-11.58-3.95-22.81-4.72-34.38a58.5,58.5,0,0,0-3,34.36c.49,2.26,1.7,7.58,4.3,8.47S1102.16,47,1102.28,45.09Z"/><path class="cls-7" d="M1089.76,80.65a180,180,0,0,0-29.63-22.22c2.21,4.61,1.89,10,3.7,14.82,1.26,3.33,3.49,6.19,5.69,9a31.72,31.72,0,0,0,3.82,4.3,27,27,0,0,0,3.89,2.74,89.73,89.73,0,0,0,11.53,5.91c2.32,1,9.4,4.87,11.83,3.8C1106.73,96.27,1091.89,82.63,1089.76,80.65Z"/><path class="cls-7" d="M1077,94.91,1063.51,86A86.67,86.67,0,0,0,1091,119.12c3.08,2.23,10.35,6.76,14.44,5.09,3.72-1.52-.31-6.56-1.92-8.39C1096.06,107.36,1086.31,101.07,1077,94.91Z"/><path class="cls-7" d="M1107.4,132.18c-3.56-2.6-7.75-4.18-11.68-6.16a117.89,117.89,0,0,1-13.66-8.49l6.9,7.57c1.76,1.93,3.52,3.86,5.45,5.6,4.14,3.75,10.19,8.36,15.61,10C1117.29,142.91,1109.54,133.73,1107.4,132.18Z"/><path class="cls-7" d="M1101.2,140.65a177.41,177.41,0,0,1-22.34-14.29,11.77,11.77,0,0,1-3.82-4c5.91,6.76,11.84,13.55,18.64,19.41a77.54,77.54,0,0,0,9.95,7.35c2.38,1.47,8.13,5.69,11.07,4.9C1121.25,152.25,1103.18,141.72,1101.2,140.65Z"/><path class="cls-7" d="M1115.73,158.57c-9.6-7.09-21.41-10.61-31.31-17.28l6.79,7c2.92,3,5.89,6,9.47,8.2a49.94,49.94,0,0,0,7.74,3.57c2.57,1,10.39,5.62,12.79,4.3C1120.62,162.11,1117.61,159.85,1115.73,158.57Z"/><path class="cls-7" d="M1088.34,152.49c2,2.31,4,4.62,6.07,6.89,2.77,3.08,5.67,6.15,9.28,8.2a41.74,41.74,0,0,0,9.95,3.61c2.33.63,10.45,4.6,9.87.2-.49-3.74-6.53-5.9-9.41-7.21C1105.53,160.28,1096,158.2,1088.34,152.49Z"/><path class="cls-5" d="M145.1,140.27a149.52,149.52,0,0,1-1.38,23.68c-.45,3.26-1,6.5-1.57,9.74l-1.63,9.47c-.41,2.36-.81,4.72-1.27,7.06-1.29,6.65-3.6,30.48-5.67,36.92"/><path class="cls-5" d="M134.14,199.51a25.72,25.72,0,0,1-6.55-14.09c2.78,3.5,5.64,7.16,6.7,11.59.26,1.08.4,2.2.77,3.24A8.18,8.18,0,0,1,134.14,199.51Z"/><path class="cls-5" d="M133.55,192.7c-2.67-5.42-4.55-11.46-4.06-17.56l2.26,4.56a47.26,47.26,0,0,1,3.68,8.9,21.37,21.37,0,0,1,.79,6.54c-.09,1.46-.58,1-1.23.09A18.79,18.79,0,0,1,133.55,192.7Z"/><path class="cls-5" d="M130.29,164.28a7.27,7.27,0,0,1-.26-2.89,58.29,58.29,0,0,0,3.36,7.84,37.27,37.27,0,0,1,1.87,3.86,28.73,28.73,0,0,1,.85,2.82l1,3.89c.47,1.77,1.41,4.58.57,6.36-1.18-1.05-1.93-3.49-2.56-5-.75-1.79-1.39-3.62-2-5.48C132,171.94,131.16,168.11,130.29,164.28Z"/><path class="cls-5" d="M135.91,171.6c-1.88-4.15-3.78-8.37-4.44-12.92a24.86,24.86,0,0,1-.11-6.21c1.82,4.12,3.64,8.24,5.18,12.48a47.38,47.38,0,0,1,1.9,6.42c.38,1.83,1.12,4.84.43,6.64C137.59,176.23,136.83,173.63,135.91,171.6Z"/><path class="cls-5" d="M141,170c.07-2.52-.24-7-.18-9.55,0-.7,0-1.4,0-2.1A27.43,27.43,0,0,0,134.4,141c-.76,7.27-.1,14.92,3.27,21.28.47.89,1,1.75,1.43,2.65a34.63,34.63,0,0,1,1.85,5"/><path class="cls-5" d="M142.2,150.74l-2.84-7.29a26.6,26.6,0,0,1-1.93-6.57,23.43,23.43,0,0,1,0-4.4,86.71,86.71,0,0,1,1.21-9.36c.22,2.3,1.13,4.45,1.65,6.69,1.46,6.24.71,14.63,1.9,20.93"/><path class="cls-5" d="M152.1,134.25c1.5-2.77,3.07-5.63,5.53-7.49a26.71,26.71,0,0,1-.86,6.62,26.38,26.38,0,0,1-1,2.68q-1.64,3.81-3.28,7.61a10.25,10.25,0,0,1-1.33,2.43,9.09,9.09,0,0,1-1.24,1.2,23.72,23.72,0,0,1-4.42,3.3c-.46-.73.42-2.63.67-3.41a46.48,46.48,0,0,1,1.71-4.47C149.1,139.81,150.6,137,152.1,134.25Z"/><path class="cls-5" d="M143.11,134.57c-.85-5.79.87-11.68.73-17.55a30.71,30.71,0,0,1,3,17.14c-.14,1.16-.48,3.9-1.68,4.49S143.25,135.54,143.11,134.57Z"/><path class="cls-5" d="M150.72,151.82A89.68,89.68,0,0,1,164,139.11c-.85,2.43-.46,5.15-1.11,7.65a18.31,18.31,0,0,1-2.33,4.82,16.24,16.24,0,0,1-1.64,2.36,13.42,13.42,0,0,1-1.75,1.58,43.62,43.62,0,0,1-5.27,3.57c-1.07.62-4.3,2.94-5.51,2.52C143.27,160.56,149.78,152.92,150.72,151.82Z"/><path class="cls-5" d="M157.48,158.34l6.08-5.19a44.53,44.53,0,0,1-11.7,18.09c-1.38,1.28-4.67,3.93-6.7,3.31-1.85-.57-.15-3.32.55-4.32C148.89,165.58,153.29,161.92,157.48,158.34Z"/><path class="cls-5" d="M144.55,178.66a39.44,39.44,0,0,1,5.34-3.7,58,58,0,0,0,6.18-5l-3,4.16c-.76,1.06-1.52,2.12-2.37,3.1-1.82,2.1-4.52,4.73-7,5.84C140.29,184.57,143.6,179.55,144.55,178.66Z"/><path class="cls-5" d="M147.91,182.6A87.45,87.45,0,0,0,158,174.26a6,6,0,0,0,1.66-2.21,97.49,97.49,0,0,1-8.08,10.73,38.6,38.6,0,0,1-4.45,4.21c-1.08.86-3.65,3.28-5.09,3C138.81,189.48,147,183.24,147.91,182.6Z"/><path class="cls-5" d="M141.74,192.37c4.29-4.06,9.81-6.44,14.26-10.31l-3,3.85a25.16,25.16,0,0,1-4.18,4.61,24.14,24.14,0,0,1-3.56,2.19c-1.19.64-4.74,3.36-5.95,2.83C139.55,194.41,140.89,193.11,141.74,192.37Z"/><path class="cls-5" d="M154.62,187.9c-.86,1.27-1.73,2.53-2.61,3.78a19.63,19.63,0,0,1-4.09,4.6,20,20,0,0,1-4.62,2.33c-1.09.44-4.81,2.86-4.73.61.07-1.91,2.87-3.3,4.2-4.11C146.72,192.71,151.2,191.17,154.62,187.9Z"/><path class="cls-8" d="M1198,115.4a16.45,16.45,0,0,0-10.14,5.78c-4.54,5.3-8.83,10.06-10,15.19,0,0-.21,1.61.91,2.1s5,4,2.77,6.15-3.83.78-7.5-1.87c0,0-1.17-.65-1.88.88s-3.52,3.54.32,8.1,2.34,5.88,2.34,5.88-.53,2.21-4.73,1.37c0,0-3,7.63,4.48,11.55,1.28.68,1.77,1.42,5.71,1a5,5,0,0,1,5.23,2.85l10.17-53.29s1-.14,1.23,1.85-1.6,32.56-7.54,52a2.41,2.41,0,0,1,2.55-.11c1.29.8,2.3,3.2,2.43,3.48a2.3,2.3,0,0,0,2.71,1.28c1.81-.44,5.8-1.1,8.19-4s4.34-7.7,3.79-10.06-3.45-4.9-2.85-5.63,1.12-2.64,3.24-3.12,5.44-3,3.1-4.82-2.36-4-5.11-2.88-5.11-5.27-2.72-5.89,4.48-1.3,6.56-.42,4-2.9,2.53-5.46-3.06-5.66-2.83-7.42S1208.15,115.55,1198,115.4Z"/><path class="cls-8" d="M1195.56,122.65s-1.69,14.94-2.47,16-2.47,17.55-3,18.71-1.89,11.8-2.51,13.06-13.93,54.46-14,55.31,5,0,5,0,14.59-71.55,14.48-72.89a65.56,65.56,0,0,1,1.58-9.75C1194.79,142.64,1198.82,123.64,1195.56,122.65Z"/><polygon class="cls-8" points="1193.3 138.07 1186.75 129.22 1187.25 128.31 1193.53 137.12 1193.3 138.07"/><path class="cls-8" d="M1191.07,151l-6.75-8.68s-.15-.73.58-.57,6.29,8.32,6.29,8.32Z"/><path class="cls-8" d="M1188.63,165l-8-11.34s-.58-1.28.72-.55,7.45,11,7.45,11Z"/><path class="cls-8" d="M1190.05,166.6l13.29-5.29s.73-.28.4-.72a1,1,0,0,0-1.14-.21c-.25.07-12.23,4.84-12.23,4.84Z"/><path class="cls-8" d="M1192.8,154.06l9.88-5.39s1.14-1.18-.41-.72-9.29,4.38-9.29,4.38"/><path class="cls-8" d="M1195.82,136.77s6.86-4.23,8.63-4.41-8.86,5.72-8.86,5.72Z"/><path class="cls-8" d="M446.67,148.4A19.71,19.71,0,0,1,458,155.63c4.9,6.22,9.55,11.82,10.58,17.56,0,0,.15,1.79-1.16,2.23s-5.89,3.93-3.5,6.53,4.33,1.18,8.68-1.42c0,0,1.37-.62,2.1,1.13s3.84,4.2-.8,8.88-3,6.26-3,6.26.49,2.47,5.34,1.92c0,0,3,8.64-5.75,12.32-1.5.63-2.11,1.41-6.59.66a5.58,5.58,0,0,0-6.14,2.68L449,154.9s-1.09-.24-1.5,1.93.07,35.95,5.81,57.81a2.88,2.88,0,0,0-2.91-.34c-1.51.77-2.8,3.33-3,3.62a2.59,2.59,0,0,1-3.17,1.18c-2-.63-6.58-1.71-9.15-5.15s-4.54-8.84-3.79-11.39,4.21-5.09,3.56-6-1.14-3-3.53-3.71-6.06-3.74-3.29-5.56,2.92-4.14,6-2.73,6.13-5.36,3.43-6.25-5.06-1.82-7.48-1-4.36-3.53-2.6-6.22,3.81-6,3.64-7.92S435,147.7,446.67,148.4Z"/><path class="cls-8" d="M449,156.59s1.13,16.58,2,17.79,1.87,19.52,2.45,20.83,1.52,13.14,2.16,14.58,3.42,14,3.51,15-2.38.45-2.38.45-6.59-33.76-6.38-35.22-1-10.37-1.28-10.86S445.27,157.4,449,156.59Z"/><polygon class="cls-8" points="450.79 173.74 458.76 164.56 458.24 163.51 450.58 172.68 450.79 173.74"/><path class="cls-8" d="M452.64,188.19l8.18-9s.21-.8-.63-.68-7.65,8.61-7.65,8.61Z"/><path class="cls-8" d="M454.67,203.73l9.78-11.79s.73-1.36-.79-.66-9.11,11.42-9.11,11.42Z"/><path class="cls-8" d="M453,205.39l-14.91-7s-.82-.37-.42-.83,1-.23,1.32-.13,13.72,6.37,13.72,6.37Z"/><path class="cls-8" d="M450.5,191.37l-11-6.77s-1.24-1.39.51-.76,10.38,5.61,10.38,5.61"/><path class="cls-8" d="M448,172.09s-7.62-5.24-9.63-5.59,9.82,7,9.82,7Z"/><path class="cls-8" d="M416.44,179.33a11.16,11.16,0,0,1,4.76,5.91c1.51,4.22,3,8.06,2.53,11.33,0,0-.24,1-1,1s-3.87,1.05-3.05,2.88,2.11,1.41,4.91.8c0,0,.85-.09.92,1s1.31,2.95-2,4.62-2.73,2.83-2.73,2.83-.18,1.41,2.52,2a5.54,5.54,0,0,1-5.3,5.58c-.92.07-1.38.38-3.66-.83a3.16,3.16,0,0,0-3.78.34l6-33.51s-.54-.33-1.15.77-6.43,19.32-7.28,32.09a1.63,1.63,0,0,0-1.5-.71,5.38,5.38,0,0,0-2.24,1.41,1.46,1.46,0,0,1-1.92.06c-1-.71-3.22-2.1-4-4.41s-.85-5.56,0-6.8,3.18-2,3-2.55-.07-1.82-1.23-2.63-2.58-3.1-.76-3.58,2.31-1.7,3.71-.39,4.25-1.78,3-2.74-2.39-1.88-3.83-1.9-1.71-2.68-.28-3.81,3.12-2.52,3.38-3.6S410.31,176.86,416.44,179.33Z"/><path class="cls-8" d="M416.24,184.15s-2.38,9.11-2.14,9.9-2.51,10.82-2.43,11.63-1.55,7.33-1.46,8.22-.69,8.15-.81,8.67-1.36-.18-1.36-.18,2.53-19.31,2.91-20.06a39.91,39.91,0,0,0,1.27-6.06C412.17,196,414.06,183.91,416.24,184.15Z"/><polygon class="cls-8" points="414.09 193.68 420.02 190.18 419.93 189.53 414.17 193.07 414.09 193.68"/><path class="cls-8" d="M412.48,201.77l6-3.35a.29.29,0,0,0-.22-.48c-.47-.09-5.65,3.25-5.65,3.25Z"/><path class="cls-8" d="M410.78,210.48l7.37-4.57s.64-.6-.31-.5-6.95,4.49-6.95,4.49Z"/><path class="cls-8" d="M409.57,211.06l-6.76-6.41s-.37-.35-.07-.52.6.06.73.17,6.22,5.89,6.22,5.89Z"/><path class="cls-8" d="M410.77,203.09l-4.69-5.61s-.42-1,.41-.32,4.57,4.88,4.57,4.88"/><path class="cls-8" d="M412.88,192.28s-3.15-4.18-4.17-4.73,4,5.55,4,5.55Z"/><path class="cls-7" d="M105.55,116.6a225,225,0,0,0,4.18,30.77c.87,4.22,1.87,8.4,2.86,12.59l2.9,12.23c.72,3,1.44,6.09,2.22,9.12,2.2,8.59,12,37.57,15.12,45.83"/><path class="cls-7" d="M123.71,193.12a35.07,35.07,0,0,0,5.9-18.8c-2.77,4.75-5.62,9.71-6.34,15.55-.18,1.42-.22,2.89-.51,4.28A9.33,9.33,0,0,0,123.71,193.12Z"/><path class="cls-7" d="M123.63,184.22c2.44-7.24,3.91-15.25,2.68-23.16l-2.07,6.1A65.56,65.56,0,0,0,121,179a31.62,31.62,0,0,0-.17,8.58c.26,1.9.77,1.3,1.41,0A25,25,0,0,0,123.63,184.22Z"/><path class="cls-7" d="M124.2,147a10.8,10.8,0,0,0,0-3.79,80.56,80.56,0,0,1-3,10.44,50.7,50.7,0,0,0-1.7,5.15c-.29,1.22-.48,2.47-.66,3.73l-.75,5.13c-.34,2.33-1.1,6.07.06,8.32,1.23-1.45,1.81-4.68,2.36-6.66.65-2.38,1.18-4.82,1.63-7.28C123.06,157,123.63,152,124.2,147Z"/><path class="cls-7" d="M118.61,156.87c1.68-5.53,3.38-11.16,3.63-17.13a37.23,37.23,0,0,0-.56-8.1c-1.62,5.49-3.23,11-4.51,16.61a67.76,67.76,0,0,0-1.46,8.5c-.23,2.41-.74,6.39.24,8.68C117.21,163,117.79,159.57,118.61,156.87Z"/><path class="cls-7" d="M112.7,155.09c-.35-3.28-.5-9.18-.85-12.46-.1-.91-.2-1.82-.26-2.73a38.31,38.31,0,0,1,5.38-23c1.67,9.43,1.76,19.43-1.37,28-.44,1.19-.93,2.34-1.34,3.55a48.64,48.64,0,0,0-1.55,6.68"/><path class="cls-7" d="M109.15,130.11l2.43-9.69a38,38,0,0,0,1.47-8.69,35.16,35.16,0,0,0-.5-5.73c-.61-4.08-1.42-8.12-2.41-12.12,0,3-.79,5.87-1.14,8.83-1,8.23.81,19.11.15,27.4"/><path class="cls-7" d="M96.07,109.27c-2-3.51-4.11-7.13-7.12-9.39a40.16,40.16,0,0,0,1.71,8.57c.42,1.18,1,2.3,1.48,3.43q2.28,4.85,4.58,9.69a14.53,14.53,0,0,0,1.78,3.08,11.6,11.6,0,0,0,1.55,1.48,28.75,28.75,0,0,0,5.39,4c.44-1-.77-3.4-1.14-4.4-.72-2-1.55-3.85-2.44-5.71C100.1,116.32,98.08,112.79,96.07,109.27Z"/><path class="cls-7" d="M106.33,109.09c.32-7.6-2.28-15.17-2.77-22.82a44.88,44.88,0,0,0-1.49,22.54c.28,1.5,1,5.05,2.41,5.73S106.27,110.37,106.33,109.09Z"/><path class="cls-7" d="M99.58,132.08a114.41,114.41,0,0,0-16.46-15.67c1.24,3.11,1.09,6.68,2.11,9.89a26.32,26.32,0,0,0,3.18,6.12,22.3,22.3,0,0,0,2.13,3,16.92,16.92,0,0,0,2.16,1.94,51.86,51.86,0,0,0,6.4,4.3c1.29.73,5.21,3.54,6.55,2.92C109,143,100.76,133.46,99.58,132.08Z"/><path class="cls-7" d="M92.6,141l-7.49-6.35a61.7,61.7,0,0,0,15.32,22.79c1.71,1.58,5.75,4.81,8,3.86,2-.87-.2-4.33-1.1-5.6C103.18,149.9,97.77,145.42,92.6,141Z"/><path class="cls-7" d="M109.56,166.65a47.12,47.12,0,0,0-6.48-4.47,71.39,71.39,0,0,1-7.58-6.07l3.84,5.23c1,1.33,2,2.66,3,3.88,2.3,2.61,5.67,5.86,8.67,7.14C115.07,174.07,110.74,167.75,109.56,166.65Z"/><path class="cls-7" d="M106.17,172a108.23,108.23,0,0,1-12.4-10.2A8.13,8.13,0,0,1,91.64,159,132.19,132.19,0,0,0,102,172.49a49.11,49.11,0,0,0,5.53,5.19c1.32,1.05,4.52,4,6.13,3.62C117.29,180.36,107.27,172.79,106.17,172Z"/><path class="cls-7" d="M114.28,184.33c-5.33-5-11.87-7.74-17.37-12.48l3.78,4.83a33,33,0,0,0,5.27,5.73,28.2,28.2,0,0,0,4.29,2.62c1.42.76,5.76,4.07,7.08,3.28C117,186.84,115.32,185.24,114.28,184.33Z"/><path class="cls-7" d="M99.12,179.37c1.12,1.59,2.24,3.18,3.39,4.75a25.83,25.83,0,0,0,5.16,5.73,22.51,22.51,0,0,0,5.51,2.72c1.29.49,5.79,3.4,5.45.48-.29-2.48-3.63-4.11-5.23-5.08C108.65,185.1,103.38,183.4,99.12,179.37Z"/><path class="cls-5" d="M537.74,197a64.6,64.6,0,0,0,.73,11.32c.24,1.56.53,3.11.83,4.66l.86,4.53c.22,1.13.43,2.25.67,3.38a74.74,74.74,0,0,0,2.68,9.4"/><path class="cls-5" d="M543.15,225.35a11.82,11.82,0,0,0,3.47-6.74c-1.47,1.67-3,3.42-3.55,5.54a15.06,15.06,0,0,1-.41,1.55A4.28,4.28,0,0,0,543.15,225.35Z"/><path class="cls-5" d="M543.46,222.1a15,15,0,0,0,2.15-8.4l-1.2,2.18a21.43,21.43,0,0,0-2,4.25,9.28,9.28,0,0,0-.42,3.13c0,.7.3.49.65,0A8.8,8.8,0,0,0,543.46,222.1Z"/><path class="cls-5" d="M545.19,208.51a3.15,3.15,0,0,0,.14-1.38,26.5,26.5,0,0,1-1.78,3.75,17.14,17.14,0,0,0-1,1.84,12.75,12.75,0,0,0-.45,1.35l-.55,1.86c-.25.84-.75,2.19-.3,3a7,7,0,0,0,1.35-2.38,27.27,27.27,0,0,0,1-2.62C544.27,212.17,544.73,210.34,545.19,208.51Z"/><path class="cls-5" d="M542.21,212a21.75,21.75,0,0,0,2.35-6.18,10.73,10.73,0,0,0,.06-3c-1,2-1.93,3.94-2.74,6a21,21,0,0,0-1,3.07c-.2.87-.59,2.32-.23,3.17A17.71,17.71,0,0,0,542.21,212Z"/><path class="cls-5" d="M539.54,211.23c0-1.2.13-3.36.09-4.57,0-.33,0-.67,0-1a12.38,12.38,0,0,1,3.4-8.28,16.34,16.34,0,0,1-1.73,10.18c-.25.42-.52.83-.76,1.27a15.56,15.56,0,0,0-1,2.4"/><path class="cls-5" d="M538.88,202l1.51-3.49a11.79,11.79,0,0,0,1-3.14,10.11,10.11,0,0,0,0-2.1,37.62,37.62,0,0,0-.64-4.47,22.77,22.77,0,0,1-.87,3.2c-.78,3-.37,7-1,10"/><path class="cls-5" d="M533.63,194.15a10.75,10.75,0,0,0-2.93-3.58,11.6,11.6,0,0,0,.46,3.17,11.89,11.89,0,0,0,.55,1.28l1.74,3.64a4.78,4.78,0,0,0,.7,1.16,4.64,4.64,0,0,0,.66.57,12.56,12.56,0,0,0,2.34,1.58c.24-.35-.22-1.26-.35-1.63a20.94,20.94,0,0,0-.91-2.14C535.23,196.81,534.43,195.48,533.63,194.15Z"/><path class="cls-5" d="M538.4,194.3c.45-2.77-.46-5.59-.39-8.39a13.44,13.44,0,0,0-1.58,8.2c.07.55.25,1.87.89,2.14S538.32,194.77,538.4,194.3Z"/><path class="cls-5" d="M534.37,202.55a45.78,45.78,0,0,0-7-6.08c.45,1.16.24,2.46.59,3.66a8.42,8.42,0,0,0,1.23,2.3,7.81,7.81,0,0,0,.87,1.13,6.91,6.91,0,0,0,.93.76,23.41,23.41,0,0,0,2.8,1.71c.57.29,2.28,1.4,2.92,1.21C538.31,206.73,534.86,203.08,534.37,202.55Z"/><path class="cls-5" d="M530.78,205.67l-3.22-2.48a21.21,21.21,0,0,0,6.2,8.65c.73.61,2.47,1.88,3.55,1.58s.08-1.59-.29-2.07A32.57,32.57,0,0,0,530.78,205.67Z"/><path class="cls-5" d="M537.63,215.39a21.1,21.1,0,0,0-2.83-1.77,30.4,30.4,0,0,1-3.27-2.38l1.58,2c.4.51.8,1,1.25,1.48a12.12,12.12,0,0,0,3.74,2.79C539.9,218.21,538.14,215.81,537.63,215.39Z"/><path class="cls-5" d="M535.85,217.27a45.66,45.66,0,0,1-5.35-4,2.91,2.91,0,0,1-.88-1.06,47.38,47.38,0,0,0,4.28,5.13,19.75,19.75,0,0,0,2.36,2c.57.41,1.93,1.57,2.7,1.45C540.68,220.56,536.33,217.58,535.85,217.27Z"/><path class="cls-5" d="M539.13,221.94c-2.27-1.94-5.2-3.08-7.56-4.93l1.56,1.84a12.57,12.57,0,0,0,2.21,2.21,13.1,13.1,0,0,0,1.88,1c.63.31,2.51,1.61,3.15,1.35C540.29,222.91,539.57,222.3,539.13,221.94Z"/><path class="cls-5" d="M532.3,219.8c.46.61.91,1.21,1.38,1.81a9.78,9.78,0,0,0,2.17,2.2,11.06,11.06,0,0,0,2.45,1.11c.58.21,2.55,1.37,2.51.29,0-.91-1.52-1.58-2.22-2C536.49,222.1,534.11,221.37,532.3,219.8Z"/><path class="cls-9" d="M558.3,185.71a97.68,97.68,0,0,1-2.22,14.71c-.46,2-1,4-1.52,6L553,212.29c-.38,1.46-.77,2.91-1.18,4.36a112.53,112.53,0,0,1-4.2,12.09"/><path class="cls-9" d="M548.68,222.3a15.66,15.66,0,0,1-3.13-9c1.47,2.27,3,4.64,3.36,7.43.09.68.11,1.38.27,2A4.69,4.69,0,0,1,548.68,222.3Z"/><path class="cls-9" d="M548.72,218A21.47,21.47,0,0,1,547.3,207l1.1,2.92a29,29,0,0,1,1.7,5.66,13.66,13.66,0,0,1,.09,4.1c-.14.91-.41.62-.75,0A11.29,11.29,0,0,1,548.72,218Z"/><path class="cls-9" d="M548.42,200.23a4.67,4.67,0,0,1,0-1.81,35.65,35.65,0,0,0,1.56,5,22.62,22.62,0,0,1,.9,2.46,17.88,17.88,0,0,1,.35,1.78l.4,2.45c.18,1.12.58,2.9,0,4a9.11,9.11,0,0,1-1.25-3.19c-.35-1.14-.63-2.3-.87-3.48C549,205.05,548.72,202.64,548.42,200.23Z"/><path class="cls-9" d="M551.38,205a30.08,30.08,0,0,1-1.92-8.19,16.1,16.1,0,0,1,.3-3.87c.86,2.62,1.71,5.25,2.39,7.94a29.52,29.52,0,0,1,.77,4.06c.12,1.15.39,3.05-.13,4.15A23.55,23.55,0,0,1,551.38,205Z"/><path class="cls-9" d="M554.52,204.12c.19-1.57.27-4.39.45-6,.05-.43.1-.87.14-1.31a16.91,16.91,0,0,0-2.85-11c-.88,4.51-.93,9.29.73,13.37.23.57.49,1.12.71,1.7a21.36,21.36,0,0,1,.82,3.19"/><path class="cls-9" d="M556.4,192.17l-1.29-4.63a16.58,16.58,0,0,1-.78-4.16,15.21,15.21,0,0,1,.27-2.74,57,57,0,0,1,1.28-5.79,32.49,32.49,0,0,0,.6,4.22c.52,3.93-.43,9.14-.08,13.1"/><path class="cls-9" d="M563.33,182.21a14.66,14.66,0,0,1,3.77-4.49,13.2,13.2,0,0,1-1.69,5.74L563,188.09a6.82,6.82,0,0,1-.94,1.47,5.93,5.93,0,0,1-.82.71,15.24,15.24,0,0,1-2.86,1.91c-.24-.47.41-1.63.6-2.1.38-.93.82-1.84,1.29-2.73C561.2,185.58,562.26,183.89,563.33,182.21Z"/><path class="cls-9" d="M557.89,182.12c-.17-3.64,1.21-7.25,1.47-10.91a19.46,19.46,0,0,1,.79,10.78c-.15.72-.52,2.42-1.28,2.74S557.92,182.73,557.89,182.12Z"/><path class="cls-9" d="M561.47,193.12a58.49,58.49,0,0,1,8.73-7.5c-.66,1.49-.58,3.2-1.12,4.73a12.2,12.2,0,0,1-1.69,2.93,10.77,10.77,0,0,1-1.13,1.42,8.72,8.72,0,0,1-1.15.93,27.86,27.86,0,0,1-3.39,2.06c-.68.35-2.76,1.69-3.47,1.39C556.47,198.32,560.84,193.77,561.47,193.12Z"/><path class="cls-9" d="M565.17,197.39l4-3a29.54,29.54,0,0,1-8.12,10.9c-.91.75-3,2.3-4.24,1.85s.11-2.07.58-2.68A42,42,0,0,1,565.17,197.39Z"/><path class="cls-9" d="M556.18,209.64a25.23,25.23,0,0,1,3.43-2.14,37.45,37.45,0,0,0,4-2.9l-2,2.5c-.52.64-1,1.27-1.61,1.86a15,15,0,0,1-4.59,3.41C553.26,213.19,555.55,210.17,556.18,209.64Z"/><path class="cls-9" d="M558,212.21a56.56,56.56,0,0,0,6.57-4.88,4,4,0,0,0,1.13-1.32,64.49,64.49,0,0,1-5.5,6.43,25.16,25.16,0,0,1-2.93,2.48c-.7.5-2.39,1.93-3.25,1.73C552.08,216.2,557.39,212.58,558,212.21Z"/><path class="cls-9" d="M553.68,218.1c2.83-2.4,6.29-3.7,9.2-6l-2,2.31a16.52,16.52,0,0,1-2.79,2.74,15.32,15.32,0,0,1-2.27,1.25c-.75.36-3.05,1.95-3.75,1.57A4.58,4.58,0,0,1,553.68,218.1Z"/><path class="cls-9" d="M561.71,215.72c-.59.76-1.19,1.52-1.79,2.27a12.9,12.9,0,0,1-2.73,2.74,12.5,12.5,0,0,1-2.92,1.3c-.68.24-3.07,1.63-2.89.23.15-1.19,1.93-2,2.77-2.43C556.66,218.47,559.46,217.65,561.71,215.72Z"/><path class="cls-5" d="M120.28,203a50.38,50.38,0,0,0,.57,8.83c.19,1.21.42,2.42.65,3.63l.67,3.53c.17.88.34,1.76.52,2.63a58.29,58.29,0,0,0,2.09,7.33"/><path class="cls-5" d="M124.5,225a9.22,9.22,0,0,0,2.71-5.25,11.36,11.36,0,0,0-2.77,4.32,11.75,11.75,0,0,1-.32,1.21A3.34,3.34,0,0,0,124.5,225Z"/><path class="cls-5" d="M124.74,222.5a11.73,11.73,0,0,0,1.68-6.55l-.94,1.7A16.71,16.71,0,0,0,124,221a7.23,7.23,0,0,0-.33,2.44c0,.54.24.38.51,0A6.86,6.86,0,0,0,124.74,222.5Z"/><path class="cls-5" d="M126.09,211.9a2.46,2.46,0,0,0,.11-1.08,20.66,20.66,0,0,1-1.39,2.92,13.37,13.37,0,0,0-.77,1.44,10,10,0,0,0-.35,1l-.43,1.45c-.19.66-.58,1.71-.23,2.37a5.44,5.44,0,0,0,1.06-1.86,21.27,21.27,0,0,0,.81-2C125.37,214.76,125.73,213.33,126.09,211.9Z"/><path class="cls-5" d="M123.77,214.63a17,17,0,0,0,1.84-4.82,8.37,8.37,0,0,0,0-2.32c-.75,1.53-1.5,3.07-2.14,4.65a16.39,16.39,0,0,0-.79,2.4,4.76,4.76,0,0,0-.18,2.48A13.81,13.81,0,0,0,123.77,214.63Z"/><path class="cls-5" d="M121.69,214c0-.94.1-2.62.07-3.56,0-.26,0-.52,0-.78a9.66,9.66,0,0,1,2.65-6.46,12.75,12.75,0,0,1-1.35,7.94c-.19.33-.41.65-.59,1a12.13,12.13,0,0,0-.76,1.88"/><path class="cls-5" d="M121.17,206.86l1.18-2.72a9.2,9.2,0,0,0,.8-2.45,7.89,7.89,0,0,0,0-1.64,29.34,29.34,0,0,0-.5-3.49,17.76,17.76,0,0,1-.68,2.49c-.6,2.33-.29,5.45-.78,7.8"/><path class="cls-5" d="M117.08,200.7a8.38,8.38,0,0,0-2.29-2.79,9,9,0,0,0,.36,2.47,9.28,9.28,0,0,0,.43,1l1.36,2.84a3.73,3.73,0,0,0,.55.91,3.62,3.62,0,0,0,.51.45,9.8,9.8,0,0,0,1.83,1.23c.19-.27-.17-1-.28-1.27a16.33,16.33,0,0,0-.71-1.67C118.32,202.78,117.7,201.74,117.08,200.7Z"/><path class="cls-5" d="M120.79,200.82c.35-2.16-.36-4.36-.3-6.54a10.48,10.48,0,0,0-1.23,6.39c.06.43.2,1.46.7,1.67S120.73,201.19,120.79,200.82Z"/><path class="cls-5" d="M117.65,207.26a35.71,35.71,0,0,0-5.47-4.74c.35.91.19,1.92.46,2.85a6.57,6.57,0,0,0,1,1.8,6.09,6.09,0,0,0,.68.88,5.39,5.39,0,0,0,.72.59,18.26,18.26,0,0,0,2.18,1.33c.44.23,1.78,1.1,2.28.94C120.73,210.52,118,207.67,117.65,207.26Z"/><path class="cls-5" d="M114.85,209.69l-2.51-1.93a16.54,16.54,0,0,0,4.84,6.75c.57.48,1.93,1.47,2.77,1.23s.06-1.24-.23-1.61A25.4,25.4,0,0,0,114.85,209.69Z"/><path class="cls-5" d="M120.2,217.27a16.45,16.45,0,0,0-2.21-1.38,23.71,23.71,0,0,1-2.55-1.85l1.23,1.55c.31.4.63.79,1,1.16a9.45,9.45,0,0,0,2.91,2.18C122,219.47,120.59,217.6,120.2,217.27Z"/><path class="cls-5" d="M118.81,218.74a35.61,35.61,0,0,1-4.17-3.11,2.27,2.27,0,0,1-.68-.82,37,37,0,0,0,3.34,4,15.4,15.4,0,0,0,1.84,1.57c.45.32,1.51,1.22,2.11,1.13C122.57,221.3,119.18,219,118.81,218.74Z"/><path class="cls-5" d="M121.36,222.38c-1.77-1.52-4.05-2.4-5.89-3.84l1.22,1.44a9.81,9.81,0,0,0,1.73,1.72,10.22,10.22,0,0,0,1.47.82c.49.24,2,1.25,2.46,1.05C122.26,223.14,121.71,222.66,121.36,222.38Z"/><path class="cls-5" d="M116,220.71c.36.47.71.94,1.08,1.41a7.63,7.63,0,0,0,1.69,1.72,8.62,8.62,0,0,0,1.91.87c.45.16,2,1.06,2,.23s-1.19-1.23-1.73-1.53C119.3,222.5,117.45,221.93,116,220.71Z"/><path class="cls-5" d="M56.55,202.63a50.38,50.38,0,0,0,.57,8.83c.19,1.21.42,2.42.65,3.63l.67,3.53c.17.88.34,1.76.52,2.63a58.29,58.29,0,0,0,2.09,7.33"/><path class="cls-5" d="M60.77,224.72a9.22,9.22,0,0,0,2.71-5.25,11.36,11.36,0,0,0-2.77,4.32,11.75,11.75,0,0,1-.32,1.21A3.34,3.34,0,0,0,60.77,224.72Z"/><path class="cls-5" d="M61,222.18a11.73,11.73,0,0,0,1.68-6.55l-.94,1.7a16.71,16.71,0,0,0-1.52,3.32,7.23,7.23,0,0,0-.33,2.44c0,.54.24.38.51,0A6.86,6.86,0,0,0,61,222.18Z"/><path class="cls-5" d="M62.36,211.58a2.46,2.46,0,0,0,.11-1.08,20.66,20.66,0,0,1-1.39,2.92,13.37,13.37,0,0,0-.77,1.44,10,10,0,0,0-.35,1l-.43,1.45c-.19.66-.58,1.71-.23,2.37a5.44,5.44,0,0,0,1.06-1.86,21.27,21.27,0,0,0,.81-2C61.64,214.44,62,213,62.36,211.58Z"/><path class="cls-5" d="M60,214.31a17,17,0,0,0,1.84-4.82,8.37,8.37,0,0,0,0-2.32c-.75,1.53-1.5,3.07-2.14,4.65a16.39,16.39,0,0,0-.79,2.4,4.76,4.76,0,0,0-.18,2.48A13.81,13.81,0,0,0,60,214.31Z"/><path class="cls-5" d="M58,213.71c0-.94.1-2.62.07-3.56,0-.26,0-.52,0-.78a9.66,9.66,0,0,1,2.65-6.46,12.75,12.75,0,0,1-1.35,7.94c-.19.33-.41.65-.59,1a12.13,12.13,0,0,0-.76,1.88"/><path class="cls-5" d="M57.44,206.54l1.18-2.72a9.2,9.2,0,0,0,.8-2.45,7.89,7.89,0,0,0,0-1.64,29.34,29.34,0,0,0-.5-3.49,17.76,17.76,0,0,1-.68,2.49c-.6,2.33-.29,5.45-.78,7.8"/><path class="cls-5" d="M53.35,200.38a8.38,8.38,0,0,0-2.29-2.79,9,9,0,0,0,.36,2.47,9.28,9.28,0,0,0,.43,1l1.36,2.84a3.73,3.73,0,0,0,.55.91,3.62,3.62,0,0,0,.51.45,9.8,9.8,0,0,0,1.83,1.23c.19-.27-.17-1-.28-1.27a16.33,16.33,0,0,0-.71-1.67C54.59,202.46,54,201.42,53.35,200.38Z"/><path class="cls-5" d="M57.06,200.5c.35-2.16-.36-4.36-.3-6.54a10.48,10.48,0,0,0-1.23,6.39c.06.43.2,1.46.7,1.67S57,200.87,57.06,200.5Z"/><path class="cls-5" d="M53.92,206.94a35.71,35.71,0,0,0-5.47-4.74c.35.91.19,1.92.46,2.85a6.57,6.57,0,0,0,1,1.8,6.09,6.09,0,0,0,.68.88,5.39,5.39,0,0,0,.72.59,18.26,18.26,0,0,0,2.18,1.33c.44.23,1.78,1.1,2.28.94C57,210.2,54.31,207.35,53.92,206.94Z"/><path class="cls-5" d="M51.12,209.37l-2.51-1.93a16.54,16.54,0,0,0,4.84,6.75c.57.48,1.93,1.47,2.77,1.23s.06-1.24-.23-1.61A25.4,25.4,0,0,0,51.12,209.37Z"/><path class="cls-5" d="M56.47,216.95a16.45,16.45,0,0,0-2.21-1.38,23.71,23.71,0,0,1-2.55-1.85l1.23,1.55c.31.4.63.79,1,1.16a9.45,9.45,0,0,0,2.91,2.18C58.23,219.15,56.86,217.28,56.47,216.95Z"/><path class="cls-5" d="M55.08,218.42a35.61,35.61,0,0,1-4.17-3.11,2.27,2.27,0,0,1-.68-.82,37,37,0,0,0,3.34,4,15.4,15.4,0,0,0,1.84,1.57c.45.32,1.51,1.22,2.11,1.13C58.84,221,55.45,218.66,55.08,218.42Z"/><path class="cls-5" d="M57.63,222.06c-1.77-1.52-4.05-2.4-5.89-3.84L53,219.65a9.81,9.81,0,0,0,1.73,1.72,10.22,10.22,0,0,0,1.47.82c.49.24,2,1.25,2.46,1.05C58.54,222.82,58,222.34,57.63,222.06Z"/><path class="cls-5" d="M52.31,220.39c.36.47.71.94,1.08,1.41a7.63,7.63,0,0,0,1.69,1.72,8.62,8.62,0,0,0,1.91.87c.45.16,2,1.06,2,.23s-1.19-1.23-1.73-1.53C55.57,222.18,53.72,221.61,52.31,220.39Z"/><path class="cls-10" d="M70.9,204.87a54.38,54.38,0,0,1-.91,7.55c-.2,1-.43,2.06-.66,3.09l-.67,3c-.17.75-.33,1.49-.51,2.24a60.29,60.29,0,0,1-1.86,6.19"/><path class="cls-3" d="M66.71,223.63A8.85,8.85,0,0,1,65.17,219a10.43,10.43,0,0,1,1.63,3.85c0,.35.06.71.14,1.06A2.42,2.42,0,0,1,66.71,223.63Z"/><path class="cls-3" d="M66.69,221.43a12.24,12.24,0,0,1-.75-5.71l.54,1.51a16.48,16.48,0,0,1,.84,2.93,7.76,7.76,0,0,1,.08,2.11c-.06.47-.19.32-.35,0A6.34,6.34,0,0,1,66.69,221.43Z"/><path class="cls-4" d="M66.4,212.26a2.64,2.64,0,0,1,0-.93,20.27,20.27,0,0,0,.77,2.58,12.81,12.81,0,0,1,.44,1.27c.08.3.13.61.18.92l.21,1.27a3.85,3.85,0,0,1,0,2,5.14,5.14,0,0,1-.61-1.65c-.17-.59-.31-1.19-.43-1.8C66.73,214.75,66.56,213.51,66.4,212.26Z"/><path class="cls-4" d="M67.83,214.72a17.17,17.17,0,0,1-1-4.23,9.06,9.06,0,0,1,.11-2c.42,1.36.84,2.72,1.18,4.11a16.88,16.88,0,0,1,.39,2.1,5.12,5.12,0,0,1,0,2.14A13.36,13.36,0,0,1,67.83,214.72Z"/><path class="cls-4" d="M69.28,214.31c.07-.81.09-2.26.16-3.06,0-.22,0-.45.05-.67a9.6,9.6,0,0,0-1.42-5.68,13.5,13.5,0,0,0,.45,6.89c.11.29.24.58.35.88a12.19,12.19,0,0,1,.41,1.65"/><path class="cls-4" d="M70.06,208.18l-.64-2.4a9.47,9.47,0,0,1-.4-2.15,8.54,8.54,0,0,1,.1-1.41c.14-1,.32-2,.55-3a18.58,18.58,0,0,0,.32,2.18c.27,2-.13,4.7.07,6.74"/><path class="cls-4" d="M73.22,203.11a7.07,7.07,0,0,1,1.73-2.28,9.65,9.65,0,0,1-.39,2.1c-.1.29-.23.56-.35.84l-1.1,2.37a3.42,3.42,0,0,1-.43.75,2.73,2.73,0,0,1-.38.36,6.78,6.78,0,0,1-1.32,1c-.11-.25.18-.83.26-1.08.17-.48.37-.94.58-1.39C72.25,204.83,72.74,204,73.22,203.11Z"/><path class="cls-4" d="M70.68,203c-.11-1.87.51-3.72.6-5.6a11.07,11.07,0,0,1,.46,5.55c-.06.37-.22,1.24-.57,1.4S70.7,203.33,70.68,203Z"/><path class="cls-4" d="M72.44,208.71a26.88,26.88,0,0,1,4-3.79c-.29.76-.24,1.64-.48,2.43a6.21,6.21,0,0,1-.76,1.49,5.24,5.24,0,0,1-.52.72,4,4,0,0,1-.53.47,12.26,12.26,0,0,1-1.57,1c-.32.17-1.28.85-1.61.69C70.15,211.35,72.15,209,72.44,208.71Z"/><path class="cls-4" d="M74.2,210.94,76,209.41a14.5,14.5,0,0,1-3.7,5.54c-.42.38-1.4,1.16-2,.92s0-1.07.25-1.37A19.45,19.45,0,0,1,74.2,210.94Z"/><path class="cls-4" d="M70.11,217.17a11.14,11.14,0,0,1,1.59-1.07,16.82,16.82,0,0,0,1.85-1.46l-.93,1.27c-.24.32-.47.65-.74.94a6.77,6.77,0,0,1-2.12,1.72C68.77,219,69.82,217.44,70.11,217.17Z"/><path class="cls-4" d="M71,218.51a25.48,25.48,0,0,0,3-2.46,1.91,1.91,0,0,0,.52-.67A31,31,0,0,1,72,218.64a11.54,11.54,0,0,1-1.35,1.25c-.32.25-1.1,1-1.5.86C68.24,220.51,70.7,218.69,71,218.51Z"/><path class="cls-3" d="M69,221.5c1.3-1.21,2.91-1.85,4.25-3l-.92,1.17a7.74,7.74,0,0,1-1.28,1.39,6.68,6.68,0,0,1-1.05.63c-.35.18-1.41,1-1.74.78A2.21,2.21,0,0,1,69,221.5Z"/><path class="cls-3" d="M72.74,220.35l-.82,1.16a6.06,6.06,0,0,1-1.25,1.39,5.37,5.37,0,0,1-1.35.65c-.32.12-1.42.81-1.35.09s.88-1,1.27-1.23A17.54,17.54,0,0,0,72.74,220.35Z"/><path class="cls-11" d="M28.51,106.1a195.38,195.38,0,0,0,5,32.14c1.06,4.38,2.27,8.73,3.48,13.08L40.52,164c.88,3.16,1.76,6.32,2.71,9.46,2.7,8.9,19.72,52.5,23.51,61"/><path class="cls-5" d="M50.68,185.52a35,35,0,0,0,7.58-20.21c-3.53,5.19-7.15,10.61-8.11,16.81a45.49,45.49,0,0,1-.68,4.54A11.83,11.83,0,0,0,50.68,185.52Z"/><path class="cls-5" d="M50.65,176.14c3.13-7.79,5.05-16.33,3.57-24.59l-2.66,6.56a63.81,63.81,0,0,0-4.14,12.7,28.12,28.12,0,0,0-.29,9.05c.31,2,1,1.32,1.78-.06A25.79,25.79,0,0,0,50.65,176.14Z"/><path class="cls-5" d="M51.69,136.84a9.55,9.55,0,0,0,0-4,78.81,78.81,0,0,1-3.8,11.2,50.69,50.69,0,0,0-2.19,5.54,38.35,38.35,0,0,0-.86,4l-1,5.46c-.45,2.48-1.43,6.47,0,8.77,1.56-1.61,2.32-5.06,3-7.18.84-2.55,1.53-5.16,2.12-7.78C50.17,147.55,50.93,142.19,51.69,136.84Z"/><path class="cls-5" d="M44.58,147.66c2.16-5.94,4.35-12,4.71-18.3a32.54,32.54,0,0,0-.63-8.5c-2.08,5.89-4.16,11.78-5.82,17.8a63.21,63.21,0,0,0-1.91,9.06c-.31,2.55-1,6.78.23,9.13C42.76,154.24,43.52,150.56,44.58,147.66Z"/><path class="cls-5" d="M37.16,146.18c-.41-3.43-.55-9.64-1-13.07-.12-1-.23-1.9-.31-2.86a36.93,36.93,0,0,1,7-24.59c2,9.83,2,20.36-2,29.55-.56,1.28-1.19,2.53-1.71,3.83a46.53,46.53,0,0,0-2,7.14"/><path class="cls-5" d="M32.91,120.09l3.14-10.37A35.48,35.48,0,0,0,38,100.46a30.65,30.65,0,0,0-.58-6,113.3,113.3,0,0,0-2.93-12.61c0,3.17-1,6.24-1.51,9.38-1.3,8.73.86,20.08,0,28.87"/><path class="cls-5" d="M16.64,99c-2.49-3.57-5.11-7.24-8.87-9.42A34.91,34.91,0,0,0,9.85,98.5,34.86,34.86,0,0,0,11.68,102q2.83,5,5.67,9.91A13.71,13.71,0,0,0,19.56,115a12.66,12.66,0,0,0,1.93,1.46,33.64,33.64,0,0,0,6.75,3.86c.57-1.07-.94-3.53-1.39-4.56a61.4,61.4,0,0,0-3-5.85C21.65,106.17,19.14,102.58,16.64,99Z"/><path class="cls-5" d="M29.55,98.13c.47-8-2.74-15.83-3.28-23.86A40.6,40.6,0,0,0,24.2,98.12c.34,1.57,1.18,5.26,3,5.88S29.47,99.48,29.55,98.13Z"/><path class="cls-5" d="M20.86,122.81A124.91,124.91,0,0,0,.29,107.39c1.53,3.2,1.32,7,2.57,10.29a24.38,24.38,0,0,0,3.95,6.24,22,22,0,0,0,2.65,3,18.77,18.77,0,0,0,2.7,1.9,62.27,62.27,0,0,0,8,4.1c1.61.68,6.53,3.38,8.21,2.64C32.64,133.65,22.34,124.18,20.86,122.81Z"/><path class="cls-5" d="M12,132.7l-9.36-6.2a60.15,60.15,0,0,0,19.06,23c2.14,1.55,7.19,4.69,10,3.53,2.58-1.05-.21-4.55-1.33-5.83C25.23,141.34,18.47,137,12,132.7Z"/><path class="cls-5" d="M33.11,158.57c-2.47-1.8-5.38-2.9-8.11-4.28a81.82,81.82,0,0,1-9.48-5.89l4.79,5.25c1.22,1.34,2.44,2.68,3.78,3.89,2.87,2.6,7.08,5.8,10.83,6.94C40,166,34.59,159.65,33.11,158.57Z"/><path class="cls-5" d="M28.8,164.45a123.13,123.13,0,0,1-15.51-9.92,8.17,8.17,0,0,1-2.65-2.78,132.78,132.78,0,0,0,12.94,13.47,53.82,53.82,0,0,0,6.9,5.1c1.65,1,5.64,4,7.68,3.4C42.71,172.51,30.18,165.19,28.8,164.45Z"/><path class="cls-5" d="M38.88,176.89c-6.66-4.92-14.86-7.36-21.73-12l4.72,4.83a34.7,34.7,0,0,0,6.57,5.69,34.66,34.66,0,0,0,5.37,2.48c1.78.7,7.21,3.9,8.88,3C42.28,179.35,40.19,177.78,38.88,176.89Z"/><path class="cls-5" d="M19.87,172.67c1.4,1.6,2.79,3.2,4.22,4.78a27,27,0,0,0,6.44,5.69,29,29,0,0,0,6.9,2.5c1.62.44,7.25,3.19,6.85.14-.34-2.6-4.53-4.09-6.53-5C31.8,178.08,25.19,176.63,19.87,172.67Z"/><path class="cls-12" d="M1214.28,179.7v97.78H.29l.2-89s408.07,41.13,544.78,38.19C700.31,223.28,1121.22,164.33,1214.28,179.7Z"/><path class="cls-2" d="M475.4,186.92a6.53,6.53,0,0,0-4.57,3c-2,2.84-3.81,5.39-4.17,8.2,0,0,0,.89.5,1.18s2.47,2.28,1.51,3.45-1.77.36-3.6-1.18c0,0-.57-.38-.85.45s-1.54,1.89.43,4.48,1.3,3.29,1.3,3.29-.17,1.21-2.18.67c0,0-1.82,2.44,2.51,6.47.56.52.88.82,2.72.68a2.7,2.7,0,0,1,2.56,1.67l3-29.24s.45-.06.64,1,.37,18-1.76,28.57a1,1,0,0,1,1.2,0,5.78,5.78,0,0,1,1.26,2,1.19,1.19,0,0,0,1.32.76c.84-.21,2.69-.5,3.72-2.08s1.78-4.17,1.44-5.48-1.79-2.77-1.54-3.17.44-1.44,1.42-1.66,2.46-1.54,1.29-2.6-1.25-2.23-2.51-1.69-2.59-3-1.49-3.31,2.07-.63,3.08-.11,1.76-1.53,1-3-1.64-3.19-1.59-4.15S480.2,187.2,475.4,186.92Z"/><path class="cls-3" d="M474.51,190.88s-.28,8.22-.61,8.78-.56,9.65-.78,10.28-.48,6.48-.73,7.17-1.26,6.82-1.28,7.29,1,.36,1,.36,2.34-16.51,2.24-17.25a40.61,40.61,0,0,1,.41-5.36C474.84,201.91,476.08,191.49,474.51,190.88Z"/><polygon class="cls-4" points="473.99 199.36 470.59 194.34 470.8 193.85 474.06 198.84 473.99 199.36"/><path class="cls-4" d="M473.38,206.48l-3.48-4.92s-.09-.41.25-.31,3.25,4.72,3.25,4.72Z"/><path class="cls-4" d="M472.71,214.13l-4.17-6.42s-.32-.72.32-.29,3.89,6.2,3.89,6.2Z"/><path class="cls-4" d="M473.44,215.06l6.07-2.67s.33-.14.16-.39a.44.44,0,0,0-.54-.14c-.11,0-5.59,2.44-5.59,2.44Z"/><path class="cls-4" d="M474.3,208.18l4.46-2.79s.5-.63-.22-.41-4.22,2.24-4.22,2.24"/><path class="cls-4" d="M475.12,198.69s3.09-2.21,3.91-2.27-4,3-4,3Z"/></g></g></svg>