<svg xmlns="http://www.w3.org/2000/svg" viewBox="0 0 1252.71 129.35"><defs><style>.cls-1,.cls-3,.cls-6,.cls-7{fill:#fff;}.cls-1,.cls-2,.cls-3,.cls-6{stroke:#003abf;}.cls-1,.cls-2,.cls-6{stroke-miterlimit:10;}.cls-1{stroke-width:0.5px;}.cls-2,.cls-5{fill:#003abf;}.cls-2,.cls-6{stroke-width:0.25px;}.cls-3{stroke-linecap:round;stroke-linejoin:round;stroke-width:0.75px;}.cls-4{fill:#2d71f9;}</style></defs><title>bas</title><g id="Calque_2" data-name="Calque 2"><g id="Calque_1-2" data-name="Calque 1"><path class="cls-1" d="M446.38.28A19.71,19.71,0,0,1,457.66,7.5c4.9,6.22,9.55,11.82,10.58,17.56,0,0,.15,1.79-1.16,2.23s-5.89,3.93-3.5,6.53,4.33,1.18,8.68-1.42c0,0,1.37-.62,2.1,1.13s3.84,4.2-.8,8.88-3,6.26-3,6.26.49,2.47,5.34,1.92c0,0,3,8.64-5.75,12.32-1.5.63-2.11,1.41-6.59.66a5.58,5.58,0,0,0-6.14,2.68L448.69,6.77s-1.09-.24-1.5,1.93.07,35.95,5.81,57.81a2.88,2.88,0,0,0-2.91-.34c-1.51.77-2.8,3.33-3,3.62A2.59,2.59,0,0,1,444,71c-2-.63-6.58-1.71-9.15-5.15S430.26,57,431,54.44s4.21-5.09,3.56-6-1.14-3-3.53-3.71S425,41,427.77,39.22s2.92-4.14,6-2.73,6.13-5.36,3.43-6.25-5.06-1.82-7.48-1-4.36-3.53-2.6-6.22,3.81-6,3.64-7.92S434.74-.43,446.38.28Z"/><path class="cls-1" d="M448.75,8.46s1.13,16.58,2,17.79,1.87,19.52,2.45,20.83,1.52,13.14,2.16,14.58,3.42,14,3.51,15-2.38.45-2.38.45-6.59-33.76-6.38-35.22S449,31.49,448.8,31,445,9.27,448.75,8.46Z"/><polygon class="cls-1" points="450.5 25.61 458.47 16.43 457.94 15.39 450.29 24.55 450.5 25.61"/><path class="cls-1" d="M452.34,40.06l8.18-9s.21-.8-.63-.68S452.25,39,452.25,39Z"/><path class="cls-1" d="M454.38,55.6l9.78-11.79s.73-1.36-.79-.66-9.11,11.42-9.11,11.42Z"/><path class="cls-1" d="M452.67,57.27l-14.91-7s-.82-.37-.42-.83,1-.23,1.32-.13,13.72,6.37,13.72,6.37Z"/><path class="cls-1" d="M450.21,43.24l-11-6.77s-1.24-1.39.51-.76,10.38,5.61,10.38,5.61"/><path class="cls-1" d="M447.69,24s-7.62-5.24-9.63-5.59,9.82,7,9.82,7Z"/><path class="cls-1" d="M416.14,31.2a11.16,11.16,0,0,1,4.76,5.91c1.51,4.22,3,8.06,2.53,11.33,0,0-.24,1-1,1s-3.87,1.05-3.05,2.88,2.11,1.41,4.91.8c0,0,.85-.09.92,1s1.31,2.95-2,4.62-2.73,2.83-2.73,2.83-.18,1.41,2.52,2a5.54,5.54,0,0,1-5.3,5.58c-.92.07-1.38.38-3.66-.83a3.16,3.16,0,0,0-3.78.34l6-33.51s-.54-.33-1.15.77S408.63,55.19,407.78,68a1.63,1.63,0,0,0-1.5-.71A5.38,5.38,0,0,0,404,68.67a1.46,1.46,0,0,1-1.92.06c-1-.71-3.22-2.1-4-4.41s-.85-5.56,0-6.8,3.18-2,3-2.55-.07-1.82-1.23-2.63-2.58-3.1-.76-3.58,2.31-1.7,3.71-.39,4.25-1.78,3-2.74-2.39-1.88-3.83-1.9-1.71-2.68-.28-3.81,3.12-2.52,3.38-3.6S410,28.73,416.14,31.2Z"/><path class="cls-1" d="M415.95,36s-2.38,9.11-2.14,9.9-2.51,10.82-2.43,11.63-1.55,7.33-1.46,8.22-.69,8.15-.81,8.67-1.36-.18-1.36-.18,2.53-19.31,2.91-20.06a39.91,39.91,0,0,0,1.27-6.06C411.87,47.83,413.77,35.78,415.95,36Z"/><polygon class="cls-1" points="413.8 45.55 419.73 42.05 419.64 41.4 413.88 44.94 413.8 45.55"/><path class="cls-1" d="M412.19,53.64l6-3.35a.29.29,0,0,0-.22-.48c-.47-.09-5.65,3.25-5.65,3.25Z"/><path class="cls-1" d="M410.49,62.35l7.37-4.57s.64-.6-.31-.5-6.95,4.49-6.95,4.49Z"/><path class="cls-1" d="M409.27,62.94l-6.76-6.41s-.37-.35-.07-.52.6.06.73.17,6.22,5.89,6.22,5.89Z"/><path class="cls-1" d="M410.47,55l-4.69-5.61s-.42-1,.41-.32,4.57,4.88,4.57,4.88"/><path class="cls-1" d="M412.59,44.16s-3.15-4.18-4.17-4.73,4,5.55,4,5.55Z"/><path class="cls-2" d="M537.45,48.9a64.6,64.6,0,0,0,.73,11.32c.24,1.56.53,3.11.83,4.66l.86,4.53c.22,1.13.43,2.25.67,3.38a74.74,74.74,0,0,0,2.68,9.4"/><path class="cls-2" d="M542.86,77.23a11.82,11.82,0,0,0,3.47-6.74c-1.47,1.67-3,3.42-3.55,5.54a15.06,15.06,0,0,1-.41,1.55A4.28,4.28,0,0,0,542.86,77.23Z"/><path class="cls-2" d="M543.17,74a15,15,0,0,0,2.15-8.4l-1.2,2.18a21.43,21.43,0,0,0-2,4.25,9.28,9.28,0,0,0-.42,3.13c0,.7.3.49.65,0A8.8,8.8,0,0,0,543.17,74Z"/><path class="cls-2" d="M544.9,60.38A3.15,3.15,0,0,0,545,59a26.5,26.5,0,0,1-1.78,3.75,17.14,17.14,0,0,0-1,1.84,12.75,12.75,0,0,0-.45,1.35l-.55,1.86c-.25.84-.75,2.19-.3,3a7,7,0,0,0,1.35-2.38,27.27,27.27,0,0,0,1-2.62C544,64,544.44,62.21,544.9,60.38Z"/><path class="cls-2" d="M541.92,63.88a21.75,21.75,0,0,0,2.35-6.18,10.73,10.73,0,0,0,.06-3c-1,2-1.93,3.94-2.74,6a21,21,0,0,0-1,3.07c-.2.87-.59,2.32-.23,3.17A17.71,17.71,0,0,0,541.92,63.88Z"/><path class="cls-2" d="M539.25,63.11c0-1.2.13-3.36.09-4.57,0-.33,0-.67,0-1a12.38,12.38,0,0,1,3.4-8.28A16.34,16.34,0,0,1,541,59.44c-.25.42-.52.83-.76,1.27a15.56,15.56,0,0,0-1,2.4"/><path class="cls-2" d="M538.59,53.91l1.51-3.49a11.79,11.79,0,0,0,1-3.14,10.11,10.11,0,0,0,0-2.1,37.62,37.62,0,0,0-.64-4.47,22.77,22.77,0,0,1-.87,3.2c-.78,3-.37,7-1,10"/><path class="cls-2" d="M533.34,46a10.75,10.75,0,0,0-2.93-3.58,11.6,11.6,0,0,0,.46,3.17,11.89,11.89,0,0,0,.55,1.28l1.74,3.64a4.78,4.78,0,0,0,.7,1.16,4.64,4.64,0,0,0,.66.57,12.56,12.56,0,0,0,2.34,1.58c.24-.35-.22-1.26-.35-1.63a20.94,20.94,0,0,0-.91-2.14C534.93,48.68,534.14,47.35,533.34,46Z"/><path class="cls-2" d="M538.1,46.18c.45-2.77-.46-5.59-.39-8.39a13.44,13.44,0,0,0-1.58,8.2c.07.55.25,1.87.89,2.14S538,46.64,538.1,46.18Z"/><path class="cls-2" d="M534.07,54.43a45.78,45.78,0,0,0-7-6.08c.45,1.16.24,2.46.59,3.66a8.42,8.42,0,0,0,1.23,2.3,7.81,7.81,0,0,0,.87,1.13,6.91,6.91,0,0,0,.93.76,23.41,23.41,0,0,0,2.8,1.71c.57.29,2.28,1.4,2.92,1.21C538,58.6,534.57,55,534.07,54.43Z"/><path class="cls-2" d="M530.49,57.54l-3.22-2.48a21.21,21.21,0,0,0,6.2,8.65c.73.61,2.47,1.88,3.55,1.58s.08-1.59-.29-2.07A32.57,32.57,0,0,0,530.49,57.54Z"/><path class="cls-2" d="M537.34,67.26a21.1,21.1,0,0,0-2.83-1.77,30.4,30.4,0,0,1-3.27-2.38l1.58,2c.4.51.8,1,1.25,1.48a12.12,12.12,0,0,0,3.74,2.79C539.6,70.09,537.85,67.69,537.34,67.26Z"/><path class="cls-2" d="M535.56,69.15a45.66,45.66,0,0,1-5.35-4,2.91,2.91,0,0,1-.88-1.06,47.38,47.38,0,0,0,4.28,5.13,19.75,19.75,0,0,0,2.36,2c.57.41,1.93,1.57,2.7,1.45C540.39,72.43,536,69.45,535.56,69.15Z"/><path class="cls-2" d="M538.83,73.82c-2.27-1.94-5.2-3.08-7.56-4.93l1.56,1.84a12.57,12.57,0,0,0,2.21,2.21,13.1,13.1,0,0,0,1.88,1c.63.31,2.51,1.61,3.15,1.35C540,74.79,539.28,74.17,538.83,73.82Z"/><path class="cls-2" d="M532,71.68c.46.61.91,1.21,1.38,1.81a9.78,9.78,0,0,0,2.17,2.2A11.06,11.06,0,0,0,538,76.8c.58.21,2.55,1.37,2.51.29,0-.91-1.52-1.58-2.22-2C536.2,74,533.82,73.24,532,71.68Z"/><path class="cls-3" d="M558,37.59a97.68,97.68,0,0,1-2.22,14.71c-.46,2-1,4-1.52,6l-1.54,5.85c-.38,1.46-.77,2.91-1.18,4.36a112.53,112.53,0,0,1-4.2,12.09"/><path class="cls-3" d="M548.39,74.17a15.66,15.66,0,0,1-3.13-9c1.47,2.27,3,4.64,3.36,7.43.09.68.11,1.38.27,2A4.69,4.69,0,0,1,548.39,74.17Z"/><path class="cls-3" d="M548.43,69.92A21.47,21.47,0,0,1,547,58.84l1.1,2.92a29,29,0,0,1,1.7,5.66,13.66,13.66,0,0,1,.09,4.1c-.14.91-.41.62-.75,0A11.29,11.29,0,0,1,548.43,69.92Z"/><path class="cls-3" d="M548.13,52.1a4.67,4.67,0,0,1,0-1.81,35.65,35.65,0,0,0,1.56,5,22.62,22.62,0,0,1,.9,2.46,17.88,17.88,0,0,1,.35,1.78l.4,2.45c.18,1.12.58,2.9,0,4a9.11,9.11,0,0,1-1.25-3.19c-.35-1.14-.63-2.3-.87-3.48C548.73,56.93,548.43,54.51,548.13,52.1Z"/><path class="cls-3" d="M551.09,56.84a30.08,30.08,0,0,1-1.92-8.19,16.1,16.1,0,0,1,.3-3.87c.86,2.62,1.71,5.25,2.39,7.94a29.52,29.52,0,0,1,.77,4.06c.12,1.15.39,3.05-.13,4.15A23.55,23.55,0,0,1,551.09,56.84Z"/><path class="cls-3" d="M554.22,56c.19-1.57.27-4.39.45-6,.05-.43.1-.87.14-1.31a16.91,16.91,0,0,0-2.85-11c-.88,4.51-.93,9.29.73,13.37.23.57.49,1.12.71,1.7a21.36,21.36,0,0,1,.82,3.19"/><path class="cls-3" d="M556.11,44l-1.29-4.63a16.58,16.58,0,0,1-.78-4.16,15.21,15.21,0,0,1,.27-2.74,57,57,0,0,1,1.28-5.79,32.49,32.49,0,0,0,.6,4.22c.52,3.93-.43,9.14-.08,13.1"/><path class="cls-3" d="M563,34.08a14.66,14.66,0,0,1,3.77-4.49,17.57,17.57,0,0,1-.91,4.1,17.57,17.57,0,0,1-.78,1.64L562.69,40a6.82,6.82,0,0,1-.94,1.47,5.93,5.93,0,0,1-.82.71,15.24,15.24,0,0,1-2.86,1.91c-.24-.47.41-1.63.6-2.1.38-.93.82-1.84,1.29-2.73C560.9,37.45,562,35.77,563,34.08Z"/><path class="cls-3" d="M557.6,34c-.17-3.64,1.21-7.25,1.47-10.91a19.46,19.46,0,0,1,.79,10.78c-.15.72-.52,2.42-1.28,2.74S557.63,34.61,557.6,34Z"/><path class="cls-3" d="M561.18,45a58.49,58.49,0,0,1,8.73-7.5c-.66,1.49-.58,3.2-1.12,4.73a12.2,12.2,0,0,1-1.69,2.93A10.77,10.77,0,0,1,566,46.57a8.72,8.72,0,0,1-1.15.93,27.86,27.86,0,0,1-3.39,2.06c-.68.35-2.76,1.69-3.47,1.39C556.17,50.19,560.55,45.65,561.18,45Z"/><path class="cls-3" d="M564.88,49.27l4-3a29.54,29.54,0,0,1-8.12,10.9c-.91.75-3,2.3-4.24,1.85s.11-2.07.58-2.68A42,42,0,0,1,564.88,49.27Z"/><path class="cls-3" d="M555.89,61.52a25.23,25.23,0,0,1,3.43-2.14,37.45,37.45,0,0,0,4-2.9l-2,2.5c-.52.64-1,1.27-1.61,1.86a15,15,0,0,1-4.59,3.41C553,65.07,555.26,62,555.89,61.52Z"/><path class="cls-3" d="M557.68,64.08a56.56,56.56,0,0,0,6.57-4.88,4,4,0,0,0,1.13-1.32,64.49,64.49,0,0,1-5.5,6.43A25.16,25.16,0,0,1,557,66.79c-.7.5-2.39,1.93-3.25,1.73C551.79,68.07,557.1,64.45,557.68,64.08Z"/><path class="cls-3" d="M553.39,70c2.83-2.4,6.29-3.7,9.2-6l-2,2.31a16.52,16.52,0,0,1-2.79,2.74,15.32,15.32,0,0,1-2.27,1.25c-.75.36-3.05,1.95-3.75,1.57A4.58,4.58,0,0,1,553.39,70Z"/><path class="cls-3" d="M561.42,67.6c-.59.76-1.19,1.52-1.79,2.27a12.9,12.9,0,0,1-2.73,2.74,12.5,12.5,0,0,1-2.92,1.3c-.68.24-3.07,1.63-2.89.23.15-1.19,1.93-2,2.77-2.43C556.37,70.34,559.17,69.53,561.42,67.6Z"/><path class="cls-4" d="M1252.71,31.57l-1,97.78H0l.21-89S421.43,81.44,562.54,78.5C722.57,75.16,1156.65,16.21,1252.71,31.57Z"/><path class="cls-5" d="M475.11,38.8a6.53,6.53,0,0,0-4.57,3c-2,2.84-3.81,5.39-4.17,8.2,0,0,0,.89.5,1.18s2.47,2.28,1.51,3.45-1.77.36-3.6-1.18c0,0-.57-.38-.85.45s-1.54,1.89.43,4.48,1.3,3.29,1.3,3.29-.17,1.21-2.18.67c0,0-1.82,2.44,2.51,6.47.56.52.88.82,2.72.68a2.7,2.7,0,0,1,2.56,1.67l3-29.24s.45-.06.64,1,.37,18-1.76,28.57a1,1,0,0,1,1.2,0,5.78,5.78,0,0,1,1.26,2,1.19,1.19,0,0,0,1.32.76c.84-.21,2.69-.5,3.72-2.08S482.39,68,482,66.69s-1.79-2.77-1.54-3.17.44-1.44,1.42-1.66,2.46-1.54,1.29-2.6S482,57,480.71,57.57s-2.59-3-1.49-3.31,2.07-.63,3.08-.11,1.76-1.53,1-3S481.67,48,481.72,47,479.9,39.08,475.11,38.8Z"/><path class="cls-6" d="M474.22,42.76s-.28,8.22-.61,8.78-.56,9.65-.78,10.28-.48,6.48-.73,7.17-1.26,6.82-1.28,7.29,1,.36,1,.36,2.34-16.51,2.24-17.25a40.61,40.61,0,0,1,.41-5.36C474.55,53.79,475.79,43.37,474.22,42.76Z"/><polygon class="cls-7" points="473.69 51.23 470.3 46.22 470.5 45.72 473.77 50.72 473.69 51.23"/><path class="cls-7" d="M473.09,58.35l-3.48-4.92s-.09-.41.25-.31,3.25,4.72,3.25,4.72Z"/><path class="cls-7" d="M472.42,66l-4.17-6.42s-.32-.72.32-.29,3.89,6.2,3.89,6.2Z"/><path class="cls-7" d="M473.15,66.93l6.07-2.67s.33-.14.16-.39a.44.44,0,0,0-.54-.14c-.11,0-5.59,2.44-5.59,2.44Z"/><path class="cls-7" d="M474,60.06l4.46-2.79s.5-.63-.22-.41S474,59.1,474,59.1"/><path class="cls-7" d="M474.83,50.56s3.09-2.21,3.91-2.27-4,3-4,3Z"/></g></g></svg>