<svg xmlns="http://www.w3.org/2000/svg" viewBox="0 0 106.68 82.96"><defs><style>.cls-1,.cls-6{fill:#003abf;}.cls-1{stroke:#fff;}.cls-1,.cls-2,.cls-3,.cls-7{stroke-linecap:round;stroke-linejoin:round;}.cls-1,.cls-2{stroke-width:1.52px;}.cls-2,.cls-3,.cls-5{fill:#fff;}.cls-2,.cls-3,.cls-7{stroke:#003abf;}.cls-4{fill:#1d50c6;}.cls-7{fill:none;stroke-width:0.75px;}</style></defs><title>carte</title><g id="Calque_2" data-name="Calque 2"><g id="Calque_2-2" data-name="Calque 2"><polygon class="cls-1" points="0.76 22.36 32.36 9.79 41.24 68.31 9.63 82.2 0.76 22.36"/><polygon class="cls-1" points="31.75 9.56 65.58 17.16 74.89 73.72 40.63 68.08 31.75 9.56"/><polygon class="cls-1" points="65.58 17.16 94.94 5.41 103.58 59.76 74.89 73.72 65.58 17.16"/><polygon class="cls-2" points="3.11 17.71 34.71 5.14 43.58 63.66 11.98 77.56 3.11 17.71"/><polygon class="cls-2" points="34.1 4.92 67.92 12.52 77.24 69.08 42.98 63.44 34.1 4.92"/><polygon class="cls-2" points="67.92 12.52 97.29 0.76 105.92 55.12 77.24 69.08 67.92 12.52"/><path class="cls-3" d="M20,23.52"/><polygon class="cls-4" points="20.31 23.52 20.33 23.49 20.25 23.56 20.31 23.52"/><path class="cls-4" d="M20.1,23.64l0,.05.23-.19C20.38,23.37,20,23.74,20.1,23.64Z"/><path class="cls-4" d="M20.11,23.61c0-.06-.07,0-.1.07S20,23.73,20.11,23.61Z"/><path class="cls-4" d="M18.88,22.6h0Z"/><path class="cls-4" d="M18.25,22.68l-.08.08c.19-.1.12.11.24.1l0,0c.13.17.39.16.6.23l0,0s.09-.07.09-.05l0,0c-.09.17.17,0,.1.12a.36.36,0,0,0,.11-.11,1.15,1.15,0,0,0,.52.16.51.51,0,0,1-.09.11c.3-.13.33.06.41.19.06-.05,0-.07.11-.12s-.19.09-.13,0l.05-.05c0-.06-.13.14-.09,0s.07-.07.07-.08-.07-.12-.24,0c.1-.13,0-.05,0-.18-.06,0-.06,0-.13.09-.11-.22-.39-.25-.55-.42-.29.16-.14-.2-.3-.21l0,0c-.08,0-.15,0-.16,0l-.12.07c0-.41-.4-.47-.55-.76s-.28-.67-.81-.58l0,0c-.12,0-.09-.15-.25-.2l0,0a.56.56,0,0,1-.42-.22c-.11-.11-.25-.23-.32-.11l-.13-.13a3.35,3.35,0,0,0-.3.8l0,0c0,.3-.39.33-.4.58-.23.14.11.59-.17.71s.16.46-.18.44c-.56,0-.4.42-.27.8-.27.15,0,.58-.42.65.15.21-.36.1-.36.25l.07,0c-.23-.06.25.24-.08.11h0c-.17-.06.35.24.15.16l.08,0s-.09,0-.13,0,.14.08.09.07c-.32-.16,0,.1-.33-.08,0,0-.15,0-.21-.12s0,0,.11.12a2.16,2.16,0,0,0,.43.21l-.12-.07.15.06s.21.05.29.06h0c-.13-.09,0-.07,0-.08l.07,0c.14.06-.25-.18,0,0a.42.42,0,0,1,.06-.27c-.08-.06,0-.06-.14-.13.21.08.29,0,.29,0l0,0c.28.09-.21-.17.12-.06-.22-.12.11,0-.14-.19l.14.06c0-.07.16-.11.21-.17-.17-.15.15-.09-.09-.27.08,0,.22,0,.14-.12l0,0c0-.07,0-.15-.11-.28a.56.56,0,0,0,.32.08c-.1-.1,0-.16-.1-.28.12.05,0-.08.15,0-.25-.34,0-.49.32-.55h0l-.39-.29,0,0s.17,0,.16,0l.05,0c-.06-.07.17,0,.06-.1l0,0-.05-.06c.06,0,.14.07.12.08.2-.26.05-.71.25-1l0,0-.07-.11.05,0c.12,0,0-.12,0-.16l.1.09c-.11-.16.17.16-.07-.16l.09.11c0-.17,0-.28.07-.26a1.46,1.46,0,0,1,0-.25c0-.1.11.16.18-.05v.08c.16-.17.24.24.36.28s.13.05.2.1l-.05.06c.31-.14,0,.4.36.24l-.08.08c.13-.11,0,.1.21-.12l0,.08c.33-.22,0,.25.27.14l-.05,0c.06,0,.11,0,.09,0l0,0c-.11.27.17.12.24.19l-.1.09c.14-.08.11.09.21.08l0,0,.08,0L18,22.6C18.05,22.66,18.18,22.63,18.25,22.68Z"/><path class="cls-4" d="M19,23.15h0S19,23.15,19,23.15Z"/><path class="cls-4" d="M14.56,25.31h0Z"/><polygon class="cls-4" points="26.93 22.17 26.95 22.14 26.88 22.22 26.93 22.17"/><path class="cls-4" d="M26.74,22.33l0,.06.2-.22C27,22,26.69,22.42,26.74,22.33Z"/><path class="cls-4" d="M26.75,22.3c0-.07-.06,0-.09.08S26.67,22.42,26.75,22.3Z"/><path class="cls-4" d="M25.68,21.63h0Z"/><path class="cls-4" d="M25.14,21.83l-.07.09c.16-.13.11.08.21,0l0,0c.11.13.34.06.52.09l0,0s.08-.08.08-.07l0,0c-.08.17.15,0,.09.09a.45.45,0,0,0,.1-.12.84.84,0,0,0,.45,0l-.07.12c.26-.18.29,0,.36.09a1.31,1.31,0,0,1,.09-.13c0-.1-.16.12-.11,0l0-.06c0-.05-.11.15-.08.06a.69.69,0,0,1,.06-.08c-.06,0-.07-.09-.21,0,.08-.14,0,0,0-.18,0,0,0,0-.12.11-.1-.17-.34-.15-.48-.26-.25.21-.12-.16-.27-.13l0,0c-.07,0-.13,0-.14,0l-.1.09c0-.36-.35-.34-.49-.58s-.25-.55-.71-.36l0,0c-.12,0-.16-.17-.27-.17v0c-.15.05-.24,0-.34-.1s-.22-.16-.26,0a2,2,0,0,0-.27-.19,3,3,0,0,0,0,.55l0-.07A.22.22,0,0,1,23,21a.3.3,0,0,0-.13.28c-.19.21.26.47,0,.62s.29.34-.05.37c-.52.11-.26.39,0,.67-.21.16.17.46-.21.58.2.14-.32.13-.27.25h.08c-.24,0,.3.15,0,.1h0c-.18,0,.4.14.19.1l.09,0s-.1,0-.14,0,.16,0,.1,0c-.35-.08.06.07-.33,0,0,0-.16,0-.23-.06s0,0,.14.08a2.71,2.71,0,0,0,.47.1l-.13,0,.16,0s.21,0,.3,0h0c-.15-.05-.05-.05,0-.06H23c.15,0-.29-.1,0,0a.28.28,0,0,1,0-.22c-.1,0,0-.05-.17-.08.22,0,.29,0,.28,0h0c.29,0-.25-.1.1-.06-.24-.06.09,0-.19-.13l.15,0c0-.06.12-.12.15-.17-.2-.09.12-.09-.16-.2.07,0,.2,0,.1-.12h0c0-.06,0-.13-.18-.2a.67.67,0,0,0,.33,0c-.12-.06-.07-.13-.17-.21.13,0,0-.06.14,0-.33-.23-.16-.39.15-.49h0L23.06,22h0s.16,0,.13-.06l.06,0c-.08,0,.16,0,0-.09h.05l-.07,0c.06,0,.16,0,.13,0a.5.5,0,0,0,0-.38c-.06-.06-.1-.18-.07-.23l.05.05-.09-.12.05.06c.1.07,0-.13,0-.15l.1.14c-.13-.23.18.25-.09-.21l.09.16c-.06-.15-.06-.25,0-.26l.06.08c-.1-.47.08,0,.1-.29v.09c.09-.21.22.17.31.18s.1,0,.15,0l0,.07c.27-.19,0,.36.31.14l-.07.09c.11-.13,0,.09.18-.16l0,.08c.28-.27,0,.23.23.07l0,.05c.05,0,.1,0,.08,0l0,0c-.09.27.15.07.21.13l-.08.1c.12-.1.1.06.18,0l0,0,.07-.06-.07.1C25,21.85,25.07,21.8,25.14,21.83Z"/><path class="cls-4" d="M25.78,22.1h0Z"/><path class="cls-4" d="M23,24.1h0Z"/><polygon class="cls-4" points="19.45 26.5 19.47 26.46 19.42 26.55 19.45 26.5"/><path class="cls-4" d="M19.3,26.69l0,.06.16-.25C19.49,26.34,19.27,26.79,19.3,26.69Z"/><path class="cls-4" d="M19.31,26.65c0-.07,0,.06-.07.1S19.25,26.79,19.31,26.65Z"/><path class="cls-4" d="M18.25,26.23h0Z"/><path class="cls-4" d="M17.78,26.53l-.05.1c.13-.15.11.05.2,0l0,0c.12.1.32,0,.49,0l0,0s.06-.09.06-.08l0,.05c-.05.18.13-.07.09.07a.5.5,0,0,0,.07-.14.75.75,0,0,0,.42-.05.71.71,0,0,1-.05.13c.22-.23.26-.07.34,0a1.45,1.45,0,0,1,.07-.15c0-.1-.14.15-.1,0l0-.07c0-.05-.09.17-.06.07a.76.76,0,0,1,0-.09c-.06,0-.07-.07-.19.07.06-.15,0,0,0-.18a.54.54,0,0,0-.09.13c-.11-.15-.33-.08-.47-.16-.21.25-.13-.13-.26-.07v0c-.06.06-.12.07-.13,0l-.08.11c-.08-.34-.36-.26-.51-.46s-.29-.48-.69-.21a.16.16,0,0,1,0-.05c-.09,0-.09-.1-.22-.09v0a.32.32,0,0,1-.34,0c-.1-.05-.22-.11-.26,0L16,25.46a1.73,1.73,0,0,0-.23.59l0,0c0,.23-.34.19-.33.39-.21.08.14.48-.1.53s.19.38-.14.31c-.52-.06-.34.26-.19.58-.24.08.05.46-.34.44.15.18-.33,0-.32.14l.07,0c-.22-.09.25.23-.07.07h0c-.16-.07.35.24.16.15l.08,0s-.09,0-.13,0,.14.08.09.07c-.32-.17,0,.09-.31-.11,0,0-.15-.06-.21-.13s0,0,.11.11a3,3,0,0,0,.42.23l-.11-.07.15.07s.2.07.28.1h0c-.13-.09,0-.06,0-.06l.07,0c.14.07-.25-.18,0,0a.24.24,0,0,1,0-.2c-.08-.06,0,0-.14-.12.2.09.27.08.28.06l0,0c.27.11-.21-.17.11,0-.21-.13.1,0-.15-.17l.13.07s.14-.06.18-.1c-.17-.14.14,0-.11-.22.07,0,.2,0,.12-.07l0,0c0-.05,0-.11-.12-.23a.73.73,0,0,0,.31.11c-.1-.09,0-.13-.12-.23.12.06,0-.06.14,0-.26-.3-.06-.39.26-.38h0l-.39-.29,0,0s.16,0,.14,0l.05,0c-.06-.06.16,0,0-.07l0,0-.05-.05c.06,0,.14.08.12.08.17-.17,0-.54.16-.73l0,0-.07-.09.05,0c.13,0,0-.1,0-.13l.1.08c-.12-.14.18.14-.08-.13l.09.1c-.06-.13,0-.21,0-.19a.82.82,0,0,1,0-.23c0-.05.1.1.13-.09v.08c.1-.21.22.12.31.11s.11,0,.16,0l0,.07c.22-.24.07.34.3.07l-.05.1c.09-.15,0,.08.15-.19l0,.09c.23-.32,0,.22.22,0l0,.06s.09-.07.07,0l0,0c-.05.28.15,0,.21.08l-.06.11c.1-.12.1,0,.17,0l0,.05.06-.07-.05.11C17.62,26.59,17.72,26.51,17.78,26.53Z"/><path class="cls-4" d="M18.39,26.67h0S18.39,26.67,18.39,26.67Z"/><path class="cls-4" d="M14.78,28.92h0Z"/><polyline class="cls-5" points="23.75 53.53 24.76 49.02 27.76 51.27"/><polygon class="cls-4" points="28.16 50.74 28.18 50.71 28.11 50.78 28.16 50.74"/><path class="cls-4" d="M28,50.88l0,.06.21-.21C28.23,50.58,27.91,51,28,50.88Z"/><path class="cls-4" d="M28,50.85c0-.06-.06,0-.09.08S27.89,51,28,50.85Z"/><path class="cls-4" d="M26.86,50.1h0Z"/><path class="cls-4" d="M26.29,50.26l-.07.09c.17-.12.11.09.22.06l0,0c.12.14.36.09.55.13l0,0s.08-.08.08-.06l0,0c-.08.17.16,0,.09.1a.42.42,0,0,0,.1-.12.92.92,0,0,0,.47.07l-.08.11c.27-.17.3,0,.37.12.05-.06,0-.07.1-.13s-.17.11-.12,0l0-.06c0-.05-.12.15-.08.06a.65.65,0,0,1,.06-.08c-.06,0-.07-.1-.22,0,.09-.14,0,0,0-.18-.05,0-.05,0-.12.11-.1-.18-.35-.18-.51-.3-.26.2-.13-.17-.28-.15l0,0c-.08,0-.14,0-.15,0l-.11.09c0-.37-.37-.38-.51-.62a1.77,1.77,0,0,0-.35-.42c-.18-.15-.41-.27-.57-.13,0,0,0-.06,0-.07s-.2-.21-.28-.19v0c-.07.11-.17,0-.28-.07a.92.92,0,0,0,0,.56,2.27,2.27,0,0,0-.11.84l-.06,0c.08.23-.28.33-.23.55-.18.16.26.48,0,.63s.28.36-.06.4c-.52.13-.27.42,0,.72-.22.18.17.49-.22.62.2.15-.32.15-.28.27h.08c-.24,0,.3.16,0,.11h0c-.18,0,.4.14.19.11l.09,0s-.1,0-.14,0,.16,0,.1,0c-.35-.08.06.08-.33,0,0,0-.16,0-.23-.06s0,0,.14.08a2.53,2.53,0,0,0,.47.1l-.13,0,.16,0s.21,0,.3,0h0c-.15-.05-.05-.05,0-.06h.07c.15,0-.29-.1,0,0a.31.31,0,0,1,0-.24c-.1,0,0-.06-.17-.08.22,0,.29,0,.28,0h0c.29,0-.25-.11.1-.07-.24-.06.09-.05-.19-.14l.15,0c0-.07.13-.12.15-.18-.2-.1.12-.1-.16-.21.07,0,.21-.05.1-.13h0c0-.06,0-.13-.18-.21a.63.63,0,0,0,.33,0c-.12-.07-.07-.13-.17-.22.13,0,0-.06.14,0-.33-.24-.16-.41.16-.52h0l-.45-.17h0s.16,0,.14-.07l.06,0c-.08,0,.16,0,0-.09h.05l-.06,0c.06,0,.16,0,.13,0,.12-.25-.14-.6,0-.87l.06,0-.09-.08.06,0c.12,0,0-.16,0-.18l.12,0c-.16-.09.22.07-.12-.1l.12.06c-.1-.11-.07-.22,0-.22-.24-.44,0-.16-.16-.63l0,.1a.94.94,0,0,1,0-.26c.08,0,.22.29.29.3s.07,0,.12,0v.1c0-.17.09,0,.12.06s0,.18.14,0l0,.1c.08-.15,0,.09.15-.18l0,.09c.28-.28,0,.23.24.09l0,.05c.05,0,.1,0,.08,0l0,0c-.1.27.16.08.22.14l-.09.1c.13-.1.1.06.19,0l0,0,.07-.05-.07.1C26.11,50.28,26.23,50.23,26.29,50.26Z"/><path class="cls-4" d="M27,50.59h0Z"/><path class="cls-4" d="M24.32,53.56h0Z"/><polyline class="cls-5" points="77.24 26.64 78.25 22.14 81.25 24.39"/><polygon class="cls-4" points="81.65 23.85 81.67 23.82 81.6 23.89 81.65 23.85"/><path class="cls-4" d="M81.45,24l0,.06.21-.21C81.71,23.69,81.4,24.09,81.45,24Z"/><path class="cls-4" d="M81.46,24c0-.06-.06,0-.09.08S81.38,24.09,81.46,24Z"/><path class="cls-4" d="M80.34,23.21h0Z"/><path class="cls-4" d="M79.78,23.37l-.07.09c.17-.12.11.09.22.06l0,0c.12.14.36.09.55.13l0,0s.08-.08.08-.06l0,0c-.08.17.16,0,.09.1a.42.42,0,0,0,.1-.12.92.92,0,0,0,.47.07l-.08.11c.27-.17.3,0,.37.12.05-.06,0-.07.1-.13s-.17.11-.12,0l0-.06c0-.05-.12.15-.08.06a.65.65,0,0,1,.06-.08c-.06,0-.07-.1-.22,0,.09-.14,0,0,0-.18-.05,0-.05,0-.12.11-.1-.18-.35-.18-.51-.3-.26.2-.13-.17-.28-.15l0,0c-.08,0-.14,0-.15,0l-.11.09c0-.37-.37-.38-.51-.62a1.78,1.78,0,0,0-.35-.42c-.18-.15-.41-.27-.57-.13,0,0,0-.06,0-.07s-.2-.21-.28-.19v0c-.07.11-.17,0-.28-.07a.92.92,0,0,0,0,.56,2.27,2.27,0,0,0-.11.84l-.06,0c.08.23-.28.33-.23.55-.18.16.26.48,0,.63s.28.36-.06.4c-.52.13-.27.42,0,.72-.22.18.17.49-.22.62.2.15-.32.15-.28.27h.08c-.24,0,.3.16,0,.11h0c-.18,0,.4.14.19.11l.08,0s-.1,0-.14,0,.16,0,.1,0c-.35-.08.06.08-.33,0,0,0-.16,0-.23-.06s0,0,.14.08a2.54,2.54,0,0,0,.47.1l-.13,0,.16,0s.21,0,.3,0h0c-.15-.05-.05-.05,0-.06h.07c.15,0-.29-.1,0,0a.31.31,0,0,1,0-.24c-.1,0,0-.06-.17-.08.22,0,.29,0,.28,0h0c.29,0-.25-.11.1-.07-.24-.06.09-.05-.19-.14l.15,0c0-.07.13-.12.15-.18-.2-.1.12-.1-.16-.21.07,0,.21-.05.1-.13h0c0-.06,0-.13-.18-.21a.63.63,0,0,0,.33,0c-.12-.07-.07-.13-.17-.22.13,0,0-.06.14,0-.33-.24-.16-.41.16-.52h0l-.45-.17h0s.16,0,.14-.07l.06,0c-.08,0,.16,0,0-.09h.05l-.06,0c.06,0,.16,0,.13,0,.12-.25-.14-.6,0-.87l.06,0-.09-.08.06,0c.12,0,0-.16,0-.18l.12,0c-.16-.09.22.07-.12-.1l.12.06c-.1-.11-.07-.22,0-.22-.24-.44,0-.16-.16-.63l0,.1a.94.94,0,0,1,0-.26c.08,0,.22.29.29.3s.07,0,.12,0v.1c0-.17.09,0,.12.06s0,.18.14,0l0,.1c.08-.15,0,.09.15-.18l0,.09c.28-.28,0,.23.24.09l0,.05c.05,0,.1,0,.08,0l0,0c-.1.27.16.08.22.14l-.09.1c.13-.1.1.06.19,0l0,0,.07-.05-.07.1C79.59,23.39,79.71,23.34,79.78,23.37Z"/><path class="cls-4" d="M80.44,23.7h0Z"/><path class="cls-4" d="M77.81,26.67h0Z"/><polyline class="cls-5" points="84.1 22.85 86.02 18.65 88.49 21.47"/><polygon class="cls-4" points="88.99 21.03 89.02 21 88.93 21.07 88.99 21.03"/><path class="cls-4" d="M88.78,21.13l0,0L89,21C89.09,20.89,88.7,21.22,88.78,21.13Z"/><path class="cls-4" d="M88.79,21.1c0-.06-.07,0-.1.06S88.68,21.21,88.79,21.1Z"/><path class="cls-4" d="M87.85,20.13h0Z"/><path class="cls-4" d="M87.26,20.18l-.09.07c.19-.08.09.11.2.1l0,0c.08.16.33.16.51.24l0,0s.09-.06.09,0l-.05,0c-.11.15.16,0,.07.12a.42.42,0,0,0,.12-.09.92.92,0,0,0,.45.17l-.1.1c.3-.11.3.07.34.19.06,0,.05-.06.12-.11s-.19.07-.11,0l.06,0c0-.05-.15.12-.09,0a.64.64,0,0,1,.08-.07c-.06,0,0-.11-.22,0,.12-.12,0,0,.07-.17a.46.46,0,0,0-.14.08c-.06-.2-.31-.25-.43-.4-.3.14-.09-.19-.24-.21l0,0c-.08,0-.14,0-.14,0l-.12.06c0-.37-.28-.44-.37-.72a1.77,1.77,0,0,0-.25-.49c-.15-.19-.35-.35-.53-.24,0,0,0-.06,0-.07s-.15-.25-.23-.24v0c-.09.09-.17,0-.26-.12a.92.92,0,0,0-.11.55,2.27,2.27,0,0,0-.28.8l-.05,0c0,.25-.34.27-.33.49-.21.12.16.52-.1.62s.2.41-.14.38c-.54,0-.35.36-.19.69-.25.13.06.51-.35.56.16.19-.34.08-.33.21l.07,0c-.23-.06.26.22-.07.1h0c-.17-.05.36.22.16.14l.08,0s-.09,0-.13,0,.14.07.09.06c-.33-.15,0,.09-.32-.08,0,0-.15,0-.22-.11s0,0,.12.11a2.54,2.54,0,0,0,.44.2l-.12-.06.16.06s.21.05.29.06h0c-.14-.08,0-.06,0-.07l.07,0c.14.06-.26-.16,0,0a.31.31,0,0,1,0-.24c-.09-.05,0-.05-.15-.12.21.07.29,0,.29,0l0,0c.28.08-.22-.16.11,0-.22-.11.1,0-.15-.17l.14.06c0-.06.15-.1.18-.15-.18-.14.14-.07-.11-.24.07,0,.21,0,.12-.1l0,0c0-.06,0-.13-.13-.25a.63.63,0,0,0,.32.07c-.11-.09,0-.14-.12-.25.12,0,0-.07.15,0-.27-.3-.07-.43.26-.48h0l-.4-.26,0,0s.17,0,.15,0l.05,0c-.07-.06.17,0,0-.09l0,0-.06-.05c.06,0,.14.07.12.07.17-.22,0-.62.15-.86l.05,0-.08-.09.05,0c.13,0,0-.17,0-.18l.11.07c-.14-.12.2.11-.09-.12l.1.08c-.07-.13,0-.23,0-.22-.14-.48,0-.15,0-.65L86,19a.94.94,0,0,1,0-.26c.07,0,.16.33.22.35s.07,0,.11,0l0,.1c.07-.15.1,0,.1.09s0,.19.12.08l-.07.09c.11-.13,0,.09.18-.15l0,.09c.33-.21,0,.23.21.13l-.06,0c.06,0,.11,0,.08,0l0,0c-.15.24.14.11.19.19l-.1.08c.14-.07.09.08.18.08l0,0,.08,0L87,20.1C87.08,20.16,87.2,20.14,87.26,20.18Z"/><path class="cls-4" d="M87.85,20.64h0Z"/><path class="cls-4" d="M84.66,23h0Z"/><polyline class="cls-5" points="30.04 55.13 30.46 49.36 34.1 50.7"/><polygon class="cls-4" points="34.33 50.08 34.34 50.04 34.29 50.13 34.33 50.08"/><path class="cls-4" d="M34.17,50.27l0,.07.15-.26C34.34,49.91,34.15,50.38,34.17,50.27Z"/><path class="cls-4" d="M34.17,50.23c0-.07,0,.06-.07.1S34.12,50.38,34.17,50.23Z"/><path class="cls-4" d="M32.68,49.76h0Z"/><path class="cls-4" d="M32.14,50.06l0,.1c.14-.16.15.06.26,0l0,0c.18.11.42,0,.64,0l0,.05s.06-.1.06-.08a.17.17,0,0,1,0,.06c0,.19.16-.07.13.08a.37.37,0,0,0,.06-.14,1.13,1.13,0,0,0,.54,0,.52.52,0,0,1,0,.13c.23-.23.33-.07.44,0,0-.07,0-.08.06-.15s-.14.15-.13,0l0-.07c0-.06-.07.18-.07.07a.56.56,0,0,1,0-.1c-.07,0-.11-.08-.23.07,0-.16-.06,0,0-.18,0,.05,0,0-.09.13-.18-.16-.45-.09-.66-.18-.21.26-.2-.14-.35-.08v0c-.07.06-.14.07-.17,0l-.09.11c-.18-.36-.53-.28-.78-.5s-1.06-.72-1.24-.34c0,0,0-.06,0-.08s-.14,0-.22-.08a.34.34,0,0,0,0,.18l0,0a1.14,1.14,0,0,1,.07.6.61.61,0,0,0,.1.49,2.29,2.29,0,0,0,0,.87h-.06c.12.23-.23.42-.15.65-.16.22.33.5.12.71s.33.36,0,.47c-.5.24-.21.53.06.83-.19.24.23.53-.14.75.22.13-.3.23-.24.36H30c-.24,0,.32.13,0,.13h0c-.18,0,.41.09.2.09h.09s-.1,0-.14,0,.16,0,.11,0c-.36,0,.07.08-.33.05,0,0-.16,0-.24,0s0,.06.15.07a2.2,2.2,0,0,0,.48,0l-.13,0h.17s.21,0,.3-.05h0c-.16,0-.06-.05,0-.06h.07c.16,0-.3-.07,0,0a.4.4,0,0,1,0-.27c-.1,0,0-.07-.18-.06.22,0,.28-.07.28-.1h0c.29,0-.26-.08.09-.1-.25,0,.09-.08-.2-.12h.15c0-.08.11-.16.12-.23-.21-.07.11-.14-.19-.21.07,0,.2-.1.08-.16h0c0-.07,0-.15-.21-.21a.57.57,0,0,0,.33-.05c-.13-.05-.08-.14-.2-.22.13,0-.05-.06.14,0-.36-.22-.21-.44.08-.62h0l-.47-.12h0s.16-.06.13-.1h.06c-.08,0,.16-.06,0-.11h.05l-.07,0c.06,0,.16,0,.14,0,.09-.31-.22-.66-.15-1l.06,0-.1-.07h.06c.11-.07-.06-.17,0-.24a.48.48,0,0,0,.13,0c-.17-.07.23-.08-.13-.13h.13a.49.49,0,0,1,0-.49c-.31-.19,0-.17-.26-.41l.06,0c-.21-.32,0-.31,0-.49v0s0,0,.1,0l.06.11c0-.18.07-.06.15,0s.12.18.16,0v.12c0-.18.06.09,0-.23l0,.1c0-.19.11-.12.14,0s0,.17.14.07l0,.06s.1-.07.09,0l0,0c0,.29.2,0,.29.09l-.06.12c.1-.13.13,0,.22,0l0,.06.06-.07,0,.12C31.95,50.12,32.06,50,32.14,50.06Z"/><path class="cls-4" d="M33,50.22h0S33,50.23,33,50.22Z"/><path class="cls-4" d="M30.61,55.07h0Z"/><polyline class="cls-5" points="80.81 24.02 82.32 18.43 85.64 20.45"/><polygon class="cls-4" points="85.99 19.88 86 19.84 85.94 19.92 85.99 19.88"/><path class="cls-4" d="M85.8,20l0,.06.19-.23C86,19.71,85.75,20.14,85.8,20Z"/><path class="cls-4" d="M85.8,20c0-.07-.06,0-.09.09S85.73,20.13,85.8,20Z"/><path class="cls-4" d="M84.43,19.25h0Z"/><path class="cls-4" d="M83.84,19.44l-.06.09c.17-.13.14.09.25.05l0,0c.15.14.41.08.63.11l0,0s.07-.08.08-.07l0,.05c-.06.18.17,0,.12.1a.37.37,0,0,0,.09-.13,1.12,1.12,0,0,0,.54.06.52.52,0,0,1-.07.12c.27-.18.33,0,.43.11,0-.06,0-.08.08-.14s-.17.12-.13,0l0-.06c0-.06-.1.16-.08.06a.56.56,0,0,1,.05-.09c-.07,0-.09-.1-.24,0,.07-.15-.06,0,0-.19,0,0-.05,0-.11.11-.15-.19-.42-.17-.61-.3-.26.22-.17-.17-.33-.15l0,0c-.08,0-.15,0-.17,0l-.11.09c-.11-.39-.47-.38-.67-.64s-.9-.91-1.15-.57c0,0,0-.07,0-.08s-.13-.06-.21-.12a.34.34,0,0,0,0,.18l0,0a1.14,1.14,0,0,1,0,.61.61.61,0,0,0,0,.5,2.29,2.29,0,0,0-.15.85l-.06,0c.07.25-.31.37-.27.61-.2.18.22.55,0,.72s.25.41-.09.46c-.54.14-.31.48-.1.82-.23.2.13.56-.28.71.19.17-.33.16-.3.31l.08,0c-.24,0,.29.19-.05.12h0c-.18,0,.39.17.18.12l.08,0s-.1,0-.14,0,.15,0,.1,0c-.35-.09.06.09-.34,0,0,0-.16,0-.23-.07s0,.05.13.09a2.19,2.19,0,0,0,.47.12l-.13,0,.16,0s.22,0,.3,0h0c-.15-.06-.05-.06,0-.07h.07c.15,0-.28-.12,0,0a.4.4,0,0,1,0-.27c-.09,0,0-.06-.17-.1.22,0,.29,0,.29,0l0,0c.29,0-.24-.13.11-.08-.24-.07.1-.06-.18-.16l.15,0c0-.08.14-.14.17-.21-.19-.11.13-.11-.14-.24.07,0,.21-.06.11-.15l0,0c0-.07,0-.15-.16-.25a.57.57,0,0,0,.33,0c-.12-.08-.06-.15-.16-.25.13,0,0-.07.15,0-.31-.28-.12-.47.2-.59h0l-.44-.21,0,0s.17,0,.14-.07l.06,0c-.07-.06.17,0,0-.11h0l-.06,0c.06,0,.15,0,.13.05.14-.29-.09-.69,0-1l.06,0-.09-.09.06,0c.13,0,0-.18,0-.25a.48.48,0,0,0,.12,0c-.15-.1.24,0-.1-.15l.12,0a.49.49,0,0,1,.08-.49c-.27-.24,0-.17-.18-.45l.05,0c-.14-.35.1-.3.1-.48h0s.05,0,.1,0l0,.12c0-.19.08,0,.14.06s.09.2.15,0l0,.12c0-.18,0,.1.09-.22v.11c.08-.18.13-.1.14,0s0,.17.13.09l0,.06c.05,0,.11,0,.09,0l0,0c-.06.29.19.08.27.14l-.08.1c.12-.1.12.06.22,0l0,0,.07-.06-.06.11C83.64,19.46,83.76,19.41,83.84,19.44Z"/><path class="cls-4" d="M84.63,19.76h0S84.63,19.76,84.63,19.76Z"/><path class="cls-4" d="M81.38,24.06h0Z"/><polygon class="cls-4" points="48.48 9.8 48.45 9.82 48.55 9.88 48.48 9.8"/><path class="cls-4" d="M48.72,10.13l.07,0a1.52,1.52,0,0,1-.31-.18C48.31,10,48.83,10.08,48.72,10.13Z"/><path class="cls-4" d="M48.7,10.19c-.05.09.09.08.14.09C48.73,10.28,48.85,10.15,48.7,10.19Z"/><path class="cls-4" d="M52.21,12.6h0Z"/><path class="cls-4" d="M53.08,13.33l.11,0c-.25-.14-.15-.43-.33-.6h0a1.8,1.8,0,0,0-1.27-1l0,0s-.1.08-.12.06a.07.07,0,0,1,0-.05c0-.22-.35,0-.37-.16,0,0-.07.08-.07.14-.42-.08-.86-.12-1.4-.24a.18.18,0,0,1,0-.13c-.52.05-.9-.42-1-1-.08,0-.06.08-.16.05,0,.23.3.23.26.43l-.07,0c0,.12.17-.09.16.06s-.08.05-.07.07c.17.17.32.39.59.35-.05.17.19.13.18.3.08,0,.12,0,.19-.08.64.38,1.29.27,1.74.54.38-.14.4.35.62.5l0,0a.34.34,0,0,1,.25.26l.17,0c.07.78.36,1.51.43,2.35a3,3,0,0,0,1.17,2.49s0,0-.06,0c.21.18.27.46.5.6l0,0c.6.29.94,1,1.61,1.06a4.58,4.58,0,0,0,2.16.78v.06a5.26,5.26,0,0,1,1.67.5c.44.38,1.22.46,1.74.76.29.41,1-.13,1.21.34l.53.9a2.24,2.24,0,0,0,.8.82,1.29,1.29,0,0,0,.75.62,2.93,2.93,0,0,1,.87.45c.32-.17.63.36,1,.23l0-.08c.18.22.21-.38.37-.06v0c.13.15,0-.45.12-.26l0-.09c.06-.05,0,.09.11.1s-.05-.15,0-.12c.16.33.13-.16.33.2,0,0,.15.1.09.23s.18-.07.08-.21-.13-.32-.27-.4l.05.12a.78.78,0,0,1-.11-.13c-.09,0-.2-.13-.28-.18h0c0,.16-.07.1-.11.09l0-.06c-.07-.14,0,.32-.05.06a1,1,0,0,1-.56.17c0,.1-.16,0-.11.19-.06-.22-.2-.29-.26-.28s0,0,0,0c-.07-.29-.16.25-.21-.11-.07.25-.15-.12-.28.15a.44.44,0,0,1,0-.15,1.92,1.92,0,0,1-.43-.29c-.23.13-.19-.23-.46-.06,0-.12,0-.29-.21-.3l0,0a.62.62,0,0,0-.42-.21c.23-.18.15-.19.21-.29-.16,0-.21-.26-.4-.41.11-.08-.13-.14,0-.23-.62-.49-1.27-.84-1.76-1.25h0c-.1.08-.24.29-.34.4s0,0,0,0-.14-.2-.24-.19a.1.1,0,0,1,0-.06c-.11.06-.12-.2-.26-.09v0l-.08,0c0-.06.06-.15.08-.12-.28-.13-.63-.33-1.08-.53A6.38,6.38,0,0,0,59.23,20l0-.05-.19.08a.11.11,0,0,1,0-.06c-.2-.14-.45,0-.65-.06,0,0,0-.09,0-.12-.18.14-.17-.27-.33.06a.25.25,0,0,1,0-.12A1.94,1.94,0,0,1,57,19.32c-.47.13-.66-.33-1.1-.35l0-.05c-.53-.12-.76-.66-1.1-1-.1-.18-.26-.24-.38-.42l.06-.05c-.47-.13-.14-.76-.6-.94l.11,0c-.18,0,0-.23-.29-.1l.06-.09c-.46-.11,0-.49-.31-.71h.07c-.07-.07-.14-.15-.09-.23h.05c.21-.31-.14-.53-.19-.8h.13c-.18-.1-.09-.37-.19-.52h.06l-.1-.07.12,0A3.57,3.57,0,0,0,53.08,13.33Z"/><path class="cls-4" d="M51.6,11.69h0S51.61,11.69,51.6,11.69Z"/><path class="cls-4" d="M67.43,24h0S67.44,24,67.43,24Z"/><polygon class="cls-4" points="27.28 69.82 27.31 69.8 27.2 69.8 27.28 69.82"/><path class="cls-4" d="M27,69.7l-.06,0h.32C27.38,69.63,26.89,69.78,27,69.7Z"/><path class="cls-4" d="M27,69.66c0-.07-.09,0-.14,0C27,69.6,26.86,69.73,27,69.66Z"/><path class="cls-4" d="M24.76,67.16h0Z"/><path class="cls-4" d="M24.17,66.41h-.11c.21.15,0,.36.14.53h0A1.49,1.49,0,0,0,24.91,68l-.05,0S25,68,25,68a.09.09,0,0,1-.06,0c-.07.2.27.11.22.25s.09,0,.12-.1a5.33,5.33,0,0,0,1,.53.23.23,0,0,1-.08.11c.44,0,.63.39.75.75.08,0,.06-.07.15-.08,0-.16-.27-.11-.22-.27l.07,0c0-.1-.17.09-.13,0s.08,0,.08-.07-.2-.31-.43-.28c.09-.14-.12-.12-.05-.28-.07,0-.09,0-.18.05-.34-.42-.84-.56-1.1-.9-.39,0-.2-.38-.35-.53h0a.22.22,0,0,1-.14-.25l-.15-.06a2.14,2.14,0,0,0,0-1,6.23,6.23,0,0,0-.35-1A3.64,3.64,0,0,0,23,63.06s0,0,.06,0c-.13-.16-.06-.34-.16-.51h0c-.2-.23-.19-.53-.42-.85a.63.63,0,0,0-.79-.2c-.31,0-.6,0-.9,0a4,4,0,0,1-.9-.17l0-.06c-.5-.07-.74-.62-1.23-.76-.41-.38-1.09-.1-1.52-.37-.28-.38-.75.26-1-.06-.63-.47-1.27,0-1.71.43-.6,0-.87.67-1.49.66-.08.32-.6.09-.79.33l.06.05c-.24-.11,0,.4-.24.18v0c-.17-.09.2.39,0,.26l.06.07c0,.06-.07-.07-.13-.06s.11.12,0,.11c-.26-.25-.06.17-.35-.11,0,0-.15-.07-.16-.19s-.11.08,0,.19.21.27.36.32l-.09-.1.14.1c.07,0,.22.08.32.09h0c-.08-.14,0-.11.06-.12l.06,0c.12.1-.14-.28,0-.07a1.35,1.35,0,0,1,.36-.41c0-.09.12-.08,0-.21.18.15.32.11.35.07s0,0,0,0c.24.17-.06-.29.22,0-.13-.21.18,0,.07-.3a.5.5,0,0,1,.09.12,3.68,3.68,0,0,1,.47-.15c0-.25.29,0,.26-.35.1,0,.28.09.34-.06v0c.12-.07.27-.13.3-.33.12.26.16.19.23.27,0-.15.23-.15.34-.3,0,.13.1-.07.14.12a.77.77,0,0,1,1.2,0h0c.06-.1.15-.33.22-.46s0,0,0,0,.12.18.2.15a.12.12,0,0,1,0,.06c.09-.07.11.18.22,0v.05l.07-.06c0,.06,0,.15-.06.13a7.37,7.37,0,0,1,1.9.63l-.05,0,.18,0,0,0c.11.18.36.11.52.2,0,0-.06.07-.05.12.19-.11.13.29.32,0a.27.27,0,0,1,0,.12c.41,0,.81.1,1.22.12a.51.51,0,0,1,.44-.2,1.11,1.11,0,0,0,.42,0l0,.06a.28.28,0,0,1,.21.07c.24.23.11.61.22.93s.13.27.2.43l-.07,0c.39.13,0,.7.51.78l-.1,0c.17-.06.05.19.29,0l0,.09c.44-.05.07.41.41.48l-.07,0c.08,0,.16.07.13.15h-.05c-.13.31.24.36.31.58l-.13,0c.18,0,.11.27.2.38H24l.1,0-.12,0C24,66.08,24.14,66.24,24.17,66.41Z"/><path class="cls-4" d="M24.92,68h0S24.92,68,24.92,68Z"/><path class="cls-4" d="M12.26,62.42h0S12.25,62.42,12.26,62.42Z"/><polygon class="cls-4" points="56.87 44.99 56.85 44.95 56.77 45.06 56.87 44.99"/><path class="cls-4" d="M56.42,45.25s0,0,0,.06a2.17,2.17,0,0,1,.24-.31C56.55,44.84,56.5,45.35,56.42,45.25Z"/><path class="cls-4" d="M56.35,45.23c-.11,0-.12.1-.13.15C56.23,45.27,56.39,45.38,56.35,45.23Z"/><path class="cls-4" d="M54.56,50.91h0Z"/><path class="cls-4" d="M56.48,50.8l.06-.1c-.4.05-.74-.18-1.12-.15l0,0a5.49,5.49,0,0,1-1.26-.27,1.83,1.83,0,0,1-.89-1l.06,0s-.13-.07-.14-.12.05,0,.07,0c.12-.2-.16-.58,0-.7a.11.11,0,0,0-.14-.08,4.58,4.58,0,0,1,1.11-2.07s.08,0,.12.08a2.28,2.28,0,0,1,1.73-1.09c0-.08-.1-.06,0-.16-.27,0-.35.31-.59.27v-.08c-.16,0,.05.19-.13.17s0-.09-.06-.09c-.28.17-.6.29-.73.62-.16-.09-.27.2-.46.16,0,.1-.09.15,0,.25a3.31,3.31,0,0,0-1,1.37,2.39,2.39,0,0,0,0,1.84,1.33,1.33,0,0,1,.33.33,2.48,2.48,0,0,1,.29.35,1.27,1.27,0,0,0,.86.52,0,0,0,0,1,0,0,2,2,0,0,1,.73.05l.2-.11a7.93,7.93,0,0,1,.88.32,3.33,3.33,0,0,1,.71.52,5.55,5.55,0,0,1,1.09,1.59,6.72,6.72,0,0,0,1.3,2,2.85,2.85,0,0,0,2.29.7s0,0,0,.06A6.24,6.24,0,0,0,63,56v0c1-.34,2.11-.32,3-.72.59-.08,1.19-.06,1.85-.09a1.66,1.66,0,0,0,1.48-1.15l.06,0a2.17,2.17,0,0,0-.18-1.51c-.23-.47-.52-.86-.72-1.26a14.23,14.23,0,0,1-.39-3.07,1,1,0,0,0-.4-1c-.28-.26-.58-.41-.74-.7a2,2,0,0,0-1.74-.72,5.61,5.61,0,0,0-1.82.51,10.24,10.24,0,0,0-1.7.28,2.57,2.57,0,0,1-1.7-.16c-.58.12-1-.55-1.57-.65v.08c-.14-.29-.54.19-.57-.18h0c-.07-.2-.35.35-.36.13l0,.08c-.13,0,0-.1-.09-.15s0,.16-.11.09c0-.36-.33,0-.29-.37.08,0-.11-.17.08-.24,0,0-.3,0-.28.13s-.12.33,0,.48l0-.13c0,.14,0,.07,0,.17.17,0,.17.23.27.32a0,0,0,0,1,0,0c.1-.15.2,0,.26,0v.08c0,.16.25-.25.14,0a4.67,4.67,0,0,1,1.12.25c.08-.08.3.1.27-.11,0,.24.32.38.44.4s0,0,0,0c.16.34.32-.19.47.2.08-.23.4.15.56-.13a.23.23,0,0,1,0,.15,8.27,8.27,0,0,0,1.2.11c.27-.24.7,0,.89-.31a1.05,1.05,0,0,0,.77-.06l0,0a1.48,1.48,0,0,0,.82-.35c.12.27.23.2.36.28.18-.16.54-.14.82-.25,0,.13.23,0,.22.15a1.35,1.35,0,0,1,1.19.11,1.27,1.27,0,0,1,.61,1h0a3,3,0,0,1,.56.08s0,0,0,0c.09.13-.06.31,0,.45a.07.07,0,0,1-.07,0c.11.12-.11.29,0,.45H67.7l.08.1c-.06,0-.16,0-.14-.06A9,9,0,0,0,67.81,51a3,3,0,0,0,.56,1.12A5.12,5.12,0,0,1,69,53H68.9l.19.17H69c0,.28.17.55,0,.83,0,0-.07-.07-.12-.05.07.27-.33.13-.11.43a.19.19,0,0,1-.09-.09,1,1,0,0,1-.68.49,4.16,4.16,0,0,1-1,0c-.62.33-1.33.15-1.91.52v-.06a6.91,6.91,0,0,1-2.49.38c-.34,0-.58,0-.93,0v-.08a1,1,0,0,1-.87-.2,1.9,1.9,0,0,0-.82-.4l.1-.07c-.18.08-.24-.27-.4,0l0-.14c-.59-.05-.35-.69-.83-1h.08c-.12-.09-.24-.2-.24-.32s0,0,.06,0c0-.51-.49-.77-.73-1.15l.14,0c-.25-.1-.38-.51-.64-.68l.06,0-.17,0,.08-.09A2.54,2.54,0,0,0,56.48,50.8Z"/><path class="cls-4" d="M53.3,49.2h0S53.31,49.21,53.3,49.2Z"/><path class="cls-4" d="M57.23,46.27l0,0S57.22,46.26,57.23,46.27Z"/><polygon class="cls-4" points="101.71 45.38 101.67 45.37 101.77 45.41 101.71 45.38"/><path class="cls-4" d="M101.9,45.51l.06,0a1.2,1.2,0,0,0-.25-.16C101.56,45.3,102,45.55,101.9,45.51Z"/><path class="cls-4" d="M101.87,45.5c-.06,0,0,.06.08.09S102,45.58,101.87,45.5Z"/><path class="cls-4" d="M99.2,46.06h0S99.2,46.05,99.2,46.06Z"/><path class="cls-4" d="M98.58,46.79l0,.1c.05-.24.29-.12.4-.25v0a11.35,11.35,0,0,0,1.08-.5v.06s0-.11,0-.11a.09.09,0,0,1,0,.06c.11.17.24-.14.31,0a.2.2,0,0,0,0-.16,2.38,2.38,0,0,0,.92-.28.31.31,0,0,1,0,.14c.19-.33.36-.27.48-.33l-.12-.11c-.07-.06.09.18,0,.08l0-.07s.09.17,0,.1a.57.57,0,0,1,0-.09c0,.05-.12,0-.17.21-.05-.16-.11,0-.17-.14,0,.07,0,.05,0,.16a5.72,5.72,0,0,0-1.35.17c-.16.35-.5,0-.73.21v0a.34.34,0,0,1-.28.17l0,.15c-.68,0-1.17.45-1.72.73l-.83.46a2.09,2.09,0,0,0-.67.6s0,0,0-.06c-.15.12-.35.07-.5.2v0c-.32.38-1,.35-1.14.87a2.84,2.84,0,0,0-1,1.34l-.05,0c-.09.44-.56.73-.58,1.21-.26.44.18,1,0,1.42s.36.64.08.92c-.42.61,0,1.12.41,1.56,0,.53.52.89.34,1.45.29.15-.12.55,0,.77l.07,0c-.19.17.38.09.07.26h0c-.15.11.43,0,.24.06l.08,0s-.09,0-.11.1.15-.05.12,0c-.33.14.12.11-.25.26,0,0-.13.11-.23.07s0,.13.18.05a1.13,1.13,0,0,0,.44-.2l-.13,0,.15-.08c0-.08.17-.16.22-.24h0c-.16,0-.09-.06-.08-.1l.07,0c.14-.07-.31,0-.06,0a1.28,1.28,0,0,1-.23-.45c-.1,0,0-.13-.21,0,.2-.11.21-.25.19-.3h0c.24-.18-.29,0,0-.22-.24.06,0-.18-.27-.14l.14-.05c0-.15,0-.35,0-.48-.24,0,0-.29-.3-.3,0-.1.13-.25,0-.33h0c-.05-.12-.1-.27-.31-.31.27-.1.2-.14.28-.21-.15-.05-.15-.23-.29-.33.13,0-.08-.09.11-.13A.76.76,0,0,1,93,53.45h0c-.11,0-.34-.09-.48-.14,0,0,0,0,0,0s.15-.14.12-.21h.06c-.08-.07.16-.13,0-.21h.05l-.07-.05c.06,0,.16,0,.14,0,.09-.54-.12-1.21.17-1.77l0,0L93.07,51l.05,0c.16-.09.06-.3.16-.42s.07.06.11.06c-.1-.18.28,0,0-.26a.35.35,0,0,1,.11.07,1.09,1.09,0,0,1,.5-.72c0-.42.37-.36.45-.72l0,.06c.19-.39.66-.3,1-.46.16,0,.23-.13.37-.19l0,.07c.12-.37.66,0,.73-.43l0,.1c-.06-.17.18,0,0-.28l.09,0c-.08-.42.38-.06.41-.4l0,.06c0-.08,0-.16.12-.13s0,0,0,0c.32.1.3-.26.47-.37l.05.12c0-.18.22-.16.29-.28l0,.06V47l.06.11C98.36,47,98.44,46.87,98.58,46.79Z"/><path class="cls-4" d="M100.14,46.2h0S100.14,46.2,100.14,46.2Z"/><path class="cls-4" d="M94,58l0,0S94,58,94,58Z"/><path class="cls-6" d="M19.83,44.2l1.32-1.5a.1.1,0,0,1,.15.13h0l-1.41,1.42a0,0,0,0,1-.05-.05Z"/><path class="cls-6" d="M22.5,41.22l1.38-1.45a.2.2,0,1,1,.29.28h0l-1.44,1.39a.16.16,0,0,1-.22,0A.16.16,0,0,1,22.5,41.22Z"/><path class="cls-6" d="M25.3,38.35,26.77,37a.27.27,0,0,1,.37.4h0l-1.5,1.31h0a.24.24,0,0,1-.32-.35Z"/><path class="cls-6" d="M28.3,35.67l1.6-1.22a.31.31,0,1,1,.37.48h0l-1.59,1.18h0a.29.29,0,0,1-.35-.46Z"/><path class="cls-6" d="M31.57,33.31l1.75-1a.33.33,0,0,1,.34.58h0l-1.72,1h0a.32.32,0,0,1-.32-.55Z"/><path class="cls-6" d="M35.15,31.43l1.9-.7a.32.32,0,0,1,.22.59h0l-1.84.7h0a.33.33,0,0,1-.23-.61Z"/><path class="cls-6" d="M39,30.21l2-.31a.26.26,0,0,1,.09.51h0l-1.94.37h0a.3.3,0,1,1-.11-.59Z"/><path class="cls-6" d="M43,29.78l2,.05a.19.19,0,0,1,0,.37h0l-2,0h0a.23.23,0,0,1,0-.45Z"/><path class="cls-6" d="M47.06,30l2,.33a.13.13,0,0,1,0,.27h0l-2-.3h0a.15.15,0,1,1,0-.3Z"/><path class="cls-6" d="M51,30.83l1.93.57a.12.12,0,1,1-.07.23h0l-1.92-.56h0a.12.12,0,1,1,.07-.23Z"/><path class="cls-6" d="M54.82,32.06c.63.24,1.24.5,1.86.76a.14.14,0,1,1-.11.26h0c-.61-.27-1.22-.54-1.83-.78a.13.13,0,0,1,.09-.24Z"/><path class="cls-6" d="M58.49,33.65l1.79.9a.2.2,0,1,1-.18.36h0L58.34,34h0a.17.17,0,0,1,.16-.3Z"/><path class="cls-6" d="M62,35.52l1.73,1a.26.26,0,1,1-.26.45h0l-1.69-1.05h0a.23.23,0,0,1,.24-.4Z"/><path class="cls-6" d="M65.48,37.58l1.69,1.08a.32.32,0,0,1-.34.53h0l-1.65-1.12a.29.29,0,0,1-.08-.4A.29.29,0,0,1,65.48,37.58Z"/><path class="cls-6" d="M68.84,39.76l1.66,1.12a.35.35,0,1,1-.4.59h0l-1.64-1.14a.34.34,0,0,1,.38-.56Z"/><path class="cls-6" d="M72.16,42l1.7,1,0,0a.38.38,0,0,1-.39.66h0L71.76,42.6a.37.37,0,0,1,.38-.63Z"/><path class="cls-6" d="M75.63,43.78a10.38,10.38,0,0,0,1.85.5.4.4,0,0,1-.13.78,9.93,9.93,0,0,1-2-.54.39.39,0,0,1,.28-.74Z"/><path class="cls-6" d="M79.39,44.37A9.17,9.17,0,0,0,81.27,44a.38.38,0,0,1,.21.74,10,10,0,0,1-2,.37.39.39,0,1,1-.06-.78Z"/><path class="cls-6" d="M83.07,43.34l1.67-1,0,0a.37.37,0,0,1,.38.64L83.41,44a.38.38,0,0,1-.39-.65h0Z"/><path class="cls-6" d="M86.26,41.13l.69-.69c.24-.22.44-.49.66-.73l0,0a.33.33,0,0,1,.49.43c-.22.26-.42.53-.67.77l-.71.74a.35.35,0,0,1-.51-.48h0Z"/><path class="cls-6" d="M88.8,38.14l1.05-1.67v0a.28.28,0,0,1,.47.29l-1,1.74a.3.3,0,0,1-.52-.31h0Z"/><path class="cls-6" d="M90.81,34.73l.88-1.79h0a.2.2,0,0,1,.36.17l-.82,1.83a.24.24,0,1,1-.44-.2h0Z"/><path class="cls-6" d="M92.54,31.13l.79-1.82h0a.1.1,0,0,1,.19.08l-.7,1.89a.16.16,0,1,1-.3-.11h0Z"/><path class="cls-6" d="M93.77,27.38V27a0,0,0,0,1,0,0,0,0,0,0,1,0,0v.4a0,0,0,0,1-.1,0Z"/><path class="cls-7" d="M91.32,27.92a0,0,0,0,1,0,0,43.91,43.91,0,0,1,5-2.7"/><path class="cls-7" d="M92.23,24.78a21.84,21.84,0,0,0,3.17,4.41"/></g></g></svg>