<svg xmlns="http://www.w3.org/2000/svg" xmlns:xlink="http://www.w3.org/1999/xlink" viewBox="0 0 96.87 75.36"><defs><style>.cls-1,.cls-9{fill:none;}.cls-2{clip-path:url(#clip-path);}.cls-3,.cls-8{fill:#003abf;}.cls-3{stroke:#fff;}.cls-3,.cls-4,.cls-5,.cls-9{stroke-linecap:round;stroke-linejoin:round;}.cls-3,.cls-4{stroke-width:1.52px;}.cls-4,.cls-5,.cls-7{fill:#fff;}.cls-4,.cls-5,.cls-9{stroke:#003abf;}.cls-6{fill:#1d50c6;}.cls-9{stroke-width:0.75px;}</style><clipPath id="clip-path" transform="translate(-15.9 -1.11)"><rect class="cls-1" width="128.67" height="76.66"/></clipPath></defs><title>carte-icone-2</title><g id="Calque_2" data-name="Calque 2"><g id="Calque_2-2" data-name="Calque 2"><g class="cls-2"><polygon class="cls-3" points="0.76 20.34 29.41 8.94 37.46 62 8.8 74.6 0.76 20.34"/><polygon class="cls-3" points="28.86 8.74 59.53 15.63 67.97 66.91 36.91 61.8 28.86 8.74"/><polygon class="cls-3" points="59.53 15.63 86.15 4.97 93.98 54.25 67.97 66.91 59.53 15.63"/><polygon class="cls-4" points="2.89 16.13 31.54 4.73 39.59 57.79 10.93 70.39 2.89 16.13"/><polygon class="cls-4" points="30.99 4.53 61.66 11.42 70.1 62.7 39.03 57.59 30.99 4.53"/><polygon class="cls-4" points="61.66 11.42 88.28 0.76 96.11 50.04 70.1 62.7 61.66 11.42"/><path class="cls-5" d="M34.08,22.5" transform="translate(-15.9 -1.11)"/><polygon class="cls-6" points="18.53 21.35 18.55 21.32 18.47 21.39 18.53 21.35"/><path class="cls-6" d="M34.22,22.58l0,.05.23-.19C34.5,22.31,34.15,22.68,34.22,22.58Z" transform="translate(-15.9 -1.11)"/><path class="cls-6" d="M34.23,22.55c0-.06-.06,0-.1.07S34.13,22.67,34.23,22.55Z" transform="translate(-15.9 -1.11)"/><path class="cls-6" d="M33.11,21.64h0Z" transform="translate(-15.9 -1.11)"/><path class="cls-6" d="M32.52,21.75l-.08.08c.18-.1.11.1.22.09l0,0c.11.16.36.14.56.2l0,0s.09-.07.09-.06l0,0c-.09.16.16,0,.09.11a.4.4,0,0,0,.11-.11,1,1,0,0,0,.49.13l-.09.11c.29-.14.31,0,.38.16.06-.05,0-.07.11-.12s-.19.09-.12,0l.05-.05c0-.05-.13.14-.09,0a.6.6,0,0,1,.07-.08c-.06,0-.06-.11-.23,0,.1-.13,0,0,0-.18-.05,0-.05,0-.13.09-.09-.2-.36-.22-.51-.37-.29.17-.12-.19-.28-.19l0,0c-.08,0-.15,0-.15,0l-.12.07c0-.39-.36-.43-.49-.7s-.24-.62-.74-.52l0,0c-.09,0-.13-.18-.25-.21l0,0A.43.43,0,0,1,31,20c-.1-.1-.22-.21-.29-.08l-.11-.11a2.88,2.88,0,0,0-.27.74l0-.05c0,.28-.38.3-.38.53-.22.12.13.55-.14.65s.18.43-.16.4c-.55,0-.38.37-.23.73-.26.13,0,.54-.39.59.15.2-.35.08-.35.21l.07,0c-.23-.07.25.23-.07.1h0c-.17-.06.35.24.16.15l.08,0s-.09,0-.13,0,.14.07.09.07c-.32-.16,0,.1-.32-.08,0,0-.15,0-.21-.12s0,0,.11.11a2.38,2.38,0,0,0,.43.21L28.75,24l.15.07s.21.06.29.07h0c-.13-.09,0-.07,0-.07l.07,0c.14.06-.25-.17,0,0a.35.35,0,0,1,.05-.25c-.08-.06,0-.05-.15-.12.21.08.29.05.29,0l0,0c.28.09-.21-.17.12,0-.22-.12.11,0-.15-.18l.14.06c0-.06.16-.1.2-.15-.17-.15.15-.07-.1-.25.07,0,.21,0,.13-.11l0,0c0-.06,0-.14-.12-.26a.6.6,0,0,0,.32.08c-.1-.1,0-.15-.11-.26.12.05,0-.07.15,0-.25-.32,0-.46.29-.5h0L30,21.88l0,0s.17,0,.15,0l.05,0c-.06-.07.17,0,.05-.09l0,0-.05-.05c.06,0,.14.07.12.08.18-.23,0-.66.2-.89l.05,0-.08-.08.05,0c.1,0,0-.11,0-.14l.09.1c-.11-.17.16.18-.07-.17l.08.12c0-.17,0-.27.06-.24a1.56,1.56,0,0,1,0-.24c0-.1.1.15.16-.07v.09c.14-.19.22.22.33.25s.11,0,.17.08l-.05.06c.3-.15,0,.38.33.21l-.08.08c.13-.11,0,.1.21-.13l0,.08c.32-.23,0,.24.24.12l-.05,0c.06,0,.11,0,.08,0l0,0c-.12.26.16.1.22.17l-.09.09c.14-.08.1.08.19.07l0,0,.08,0-.08.09C32.33,21.74,32.45,21.71,32.52,21.75Z" transform="translate(-15.9 -1.11)"/><path class="cls-6" d="M33.19,22.16h0Z" transform="translate(-15.9 -1.11)"/><path class="cls-6" d="M29.22,24.15h0Z" transform="translate(-15.9 -1.11)"/><polygon class="cls-6" points="24.52 20.12 24.54 20.09 24.47 20.17 24.52 20.12"/><path class="cls-6" d="M40.24,21.39l0,.06.2-.22C40.49,21.08,40.19,21.49,40.24,21.39Z" transform="translate(-15.9 -1.11)"/><path class="cls-6" d="M40.25,21.36c0-.06-.06,0-.08.08S40.17,21.48,40.25,21.36Z" transform="translate(-15.9 -1.11)"/><path class="cls-6" d="M39.27,20.76h0Z" transform="translate(-15.9 -1.11)"/><path class="cls-6" d="M38.76,21l-.07.09c.16-.13.1.07.19,0l0,0c.1.12.32,0,.49.06l0,0s.08-.08.08-.07l0,0c-.08.17.14,0,.08.08a.5.5,0,0,0,.09-.12.75.75,0,0,0,.42,0l-.08.12c.25-.19.27,0,.33.07a1.44,1.44,0,0,1,.09-.13c0-.1-.16.12-.1,0l0-.06c0-.05-.11.15-.08.06a.77.77,0,0,1,.06-.08c-.06,0-.06-.08-.2,0,.08-.14,0,0,0-.17a.53.53,0,0,0-.11.11c-.08-.16-.31-.13-.44-.24-.25.22-.11-.15-.24-.11l0,0c-.07,0-.13.05-.13,0l-.1.09c0-.35-.31-.32-.43-.54s-.18-.5-.68-.34c0,0,0,0,0-.05s-.15-.16-.25-.15v0c-.13.07-.21,0-.3-.07s-.2-.15-.23,0a1.62,1.62,0,0,0-.24-.18,2.63,2.63,0,0,0,0,.51l0-.07c.07.29-.25.19-.21.48-.19.19.26.47,0,.59s.29.31,0,.34c-.52.09-.26.35,0,.61-.21.14.18.42-.2.52.2.13-.31.11-.27.22h.08c-.24,0,.31.15,0,.09h0c-.18,0,.4.13.19.1l.09,0s-.1,0-.14,0,.16,0,.1,0c-.35-.08.06.07-.33,0a1.5,1.5,0,0,1-.23-.06s0,0,.14.07a3,3,0,0,0,.47.1l-.13,0,.16,0s.21,0,.3,0h0c-.15,0-.06,0,0-.05h.07c.15,0-.29-.1,0,0a.24.24,0,0,1,0-.2c-.1,0,0,0-.17-.08.22,0,.29,0,.28,0h0c.29,0-.25-.1.1-.05-.24-.06.09,0-.19-.12l.15,0c0-.06.12-.1.14-.15-.2-.09.12-.08-.17-.18.07,0,.2,0,.09-.11h0c0-.05,0-.11-.19-.19a.73.73,0,0,0,.33,0c-.12-.06-.07-.12-.18-.19.13,0,0-.05.14,0-.33-.22-.17-.36.14-.44h0l-.45-.16h0s.16,0,.13-.05l.06,0c-.08,0,.16,0,0-.08h.05l-.07,0c.06,0,.16,0,.13,0a.24.24,0,0,0,0-.29c-.06-.07-.1-.19-.07-.23l0,.06-.08-.12.05.06c.09.08,0-.13,0-.14l.1.15c-.13-.23.17.26-.09-.21l.09.17c-.06-.15-.06-.24,0-.25l.06.08c-.11-.48.07,0,.07-.31v.09c.07-.23.2.16.28.16s.08,0,.13,0l0,.07c.23-.22,0,.34.27.11l-.07.09c.11-.13,0,.08.18-.16l0,.08c.28-.28,0,.22.21.06l0,.05s.1-.05.07,0l0,0c-.1.27.14.06.19.11l-.08.1c.12-.1.09,0,.17,0l0,0,.07-.06-.07.1S38.7,21,38.76,21Z" transform="translate(-15.9 -1.11)"/><path class="cls-6" d="M39.34,21.22h0Z" transform="translate(-15.9 -1.11)"/><path class="cls-6" d="M36.84,23h0Z" transform="translate(-15.9 -1.11)"/><polygon class="cls-6" points="17.74 24.04 17.75 24.01 17.7 24.1 17.74 24.04"/><path class="cls-6" d="M33.49,25.34l0,.06.15-.25C33.68,25,33.45,25.44,33.49,25.34Z" transform="translate(-15.9 -1.11)"/><path class="cls-6" d="M33.5,25.31c0-.07,0,.06-.07.1S33.43,25.44,33.5,25.31Z" transform="translate(-15.9 -1.11)"/><path class="cls-6" d="M32.53,24.92h0Z" transform="translate(-15.9 -1.11)"/><path class="cls-6" d="M32.08,25.24l-.05.1c.13-.16.1,0,.18,0l0,0c.1.1.3,0,.45,0l0,0s.06-.09.06-.08l0,.05c-.05.18.13-.07.08.07a.55.55,0,0,0,.07-.14.67.67,0,0,0,.39-.07.79.79,0,0,1-.06.13c.21-.23.25-.08.31,0a1.56,1.56,0,0,1,.07-.15c0-.1-.13.15-.1,0l0-.07c0-.05-.09.17-.06.07a.83.83,0,0,1,0-.09c-.05,0-.06-.07-.18.08.06-.15,0,0,0-.17a.59.59,0,0,0-.09.13c-.1-.14-.3-.06-.43-.14-.2.26-.11-.12-.24-.06v0c-.06.06-.11.08-.12,0l-.08.11c-.06-.33-.32-.24-.46-.43s-.25-.46-.63-.18l0-.05c-.07,0-.13-.12-.22-.09v0a.26.26,0,0,1-.31,0c-.09,0-.2-.1-.23,0l-.08,0a1.49,1.49,0,0,0-.21.55l0,0c0,.22-.33.17-.31.35-.2.06.16.45-.08.49s.2.36-.12.29c-.51-.08-.33.23-.16.53-.23.06.07.43-.32.4.16.18-.32,0-.31.11l.07,0c-.22-.09.25.22-.06.07h0c-.16-.07.35.24.16.14l.08,0s-.09,0-.13-.05.14.08.09.07c-.32-.17,0,.08-.31-.12a1.66,1.66,0,0,1-.21-.12s0,0,.11.11a3.31,3.31,0,0,0,.42.23L29,27.25l.15.07s.2.08.28.1h0c-.13-.09,0-.06,0-.06l.07,0c.14.07-.25-.17,0,0a.2.2,0,0,1,0-.19c-.08-.06,0,0-.15-.12.2.1.27.08.27.07l0,0c.27.11-.21-.16.11,0-.21-.13.1,0-.15-.17l.13.07s.14-.05.17-.09c-.17-.14.13,0-.11-.21.07,0,.2,0,.11-.06l0,0s0-.1-.13-.22a.79.79,0,0,0,.31.11c-.1-.09,0-.12-.12-.22.12.06,0-.06.14,0-.26-.29-.07-.36.24-.34h0l-.39-.28,0,0s.16,0,.14,0l.05,0c-.06-.06.16,0,0-.06l0,0-.05-.05c.06,0,.14.08.12.08.16-.15,0-.5.12-.67l0,0-.08-.08.05,0c.1,0,0-.09,0-.1l.1.09c-.12-.15.17.16-.08-.14l.09.1c-.06-.14,0-.21,0-.18a.87.87,0,0,1,0-.23c0-.05.09.1.11-.1v.08c.08-.22.2.11.28.1s.09,0,.14,0l0,.07c.21-.24,0,.33.28.06l-.05.1c.09-.15,0,.08.15-.19l0,.09c.22-.32,0,.21.2,0l0,.06s.08-.07.07,0l0,0c-.06.28.13,0,.19.07l-.06.11c.09-.12.09,0,.16,0l0,.05.06-.07-.05.11S32,25.23,32.08,25.24Z" transform="translate(-15.9 -1.11)"/><path class="cls-6" d="M32.65,25.35h0Z" transform="translate(-15.9 -1.11)"/><path class="cls-6" d="M29.42,27.43h0Z" transform="translate(-15.9 -1.11)"/><polyline class="cls-7" points="21.61 48.6 22.52 44.52 25.24 46.56"/><polygon class="cls-6" points="25.64 46.02 25.66 45.99 25.59 46.07 25.64 46.02"/><path class="cls-6" d="M41.35,47.28l0,.06.21-.22C41.61,47,41.3,47.38,41.35,47.28Z" transform="translate(-15.9 -1.11)"/><path class="cls-6" d="M41.36,47.25c0-.06-.06,0-.09.08S41.28,47.37,41.36,47.25Z" transform="translate(-15.9 -1.11)"/><path class="cls-6" d="M40.34,46.57h0Z" transform="translate(-15.9 -1.11)"/><path class="cls-6" d="M39.8,46.76l-.07.09c.17-.12.1.08.2,0l0,0c.1.13.33.07.51.1l0,0s.08-.08.08-.07l0,0c-.08.17.15,0,.08.09a.46.46,0,0,0,.1-.12.81.81,0,0,0,.44,0l-.08.11c.27-.17.28,0,.34.09a1.33,1.33,0,0,1,.1-.13c0-.1-.17.11-.11,0l0-.06c0-.05-.12.15-.08.06a.72.72,0,0,1,.06-.08c-.06,0-.06-.09-.21,0,.09-.14,0,0,0-.17,0,0,0,0-.12.11-.09-.17-.33-.15-.46-.27-.26.2-.11-.16-.25-.13l0,0c-.07,0-.13,0-.14,0l-.11.09c0-.36-.33-.35-.45-.58s-.6-.83-.87-.51a.19.19,0,0,1,0-.08c-.08,0-.18-.2-.25-.17v0c-.06.12-.14,0-.25,0a.85.85,0,0,0,0,.53,2,2,0,0,0-.09.77l-.06,0c.08.23-.27.31-.22.5-.18.14.27.44,0,.57s.29.33,0,.36c-.52.11-.26.38,0,.65-.21.16.18.45-.21.56.2.14-.31.13-.27.24h.08c-.24,0,.3.15,0,.1h0c-.18,0,.4.14.19.1l.09,0s-.1,0-.14,0,.16,0,.1,0c-.35-.08.06.07-.33,0,0,0-.16,0-.23-.06s0,0,.14.08a2.8,2.8,0,0,0,.47.1l-.13,0,.16,0s.21,0,.3,0h0c-.15,0-.06,0,0-.06h.07c.15,0-.29-.1,0,0a.27.27,0,0,1,0-.22c-.1,0,0-.05-.17-.08.22,0,.29,0,.28,0h0c.29,0-.25-.1.1-.06-.24-.06.09,0-.19-.13l.15,0c0-.06.12-.11.15-.16-.2-.09.12-.09-.16-.19.07,0,.2,0,.1-.11h0c0-.05,0-.12-.18-.2a.69.69,0,0,0,.33,0c-.12-.06-.07-.12-.18-.2.13,0,0-.06.14,0-.33-.23-.16-.38.15-.47h0l-.45-.17h0s.16,0,.13-.06l.06,0c-.08,0,.16,0,0-.08h.05l-.07,0c.06,0,.16,0,.13,0,.12-.23-.15-.55,0-.79l.06,0-.09-.07.06,0c.12,0-.05-.09,0-.12l.12.06c-.15-.11.21.1-.11-.12l.11.07c-.1-.12-.07-.22,0-.21-.23-.45,0-.15-.16-.61l0,.1a.93.93,0,0,1,0-.25c.07,0,.21.28.26.28s.06,0,.11,0v.11c0-.17.08,0,.11.06s0,.19.12,0l0,.11c.06-.17,0,.09.12-.2l0,.1c.23-.31,0,.23.21.07l0,.05c.05,0,.1,0,.08,0l0,0c-.11.27.14.07.2.13l-.08.1c.12-.1.09.06.18,0l0,0,.07-.05-.07.1S39.74,46.73,39.8,46.76Z" transform="translate(-15.9 -1.11)"/><path class="cls-6" d="M40.42,47h0Z" transform="translate(-15.9 -1.11)"/><path class="cls-6" d="M38.08,49.75h0Z" transform="translate(-15.9 -1.11)"/><polyline class="cls-7" points="70.1 24.22 71.02 20.14 73.73 22.18"/><polygon class="cls-6" points="74.14 21.64 74.16 21.61 74.09 21.69 74.14 21.64"/><path class="cls-6" d="M89.85,22.9l0,.06.21-.22C90.1,22.6,89.79,23,89.85,22.9Z" transform="translate(-15.9 -1.11)"/><path class="cls-6" d="M89.86,22.87c0-.06-.06,0-.09.08S89.77,23,89.86,22.87Z" transform="translate(-15.9 -1.11)"/><path class="cls-6" d="M88.84,22.19h0Z" transform="translate(-15.9 -1.11)"/><path class="cls-6" d="M88.3,22.38l-.07.09c.17-.12.1.08.2,0l0,0c.1.13.33.07.51.1l0,0s.08-.08.08-.07l0,0c-.08.17.15,0,.08.09a.46.46,0,0,0,.1-.12.81.81,0,0,0,.44,0l-.08.11c.27-.17.28,0,.34.09a1.35,1.35,0,0,1,.1-.13c0-.1-.17.11-.11,0l0-.06c0-.05-.12.15-.08.06a.69.69,0,0,1,.06-.08c-.06,0-.06-.09-.21,0,.09-.14,0,0,0-.17,0,0,0,0-.12.11-.09-.17-.33-.15-.46-.27-.26.2-.11-.16-.25-.13l0,0c-.07,0-.13,0-.14,0l-.11.09c0-.36-.33-.35-.45-.58s-.6-.83-.87-.51c0,0,0-.06,0-.08s-.18-.2-.25-.17v0c-.06.12-.14,0-.25,0a.85.85,0,0,0,0,.53,2,2,0,0,0-.09.77l-.06,0c.08.23-.27.31-.22.5-.18.14.27.44,0,.57s.29.33,0,.36c-.52.11-.26.38,0,.65-.21.16.18.45-.21.56.2.14-.31.13-.27.24H86c-.24,0,.3.15,0,.1h0c-.18,0,.4.14.19.1l.09,0s-.1,0-.14,0,.16,0,.1,0c-.35-.08.06.07-.33,0,0,0-.16,0-.23-.06s0,0,.14.08a2.79,2.79,0,0,0,.47.1l-.13,0,.16,0s.21,0,.3,0h0c-.15,0-.06,0,0-.06h.07c.15,0-.29-.1,0,0a.27.27,0,0,1,0-.22c-.1,0,0-.05-.17-.08.22,0,.29,0,.28,0h0c.29,0-.25-.1.1-.06-.24-.06.09,0-.19-.13l.15,0c0-.06.12-.11.15-.16-.2-.09.12-.09-.16-.19.07,0,.2,0,.1-.11h0c0-.05,0-.12-.18-.2a.69.69,0,0,0,.33,0c-.12-.06-.07-.12-.18-.2.13,0,0-.06.14,0-.33-.23-.16-.38.15-.47h0l-.45-.17h0s.16,0,.13-.06l.06,0c-.08,0,.16,0,0-.08H87l-.07,0c.06,0,.16,0,.13,0,.12-.23-.15-.55,0-.79l.06,0L87,22.39l.06,0c.12,0-.05-.09,0-.12l.12.06c-.15-.11.21.1-.11-.12l.11.07c-.1-.12-.07-.22,0-.21-.23-.45,0-.15-.16-.61l0,.1a.93.93,0,0,1,0-.25c.07,0,.21.28.26.28s.06,0,.11,0v.11c0-.17.08,0,.11.05s0,.19.12,0l0,.11c.06-.17,0,.09.12-.2l0,.1c.23-.31,0,.23.21.07l0,.05c.05,0,.1,0,.08,0l0,0c-.11.27.14.07.2.13l-.08.1c.12-.1.09.06.18,0l0,0,.07-.05-.07.1S88.24,22.35,88.3,22.38Z" transform="translate(-15.9 -1.11)"/><path class="cls-6" d="M88.91,22.66h0Z" transform="translate(-15.9 -1.11)"/><path class="cls-6" d="M86.57,25.37h0Z" transform="translate(-15.9 -1.11)"/><polyline class="cls-7" points="76.33 20.79 78.06 16.98 80.3 19.54"/><polygon class="cls-6" points="80.81 19.1 80.83 19.07 80.75 19.13 80.81 19.1"/><path class="cls-6" d="M96.49,20.31l-.05,0,.25-.17C96.8,20.07,96.41,20.39,96.49,20.31Z" transform="translate(-15.9 -1.11)"/><path class="cls-6" d="M96.51,20.29c0-.06-.07,0-.1.06S96.4,20.39,96.51,20.29Z" transform="translate(-15.9 -1.11)"/><path class="cls-6" d="M95.65,19.41h0Z" transform="translate(-15.9 -1.11)"/><path class="cls-6" d="M95.08,19.48l-.09.07c.19-.09.08.1.19.09l0,0c.07.15.31.14.48.2l0,0s.09-.06.09,0l-.05,0c-.12.15.15,0,.06.11a.46.46,0,0,0,.12-.1.81.81,0,0,0,.42.14l-.1.1c.3-.11.28,0,.32.16a1.35,1.35,0,0,1,.12-.11c.05-.09-.19.08-.1,0l.06,0s-.15.12-.09,0a.7.7,0,0,1,.08-.07c-.06,0,0-.1-.21,0,.12-.12,0,0,.07-.16a.5.5,0,0,0-.14.08c0-.19-.29-.22-.4-.36-.29.15-.07-.18-.22-.18l0,0c-.08,0-.14,0-.14,0l-.12.06c.05-.36-.25-.41-.32-.66s-.41-.94-.74-.68c0,0,0-.06,0-.07s-.14-.23-.21-.21v0c-.08.1-.15,0-.23-.09a.85.85,0,0,0-.09.52,2,2,0,0,0-.25.74l-.05,0c0,.24-.33.24-.32.45-.21.1.17.49-.08.57s.21.38-.12.35c-.53,0-.33.32-.16.63-.24.11.08.48-.32.51.17.18-.33.06-.32.18l.07,0c-.23-.06.27.21-.06.09h0c-.17-.06.36.22.17.14l.08,0s-.09,0-.13,0,.14.07.09.06c-.33-.15,0,.08-.32-.08,0,0-.15,0-.22-.11s0,0,.12.1a2.8,2.8,0,0,0,.44.2l-.12-.06.15.06s.21.06.29.07h0c-.14-.08,0-.06,0-.06l.07,0c.14.06-.26-.16,0,0a.27.27,0,0,1,0-.22c-.09-.05,0,0-.15-.11.21.08.28.05.28,0l0,0c.28.08-.22-.15.11,0-.22-.11.1,0-.16-.17l.14.06c0-.06.14-.08.18-.13-.18-.13.14-.06-.12-.22.07,0,.21,0,.12-.09l0,0c0-.05,0-.12-.14-.23a.69.69,0,0,0,.32.08c-.11-.09,0-.13-.13-.23.12,0,0-.06.14,0-.28-.29-.08-.4.24-.43h0l-.41-.26,0,0s.16,0,.14,0l.05,0c-.07-.06.16,0,0-.08l0,0-.06,0c.06,0,.14.07.12.07.16-.2,0-.57.12-.78l.05,0-.08-.09.05,0c.12,0,0-.1,0-.12l.1.08c-.13-.14.18.14-.09-.14l.1.1c-.07-.14,0-.23,0-.21-.14-.49,0-.15,0-.63l0,.11a.94.94,0,0,1,0-.25c.07,0,.15.32.2.33s.06,0,.1,0l0,.11c.06-.17.09,0,.09.08s0,.19.11.06l-.06.1c.1-.15,0,.09.16-.17l0,.09c.29-.25,0,.23.19.11l-.06,0c.06,0,.11,0,.07,0l0,0c-.16.24.13.1.17.17l-.1.08c.14-.07.08.07.17.07l0,0,.08,0-.09.08C94.91,19.47,95,19.44,95.08,19.48Z" transform="translate(-15.9 -1.11)"/><path class="cls-6" d="M95.62,19.89h0Z" transform="translate(-15.9 -1.11)"/><path class="cls-6" d="M92.77,22.05h0Z" transform="translate(-15.9 -1.11)"/><polyline class="cls-7" points="27.3 50.06 27.69 44.83 30.98 46.04"/><polygon class="cls-6" points="31.22 45.42 31.23 45.38 31.18 45.47 31.22 45.42"/><path class="cls-6" d="M47,46.72l0,.07.14-.26C47.13,46.35,46.94,46.83,47,46.72Z" transform="translate(-15.9 -1.11)"/><path class="cls-6" d="M47,46.68c0-.07,0,.06-.07.1S46.92,46.83,47,46.68Z" transform="translate(-15.9 -1.11)"/><path class="cls-6" d="M45.62,46.26h0Z" transform="translate(-15.9 -1.11)"/><path class="cls-6" d="M45.11,46.57l0,.1c.13-.16.14.05.23,0l0,0c.16.1.38,0,.58,0l0,.05s.06-.1.06-.08a.18.18,0,0,1,0,.06c0,.19.15-.07.12.07a.4.4,0,0,0,.06-.14,1,1,0,0,0,.49-.06.57.57,0,0,1,0,.13c.22-.24.3-.08.41,0a1.16,1.16,0,0,1,.06-.15c0-.11-.14.15-.12,0l0-.07c0-.05-.07.18-.06.08a.63.63,0,0,1,0-.1c-.06,0-.1-.08-.21.08,0-.16-.06,0,0-.18,0,.06,0,0-.09.13-.16-.15-.41-.07-.6-.16-.2.26-.18-.13-.32-.07v0c-.06.06-.13.08-.15,0l-.08.11c-.16-.35-.48-.27-.7-.47s-1-.7-1.16-.31c0,0,0-.06,0-.08s-.12,0-.2-.07a.28.28,0,0,0,0,.17l0,0a1,1,0,0,1,.08.56.57.57,0,0,0,.1.46,1.93,1.93,0,0,0,0,.8h-.06c.12.21-.23.38-.14.59-.16.2.33.45.12.65s.33.33,0,.42c-.5.21-.21.48.06.75-.19.22.24.48-.13.68.22.12-.29.2-.24.32h.08c-.24,0,.32.12,0,.12h0c-.18,0,.42.08.2.08h.09s-.1,0-.14,0,.16,0,.11,0c-.36,0,.07.07-.33,0,0,0-.16,0-.24,0s0,.05.15.06a2.42,2.42,0,0,0,.48,0l-.13,0h.17s.21,0,.29,0h0c-.16,0-.06,0,0-.06h.07c.16,0-.3-.06,0,0a.34.34,0,0,1,0-.24c-.1,0,0-.06-.18-.06.22,0,.28-.06.28-.08h0c.29,0-.26-.07.09-.09-.25,0,.08-.07-.2-.11h.15c0-.07.11-.15.12-.21-.21-.07.11-.12-.19-.19.07,0,.2-.09.08-.15h0c0-.06,0-.14-.21-.19a.61.61,0,0,0,.33,0c-.13,0-.09-.13-.2-.2.13,0-.05-.05.14,0-.36-.2-.21-.4.08-.56h0l-.47-.11h0s.16-.05.13-.09h.06c-.08,0,.16-.05,0-.1h.05l-.07,0c.06,0,.16,0,.14,0,.08-.28-.23-.6-.16-.89l.06,0-.1-.07h.06c.11-.06-.06-.15,0-.22a.53.53,0,0,0,.13,0c-.17-.07.23-.07-.13-.12h.13a.4.4,0,0,1,0-.44c-.32-.13,0-.14-.26-.37l.06,0c-.21-.32,0-.28,0-.45h0s0,0,.09,0l.06.11c-.06-.19.06-.07.13,0s.12.18.14,0v.12c0-.19.06.09,0-.24l0,.11c.09-.38.12.24.25,0l0,.06s.09-.07.08,0l0,0c0,.29.18,0,.26.08l-.05.12c.09-.13.12,0,.2,0l0,.06.06-.07,0,.12C44.93,46.64,45,46.56,45.11,46.57Z" transform="translate(-15.9 -1.11)"/><path class="cls-6" d="M45.87,46.71h0S45.87,46.71,45.87,46.71Z" transform="translate(-15.9 -1.11)"/><path class="cls-6" d="M43.77,51.11h0Z" transform="translate(-15.9 -1.11)"/><polyline class="cls-7" points="73.34 21.85 74.71 16.79 77.72 18.61"/><polygon class="cls-6" points="78.06 18.04 78.08 18 78.02 18.09 78.06 18.04"/><path class="cls-6" d="M93.78,19.31l0,.06.19-.23C94,19,93.74,19.41,93.78,19.31Z" transform="translate(-15.9 -1.11)"/><path class="cls-6" d="M93.79,19.27c0-.07-.06,0-.08.09S93.71,19.41,93.79,19.27Z" transform="translate(-15.9 -1.11)"/><path class="cls-6" d="M92.54,18.6h0Z" transform="translate(-15.9 -1.11)"/><path class="cls-6" d="M92,18.81l-.06.09c.16-.13.12.08.23,0l0,0c.14.13.38.06.58.09l0,0s.07-.08.08-.07l0,.05c-.06.18.16,0,.1.09a.4.4,0,0,0,.09-.13,1,1,0,0,0,.5,0,.57.57,0,0,1-.07.12c.26-.19.31,0,.4.09,0-.06,0-.08.08-.14s-.16.12-.12,0l0-.06c0-.06-.1.16-.08.06a.63.63,0,0,1,.05-.09c-.07,0-.08-.09-.22,0,.07-.15-.05,0,0-.18,0,0-.05,0-.11.12-.13-.18-.39-.15-.56-.27-.25.22-.15-.16-.3-.13l0,0c-.07,0-.14.05-.16,0l-.1.09c-.09-.38-.42-.35-.6-.59s-.86-.88-1.08-.53a.24.24,0,0,1,0-.08s-.12-.05-.19-.11a.29.29,0,0,0,0,.16l0,0a1,1,0,0,1,0,.57.57.57,0,0,0,0,.47,1.93,1.93,0,0,0-.13.79l-.06,0c.07.23-.3.33-.25.55-.19.16.24.51,0,.66s.26.38-.08.42c-.53.12-.3.43-.08.75-.23.18.14.52-.26.64.19.16-.33.14-.3.27l.08,0c-.24,0,.29.18-.05.11h0c-.18,0,.39.16.18.12l.08,0s-.1,0-.14,0,.15,0,.1,0c-.35-.09.06.08-.33,0,0,0-.16,0-.23-.07s0,0,.13.09a2.42,2.42,0,0,0,.47.12l-.13,0,.16,0s.21,0,.3,0h0c-.15-.06-.05-.06,0-.07h.07c.15,0-.28-.12,0,0a.34.34,0,0,1,0-.25c-.09,0,0-.06-.17-.09.22,0,.29,0,.29,0h0c.29,0-.24-.12.11-.07-.24-.07.1-.05-.18-.15l.15,0c0-.07.13-.13.16-.18-.2-.11.13-.1-.15-.22.07,0,.21,0,.11-.13h0c0-.06,0-.14-.17-.23a.61.61,0,0,0,.33,0c-.12-.07-.06-.14-.16-.23.13,0,0-.06.15,0-.31-.26-.13-.43.19-.54h0l-.44-.2,0,0s.17,0,.14-.06l.06,0c-.07-.05.17,0,0-.1h0l-.06,0c.06,0,.15,0,.13,0,.14-.26-.11-.63,0-.91l.06,0-.09-.08.06,0c.12,0,0-.16,0-.22a.53.53,0,0,0,.12,0c-.15-.1.24,0-.1-.14l.12,0a.4.4,0,0,1,.06-.44c-.29-.19,0-.14-.19-.41l.05.05c-.14-.35.09-.27.09-.44h0s0,0,.09,0l0,.12c0-.19.07-.06.12.05s.09.2.14,0v.12c0-.19,0,.1.07-.23v.11c.16-.36.08.26.24.06l0,.06s.1-.05.08,0l0,0c-.07.28.17.07.24.13l-.08.11c.12-.11.11.06.2,0l0,.05.07-.06-.06.11C91.8,18.84,91.91,18.79,92,18.81Z" transform="translate(-15.9 -1.11)"/><path class="cls-6" d="M92.71,19.09h0S92.7,19.09,92.71,19.09Z" transform="translate(-15.9 -1.11)"/><path class="cls-6" d="M89.81,23h0Z" transform="translate(-15.9 -1.11)"/><polygon class="cls-6" points="43.97 8.95 43.93 8.97 44.03 9.03 43.97 8.95"/><path class="cls-6" d="M60.11,10.37l.07,0a1.47,1.47,0,0,1-.31-.16C59.7,10.29,60.21,10.32,60.11,10.37Z" transform="translate(-15.9 -1.11)"/><path class="cls-6" d="M60.08,10.43c-.05.08.09.08.14.08C60.11,10.51,60.23,10.38,60.08,10.43Z" transform="translate(-15.9 -1.11)"/><path class="cls-6" d="M63.28,12.62h0Z" transform="translate(-15.9 -1.11)"/><path class="cls-6" d="M64.11,13.27l.11,0c-.24-.12-.14-.39-.31-.54h0a1.6,1.6,0,0,0-1.17-.88l0,0s-.09.08-.11.06a.08.08,0,0,1,0-.05c0-.21-.32,0-.34-.15,0,0-.07.08-.07.14-.38-.07-.78-.1-1.28-.2a.19.19,0,0,1,0-.13c-.49.07-.84-.38-.94-.88-.08,0-.06.08-.16.05,0,.22.29.21.25.4l-.07,0c0,.12.17-.09.15.05s-.08.05-.07.07c.16.16.3.36.56.32-.05.17.17.12.16.29.08,0,.12,0,.18-.09.59.35,1.18.24,1.57.48.36-.15.35.32.56.44l0,0a.29.29,0,0,1,.23.23l.16,0c0,.71.32,1.36.37,2.13a2.64,2.64,0,0,0,1.08,2.27s0,0-.06,0c.2.16.24.42.45.55l0,0c.57.25.85.88,1.48.94a4,4,0,0,0,2,.7v.06a4.67,4.67,0,0,1,1.51.46c.39.36,1.12.38,1.59.67.25.4.9-.15,1.1.31s.29.55.46.82a2,2,0,0,0,.76.73,1.11,1.11,0,0,0,.68.55,2.21,2.21,0,0,1,.78.42c.29-.17.57.35.93.23l0-.08c.17.22.18-.37.34-.05v0c.12.16,0-.44.1-.25l0-.09c.05,0,0,.09.11.1s-.05-.15,0-.12c.16.33.12-.15.31.21,0,0,.14.1.09.23s.17-.07.07-.21-.13-.32-.27-.4l.06.12a.84.84,0,0,1-.11-.13c-.09,0-.19-.14-.27-.19h0c0,.16-.06.09-.09.08L77,23c-.07-.14,0,.32,0,.06a.82.82,0,0,1-.49.16c0,.1-.14,0-.1.19-.05-.22-.18-.29-.23-.28s0,0,0,0c-.06-.29-.15.25-.18-.11-.06.25-.13-.11-.26.16a.5.5,0,0,1,0-.15,1.65,1.65,0,0,1-.38-.27c-.21.13-.16-.22-.42,0,0-.11,0-.27-.18-.27l0,0a.52.52,0,0,0-.4-.17c.23-.17.16-.18.22-.27-.16,0-.19-.23-.38-.36.11-.08-.12-.12,0-.22-.6-.45-1.19-.77-1.64-1.17h0c-.09.08-.22.29-.32.41s0,0,0,0-.13-.19-.22-.18a.11.11,0,0,1,0-.06c-.1.06-.1-.19-.23-.08v0l-.07,0c0-.06.06-.15.08-.12-.25-.12-.56-.29-1-.47a6.29,6.29,0,0,0-1.3-.34l0-.05-.18.08a.12.12,0,0,1,0-.06c-.18-.14-.41,0-.59-.05,0,0,0-.09,0-.13-.17.14-.15-.27-.3.07a.28.28,0,0,1,0-.12,1.63,1.63,0,0,1-1.06-.34c-.44.14-.6-.29-1-.29l0-.05c-.5-.09-.68-.6-1-.91-.09-.17-.24-.21-.35-.37l.06,0c-.45-.1-.1-.7-.55-.84l.11,0c-.18,0,0-.21-.28-.08l.06-.09c-.45-.08,0-.45-.29-.65h.07c-.07-.06-.13-.13-.08-.2h.05c.21-.29-.13-.48-.17-.73h.13c-.17-.09-.08-.33-.18-.47h.06l-.1-.06.12,0A3.09,3.09,0,0,0,64.11,13.27Z" transform="translate(-15.9 -1.11)"/><path class="cls-6" d="M62.75,11.78h0S62.76,11.78,62.75,11.78Z" transform="translate(-15.9 -1.11)"/><path class="cls-6" d="M77.09,22.92h0S77.09,22.92,77.09,22.92Z" transform="translate(-15.9 -1.11)"/><polygon class="cls-6" points="24.86 63.36 24.89 63.34 24.79 63.34 24.86 63.36"/><path class="cls-6" d="M40.47,64.36l-.06,0h.32C40.87,64.28,40.38,64.43,40.47,64.36Z" transform="translate(-15.9 -1.11)"/><path class="cls-6" d="M40.49,64.32c0-.07-.09,0-.14,0C40.46,64.27,40.35,64.39,40.49,64.32Z" transform="translate(-15.9 -1.11)"/><path class="cls-6" d="M38.45,62.06h0Z" transform="translate(-15.9 -1.11)"/><path class="cls-6" d="M37.88,61.4h-.11c.21.13,0,.32.13.48h0a1.32,1.32,0,0,0,.71,1l-.05,0s.11,0,.12,0a.09.09,0,0,1-.05,0c-.08.19.26.09.2.23s.09,0,.12-.1a4.46,4.46,0,0,0,.9.46.25.25,0,0,1-.08.11c.42,0,.59.35.69.68.08,0,.06-.07.15-.08s-.26-.09-.2-.25l.07,0c0-.09-.17.1-.13,0s.08-.05.08-.07-.18-.29-.41-.25c.09-.14-.11-.12,0-.26-.07,0-.09,0-.17.06-.31-.39-.76-.51-1-.81-.38,0-.17-.34-.32-.47h0a.19.19,0,0,1-.13-.22l-.14-.05a1.79,1.79,0,0,0,.06-.92,6.22,6.22,0,0,0-.32-1,2.93,2.93,0,0,0-1.09-1.56s0,0,.06,0-.05-.31-.15-.46h0c-.18-.19-.19-.49-.39-.78a.57.57,0,0,0-.74-.18c-.28,0-.55,0-.81,0a3.73,3.73,0,0,1-.81-.14l0-.06c-.46-.06-.67-.57-1.11-.7-.37-.36-1-.06-1.39-.32s-.68.27-.92,0c-.58-.48-1.16,0-1.55.4-.55,0-.77.63-1.35.59-.06.31-.56.06-.73.29l.06.05c-.23-.11.06.38-.22.16v0c-.16-.1.21.39,0,.25l.06.07c0,.06-.07-.07-.13-.06s.11.12,0,.11c-.26-.25,0,.16-.34-.12,0,0-.15-.07-.16-.18s-.11.08,0,.19.22.27.36.32l-.09-.1.14.1c.07,0,.21.09.31.11h0c-.09-.14,0-.11.05-.11l.06,0c.12.1-.15-.28,0-.07a1.12,1.12,0,0,1,.32-.37c0-.09.11-.07,0-.2.17.15.3.12.33.09s0,0,0,0c.23.18-.07-.28.2,0-.13-.21.17,0,0-.29a.56.56,0,0,1,.09.12c.13-.08.31-.07.42-.12,0-.24.27,0,.22-.33.09,0,.25.1.31,0v0c.1-.06.24-.12.26-.32.12.27.15.2.22.27,0-.15.2-.14.3-.29,0,.13.09-.07.13.12.27-.43.77-.31,1.07,0h0c.05-.1.14-.33.21-.46s0,0,0,0,.11.17.18.15a.13.13,0,0,1,0,.06c.08-.07.09.18.2,0v.05l.06-.06c0,.06,0,.15-.06.13a6.6,6.6,0,0,1,1.72.55l-.05,0,.16,0,0,0c.1.17.34.09.48.18,0,0-.06.07-.05.12.18-.11.11.29.3,0a.29.29,0,0,1,0,.12c.38,0,.75.08,1.12.11a.44.44,0,0,1,.39-.2.86.86,0,0,0,.37,0l0,.06a.25.25,0,0,1,.2.06c.21.2.08.55.19.84s.12.25.19.39l-.07,0c.38.11,0,.65.47.71l-.1,0c.17-.06,0,.17.28,0l0,.09c.43-.07,0,.38.38.43l-.07,0c.08,0,.15.06.12.13h-.05c-.14.3.22.32.28.52l-.13,0c.18,0,.1.24.19.34h-.06l.1,0-.12,0C37.73,61.09,37.85,61.23,37.88,61.4Z" transform="translate(-15.9 -1.11)"/><path class="cls-6" d="M38.57,62.87h0S38.57,62.87,38.57,62.87Z" transform="translate(-15.9 -1.11)"/><path class="cls-6" d="M27.12,57.81h0S27.12,57.81,27.12,57.81Z" transform="translate(-15.9 -1.11)"/><polygon class="cls-6" points="51.64 40.8 51.62 40.76 51.54 40.87 51.64 40.8"/><path class="cls-6" d="M67.12,42.16s0,0,0,.06a2,2,0,0,1,.22-.31C67.23,41.76,67.19,42.26,67.12,42.16Z" transform="translate(-15.9 -1.11)"/><path class="cls-6" d="M67.05,42.15c-.1,0-.11.1-.11.14C66.94,42.18,67.1,42.29,67.05,42.15Z" transform="translate(-15.9 -1.11)"/><path class="cls-6" d="M65.43,47.37h0Z" transform="translate(-15.9 -1.11)"/><path class="cls-6" d="M67.19,47.23l.06-.1c-.37.06-.67-.17-1-.13l0,0a5.4,5.4,0,0,1-1.14-.23,1.65,1.65,0,0,1-.82-.87l.06,0s-.13-.06-.13-.11.05,0,.07,0c.13-.18-.16-.53,0-.63a.12.12,0,0,0-.14-.07,4.28,4.28,0,0,1,1-1.91s.08,0,.11.09a2,2,0,0,1,1.58-1c0-.08-.09-.06,0-.16-.25,0-.32.3-.55.25v-.08c-.15,0,.05.19-.12.16s0-.09-.06-.09c-.25.16-.55.27-.66.58-.16-.09-.25.18-.43.14,0,.1-.08.14,0,.23a3,3,0,0,0-.92,1.26,2.22,2.22,0,0,0,0,1.7,1.15,1.15,0,0,1,.31.3,2.09,2.09,0,0,1,.26.33,1.14,1.14,0,0,0,.79.48,0,0,0,0,1,0,0,1.65,1.65,0,0,1,.66,0l.19-.11a3.13,3.13,0,0,1,1.42.77,4.88,4.88,0,0,1,1,1.43,6,6,0,0,0,1.18,1.8,2.54,2.54,0,0,0,2.1.62s0,0,0,.06a5.67,5.67,0,0,0,1.18,0v0c.92-.33,1.92-.29,2.74-.68.53-.07,1.08,0,1.68-.08a1.51,1.51,0,0,0,1.35-1l.06,0a2,2,0,0,0-.16-1.38c-.2-.43-.46-.79-.64-1.14a12.6,12.6,0,0,1-.37-2.78.88.88,0,0,0-.36-.89c-.26-.23-.53-.36-.67-.64a1.76,1.76,0,0,0-1.57-.68,4.89,4.89,0,0,0-1.65.49,8.17,8.17,0,0,0-1.54.26,2.22,2.22,0,0,1-1.55-.15c-.53.13-.9-.52-1.42-.61v.08c-.12-.28-.5.2-.52-.17h0c-.06-.2-.32.35-.33.14l0,.08c-.12,0,0-.1-.08-.15s0,.16-.1.09c0-.36-.3,0-.26-.37.07,0-.1-.17.07-.24,0,0-.27,0-.26.13s-.11.33,0,.48l0-.13a.55.55,0,0,1,0,.17c.15,0,.15.23.24.32a0,0,0,0,1,0,0c.09-.15.18,0,.23,0v.08c0,.16.23-.26.13,0a3.92,3.92,0,0,1,1,.22c.08-.08.27.09.25-.12a.51.51,0,0,0,.39.39s0,0,0,0c.14.33.3-.2.42.19.07-.23.36.15.52-.13a.24.24,0,0,1,0,.15,7.75,7.75,0,0,0,1.1.11c.24-.23.64,0,.8-.3a.88.88,0,0,0,.7,0l0,0a1.24,1.24,0,0,0,.73-.34c.11.27.21.21.33.29.16-.16.48-.13.73-.24,0,.13.2,0,.2.15a1.14,1.14,0,0,1,1.07.07,1.08,1.08,0,0,1,.52.86h0a2.71,2.71,0,0,1,.54,0s0,0,0,0-.07.28,0,.4h-.06c.11.11-.12.26,0,.4h-.05l.08.09c-.06,0-.16,0-.14-.05a7.81,7.81,0,0,0,.17,2c.18.81.85,1.32,1.07,1.81h-.07l.18.15h-.07c0,.24.16.48,0,.73,0,0-.07-.07-.12-.05.08.24-.31.09-.08.38a.21.21,0,0,1-.09-.09c-.23.49-.83.51-1.53.43-.56.33-1.21.14-1.74.5v-.06a5.9,5.9,0,0,1-2.25.34c-.31,0-.53,0-.84,0V51.5a.83.83,0,0,1-.79-.18,1.48,1.48,0,0,0-.75-.36l.1-.07c-.17.09-.21-.25-.38,0v-.13c-.57,0-.31-.64-.76-.88h.08c-.11-.08-.23-.18-.22-.29s0,0,.06,0c0-.47-.44-.7-.67-1l.13,0c-.24-.08-.35-.47-.59-.61l.06,0-.16,0,.08-.09A2.29,2.29,0,0,0,67.19,47.23Z" transform="translate(-15.9 -1.11)"/><path class="cls-6" d="M64.29,45.79h0S64.3,45.79,64.29,45.79Z" transform="translate(-15.9 -1.11)"/><path class="cls-6" d="M67.85,43.18l0,0S67.84,43.18,67.85,43.18Z" transform="translate(-15.9 -1.11)"/><path class="cls-6" d="M108.13,42.3h0l.08,0Z" transform="translate(-15.9 -1.11)"/><path class="cls-6" d="M108.32,42.42l.06,0a1.24,1.24,0,0,0-.25-.15l.08,0Z" transform="translate(-15.9 -1.11)"/><path class="cls-6" d="M108.29,42.41c-.06,0,.05.05.08.09S108.42,42.49,108.29,42.41Z" transform="translate(-15.9 -1.11)"/><path class="cls-6" d="M105.9,42.9h0S105.9,42.9,105.9,42.9Z" transform="translate(-15.9 -1.11)"/><path class="cls-6" d="M105.36,43.61l0,.1c0-.24.26-.11.36-.24v0a8.11,8.11,0,0,0,1-.47v.06s0-.11,0-.11a.1.1,0,0,1,0,.06c.1.17.21-.14.28,0a.21.21,0,0,0,0-.16,2,2,0,0,0,.83-.28.35.35,0,0,1,0,.14c.17-.33.31-.26.41-.3l-.12-.11c-.06-.07.1.17,0,.07l0-.07s.09.17,0,.09a.7.7,0,0,1,0-.09s-.1,0-.14.2c-.05-.16-.09,0-.15-.14,0,.07,0,.05,0,.16a4.89,4.89,0,0,0-1.22.16c-.14.34-.46,0-.67.2v0a.29.29,0,0,1-.25.16l0,.15c-.63-.07-1.07.4-1.57.65l-.76.4a1.66,1.66,0,0,0-.59.56s0,0,0-.06-.32.06-.45.18v0c-.28.37-.87.32-1,.81a2.51,2.51,0,0,0-.92,1.22l-.05,0c-.07.41-.53.66-.54,1.1-.25.4.2.9,0,1.29s.36.58.07.83c-.43.56,0,1,.38,1.42-.05.49.5.8.3,1.32.28.13-.13.5,0,.71l.07,0c-.19.16.37.07.06.23h0c-.15.1.43,0,.24.05l.08,0s-.09,0-.11.09.15-.05.12,0c-.33.14.12.09-.26.25,0,0-.13.1-.23.07s0,.12.17,0a1.25,1.25,0,0,0,.44-.19l-.13,0L101,54c0-.07.17-.15.23-.23h0c-.16,0-.09-.05-.07-.08l.07,0c.14-.07-.31,0-.05,0a1.05,1.05,0,0,1-.21-.41c-.1,0,0-.12-.2,0,.2-.11.21-.24.19-.28h0c.25-.17-.28,0,0-.2-.24.06,0-.16-.26-.12l.14-.05c0-.14,0-.32,0-.44-.24,0,0-.27-.29-.27,0-.09.13-.23,0-.3h0a.37.37,0,0,0-.3-.27c.27-.1.21-.13.29-.2-.15,0-.14-.2-.28-.29.13,0-.07-.08.12-.12-.42-.25-.35-.7-.07-1h0l-.48-.13h0c0-.06.15-.12.12-.19h.06c-.08-.06.16-.12,0-.19h.05l-.07,0c.06,0,.16,0,.14,0,.09-.49-.13-1.09.13-1.59l0,0-.06-.14.05,0c.15-.08,0-.28.14-.38s.07.06.11.06c-.1-.17.27,0,0-.24a.39.39,0,0,1,.11.07.91.91,0,0,1,.45-.65c-.07-.4.33-.33.38-.67l0,.06c.16-.37.6-.27.89-.42.14,0,.21-.13.34-.18l0,.07c.09-.36.61,0,.66-.4l0,.1c-.06-.16.16,0,0-.27l.09,0c-.09-.41.36,0,.37-.37l0,.06c0-.08,0-.15.11-.12s0,0,0,0c.3.11.27-.24.43-.33l.06.12c0-.18.2-.14.26-.26l0,.06v-.1l.06.11C105.15,43.84,105.23,43.68,105.36,43.61Z" transform="translate(-15.9 -1.11)"/><path class="cls-6" d="M106.77,43.06h0S106.76,43.07,106.77,43.06Z" transform="translate(-15.9 -1.11)"/><path class="cls-6" d="M101.27,53.78l0,0S101.27,53.78,101.27,53.78Z" transform="translate(-15.9 -1.11)"/><path class="cls-8" d="M34,41.26l1.32-1.5a.1.1,0,1,1,.16.14h0L34,41.31a0,0,0,0,1-.05-.05Z" transform="translate(-15.9 -1.11)"/><path class="cls-8" d="M36.61,38.26,38,36.82a.21.21,0,1,1,.31.29h0L36.85,38.5a.17.17,0,0,1-.24,0A.17.17,0,0,1,36.61,38.26Z" transform="translate(-15.9 -1.11)"/><path class="cls-8" d="M39.44,35.41l1.49-1.35a.28.28,0,1,1,.38.42h0l-1.52,1.28h0a.25.25,0,0,1-.33-.38Z" transform="translate(-15.9 -1.11)"/><path class="cls-8" d="M42.5,32.8l1.65-1.17a.32.32,0,0,1,.36.52h0l-1.63,1.12h0a.3.3,0,0,1-.34-.49Z" transform="translate(-15.9 -1.11)"/><path class="cls-8" d="M45.88,30.59c.6-.31,1.21-.6,1.82-.89a.33.33,0,0,1,.29.59h0c-.59.29-1.18.59-1.77.87h0a.33.33,0,0,1-.29-.59Z" transform="translate(-15.9 -1.11)"/><path class="cls-8" d="M49.61,29l1-.27c.32-.1.66-.15,1-.22a.29.29,0,1,1,.13.57h0c-.64.15-1.27.34-1.89.53h0a.32.32,0,0,1-.18-.61Z" transform="translate(-15.9 -1.11)"/><path class="cls-8" d="M53.59,28.23l2-.07a.21.21,0,0,1,0,.42h0l-2,.15h0a.25.25,0,1,1,0-.51Z" transform="translate(-15.9 -1.11)"/><path class="cls-8" d="M57.63,28.28l2,.27a.14.14,0,0,1,0,.28h0l-2-.21h0a.17.17,0,1,1,0-.34Z" transform="translate(-15.9 -1.11)"/><path class="cls-8" d="M61.59,29l1.94.54a.12.12,0,0,1-.06.22h0l-1.93-.52h0a.12.12,0,1,1,.06-.24Z" transform="translate(-15.9 -1.11)"/><path class="cls-8" d="M65.43,30.15c.63.24,1.24.49,1.86.75a.14.14,0,1,1-.11.26h0c-.61-.27-1.22-.53-1.84-.77a.13.13,0,0,1,.09-.24Z" transform="translate(-15.9 -1.11)"/><path class="cls-8" d="M69.11,31.73l1.79.9a.21.21,0,0,1-.19.37h0L69,32h0a.17.17,0,0,1,.16-.31Z" transform="translate(-15.9 -1.11)"/><path class="cls-8" d="M72.65,33.6l1.72,1a.27.27,0,0,1-.28.47h0L72.41,34h0a.24.24,0,0,1,.25-.41Z" transform="translate(-15.9 -1.11)"/><path class="cls-8" d="M76.08,35.69l1.68,1.09a.33.33,0,1,1-.36.56h0l-1.64-1.14a.3.3,0,0,1-.08-.42A.31.31,0,0,1,76.08,35.69Z" transform="translate(-15.9 -1.11)"/><path class="cls-8" d="M79.43,37.89,81.08,39h0a.36.36,0,0,1-.41.61h0L79,38.47a.35.35,0,0,1,.4-.58Z" transform="translate(-15.9 -1.11)"/><path class="cls-8" d="M82.77,40l1.77.81.06,0a.39.39,0,1,1-.33.71h0l-1.86-.89a.38.38,0,0,1,.32-.69Z" transform="translate(-15.9 -1.11)"/><path class="cls-8" d="M86.38,41.32a7.48,7.48,0,0,0,1.9,0,.39.39,0,0,1,.09.77,8.27,8.27,0,0,1-2.09,0,.39.39,0,0,1,.11-.78Z" transform="translate(-15.9 -1.11)"/><path class="cls-8" d="M90.14,40.91a10.3,10.3,0,0,0,1.75-.8.38.38,0,0,1,.38.65,11.05,11.05,0,0,1-1.88.87.38.38,0,0,1-.26-.72Z" transform="translate(-15.9 -1.11)"/><path class="cls-8" d="M93.49,39l1.42-1.33,0,0a.33.33,0,0,1,.46.48L94,39.57a.36.36,0,1,1-.51-.52h0Z" transform="translate(-15.9 -1.11)"/><path class="cls-8" d="M96.16,36.16l1.08-1.65v0a.28.28,0,0,1,.48.3l-1.07,1.72a.31.31,0,1,1-.53-.33h0Z" transform="translate(-15.9 -1.11)"/><path class="cls-8" d="M98.21,32.79,99.1,31h0a.2.2,0,0,1,.36.17L98.65,33a.24.24,0,1,1-.44-.2h0Z" transform="translate(-15.9 -1.11)"/><path class="cls-8" d="M100,29.2l.76-1.83h0a.09.09,0,0,1,.17.06l-.66,1.91a.15.15,0,0,1-.29-.1h0Z" transform="translate(-15.9 -1.11)"/><path class="cls-9" d="M98.76,26.49a0,0,0,0,1,0,0A39.81,39.81,0,0,1,103.31,24" transform="translate(-15.9 -1.11)"/><path class="cls-9" d="M99.59,23.65a19.8,19.8,0,0,0,2.87,4" transform="translate(-15.9 -1.11)"/></g></g></g></svg>