<svg xmlns="http://www.w3.org/2000/svg" xmlns:xlink="http://www.w3.org/1999/xlink" viewBox="0 0 59.51 70.39"><defs><style>.cls-1,.cls-10,.cls-11,.cls-15,.cls-18,.cls-7{fill:none;}.cls-2{fill:#001440;}.cls-3{fill:#00277f;}.cls-4{fill:#003abf;}.cls-5{clip-path:url(#clip-path);}.cls-6{opacity:0.7;}.cls-15,.cls-21,.cls-7{stroke:#003abf;}.cls-10,.cls-11,.cls-18,.cls-21,.cls-7{stroke-linecap:round;stroke-linejoin:round;}.cls-7{stroke-width:0.26px;}.cls-8{fill:url(#Nouvelle_nuance_de_motif_7);}.cls-9{fill:url(#Nouvelle_nuance_de_motif_6);}.cls-10,.cls-11,.cls-18{stroke-width:0.28px;}.cls-10{stroke:url(#Nouvelle_nuance_de_motif_7-3);}.cls-11{stroke:url(#Nouvelle_nuance_de_motif_6-3);}.cls-12{opacity:0.5;fill:url(#Nouvelle_nuance_de_motif_4);}.cls-13,.cls-21{fill:#fff;}.cls-14{fill:#1d50c6;}.cls-15{stroke-miterlimit:10;stroke-width:0.25px;}.cls-16{fill:#2053c7;}.cls-17{opacity:0.32;}.cls-18{stroke:url(#Nouvelle_nuance_de_motif_7-7);}.cls-19{opacity:0.3;}.cls-20{opacity:0.14;}</style><clipPath id="clip-path" transform="translate(-30.14)"><rect class="cls-1" y="0.23" width="118.42" height="70.56"/></clipPath><pattern id="Nouvelle_nuance_de_motif_7" data-name="Nouvelle nuance de motif 7" width="70.33" height="70.33" patternTransform="translate(155.12 927.84) scale(0.66 0.76)" patternUnits="userSpaceOnUse" viewBox="0 0 70.33 70.33"><rect class="cls-1" width="70.33" height="70.33"/><rect class="cls-4" width="70.33" height="70.33"/></pattern><pattern id="Nouvelle_nuance_de_motif_6" data-name="Nouvelle nuance de motif 6" width="70.33" height="70.33" patternTransform="translate(45.74 888.76) scale(0.79)" patternUnits="userSpaceOnUse" viewBox="0 0 70.33 70.33"><rect class="cls-1" width="70.33" height="70.33"/><rect class="cls-3" width="70.33" height="70.33"/></pattern><pattern id="Nouvelle_nuance_de_motif_7-3" data-name="Nouvelle nuance de motif 7" width="70.33" height="70.33" patternTransform="translate(124.99 927.84) scale(0.66 0.76)" patternUnits="userSpaceOnUse" viewBox="0 0 70.33 70.33"><rect class="cls-1" width="70.33" height="70.33"/><rect class="cls-4" width="70.33" height="70.33"/></pattern><pattern id="Nouvelle_nuance_de_motif_6-3" data-name="Nouvelle nuance de motif 6" width="70.33" height="70.33" patternTransform="translate(15.6 888.76) scale(0.79)" patternUnits="userSpaceOnUse" viewBox="0 0 70.33 70.33"><rect class="cls-1" width="70.33" height="70.33"/><rect class="cls-3" width="70.33" height="70.33"/></pattern><pattern id="Nouvelle_nuance_de_motif_4" data-name="Nouvelle nuance de motif 4" width="70.33" height="70.33" patternTransform="translate(68.27 936.31) scale(0.88)" patternUnits="userSpaceOnUse" viewBox="0 0 70.33 70.33"><rect class="cls-1" width="70.33" height="70.33"/><rect class="cls-2" width="70.33" height="70.33"/></pattern><pattern id="Nouvelle_nuance_de_motif_7-7" data-name="Nouvelle nuance de motif 7" width="70.33" height="70.33" patternTransform="translate(125.01 928.08) scale(0.66 0.76)" patternUnits="userSpaceOnUse" viewBox="0 0 70.33 70.33"><rect class="cls-1" width="70.33" height="70.33"/><rect class="cls-4" width="70.33" height="70.33"/></pattern></defs><title>feuille-icone-3</title><g id="Calque_2" data-name="Calque 2"><g id="Calque_2-2" data-name="Calque 2"><g class="cls-5"><g class="cls-6"><polyline class="cls-7" points="58.7 68.6 59.39 68.89 57.88 68.47 59.31 69.08 55.58 68.34 57.77 69.27 54.43 68.31 56.68 69.27 53.01 68.29 55.33 69.27 52.3 68.27 54.65 69.27 51.92 68.27 54.28 69.27 49.41 68.23 51.87 69.27 48.21 68.22 50.7 69.27 46.02 68.19 48.57 69.27 45.52 68.18 48.08 69.27 43.24 68.16 45.86 69.27 41.7 68.14 44.36 69.27 40.01 68.13 42.7 69.27 37.2 68.1 39.96 69.27 35.36 68.08 38.16 69.27 34.37 68.08 37.18 69.27 34.13 68.08 36.95 69.27 31.76 68.06 34.62 69.27 30.47 68.05 33.35 69.27 29.63 68.04 32.53 69.27 28.82 68.03 31.73 69.27 26.82 68.02 29.76 69.27 24.86 68.01 27.84 69.27 22.99 68 26 69.27 20.34 67.98 23.38 69.27 19.57 67.98 22.62 69.27 16.85 67.96 19.94 69.27 14.89 67.95 18 69.27 12.25 67.94 15.39 69.27 10.82 67.93 13.98 69.27 10.27 67.93 13.43 69.27 8.38 67.92 11.56 69.27 5.72 67.91 8.93 69.27 4.98 67.91 8.2 69.27 3.98 67.91 7.19 69.27 1.92 67.91 5.12 69.27 0.99 68.21 3.49 69.27 0.67 68.4 2.72 69.27 0.26 68.75 1.49 69.27 0.13 68.92 0.95 69.27 0.15 69.11 0.45 69.23"/></g><path class="cls-8" d="M84.52,30.45C81,37.19,77,44.46,72,49.9a6.16,6.16,0,0,1-1.5,1.3l-.07-.06A24.16,24.16,0,0,0,67.72,49a15.08,15.08,0,0,0-3.34-1.77,19.58,19.58,0,0,0-5-.85,24.38,24.38,0,0,0-3.7-.11,16.17,16.17,0,0,0-8.87,3.87c-3.34-2-5.79-4.87-8.44-7.93s-4.38-5-6-8.82c.1-.17-.49-1.69-.34-1.74A35.36,35.36,0,0,1,39,30.51c4.94-.62,9.91.44,14.88.71,4.61.25,9.22-.15,13.83-.23C73.4,30.89,78.8,30,84.52,30.45Z" transform="translate(-30.14)"/><path class="cls-9" d="M42.23,31.31a65.52,65.52,0,0,1,6.77.48c1.56.16,3.18.33,4.78.42,1,.06,2.09.08,3.26.08,2,0,4.07-.08,6-.16,1.51-.06,3.06-.12,4.59-.15,2.19,0,4.35-.19,6.44-.33,2.32-.16,4.72-.33,7.09-.33.59,0,1.16,0,1.71,0-3.25,6.14-7.07,12.86-11.64,17.87-.24.26-.47.5-.69.7a26,26,0,0,0-2.3-1.76,15.83,15.83,0,0,0-3.56-1.89,20.33,20.33,0,0,0-5.26-.91c-.9-.07-1.83-.15-2.77-.15-.38,0-.73,0-1.08,0a16.83,16.83,0,0,0-8.87,3.65c-2.79-1.79-5-4.33-7.31-7l-.3-.35-.24-.28c-2.41-2.8-4-4.66-5.47-8.08a5,5,0,0,0-.19-.84,29.2,29.2,0,0,1,4.26-.67l1.58-.18a25.2,25.2,0,0,1,3.15-.18m0-1a26.35,26.35,0,0,0-3.27.19,35.36,35.36,0,0,0-6.87,1.13c-.15,0,.44,1.57.34,1.74,1.58,3.81,3.37,5.82,6,8.82s5.1,6,8.44,7.93a16.17,16.17,0,0,1,8.87-3.87c.34,0,.67,0,1,0,.9,0,1.79.07,2.69.14a19.58,19.58,0,0,1,5,.85A15.08,15.08,0,0,1,67.72,49a24.16,24.16,0,0,1,2.73,2.14l.07.06A6.16,6.16,0,0,0,72,49.9c5-5.44,9-12.71,12.51-19.46-1.12-.08-2.22-.12-3.32-.12-4.53,0-8.93.58-13.54.66-3.54.06-7.08.31-10.62.31-1.07,0-2.14,0-3.21-.08-3.87-.21-7.75-.9-11.61-.9Z" transform="translate(-30.14)"/><polyline class="cls-10" points="20.91 47.45 50.48 30.38 24.87 46.34 52.44 30.43 25.94 46.23 53.27 30.45 27.58 46.23 54.11 30.91 28.74 46.3 53.53 31.99 30.31 46.45 52.72 33.52 31.5 46.58 52.08 34.69 31.81 46.61 51.9 35.02 33.24 46.95 50.93 36.74 34.42 47.27 50.09 38.22 35.59 47.8 48.96 40.08 35.91 47.95 48.64 40.6 36.83 48.5 47.6 42.28 37.75 49.09 46.31 44.15 38.18 49.42 45.63 45.12 38.36 49.57 45.34 45.54 38.44 49.63 45.2 45.73 39.2 50.23 43.74 47.6 40 50.86 42.01 49.7 40.32 51.11 40.99 50.73"/><polyline class="cls-10" points="1.98 31.74 2.23 31.6 2.16 32.58 4.85 31.02 2.26 32.94 5.8 30.89 2.41 33.56 7.37 30.7 2.83 34.43 9.64 30.49 3 34.78 10.5 30.45 3.23 35.27 11.68 30.39 3.68 36.13 13.6 30.41 4.1 36.8 15.04 30.49 4.3 37.11 15.7 30.52 4.34 37.17 15.84 30.53 4.52 37.45 16.43 30.57 4.8 37.9 17.34 30.67 4.96 38.13 17.82 30.71 5.28 38.54 18.68 30.8 5.75 39.15 19.99 30.93 6.17 39.69 21.17 31.03 6.51 40.12 22.12 31.11 6.63 40.26 22.42 31.14 6.88 40.55 23.08 31.2 7.01 40.71 23.43 31.22 7.64 41.45 25.27 31.27 7.7 41.51 25.42 31.27 8.36 42.28 27.36 31.3 8.83 42.82 28.79 31.3 8.91 42.92 29.06 31.29 9.26 43.31 30.14 31.26 9.67 43.78 31.44 31.21 10.36 44.56 33.6 31.14 10.75 44.98 34.78 31.11 11.32 45.59 36.52 31.05 11.73 46.03 37.74 31.01 12.1 46.42 38.88 30.96 12.2 46.52 39.18 30.94 12.4 46.71 39.75 30.92 13.04 47.29 41.53 30.84 13.61 47.81 43.18 30.74 13.86 48.03 43.91 30.69 13.94 48.11 44.15 30.67 14.78 48.77 46.38 30.53 15.55 49.31 48.21 30.45 16.04 49.64 49.37 30.4 16.6 50.04 17.48 49.53"/><polyline class="cls-11" points="3.47 32.24 5.73 30.93 4.85 31.95 6.86 30.78 6.37 31.73 8.29 30.63 6.88 31.67 8.79 30.57 9.41 31.41 11.11 30.43 11.51 31.29 13.01 30.42 13.5 31.32 14.9 30.51 14.73 31.37 16.11 30.58 15.52 31.41 16.83 30.65 16.95 31.55 18.26 30.79 18.58 31.7 19.88 30.95 18.92 31.74 20.23 30.98 20.18 31.85 21.5 31.09 20.75 31.9 22.07 31.14 21.59 31.97 22.91 31.21 21.81 31.99 23.14 31.23 23.52 32.14 24.97 31.31 24.57 32.18 26.03 31.34 25.46 32.2 26.93 31.36 26.19 32.22 27.72 31.34 27.08 32.23 28.68 31.31 27.36 32.23 28.95 31.31 29.07 32.18 30.66 31.26 29.34 32.17 30.93 31.26 29.9 32.16 31.49 31.24 30.38 32.15 31.96 31.23 30.9 32.13 32.49 31.21 32.5 32.09 34.11 31.16 32.67 32.08 34.28 31.16 33.97 32.04 35.59 31.11 34.81 32.01 36.42 31.08 36.05 31.97 37.67 31.04 37.44 31.93 39.09 30.98 38.03 31.9 39.68 30.95 38.8 31.86 40.44 30.91 40.07 31.8 41.69 30.86 40.63 31.77 42.25 30.83 41.06 31.75 42.7 30.8 43.4 31.63 45.11 30.64 44.38 31.57 46.11 30.57 46.22 31.45 47.88 30.5 47.7 31.37 49.29 30.45 48.77 31.34 50.37 30.41 49.1 31.32 50.7 30.4 50.44 31.29 51.94 30.42 51.97 31.29 53.38 30.47 52.42 32.13 53.86 31.3 51.95 33 53.4 32.16 51.29 34.21 52.77 33.36 50.77 35.16 52.26 34.3 50.48 35.71 51.96 34.85 49.84 36.81 51.34 35.94 49.32 37.68 50.86 36.8 48.71 38.71 50.29 37.8 47.72 40.39 49.3 39.48 47.65 40.5 49.23 39.59 46.5 42.23 48.2 41.25 45.41 43.84 47.24 42.78 44.36 45.36 46.15 44.33 43.49 46.43 45.48 45.28 42.09 48.15 44.31 46.87 41.44 48.95 43.63 47.69 40.79 49.67 43.09 48.34"/><polyline class="cls-11" points="20.89 47.42 24.07 45.59 22.08 46.99 24.73 45.46 24.02 46.46 26.02 45.3 26.56 46.17 27.96 45.36 27.17 46.2 28.57 45.39 27.94 46.24 29.33 45.43 29.49 46.34 30.79 45.59 30.21 46.41 31.51 45.66 30.56 46.45 31.86 45.7 31.14 46.51 32.35 45.81 32.66 46.78 33.76 46.15 33 46.87 34.11 46.23 33.46 46.97 34.56 46.34 34.36 47.21 35.3 46.66 34.91 47.46 35.85 46.91 35.67 47.8 36.57 47.28 36.24 48.1 37.1 47.6 36.45 48.23 37.31 47.73 37.13 48.65 38 48.15 37.5 48.88 38.34 48.39 38.12 49.34 38.97 48.85 38.75 49.84 39.63 49.33 39.52 50.45 40.43 49.92 39.88 50.72 42.26 49.34 40.37 51.11 40.76 50.88"/><line class="cls-11" x1="18.27" y1="47.92" x2="20.05" y2="46.89"/><polyline class="cls-11" points="2.01 31.77 2.26 31.63 2.19 32.6 4.87 31.05 2.29 32.96 3.08 32.51 2.45 33.58 3.22 33.13 2.87 34.45 3.63 34.01 3.04 34.8 3.8 34.36 3.27 35.29 4.04 34.85 3.73 36.15 4.48 35.71 4.15 36.81 4.91 36.38 4.34 37.12 5.1 36.69 4.39 37.19 5.14 36.75 4.56 37.47 5.32 37.03 4.85 37.92 5.61 37.48 5.01 38.15 5.78 37.7 5.32 38.55 6.09 38.11 5.8 39.16 6.57 38.72 6.22 39.7 6.99 39.26 6.56 40.14 7.34 39.69 6.68 40.27 7.45 39.82 6.93 40.56 7.7 40.12 7.06 40.72 7.84 40.27 7.69 41.46 8.47 41.01 7.75 41.52 8.52 41.07 8.4 42.29 9.18 41.84 8.88 42.84 9.66 42.39 8.96 42.93 9.74 42.48 9.31 43.33 10.09 42.87 9.72 43.8 10.5 43.34 10.41 44.58 11.19 44.12 10.8 44.99 11.57 44.55 11.37 45.61 12.16 45.15 11.78 46.04 12.59 45.57 12.15 46.43 12.97 45.96 12.25 46.54 13.07 46.06 12.45 46.72 13.26 46.25 13.09 47.3 13.87 46.85 13.67 47.82 14.48 47.35 13.92 48.04 14.76 47.56 14 48.12 14.85 47.63 14.84 48.78 15.71 48.28 15.61 49.31 16.44 48.84 16.1 49.65 22.69 45.84 16.65 50.03 17.21 49.72"/><path class="cls-12" d="M46.67,49.48s9.64-8.72,23,1c0,0-1.44-4.6-10.91-5.4S46.67,49.48,46.67,49.48Z" transform="translate(-30.14)"/><path class="cls-13" d="M47,50.46a24.46,24.46,0,0,0-1.93,1.84A64.72,64.72,0,0,0,37.36,63.2l-2.85,4.68a4.19,4.19,0,0,1-1.58-1.48c-1-1.52-1-3.59-1-5.51-.05-5.39-.51-10.75-.59-16.13a74,74,0,0,1,.26-8c.1-1-.06-3.56.5-4.51,1.55,3.94,4,6.89,6.59,10S43.72,48.43,47,50.46Z" transform="translate(-30.14)"/><polygon class="cls-14" points="17.22 49.89 17.21 49.84 17.07 49.87 17.22 49.89"/><path class="cls-14" d="M46.69,49.74s0,0,0,.07l.48,0C47.11,49.53,46.73,49.89,46.69,49.74Z" transform="translate(-30.14)"/><path class="cls-14" d="M46.62,49.65c-.08-.14-.21-.06-.26,0C46.46,49.55,46.56,49.79,46.62,49.65Z" transform="translate(-30.14)"/><path class="cls-14" d="M37.59,40.24l0,0S37.6,40.24,37.59,40.24Z" transform="translate(-30.14)"/><path class="cls-14" d="M35.12,37.79l-.11,0c.53.41.81,1.11,1.3,1.6h-.06c1,1.39,2.2,2.5,3.35,3.77h-.08c.08,0,.2.07.25.14s-.06,0-.08,0c.09.4.77.74.8,1,.08.07.17.05.18,0a25.24,25.24,0,0,0,2.93,2.89.1.1,0,0,1-.06.14,27.09,27.09,0,0,1,2.78,2.18c.08,0,0-.14.09-.14-.25-.29-.66-.25-.85-.57l.08,0c-.16-.19-.16.12-.3-.12s.08-.06,0-.09a7.23,7.23,0,0,0-1.28-.93c0-.2-.41-.4-.44-.65-.14,0-.23-.16-.34-.12-1.24-1.38-2.58-2.75-3.79-4.25-.82-.5-1.21-1.57-2-2.34l0,0a4.27,4.27,0,0,1-.85-.95l-.32-.2c-.65-1.08-1.38-2.1-2-3.18-.34-.53-.65-1.08-.94-1.64-.17-.35-.38-.78-.58-1.22l-.6-1.49,0-.06h-.12s-.07,0-.13.1-.19.38-.27.55a4.6,4.6,0,0,0-.39,1.22c-.08.48-.13,1.22-.15,1.46l0,1c0,.34,0,.65,0,1s0,.68,0,1a16.5,16.5,0,0,0,.09,2.09s0,0-.06-.06c0,.82-.1,1.56,0,2.33h0c.24,1.91,0,4,.34,5.8.05,2.24.22,4.76.4,7.12h-.06c.22,1.89,0,3.72.07,5.6A11.34,11.34,0,0,0,33,66.52a2.46,2.46,0,0,0,1.47,1.33h.05l0-.07.06-.13.11-.23c.07-.14.13-.28.22-.43a3,3,0,0,1,.56-.75,21.65,21.65,0,0,0,3.53-6c1.29-1.73,2.12-3.79,3.68-5.24.43-.93,1.51-1.46,2.2-2.3l-.08,0c.43-.14.37-.86.81-.78l0,0c.28,0,.06-.63.3-.57l0-.09c.17-.19.09.05.26-.06s-.09-.14.06-.21c.27.24.4-.49.68-.2-.1.09.26,0,.09.25.09,0,.38-.33.24-.44s-.07-.39-.35-.33l0,.14c-.15,0-.09,0-.18-.06-.26.22-.42.11-.65.22h0c0,.23-.25.32-.36.4l-.09,0c-.17-.05-.07.49-.18.22-.47.52-1,1.09-1.53,1.68,0,.15-.4.44-.14.44-.29,0-.71.41-.83.59,0,0,0,0,0-.06-.48.15-.1.55-.62.64.16.2-.5.51-.39.87a.15.15,0,0,1-.15-.05c-.43.56-.94,1.14-1.29,1.62-.11.54-.77,1-.75,1.49a3.51,3.51,0,0,0-.84,1.17v-.06a4.65,4.65,0,0,0-.69,1.52c-.33,0-.41.23-.62.39-.08.39-.51,1-.71,1.57-.16,0-.2.43-.38.36a10.61,10.61,0,0,1-1.16,2.35c-.25.38-.51.76-.78,1.12-.09.12-.11.13-.13.14l-.06,0s-.07-.09-.07-.12h0a.27.27,0,0,1-.15.17,1.29,1.29,0,0,1-.4,0s0,0,.05,0c-.24-.18-.27-.51-.46-.72,0,0,0,0,.08,0-.23-.18-.15-.54-.41-.76l0,0-.14-.16c.06,0,.15,0,.17.06a13.62,13.62,0,0,1-.66-3.81c-.08-1.37-.18-2.76-.2-4.14l.06.1-.13-.53s0,0,.06.05a16.2,16.2,0,0,0-.13-2.05s.1.1.13,0c-.2-.48.19-.8-.18-1a.09.09,0,0,1,.13,0,31.47,31.47,0,0,1-.25-4.14c-.38-1.13-.13-2.42-.42-3.6h.07a29.65,29.65,0,0,1-.06-4.77c0-.66,0-1.11,0-1.78h.08c-.27-1.14.44-2.32.17-3.53l.11.08c-.16-.19.08-.71-.22-.65l.09-.21a1.71,1.71,0,0,1,0-1.16A4.46,4.46,0,0,0,31.85,33l0,.19c0-.37.09-.73.19-.78s0,.11,0,.22.12,0,.15.19.07.25.11.34a2.38,2.38,0,0,0,.32.57,6.05,6.05,0,0,1,.43.71l-.15,0c.31.28.57,1,.91,1.46h-.07l.22.19-.1.07A20.3,20.3,0,0,0,35.12,37.79Z" transform="translate(-30.14)"/><path class="cls-14" d="M39.67,43.31h0S39.66,43.3,39.67,43.31Z" transform="translate(-30.14)"/><path class="cls-14" d="M46,50.67l.08,0S46,50.66,46,50.67Z" transform="translate(-30.14)"/><path class="cls-15" d="M70.21,51.51l.07.06-.06,0A.67.67,0,0,0,70.21,51.51Z" transform="translate(-30.14)"/><path class="cls-13" d="M85,40.55Q84.87,53,84.62,65.48a4.44,4.44,0,0,1-.51,2.42,2,2,0,0,1-1,.73c-1.37-3.22-4.16-5.17-6.22-7.82-1.52-2-2.64-4.3-4.09-6.33a21.24,21.24,0,0,0-2.53-2.92,6.15,6.15,0,0,0,1.47-1.35A89.48,89.48,0,0,0,84.36,31.44,43.43,43.43,0,0,1,85,40.55Z" transform="translate(-30.14)"/><polygon class="cls-14" points="55.48 40.56 55.52 40.52 55.42 40.41 55.48 40.56"/><path class="cls-14" d="M85.39,39.88s-.05,0-.07,0l.29.4C85.79,40.13,85.28,40,85.39,39.88Z" transform="translate(-30.14)"/><path class="cls-14" d="M85.42,39.76c.07-.15-.07-.22-.12-.25C85.41,39.56,85.27,39.79,85.42,39.76Z" transform="translate(-30.14)"/><path class="cls-14" d="M81.55,35.82l0,0A0,0,0,0,0,81.55,35.82Z" transform="translate(-30.14)"/><path class="cls-14" d="M80.13,39.09l.07.09a15.5,15.5,0,0,1,1-1.84v.06a22.49,22.49,0,0,0,1.24-2.27l1.12-2.41s0,.09,0,.13a1.31,1.31,0,0,1,.09-.4s0,.1,0,.15.23-.31.35-.62.26-.66.29-.58a1.57,1.57,0,0,0,.11-.51c.18.78.36,1.64.51,2.57l.34,2.18a.1.1,0,0,1-.14.07,11.07,11.07,0,0,1,.21,3.69c.08,0,.08-.13.16,0,.1-.4-.19-.72-.05-1.08l.08,0c0-.26-.19-.05-.1-.32.06-.11.1,0,.1,0a5.48,5.48,0,0,0-.19-1.66c.16-.14,0-.6.12-.82-.07-.14-.07-.29-.18-.34,0-.49,0-1-.1-1.48-.07-.65-.22-1.52-.37-2.23l-.23-1.09,0-.14s0-.15,0-.06l-.14.26-.27.52L83.07,33c-.19,1-1,1.78-1.49,2.8l0,0A4.32,4.32,0,0,1,81,37l-.07.38c-1.56,2.06-2.85,4.35-4.48,6.39C74.59,46.1,72.8,48,71.22,50.41c0,0,0,0,0-.08a3.74,3.74,0,0,1-.51.54,6.11,6.11,0,0,1-1,.63,10.52,10.52,0,0,0,.88.88l0,0c1.56,1.21,2.5,3.12,3.68,4.59.58,1,1.2,2,1.92,3.06a20.47,20.47,0,0,0,2.44,2.8l0,0a25.2,25.2,0,0,1,3.61,4.42L83,68.76l.06.1.11,0,.21-.1a2.14,2.14,0,0,0,.39-.25,1.84,1.84,0,0,0,.52-.67,10.78,10.78,0,0,0,.36-3c.33-1.24-.32-2.88,0-4a22.09,22.09,0,0,0,0-7.13c.2-2.21-.21-4.42.17-6.56-.21-1,.31-2.13.26-3.26l-.08,0c.24-.4-.32-.91,0-1.16l0,0c.18-.21-.41-.5-.2-.63l-.09,0c0-.26.1,0,.14-.23s-.16,0-.11-.19c.36,0-.07-.64.34-.65,0,.14.16-.22.24.1,0-.09,0-.53-.14-.49s-.34-.21-.48.05l.13.05c-.13.09-.07.07-.17.1,0,.35-.22.39-.3.64h0c.16.17.06.4,0,.54l-.07.05c-.16.08.3.4,0,.29.06.7,0,1.51,0,2.3.1.11,0,.6.18.43a1.61,1.61,0,0,0-.28,1s0,0,0-.05c-.29.42.26.5-.1.89.25.06-.09.72.2.94a.15.15,0,0,1-.15,0c0,.71-.11,1.49-.13,2.1.21.52-.12,1.24.18,1.69a3.79,3.79,0,0,0-.09,1.47l0-.05a5,5,0,0,0,.2,1.7c-.29.17-.24.42-.33.66.13.39.08,1.16.19,1.75-.13.09.05.49-.14.51A15.2,15.2,0,0,1,84,63.1v0c.1.23.33.5.47.73,0,0,0,0,0,0,0,.32-.16.62-.13.94,0,0,0,0-.06-.06.08.3-.16.62,0,1l-.05,0,.06.22c-.06,0-.16,0-.13-.13a4.44,4.44,0,0,1-.33,1.76,1.63,1.63,0,0,1-.19.28l-.11.11c-.12.13-.15,0-.22-.11a21.17,21.17,0,0,0-2.63-3.41l.12,0-.46-.33a.09.09,0,0,1,.08,0,17.13,17.13,0,0,0-1.49-1.5s.14,0,.1-.08c-.47-.25-.38-.74-.81-.68,0,0,0-.09.1-.08A13,13,0,0,1,75.7,58.4c-.9-.82-1.3-2.13-2.19-3l.06,0c-.53-.6-1-1.27-1.5-1.93a13.93,13.93,0,0,0-1.55-1.78s-.09-.06,0-.08a2.33,2.33,0,0,0,.55-.45c.19-.2.36-.4.57-.64l.07,0c.52-1.07,1.79-1.66,2.28-2.82l0,.13c0-.25.5-.53.23-.66l.2-.11c.2-.88,1.06-1.06,1.46-2l0,.09a1.85,1.85,0,0,1,.44-.64s0,0,0,.09c.72-.51,1-1.44,1.53-2.15l0,.16a13,13,0,0,1,.93-1.5l0,.06.09-.28.11.06C79.49,40.33,79.76,39.7,80.13,39.09Z" transform="translate(-30.14)"/><path class="cls-14" d="M83.7,32.6h0S83.69,32.63,83.7,32.6Z" transform="translate(-30.14)"/><path class="cls-14" d="M84.37,41.49l0-.09S84.38,41.46,84.37,41.49Z" transform="translate(-30.14)"/><polygon class="cls-14" points="13.13 70.37 13.16 70.39 13.07 70.34 13.13 70.37"/><path class="cls-14" d="M43.07,70.25l-.06,0,.25.16Z" transform="translate(-30.14)"/><path class="cls-14" d="M43.1,70.27,43,70.2Z" transform="translate(-30.14)"/><path class="cls-14" d="M43.06,70.2h0Z" transform="translate(-30.14)"/><path class="cls-14" d="M42.66,69.94l-.09-.06c.17.11,0,0,.07,0l0,0,.18.13,0,0,.08.05-.05,0c-.16-.1.1.06,0,0l.13.08.19.13-.12-.07c.25.16.15.1.11.08l.14.09c.08.05-.16-.1,0,0l.06,0-.08,0,.09.05-.12-.08.14.08-.13-.08c.08,0-.06,0,0,0-.27-.17.06,0,0,0l0,0-.06,0-.11-.07c.24.14.08,0,.18.08s.27.15-.08-.08l.05,0c-.05,0,0,0,0,0l0,0c-.22-.14,0,0-.2-.14,0,0,0,0-.06-.06l.05,0c-.11-.07.18.1.09,0,.12.07-.3-.2-.13-.1s-.3-.19,0,0,.15.08-.09-.08c.15.09-.22-.15.08,0-.19-.12.24.14.19.1l-.07,0c.2.12-.28-.18,0,0h0l-.18-.11-.07,0,.12.07-.09-.06.28.17.21.13L43.05,70l-.41-.25.11.07-.14-.09-.25-.15h0l0,0-.06,0,0,0,.05,0,.16.1-.23-.14,0,0c-.24-.15.23.14-.07,0l.18.11-.13-.08-.09-.05.17.11c-.05,0-.16-.1-.06,0l0,0,.19.12-.28-.17.18.12-.12-.07c.31.2.2.14,0,0h0l.4.25,0,0-.1-.06-.05,0c.07,0-.13-.08,0,0l0,0,.06,0-.12-.07c-.06,0,.22.16.17.14l-.05,0,.09.06-.05,0c-.09-.06.06,0,0,0l-.11-.07.11.07-.11-.07c.1.07.09.07,0,0,.28.18,0,0,.24.16l-.06,0c.19.12,0,0,0,0l0,0-.07,0c.26.17-.24-.14,0,0l-.09-.06.2.12-.08,0c.33.21-.15-.09.06,0l-.06,0,0,0,0,0c-.24-.14,0,0,0,0l-.11-.07c.13.08,0,0,.07,0l-.05,0,.07,0-.1-.06Z" transform="translate(-30.14)"/><path class="cls-14" d="M42.77,70h0Z" transform="translate(-30.14)"/><path class="cls-14" d="M42.35,69.52h0Z" transform="translate(-30.14)"/><path class="cls-15" d="M70.21,51.51a.89.89,0,0,0-.25-.6" transform="translate(-30.14)"/><path class="cls-4" d="M58.58,35.36a10.76,10.76,0,0,1-3.06,5.16l-.31-2a49.45,49.45,0,0,1-5.8,2.72,20.25,20.25,0,0,0,2.2-3.41S46,39.33,42.07,38c0,0,3-.42,3.63-2,0,0-6.3-.44-6.84-2.24a15.35,15.35,0,0,0,1.57-1.55s-4.41,0-6.53-1.66L36,29.38a11,11,0,0,1-5.85-6.46s7.86,2,8.64,1.44l.09-2.2,4.19,1.59s-3.76-5-1.84-8.32l1.31.15s-.64-3.07-.36-4l1.44,1.2S41.38,2.65,42.67,0c0,0,6.41,4.77,9.28,9.19a6.14,6.14,0,0,0-.15-2.11A7.52,7.52,0,0,1,54.73,10s.73-.39.7-.85a5.21,5.21,0,0,1,3.21,2.75c1.4,2.43,1.92,3.5,1.92,3.5l1.71-3.63,1.44,1.2s4-5.18,4.77-7.25a18.28,18.28,0,0,1,1.05,4.23c0,1.42-.15,4-.15,4l2.37-.7L69,19.59l4.31-1S70,24,68.16,25.87c0,0,4.9-1.32,5.15-2.07,0,0-3.48,6.8-8.07,8,0,0,2,1.41,2.92.45a9.59,9.59,0,0,1-4,2.4s1.75,2.47,2.37,2.28l-7.29-1.7" transform="translate(-30.14)"/><path class="cls-13" d="M44.66,24.85s-3.76-5-1.84-8.32l1.31.15s-.64-3.07-.36-4l1.44,1.2s-2.3-10.18-1-12.82c0,0,6.41,4.77,9.28,9.19a6.14,6.14,0,0,0-.15-2.11,7.52,7.52,0,0,1,2.93,2.9s.73-.39.7-.85A5.21,5.21,0,0,1,60.17,13c1.4,2.43,1.92,3.5,1.92,3.5l1.71-3.63L65.24,14s4-5.18,4.77-7.25A18.28,18.28,0,0,1,71.06,11c0,1.42-.15,4-.15,4l2.37-.7-2.74,6.32,4.31-1s-3.27,5.45-5.16,7.3c0,0,4.9-1.32,5.15-2.07,0,0-3.48,6.8-8.07,8,0,0,2,1.41,2.92.45a9.59,9.59,0,0,1-4,2.4S67.41,38.22,68,38l-7.29-1.7,5.42,13.07-1.49.17L60.12,36.45a10.76,10.76,0,0,1-3.06,5.16l-.31-2a49.45,49.45,0,0,1-5.8,2.72A20.25,20.25,0,0,0,53.14,39s-5.61,1.47-9.54.13c0,0,3-.42,3.63-2,0,0-6.3-.44-6.84-2.24A15.35,15.35,0,0,0,42,33.33s-4.41,0-6.53-1.66l2.16-1.19A11,11,0,0,1,31.73,24s7.86,2,8.64,1.44l.09-2.2Z" transform="translate(-30.14)"/><path class="cls-16" d="M44.6,25c.13,0,.08,0-.26-.16h-.27Z" transform="translate(-30.14)"/><path class="cls-16" d="M42.42,24c-.41-.11-.88-.22-.66,0,.42.07.5.14.95.21s.57.25.5.25a6.65,6.65,0,0,0,.71.23,7.79,7.79,0,0,0-1.55-.6C42.26,24,42.38,24,42.42,24Z" transform="translate(-30.14)"/><path class="cls-16" d="M41.12,35.83l-.19-.14Z" transform="translate(-30.14)"/><path class="cls-16" d="M52.37,40.07a.87.87,0,0,0,.11-.21C52.4,40,52.34,40.1,52.37,40.07Z" transform="translate(-30.14)"/><path class="cls-16" d="M51.73,42.35l-.31.11Z" transform="translate(-30.14)"/><path class="cls-16" d="M41.12,35.83c.17.11.34.2.51.3A3.58,3.58,0,0,0,41.12,35.83Z" transform="translate(-30.14)"/><path class="cls-16" d="M39.89,25.76a1.09,1.09,0,0,0,.39-.08,1.14,1.14,0,0,1-.37.07Z" transform="translate(-30.14)"/><path class="cls-16" d="M36,32.23l-.2-.12-.21-.1A2.82,2.82,0,0,0,36,32.23Z" transform="translate(-30.14)"/><path class="cls-16" d="M34.11,28.28a.47.47,0,0,0,.28.13,1.48,1.48,0,0,1-.3-.22S34.09,28.23,34.11,28.28Z" transform="translate(-30.14)"/><path class="cls-16" d="M38.27,25.33l.2,0Z" transform="translate(-30.14)"/><path class="cls-16" d="M41.07,33.49l0,0S41.11,33.5,41.07,33.49Z" transform="translate(-30.14)"/><path class="cls-16" d="M42.91,17.11h0S42.89,17.15,42.91,17.11Z" transform="translate(-30.14)"/><path class="cls-16" d="M44.64,24.86l-.07-.09h0Z" transform="translate(-30.14)"/><path class="cls-16" d="M56.63,41.11v-.06C56.56,40.74,56.59,40.92,56.63,41.11Z" transform="translate(-30.14)"/><path class="cls-16" d="M72.33,29.15c-.49.51.66-.94-.06-.16C72.36,28.93,71.74,29.8,72.33,29.15Z" transform="translate(-30.14)"/><path class="cls-16" d="M39.69,25.75h0Z" transform="translate(-30.14)"/><path class="cls-16" d="M72.27,29h0l-.07.08Z" transform="translate(-30.14)"/><path class="cls-16" d="M62.7,44.83a.88.88,0,0,0,0-.16A.46.46,0,0,0,62.7,44.83Z" transform="translate(-30.14)"/><path class="cls-16" d="M59.22,39.13l.15-.25Z" transform="translate(-30.14)"/><path class="cls-16" d="M65.55,49.68c.13,0,.29,0,.58-.06H66A3.6,3.6,0,0,1,65.55,49.68Z" transform="translate(-30.14)"/><path class="cls-16" d="M64.19,44.14l0,.11.08.18Z" transform="translate(-30.14)"/><path class="cls-16" d="M44.15,2.77a1.62,1.62,0,0,1-.08.28C44.13,3,44.08,3.84,44.15,2.77Z" transform="translate(-30.14)"/><path class="cls-16" d="M39.89,25.72a.4.4,0,0,1-.2,0h.22S39.93,25.72,39.89,25.72Z" transform="translate(-30.14)"/><path class="cls-16" d="M65.6,49.11h.05v0l0-.1a.52.52,0,0,1,0,.1v0Z" transform="translate(-30.14)"/><path class="cls-16" d="M69.92,7.63l0,.08A.2.2,0,0,0,69.92,7.63Z" transform="translate(-30.14)"/><path class="cls-16" d="M64.47,46.25c0-.17-.1-.35-.17-.53l-.06-.1Z" transform="translate(-30.14)"/><path class="cls-16" d="M44.07,3h0Z" transform="translate(-30.14)"/><path class="cls-16" d="M44.78,9.47c-.14-.93-.16-.42-.24-.61-.19-1.11,0-.52,0-.91-.12-.69-.26-1.21-.31-1.73,0,0,0-.14,0,0a29.14,29.14,0,0,1-.22-3,.47.47,0,0,1,0-.11c-.06.13-.1.15-.14.12A3,3,0,0,1,44,2.24a.92.92,0,0,0,0,.4,2.56,2.56,0,0,1,0-.44c.14-.37-.06.59,0,.6a4.57,4.57,0,0,1,0-.65,3.68,3.68,0,0,1,.09-.57l.06-.21c0-.06,0,0,.06,0l.08.06.15.11.2.16s-.06,0-.16-.07l-.22-.15-.08,0v.06s0,0,0,0l0,0,0,.05,0,0s0,0,0,0l0,.1a.92.92,0,0,0,0,.12l0,.24c.26-.71-.11.58.15-.06,0-.21,0-.18,0-.21s0,0,0,0l0,0,.09.06c.3.22.6.45,1.12.88.26.16,0-.12.23,0,1.52,1.16,1,1.13,2.13,2a4,4,0,0,1,1.17.94l-.31-.16c.93.91.64.41,1.55,1.43-.19-.15-.74-.71-.61-.56.56.68.48.41.95.9l0,.16c.47.5,1,1,1.45,1.6l.35.43.26.34.25.33.49.65s.09.15.11.12v-.21l0-.41c0,.16,0,.62.07.12s0-.73,0-1.12a1.85,1.85,0,0,0,0-.27l0-.11s0-.07,0-.08l.08,0,.16.11a7.37,7.37,0,0,1,.81.74,9.22,9.22,0,0,1,.71.87l.35.51c.18.22.31.67.63.35a1.63,1.63,0,0,0,.67-.72l0,0s0,0,0,0h0s.05,0,0,0-.05-.06,0-.06a1.07,1.07,0,0,1,.25.13s0,0-.11,0A4.78,4.78,0,0,1,59.26,12a9.45,9.45,0,0,1,1.29,2.13L60.41,14c.48.94.71,1,1.12,1.86l-.1-.16.41.76.24.43c0,.14.07,0,.11-.07l.11-.22L63,15.14,63.49,14l.39-.81,1,.92.26.17.08.06s.06.05.08,0l.16-.21L66,13.4a3.62,3.62,0,0,0,.62-1c.83-1,.64-.7,1.73-2.2.28-.41.33-.67.65-1.19l.07,0,.37-.76.3-.34.07-.13,0,0,0-.09a.3.3,0,0,1-.13.12l.2-.4a2,2,0,0,1,.1.56,19.35,19.35,0,0,1,.6,2,6.61,6.61,0,0,1-.21-.64c.32,1.06,0,.21.23,1.18,0-.13.05.06.07.09,0,.46-.09,1.66-.08,2.52l0-.17,0,1.08,0,.66,0,.53v.27c0,.07.05,0,.09,0l.13,0,1.93-.59,0,.08c.08-.11.26-.31.15,0l-.13.09c0,.14.13-.22.06.09-.27.6-.26.37-.13,0l-.29.75s0-.14,0-.2c-.08.32-.62,1.23-.73,1.7l0,0L70,21.17l1-.24a.62.62,0,0,1,.2-.09l.34-.1c.19-.06.43-.12.63-.2l1.63-.34.21,0H74l.12,0c.13-.05,0,.07,0,.13a1.11,1.11,0,0,0-.1.25s.06,0,0,.15c-.09,0-.76,1.09-.45.51-.82,1.28-1,1.64-2.1,3.24.14-.15.29-.34.23-.23-.19.29-.49.63-.48.57l0-.08a12.53,12.53,0,0,1-.77,1c-.15.2-.46.53-.72.81s-.57.59-.87.89c.85-.17,2.48-.63,2.9-.75A11.25,11.25,0,0,0,73.55,26l-.09,0,.18-.08.05,0,.11-.07.24-.16a.64.64,0,0,0,.14-.14c-.1.17-.1.14-.12.14s-.07,0-.14.14,0,0,0,.08l-.06.13-.16.27c-.19.28-.36.55-.54.8-.36.51-.72,1-1.14,1.55s-1.15,1.23-2,2a8.1,8.1,0,0,1-2.58,1.65h.12a10.88,10.88,0,0,1-1.32.48c.14,0,.79-.26.42-.1l-.32.12-.16.06a1.08,1.08,0,0,0,.13.09l.57.36a6.58,6.58,0,0,0,.63.33c.14.06.28.12.43.17a2.91,2.91,0,0,0,1,.17,1.37,1.37,0,0,0,1-.42l-.43-.4a9.3,9.3,0,0,1-3.11,2c-.17.05-.22.08-.57.19l-.43.13c-.12.05-.39.06-.2.21l.53.73.31.4a6.61,6.61,0,0,0,1.45,1.46.9.9,0,0,0,.7.13l0-.77a8.29,8.29,0,0,1-2.06-.36l.49,0c-1-.19-1.91-.4-2.87-.62l-3.48-.81.71,1.69.48,1.1a2,2,0,0,1-.2-.38A11.8,11.8,0,0,0,62,40.23c.16.39,0,.11.07.35.19.54.62,1.29.68,1.59,0,.05-.08-.14-.12-.23.17.33.66,1.6.58,1.25.36.95.77,1.77,1,2.53.27.46.63,1.61.79,1.72-.06,0,.06.34.24.78l.29.69a1.09,1.09,0,0,0,.08.17l.05.09,0,0s-.17,0-.12-.07l-.52.07-.12,0h-.06s0,0-.07,0c-.28-1.23-1-2.49-1.06-3.24l-2.12-5.73c.13,0,.72,2,.8,1.91-.65-1.73-1.09-2.7-1.66-4.44-.14-.45.13.24.21.38l-.44-1.2-.27-.77a3.65,3.65,0,0,0-.25-.64,14.65,14.65,0,0,1-.4,1.7l-.12.32-.08.19-.16.36a14,14,0,0,1-.73,1.36,2.14,2.14,0,0,1,.16-.3c-.16.27-.42.61-.36.6l.16-.26c.36-.37-.6,1.13-.63,1.18.12-.26-.16.06-.38.3s-.25.22-.14,0a.8.8,0,0,0-.13.24l0,0a.24.24,0,0,1,0,0,.31.31,0,0,1,0-.07s0,0,0,0-.06-.17-.11-.33l-.07-.29-.12-.72a3.24,3.24,0,0,1,.14.46l-.17-.8-.8.46-.7.36s-.06,0,.18-.13l-1.83,1c-.29.16-.59.31-.92.47s-.71.32-.92.39c.32-.25-.3.08-.13-.09,0,0-.15.08-.1,0l.09-.14-.2.19c.12-.16.21-.31.33-.49s.38-.59.58-.87l-.3.51c.29-.43.52-.79.81-1.31-.2.32-.32.5-.49.74.39-.72-.14,0,.43-.9,0,.07,0,0,.08-.14l.12-.26L53.2,39c0-.05.07-.13,0-.11l-.57.1h0l-.66.18a6.91,6.91,0,0,1-.75.13c-.15,0,.1-.12,0-.13-.36.15-1.81.27-2.29.37.16,0,.16-.08.11-.08l-.32.08c-.36,0-.42,0-.36,0-1.09,0,.35.12-.95.08l.26,0c-.6,0-1.17,0-1.74-.07l-.81-.1-.59-.12-.18-.06s.2,0,.33,0,.31.06.27,0l-.17,0a2.92,2.92,0,0,1-.36-.1l.37-.1.5-.19a6.11,6.11,0,0,0,.77-.37,3.81,3.81,0,0,0,.69-.49,2.66,2.66,0,0,0,.58-.79,2.5,2.5,0,0,1-.21.34.94.94,0,0,1,.06-.17l.06-.13s.08-.12,0-.12l-.88-.13c-.28,0-.58-.09-.86-.11.21,0,.28,0,.22,0a19.89,19.89,0,0,1-4-.85L42,36a5.44,5.44,0,0,1-.86-.44,1.4,1.4,0,0,1-.59-.62l.22-.19c.14-.17.45-.45.23-.32a7.26,7.26,0,0,0,.63-.55A4.37,4.37,0,0,0,42,33.5l.15-.18.07-.1s0,0,0-.06l-.9,0-.68,0q-.61,0-1.2-.11a8,8,0,0,1-2.25-.58c.22.09.54.14.36.09A7.19,7.19,0,0,1,36,31.9c0,.08.15.14.45.32a3.35,3.35,0,0,1-1-.5c.34.21.34.18.28.11l-.13-.13c-.05,0,0,0,.07-.06l.1,0c-.06,0,0,0-.06,0,.34-.13.36-.17.42-.24s.14-.16.69-.42l0,.06a7.17,7.17,0,0,0,.77-.5l-.44-.2c-.11-.12.33.12.58.2,0,0,0,0,0,0s0,0,0,0a7.1,7.1,0,0,1-1.88-1c.25.15.6.37.87.5l-1-.73,0,0c-.3-.23-.6-.48-.88-.74l.21.21a8.33,8.33,0,0,1-2.07-2c.76.84.16.11.27.14-.15-.25-.38-.63-.29-.54a12.68,12.68,0,0,1-.81-1.44c0-.1-.13-.36,0-.29-.14-.35,0,.05-.06,0a3.9,3.9,0,0,1-.17-.42l1.32.36a16.24,16.24,0,0,0,1.83.38c1.35.24,1.61.21,2.86.38.42.11-.36,0-.36,0a8.74,8.74,0,0,0,1.85.24c-.13,0,0,0,.2.08a1.61,1.61,0,0,0,.49-.07l.22-.1c.1,0,.05-.22.09-.41a2.47,2.47,0,0,1,0,.27c0,.05,0,.14,0,.18l-.21.1c.08-.06.25,0,.25-.15a2.24,2.24,0,0,0,0-.32v-.47c0-.31,0-.62,0-.93,0-.16,0,.37.07.6v-.92l.35.1a2,2,0,0,0,.34.08l-.41-.18c.23.08.06.09,0,.06l-.24-.07a.56.56,0,0,1-.08.3V23.4a3.52,3.52,0,0,0-.09,1.11c0,.26,0,.54,0,.81,0,.07,0,.17,0,.2l-.21.08a2.45,2.45,0,0,1-.39,0,2.42,2.42,0,0,0,.37-.14,4,4,0,0,1-.93.09c-.2-.05-.32-.12.12-.09a11.27,11.27,0,0,1-1.13-.15c-.06,0,0,0,0,0l-.63-.07c.13,0-.09-.09.29,0-1.12-.25-1.83-.26-2.23-.42h.09c-1.56-.3-.17,0-1.35-.12l-.74-.36-.17,0c-.16,0-.47-.12-.41-.14-.61-.09.09.06-.26,0s-.75-.21-1.18-.32a9.27,9.27,0,0,1,.39,1.21c.17.23-.28-.71.11,0,0,.28.44.88.81,1.49-.19-.14-.54-.74-.18-.1.32.31.83,1.15,1.28,1.58.08,0,1,.92,1.87,1.45a2.65,2.65,0,0,0,.44.32l.48.29.4.21a1.89,1.89,0,0,1-.32.18l-.37.19,0,0a2.75,2.75,0,0,1-.61.42l-.59.34s-.12.06-.13.09l.15.1.28.19a.42.42,0,0,1-.21-.07l-.21-.12-.14-.09c-.07,0,.06-.06.09-.1-.26.07,0,.17.13.26l.4.27c.25.1.37.18.8.35h-.19a13.62,13.62,0,0,0,2.88.79c.07-.05-.87-.32.33-.17,0,0,.08.11-.24.07.1,0,.37,0,.58.07h-.49c.52.1.28,0,.69,0,0,0,.31.07.24.1s-.36-.06-.52-.06c.47.07,1,.15,1.23.19,0,0,0-.06.25-.06l.3,0s0,0,0,.05l-.15.12c0,.07-.28.28-.29.39a1.22,1.22,0,0,1-.33.24c-.1.11-.27.27-.61.58a2.67,2.67,0,0,0,.31.53,2.5,2.5,0,0,0,.3.28c.18.11.25.15.12,0l-.1-.07.07,0h0A12.08,12.08,0,0,0,45.31,37v0c.6.07,1.33.15,1.71.16,0,.14-.15.35-.24.48s-.5.35-.42.26a4.32,4.32,0,0,1-.63.39c-.1,0-.21.1-.36.15l-.25.09-.41.12c.41-.15.34-.14.3-.13s0,0,.44-.16l-.3.11-.36.11c-.24.07-.48.12-.75.18a.93.93,0,0,1-.44.28s0,0,0,0c-.12-.09.08.1.25.28s.44.1.6.14l-.53-.16-.08-.09.12.08.75.17a5.33,5.33,0,0,0,.66.13,1.57,1.57,0,0,1-.28,0,21.94,21.94,0,0,0,4.76.06c.48-.1-1,.05-.57-.06.84-.05,1.73-.07,2-.11a5.16,5.16,0,0,0,1-.21,2.12,2.12,0,0,0,.23-.09l.28-.09c.06,0,0,.1,0,.16s.32-.34,0,.37-.66.8-.39.35c.1-.17.16-.25.17-.23.16-.29.18-.36.09-.26a.28.28,0,0,1,0,.09c-.22.34-.87,1.29-.76,1-.34.53-.11.25.16-.13l-.73,1-.92,1.21h.07l.14,0,.29-.09.61-.2c-.23.06-.39.08-.16,0,.51-.17.88-.32,1.08-.42l.26-.14a3.16,3.16,0,0,1,.63-.35c.59-.23-.15.2.83-.32.62-.27.16,0-.07.15.89-.49,1.71-.81,2.23-1.07l-.46.27.66-.36s-.13,0-.22,0l.19-.09h0s0,0,0,0,0-.09.13-.21a.18.18,0,0,1,0,.07c0,.06.21,1.14.19,1.49-.07-.51-.12-.76-.13-.79s0,0,0,0,0,.15-.12-.39c0,.25.06.34.16,1,0,.09,0-.07-.06-.22.07.59.13,1,.18,1.19l0,.08.05-.06.1-.11.16-.2.34-.44L58,40.9c-.07.16.26-.18.39-.36-.33.42-.21.15.06-.25a6.91,6.91,0,0,0,.73-1.15c-.09.14-.18.28-.28.42.05-.17.29-.52.55-1,.05,0-.23.48-.12.3s.3-.61.47-1l.18-.36a1.31,1.31,0,0,0,.09-.31v0c0-.05,0,0,0,.07v.1a.86.86,0,0,0,0,.18.37.37,0,0,1,.06.13c0,.06,0,0,.06.22a9.09,9.09,0,0,0,.35,1c0-.31-.07-.35.22.33l-.58-1.56a1.2,1.2,0,0,1,.09.18l.11.26.22.51-.42-1.14c.13.22.12.25.1,0,.11.6.51,1.3.71,2.08l-.15,0c.35,1.2.8,2.07,1.29,3.62l-.15-.5c.13.19.34.94.53,1.43-.06,0,0,.29.07.51a12,12,0,0,0,.53,1.23l.18.71c.4,1.25.62,1.37,1,2.56-.17-.34,0,.21-.33-.57a3.9,3.9,0,0,0,.29.75c0,.1.09.27.16.48.76-.1.91-.16,1.52-.2l.34-.09a5.76,5.76,0,0,1-.25-.54c0-.07,0,0,0,0s-.32-.69-.22-.31c-.35-1.25-1.4-3.34-1.71-4.43l-1.13-2.62s0,0,.08.14c-.4-1.08-.4-.6-.85-1.82-.18-.65.31.62.17.23a21.82,21.82,0,0,0-.87-2.3l.09.19a7.79,7.79,0,0,0-.34-.82L61.27,37l-.07-.13-.14-.27.39.08s0,0,0,0c.72.08,2.13.38,3.16.6-.33,0-.48-.08-.29,0,.46.1-.11-.13.81.06a6.39,6.39,0,0,1,1,.38l-.87-.2a11.93,11.93,0,0,0,1.58.38l-.07,0c.57.13.9.18,1.21.23v-.38a.66.66,0,0,1-.44-.18,4.33,4.33,0,0,1-.69-.65l.08.13c-.59-.52-.42-.56-.93-1.09a.21.21,0,0,1,0-.13s-.1-.08,0-.09l.15-.06c.07,0,.37-.15.59-.26a10.89,10.89,0,0,0,1.37-.78,6,6,0,0,1-.94.63c-.19.11-.4.2-.59.3l-.29.12-.11.05.09,0,.24-.09c.19-.07.39-.16.58-.26a4.74,4.74,0,0,0,.82-.49,3.78,3.78,0,0,1-.6.35,18.64,18.64,0,0,0,2.06-1.53c0,.08.19,0,.48-.32l-.26-.24a1.27,1.27,0,0,1-1.3.16l-.37-.13-.26-.13c-.09-.06-.13-.1-.12-.13-.14,0,0-.07,0-.1a2.77,2.77,0,0,0,.39-.17l.65-.32.62-.38a13.24,13.24,0,0,0,2.35-2c-.64.46.43-.47.22-.48.33-.38.45-.54.49-.56.35-.37.68-.76,1-1.16s-.26.41-.2.39a10.4,10.4,0,0,1,.79-.92c-.06,0,0,0,.07-.21l.19-.3.28-.43-.17.24-.14.18-.27.35c.42-.71.83-1.29,1.23-1.95a.85.85,0,0,0-.16-.19s0-.07,0-.1,0,.07-.06.07h0l.05,0v0h0l.26-.26h0l0,0-.08.09.06-.08,0,0,0,0h0l-.26.27h0v0s0,0,0,0a2.11,2.11,0,0,1-.4-.1,4.26,4.26,0,0,1-.67.37l-.33.16-.18.07-.68.27c-.44.17-.84.33-1.08.45s-.33,0,0-.07l-.87.28,1.62-2.18-.05.14a8.51,8.51,0,0,1,.58-.9s-.05.14,0,0,.47-.82.75-1.2l-.19.36a22.29,22.29,0,0,0,1.24-2l.38-.67.18-.33.09-.16s.1-.13,0-.08l-1.52.4a10.24,10.24,0,0,0-2.16.34l0,0-.36.08-.07,0c-.09.18.32-.82.56-1.44l.83-2.11c.13-.24.29-.55.46-.92l.81-1.82-2.46.72-.1,0a.33.33,0,0,1,0-.1l.05-.81c0,.31-.08-.05-.08-.41s0-1.3.07-1.22v.17a5.71,5.71,0,0,0,0-2.12l-.15-.1a9.24,9.24,0,0,0-.33-1.66l-.13-.44-.17-.53c-.16-.46-.34-1-.5-1.34q-.3.72-.59,1.31c-.11.24-.15.29-.22.42L69,8.11A6.49,6.49,0,0,1,68.4,9c-.23.41-.55.9-.79,1.3l0-.06-2.09,2.9.16-.29a1.88,1.88,0,0,0-.41.72c0,.15-.15,0-.52-.24l-.13-.24-.87-.74-1,2.14-.42.91-.08.19,0,.06-.06.17a.69.69,0,0,1,0-.17l0,.05,0-.08v0L62,15.51l-.22-.41c-.29-.53-.53-.93-.53-.78a10.1,10.1,0,0,0-1.3-2.18l.14.07A11.83,11.83,0,0,0,58.71,11c-.19-.16-.13-.18.11,0a2.44,2.44,0,0,0-.62-.44c-.17-.08-.33-.18-.82-.4l.38.12-.32-.14a2.56,2.56,0,0,0-.32-.1c-.17,0-.3-.07-.33,0a.88.88,0,0,1-.09.5,1.1,1.1,0,0,1-.27.26s-.11.1-.15.05l-.1-.17a5.56,5.56,0,0,1-.32-.58,8.19,8.19,0,0,1-.75-.76c0-.07.11.06.17.12a5.74,5.74,0,0,0-1.15-1,5.16,5.16,0,0,0-.66-.38l-.31-.15s0,.09-.08.1a3.18,3.18,0,0,1,.21.73.73.73,0,0,0,0,.24,2.42,2.42,0,0,0-.08-.48L53,7.86c.13,0,.13,0,.17,0l.32.16A4.51,4.51,0,0,1,54,8.3a2.78,2.78,0,0,1,.37.27c.17,0-1.18-.89-.12-.29a4.69,4.69,0,0,0-.78-.42l-.4-.16c-.1,0,0,0-.09,0a1,1,0,0,1-.18,0,5.65,5.65,0,0,1,.42,1.08l0,.39a1.33,1.33,0,0,1,0,.31l0,0v0c0,.09,0,0-.06,0s-.09-.16-.13-.22,0,0,0-.09l-.24-.32c-.18-.24-.4-.5-.55-.67,0,.07-.4-.38-.09.08,0-.06.06.06.25.28l.12.14,0,0,.57.73a4.17,4.17,0,0,1-.65-.8l-.49-.4c-.31-.53-1.08-1.42-1.15-1.58a25,25,0,0,0-3-2.68,1.72,1.72,0,0,1-.4-.43c.18.14.37.31.48.38a17.74,17.74,0,0,0-1.94-1.52c-.73-.64.48.28-.57-.55l.16.09c-.26-.23-.44-.39-.76-.64L44.12.72s0,0,0,0l0,.08L44,1l-.11.32-.1.31,0,.22-.06.43c0,.28,0,.56,0,.84,0,1.11.13,2.24.19,3.7a1.85,1.85,0,0,1,0-.34c.09,1.24.28,2.49.5,3.75l.35,1.88L45,13.56l-.32-.27L44.32,13c-.24-.21-.44-.36-.65-.52a2.73,2.73,0,0,0-.15.76,3.87,3.87,0,0,0,0,.66,3.56,3.56,0,0,0,0,.37c0,.21.08.38.14.65l0,.21.24.94.11.51c-.23,0-.38-.06-.66-.11s-.73-.29-.8.22a3.46,3.46,0,0,0-.44,1.89,1.47,1.47,0,0,1,.07-.23,12,12,0,0,0,.15,1.89,1.51,1.51,0,0,1,.13.43l0,0A12.17,12.17,0,0,0,43,22.14c.48,1.09-.25-.09.55,1.47a5.4,5.4,0,0,0,1,1.28,2.08,2.08,0,0,1-.33-.61l.35.48c.17,0,.48.32-.22-.91q-.29-.4-.55-.82l-.1-.31c.12.25.26.49.4.73a6.28,6.28,0,0,0-.54-1,1.9,1.9,0,0,0-.12-.4c-.17-.28-.31-.57-.47-.86,0-.13.23.38,0-.24-.18-.41,0,.45-.22-.26a3.32,3.32,0,0,0-.17-.87c0-.08.05,0,.12.24a10.16,10.16,0,0,1-.25-1.51c0-.48.25-1.59.4-1.49l.06-.18s0-.1,0-.11h.26l.43,0c-.29,0-.24,0-.15,0l1,.13c-.22-1.07-.27-1.49-.19-1.42A7,7,0,0,1,44,14.15c0-.28,0-.71,0-.71a1,1,0,0,1,0-.16s.06,0,.1,0a.07.07,0,0,1-.06,0l.08.08s0,0,.1.1l.76.68s.33.18.65.4l-.43-1.62c0-.29,0-.3,0-.32s0,0,.08.19.22.77.23.58a1.21,1.21,0,0,1-.13-.37l-.14-.56c-.08-.29-.14-.56-.15-.43a3.18,3.18,0,0,1,0-.81c-.14-.08-.12-.53-.27-1a4.63,4.63,0,0,0-.11-1.14C44.61,8.67,44.78,9.47,44.78,9.47Zm8.91.68h0c0,.26,0,.49,0,.62C53.66,10.66,53.67,10.47,53.68,10.16Zm0-1.56s-.09-.06-.08,0a.54.54,0,0,1,0,.13,1.56,1.56,0,0,1,0,.19s0,0-.07-.15c0,0,0,0,0-.07a.39.39,0,0,0,0-.1s0,0,0,0Zm-.9.19c.18.22.26.34.23.33l-.31-.38,0,0Z" transform="translate(-30.14)"/><path class="cls-16" d="M52.38,8.42l-.08-.09.1.14.08.07Z" transform="translate(-30.14)"/><path class="cls-16" d="M40.9,35.66l0,0-.06-.06Z" transform="translate(-30.14)"/><polygon class="cls-16" points="38.98 9.07 38.97 9.06 38.89 9.21 38.98 9.07"/><path class="cls-16" d="M35.84,31.6l.1,0Z" transform="translate(-30.14)"/><path class="cls-16" d="M35.78,29.24l-.48-.39Z" transform="translate(-30.14)"/><path class="cls-16" d="M33.41,26.9l-.06,0h0Z" transform="translate(-30.14)"/><path class="cls-16" d="M58.7,39.09l.06-.11C58.9,38.71,58.81,38.89,58.7,39.09Z" transform="translate(-30.14)"/><path class="cls-16" d="M52.65,39l.69-.2h0A2.63,2.63,0,0,0,52.65,39Z" transform="translate(-30.14)"/><polygon class="cls-16" points="35.45 49.12 35.45 49.12 35.47 49.12 35.45 49.12"/><path class="cls-16" d="M53,39.61a3.85,3.85,0,0,0,.23-.47c0-.13.15-.32.12-.38A4.5,4.5,0,0,1,53,39.61Z" transform="translate(-30.14)"/><path class="cls-16" d="M40.81,23.62l.07,0h0Z" transform="translate(-30.14)"/><path class="cls-16" d="M40.89,23.64l.15,0Z" transform="translate(-30.14)"/><path class="cls-16" d="M41.4,23.81,41,23.69A2.17,2.17,0,0,0,41.4,23.81Z" transform="translate(-30.14)"/><path class="cls-16" d="M38.4,25.61l-.05,0Z" transform="translate(-30.14)"/><path class="cls-16" d="M37,25.4a12.4,12.4,0,0,0,1.26.25h0C38.12,25.64,37.35,25.41,37,25.4Z" transform="translate(-30.14)"/><path class="cls-16" d="M31.64,24.11l-.09-.27,1.09.29L32.39,24s.09,0,.32.05c-1.71-.5.17.09-1.17-.24Z" transform="translate(-30.14)"/><path class="cls-16" d="M33.38,27.42c-.4-.48,0,0-.06,0C33.59,27.73,33.66,27.8,33.38,27.42Z" transform="translate(-30.14)"/><path class="cls-16" d="M46.14,38.05l0-.09C45.78,38.21,46.16,38,46.14,38.05Z" transform="translate(-30.14)"/><path class="cls-16" d="M45.69,39.36l-.44-.1-.15,0Z" transform="translate(-30.14)"/><polygon class="cls-16" points="18.44 39.91 18.23 39.93 19.03 39.86 18.44 39.91"/><path class="cls-16" d="M64.67,45.15l0,.16C64.79,45.6,64.9,45.63,64.67,45.15Z" transform="translate(-30.14)"/><path class="cls-16" d="M67,37.12a6.37,6.37,0,0,0-.65-.8A9.49,9.49,0,0,0,67,37.12Z" transform="translate(-30.14)"/><polygon class="cls-16" points="40.92 9.09 41.04 9.46 40.84 8.77 40.92 9.09"/><path class="cls-13" d="M83,68.57a5,5,0,0,1-1.45.21c-14.06.41-28.13-1.16-42.17-.31a9.44,9.44,0,0,1-5-.66l2.85-4.68A64.72,64.72,0,0,1,45,52.23a24.46,24.46,0,0,1,1.93-1.84,15.49,15.49,0,0,1,8.71-4,22.74,22.74,0,0,1,3.63.11,18.35,18.35,0,0,1,4.92.88,14.57,14.57,0,0,1,3.28,1.84c.93.67,2.72,2.29,2.74,2.28a21.24,21.24,0,0,1,2.53,2.92c1.45,2,2.58,4.38,4.09,6.33C78.87,63.4,81.66,65.35,83,68.57Z" transform="translate(-30.14)"/><polygon class="cls-14" points="53.52 68.31 53.53 68.24 53.37 68.14 53.52 68.31"/><path class="cls-14" d="M83,67.51s0,0,0,.07c.18.12.35.25.52.39C83.54,67.65,83,67.71,83,67.51Z" transform="translate(-30.14)"/><path class="cls-14" d="M83,67.35a.31.31,0,0,0-.29-.26C82.81,67.1,82.85,67.46,83,67.35Z" transform="translate(-30.14)"/><path class="cls-14" d="M71.44,52.21l.05,0A.1.1,0,0,0,71.44,52.21Z" transform="translate(-30.14)"/><path class="cls-14" d="M67.4,49.27l-.11.06a14.77,14.77,0,0,1,2.31,1.8h-.08l.29.26.14.13.07.06,0,0,0,0a.2.2,0,0,0,.16,0l-.18,0a26.32,26.32,0,0,1,4.12,4.94s-.06,0-.1,0a1,1,0,0,1,.28.28s-.06,0-.1,0c.11.54.88,1.25.93,1.6.09.11.19.13.2,0a22.64,22.64,0,0,0,1.72,2.37,22.22,22.22,0,0,0,2.08,2.1c0,.09,0,.13,0,.16a12.72,12.72,0,0,1,3.44,3.92c.1,0,0-.2.14-.09-.22-.55-.74-.77-.94-1.26h.1c-.19-.33-.2.06-.36-.31,0-.16.1,0,.06-.09A8.62,8.62,0,0,0,80,63.53c0-.25-.57-.61-.66-.92-.18-.1-.31-.26-.44-.24a30.29,30.29,0,0,1-2.53-3.11c-.77-1.11-1.48-2.3-2.22-3.49-.95-.94-1.54-2.45-2.7-3.54a0,0,0,0,1,0,0c-.3-.25-.69-.59-1-.93l-.21.22c-.1-.11-.06-.39,0-.31a.29.29,0,0,1,.14.06l0,0,0,0-.09-.08L70.05,51l-.47-.23a15.55,15.55,0,0,0-4.42-3.3,16.49,16.49,0,0,0-5.44-1.27,17,17,0,0,0-6.09,0A12.46,12.46,0,0,0,48.3,49s-.05,0,0-.09a18.69,18.69,0,0,0-2.58,2.19l0,0a34.8,34.8,0,0,0-5.12,6.61c-1.82,2.65-3.63,5.79-5.34,8.73l0,0-.51.89c-.13.3-.59.68-.05.78a7,7,0,0,0,2,.58,17.71,17.71,0,0,0,4,0c2.78,0,5.71-.56,8.53-.36,1.73.31,4-.31,5.66,0a44.84,44.84,0,0,0,10,.19c3.09.27,6.19-.08,9.17.31,1.42-.21,3,.3,4.57.22l-.06-.08c.57.24,1.26-.35,1.62,0l-.06,0c.31.17.69-.43.87-.23l0-.09c.36,0,0,.1.33.13.11,0,0-.16.26-.12.07.37.86-.13.95.25-.21,0,.36.1-.11.26.14,0,.82-.16.7-.31s.16-.41-.23-.43l0,.15c-.15-.1-.1,0-.17-.13-.45.07-.53-.13-.86-.18,0,0,0,0,0,0-.21.17-.55.08-.74.06L81,68.23c-.12-.15-.54.31-.4,0-1,.09-2.1.11-3.2.11-.15.1-.84,0-.6.19a3,3,0,0,0-1.39-.27.06.06,0,0,1,.07,0c-.59-.29-.7.26-1.25-.09-.09.25-1-.09-1.32.2-.07-.06-.09-.11-.06-.15-1,0-2.09-.13-2.92-.17-.72.2-1.73-.14-2.36.14a7.4,7.4,0,0,0-2.05-.13l.07,0a9.67,9.67,0,0,0-2.37.14c-.23-.3-.58-.25-.92-.35-.54.12-1.63,0-2.45.13-.12-.14-.68,0-.72-.16a32.29,32.29,0,0,1-7.62-.22h0c-.32.1-.69.33-1,.47,0,0,0,0,0,0-.45,0-.87-.16-1.32-.13,0,0,0,0,.08-.06-.42.09-.87-.15-1.37,0l0-.05-.32.07c0-.06,0-.16.19-.14-1.93,0-3.9.09-5.87.23s-4,.5-5.84.14l.15,0a6.51,6.51,0,0,1-.73-.06s.05,0,.09,0l-.44-.18L35,67.65c-.06,0,0-.09,0-.14a8.4,8.4,0,0,1,.58-1.06s0,.18.1.08c.22-.69.78-.85.66-1.34a.07.07,0,0,1,.1.08,57,57,0,0,1,3.06-5.1c.6-1.57,1.85-2.94,2.66-4.45l0,0a16.06,16.06,0,0,1,2.06-2.69c.76-.86,1.68-1.58,2.48-2.39a24,24,0,0,1,2-1.62l.07.05c1.18-1.18,3-1.47,4.49-2.24l-.08.14c.2-.25,1-.19.83-.45l.31,0c1.08-.59,2.07-.07,3.46-.24l-.1.06a3.15,3.15,0,0,1,1.08,0s0,0-.11,0c1.14.37,2.45.16,3.66.41l-.16.1a7.53,7.53,0,0,1,2.36.61l-.07,0,.39.08,0,.12A18.45,18.45,0,0,1,67.4,49.27Z" transform="translate(-30.14)"/><path class="cls-14" d="M74.31,56.75h0S74.29,56.73,74.31,56.75Z" transform="translate(-30.14)"/><path class="cls-14" d="M81.72,68.21l.12,0S81.76,68.21,81.72,68.21Z" transform="translate(-30.14)"/><path class="cls-16" d="M63.89,18.18s-.07,0-.06.05l.09,0Z" transform="translate(-30.14)"/><path class="cls-16" d="M63.77,18.57c0,.06.12.13.2.08-.09-.06-.05-.07-.16-.13s0-.1,0-.09,0-.09,0-.11a.21.21,0,0,0,0,.26S63.79,18.58,63.77,18.57Z" transform="translate(-30.14)"/><path class="cls-16" d="M63.66,23.92v0Z" transform="translate(-30.14)"/><path class="cls-16" d="M63.14,27.19s0,0,0,0S63.13,27.2,63.14,27.19Z" transform="translate(-30.14)"/><path class="cls-16" d="M62.94,27.73v0S62.94,27.72,62.94,27.73Z" transform="translate(-30.14)"/><path class="cls-16" d="M63.66,23.92l0,.09S63.66,24,63.66,23.92Z" transform="translate(-30.14)"/><path class="cls-16" d="M64,19.29l0,0v0Z" transform="translate(-30.14)"/><path class="cls-16" d="M63.7,22.46v0l0,0Z" transform="translate(-30.14)"/><path class="cls-16" d="M63.71,21.34s.07,0,.1,0a.08.08,0,0,1,0-.06Z" transform="translate(-30.14)"/><path class="cls-16" d="M63.78,19.57v0Z" transform="translate(-30.14)"/><path class="cls-16" d="M63.63,23.26h0Z" transform="translate(-30.14)"/><path class="cls-16" d="M58.64,19.17h0Z" transform="translate(-30.14)"/><polygon class="cls-16" points="28.47 17.83 28.48 17.84 28.52 17.84 28.47 17.83"/><path class="cls-16" d="M62.64,28.72h0S62.64,28.71,62.64,28.72Z" transform="translate(-30.14)"/><path class="cls-16" d="M60.29,35c0,.12-.16-.11-.14.06C60.17,35,60.32,35.11,60.29,35Z" transform="translate(-30.14)"/><path class="cls-16" d="M64,19.32v0A.11.11,0,0,0,64,19.32Z" transform="translate(-30.14)"/><polygon class="cls-16" points="30.02 35.03 30.02 35.03 30.02 35.05 30.02 35.03"/><path class="cls-16" d="M62.11,31l0,0Z" transform="translate(-30.14)"/><path class="cls-16" d="M62.64,29.35l0,0Z" transform="translate(-30.14)"/><path class="cls-16" d="M62,32s0,0,0,.06h0A0,0,0,0,1,62,32Z" transform="translate(-30.14)"/><polygon class="cls-16" points="31.56 32.89 31.58 32.88 31.58 32.84 31.56 32.89"/><path class="cls-16" d="M59.28,22l.06-.05S59.25,21.83,59.28,22Z" transform="translate(-30.14)"/><path class="cls-16" d="M64,19.3a0,0,0,0,1,0,0v0Z" transform="translate(-30.14)"/><path class="cls-16" d="M62.48,32.15l-.05.14A1,1,0,0,0,62.48,32.15Z" transform="translate(-30.14)"/><path class="cls-16" d="M59.45,28.79v0A0,0,0,0,0,59.45,28.79Z" transform="translate(-30.14)"/><path class="cls-16" d="M62.31,32.74a.23.23,0,0,0-.07.07v0Z" transform="translate(-30.14)"/><path class="cls-16" d="M59.33,21.94h0Z" transform="translate(-30.14)"/><path class="cls-16" d="M59,21c0,.14.1,0,.16.07s-.05.09-.09.16.14.17.15.25,0,0,0,0,.06.33.17.45l0,0a.23.23,0,0,1,.12,0c0,.06.08.11,0,.14s0,0-.05-.05l0,.06c-.08.07,0-.09-.11-.08a1.07,1.07,0,0,1,.13.37c-.08,0-.06-.23-.12-.09V22.1c-.12.14,0-.1-.13,0s.08.22.08.43c.05,0,.07,0,.12,0,.12.28-.18.26,0,.46.06,0,.17.06.13.22l-.1,0c0,.2.15.1.11.31,0,0,0-.15-.06-.12s.06.09.07.19l-.08,0c0,.21.11.44.15.67,0,0-.06,0-.08,0a2.74,2.74,0,0,1,0,.92l.08.11s0,0,0,0,0,0,.08.06,0,.09-.06,0a1.36,1.36,0,0,1,.07.77l0,0c0,.16.15.18.08.33v0a3.56,3.56,0,0,1-.1,1c.1.06-.07.34.08.37a1.51,1.51,0,0,0-.19.4c0,.07.08.12.08.22h-.08l.06.14-.1.05v.09s0-.07.07-.06-.11.32-.15.31v.33s0-.07,0-.11c0,.18-.09,0,0,.18,0,0,0,0,.06,0a.76.76,0,0,0-.1.38l0,0c-.06.23-.08.51-.13.78,0-.09.13-.05.12,0l-.09,0c0,.06,0-.08.09,0s-.1.05-.12,0v.13s0,0-.06,0-.12.2,0,.29h0c0,.28,0,.41-.05.63.07,0,0,.1.1.17a2.23,2.23,0,0,0-.1.55c0,.14.06,0,.1.11s-.05.22-.1.11a1.94,1.94,0,0,0,.13.63s0-.08,0-.06,0,.13,0,.13h0c.15.32,0,.85.29,1.06h0l.18.23c0,.12-.08,0-.07.06.23.23.21.44.39.62a.58.58,0,0,0,.15.42c.06.09.08.11.16.26a2.06,2.06,0,0,1,.18.41v-.07c.08.05.06.16.1.26,0-.06,0-.17,0-.14.16.27.31.55.46.87l.67-1.74c.08-.21-.18-.19,0-.41l.06.1c0-.44.26-.83.3-1.25,0,0,0,0,0,.08s.1-.31,0-.33,0,0,.08,0,0-.23.06-.26,0,0,0,0,.08-.25,0-.22c.07-.14.05-.3.13-.4s.11-.25,0-.3c.11,0,.16-.24.14-.35,0,0,.06-.07.09,0,0-.11,0-.21,0-.21.19-.16,0-.43.2-.5,0-.34.07-.65.12-.95.11,0-.07.33,0,.34a2.57,2.57,0,0,1,.07-.74c0-.07,0,.05,0,.08,0-.29.14-.53.14-.8,0,0,0,0,0,.06s0-.11,0-.12v.05c-.09.06-.11-.23-.14-.25.12.12.09-.24.24-.06,0,0,0-.08-.05-.08s0-.06.07,0c0-.18-.05-.13,0-.29,0,0,0,0,.05.06a.43.43,0,0,1,0-.31s0,0,0,0c0-.23,0-.42.05-.66.09.1.05-.08.15-.07v-.14l-.06,0c0-.12,0-.24,0-.34l0,.1,0-.23-.06.12c0-.13-.12,0-.06-.16,0,0,0-.12.09-.17h0a.28.28,0,0,1,0-.22s.1,0,.12,0,0-.29,0-.37a.08.08,0,0,0,.07,0l-.05-.06c0-.05,0-.06.08,0,0-.17-.12,0,0-.16,0,0,0,0,0,0,.06-.2,0-.39.08-.57s0,.16.09.11c0-.27,0-.57,0-.82l0,0c-.13-.05.09-.18,0-.32,0,0,.07.05.05,0a2.57,2.57,0,0,0,0-.64l0,0A2.42,2.42,0,0,0,64,23.7s0-.1-.07-.07c.22-.33,0-.67.13-1,0,0,0,.09,0,.06l0-.27c-.06,0,0,0-.08.09a.27.27,0,0,1-.05-.18c0,.12.09,0,.13,0s0,0-.05,0-.12,0,0-.21h0a.63.63,0,0,1,0-.21c.07,0,0,.08.08.08s-.12-.21,0-.31,0,.11,0,.16a.27.27,0,0,0,.08-.19h0l0-.18,0,0c-.17-.14,0-.27-.15-.45.11.17.06,0,.14,0s0-.12.07-.1,0-.14,0-.26,0-.09.06-.07,0,0-.07,0c-.08-.17.09-.41,0-.65s-.14-.24-.19-.44.09,0,.09,0a.44.44,0,0,0,0-.29s0,0,.06,0-.09,0-.07-.16a.35.35,0,0,1,.11.07c0-.09-.09-.18-.12-.28s.07.05.1.09-.07-.28-.14-.31l0,.07s.06,0,.07,0a.09.09,0,0,1,0,.15l0-.07c-.13.09.05.28.06.42l-.11-.05.1.14s-.08.06-.1,0c0,.1,0,.09,0,.18s0,0,0,0l0,.1s-.07,0-.06,0c-.05.18.09.28,0,.35h0c0,.24.08,0,.18.2l-.18.13.08,0s0,.08,0,.07,0,0,.08,0,0,.34-.08.36c.06,0,0-.12.09,0-.13,0,0,.15,0,.26s0-.14-.09,0c.11.07,0,.22,0,.31s0,.2.07.36c0,0-.06.29-.1.44h0c.09,0,.07.18.08.29s-.08,0-.1-.09v.1a.18.18,0,0,1,.05.13l-.07,0c0,.14.07.28,0,.45.06,0,.19-.13.22.06,0,0-.09,0-.11,0s0,.06,0,.09L63.76,23c0,.08,0,0,0,.11s0,0-.08,0,0-.05,0-.08a.33.33,0,0,1-.09.18.06.06,0,0,1,.07.06c0,.14-.06,0-.09.12s0,.12.06.13,0,0-.06.06,0,.33.07.26v0h0c.05.24-.1.48-.09.71h0a1.81,1.81,0,0,0,0,.41s-.06.09-.08.07a.39.39,0,0,1,0,.27c0-.11,0,0,0-.11,0,.13-.09.16,0,.31-.06-.06-.09.09-.08.16l.06-.09a.92.92,0,0,1,0,.2l-.08,0c-.14.26.1.53-.11.71,0,.08.07-.14.12-.07s-.18.24-.18.28.09.18,0,.36c0,0,.12,0,.12.12s-.15.13-.16,0,0,0,0,0,0-.1,0-.05l0,0c0,.06-.07.23-.11.18,0,.1,0,.05.07,0-.07.15-.05.25-.11.41,0,0,.06,0,.05,0-.09.24,0,.12,0,.29s-.1-.06-.1.12-.08,0-.1,0c0,.16-.1.28-.12.36v-.08a.42.42,0,0,1,0,.13l.07,0s0,.08-.05.08.11,0,.13.09,0,.2-.09.2c.07-.19-.08,0-.06-.16a.25.25,0,0,1,0,.12s0,0,0,0c-.11.17.07.11,0,.3,0,0-.09,0-.09.06s.08,0,.1.06,0,.14,0,.21l0-.07s0,.1,0,.19,0-.08,0-.06-.13.2-.11.35-.08,0-.12,0-.1.15-.09.32c.07,0,.06,0,.09.08l0-.27,0,.19c0-.08,0-.17,0-.22s0,.08.07.05c-.11.09,0,.23-.09.33l-.14,0c-.11.17,0,.35-.11.58l0-.07s0,.15,0,.24-.08,0-.11,0-.05.18,0,.22l-.09.09c-.08.19.08.26,0,.44,0-.07-.09,0-.1-.13,0,.06,0,.12,0,.13s0,.19,0,.24.06.05,0,.12h0s0,.12.07.07c-.2.15-.14.54-.32.67,0,.14-.06.31-.09.43s0,0,0,0c-.09.16.1.14,0,.32s0-.11-.06-.06,0,.24-.18.34v0c-.08.08,0,.26-.07.42h0a1.27,1.27,0,0,1,0,.52c0-.07,0-.08-.08-.07s.11,0,.08.15-.11.13-.18.12l0-.13c-.11,0,0,.17-.09.24l0,0c-.05.2,0,.25,0,.4h0c0,.17-.07,0,0,.19l-.08-.08a2.52,2.52,0,0,1,0,.48c0-.21,0-.38,0-.49a.68.68,0,0,0,0,.27s0-.1,0-.1a1.25,1.25,0,0,1,0,.51.66.66,0,0,0,0-.21c0-.15-.11-.2-.09-.39,0,0-.07-.06-.08-.11a3,3,0,0,0-.2-.41c-.07.18-.05-.08-.17,0,0-.06-.06-.09-.05-.1l0-.25c0-.07.06,0,.09,0s0-.09,0-.21c0,0-.1,0-.12-.11v.15c-.18-.17,0-.23-.15-.4l.08,0c-.08-.09-.18-.39-.33-.45,0,0,0-.07.07,0-.08-.26-.31-.55-.27-.77h0s-.08-.08-.05-.14,0,0,0,0-.08-.13-.06-.2l0,.05c0-.26-.11-.41-.12-.65.11,0,.16-.21.19-.31h0a6.79,6.79,0,0,0,0-.86c.15-.17.17-.62.29-.91,0,0-.08,0-.08-.08s0-.21.06-.18v0c.11,0,.11-.19.14-.3l-.13,0c.25-.26.07-.8.27-.94,0-.08,0-.17,0-.25h.07a2.29,2.29,0,0,0,.06-.57l0,.06c0-.15-.19-.2-.19-.33l.11,0a1.84,1.84,0,0,0,0-.75.06.06,0,0,1,0,.05c0-.12.08-.45-.07-.41.09,0,0-.26,0-.39l.07,0a.43.43,0,0,1-.14-.27s.05,0,0,0c0-.13-.07-.1,0-.25l0,.06c0-.13,0-.12-.08-.19s0-.24.07-.27a.15.15,0,0,1-.08-.16s0,0,0,0c0-.22-.1-.31,0-.47a0,0,0,0,0,0,0,2,2,0,0,1,0,.3c.06,0,.07-.14.16,0a.9.9,0,0,1-.15-.43l0,0h0a.14.14,0,0,0,0-.08.47.47,0,0,0,0-.11c.05,0,0-.16,0-.23s-.07-.08-.12,0,0,0,0,.06v0h0l0,.17a.17.17,0,0,1,0-.18l-.12-.09c.09-.1.12-.29.18-.32-.06-.21-.08-.49-.23-.6s0-.07,0-.1,0,.07,0,.09-.06-.35-.15-.36.1.07.05-.13l0,0c.09-.43-.33-.62-.22-1.09,0,0,0,0,0,.06,0-.52-.28-1-.27-1.54,0-.15-.07-.15-.13-.22l.07,0-.12-.12c-.12-.19.09-.41-.1-.63l0,0c0-.1-.11-.29-.05-.29s-.06,0,0-.06h0l-.13-.21c0-.18.16,0,.09-.28,0-.09-.19-.24-.21-.19s0,.11,0,.12l0-.08c-.12,0-.25,0-.26.23l.11.13,0,.06,0-.12c0,.09,0,.12.08.16a.11.11,0,0,0,0,.08l.15.11s-.11,0-.1.07.08-.09.14,0-.08.08,0,.15,0,0-.07,0,.07.19.14.21.09.25,0,.27a.43.43,0,0,1,.14.18c-.16-.09.06.26-.09.26.14.06.13.32.24.47,0,0,0,0,0,0a.54.54,0,0,1,0,.19c.1,0,.15.13.23.2s-.13,0-.21,0c.08,0,.12.18.18.13,0,.1,0,.08-.08.14.12,0,0,.08.13.13s-.11.06,0,.19S59,21,59,21Zm.66,3.31h0v0Zm0,.28v-.12s0,0,.05,0S59.69,24.54,59.67,24.59Zm.44-.64s0,.06,0,.07v-.08h0Z" transform="translate(-30.14)"/><path class="cls-16" d="M60,23.87v0h0Z" transform="translate(-30.14)"/><polygon class="cls-16" points="33.54 23.88 33.54 23.89 33.55 23.88 33.54 23.88"/><polygon class="cls-16" points="29.33 28.48 29.34 28.48 29.33 28.45 29.33 28.48"/><path class="cls-16" d="M64,22.32l0,0Z" transform="translate(-30.14)"/><path class="cls-16" d="M64.06,21.64l0-.1A.59.59,0,0,0,64.06,21.64Z" transform="translate(-30.14)"/><path class="cls-16" d="M64.09,21.11h0Z" transform="translate(-30.14)"/><path class="cls-16" d="M63.11,29.42v0S63.11,29.46,63.11,29.42Z" transform="translate(-30.14)"/><path class="cls-16" d="M63.46,27a.51.51,0,0,1,0,.08S63.5,27,63.46,27Z" transform="translate(-30.14)"/><polygon class="cls-16" points="32.35 32.13 32.35 32.13 32.35 32.15 32.35 32.13"/><path class="cls-16" d="M63.45,27.15a.19.19,0,0,0,0-.11A.29.29,0,0,0,63.45,27.15Z" transform="translate(-30.14)"/><polygon class="cls-16" points="33.87 18.82 33.87 18.8 33.86 18.8 33.87 18.82"/><path class="cls-16" d="M64,18.8v0S64,18.79,64,18.8Z" transform="translate(-30.14)"/><path class="cls-16" d="M64,18.71l0,.06S64,18.72,64,18.71Z" transform="translate(-30.14)"/><path class="cls-16" d="M64,19.52h0Z" transform="translate(-30.14)"/><path class="cls-16" d="M64.06,19.73c0-.05,0-.13,0-.2h0S64,19.69,64.06,19.73Z" transform="translate(-30.14)"/><path class="cls-16" d="M63.78,20.63l0-.18s-.06.07-.07,0C63.66,20.67,63.79,20.4,63.78,20.63Z" transform="translate(-30.14)"/><path class="cls-16" d="M63.75,21.17c0-.09,0,0-.05,0S63.72,21.24,63.75,21.17Z" transform="translate(-30.14)"/><path class="cls-16" d="M63.49,25.1l-.06,0C63.42,25.16,63.45,25.09,63.49,25.1Z" transform="translate(-30.14)"/><polygon class="cls-16" points="33.56 25.9 33.61 25.83 33.56 25.79 33.56 25.9"/><polygon class="cls-16" points="33.05 26.27 33.04 26.23 33.05 26.36 33.05 26.27"/><path class="cls-16" d="M61.68,32.71h.08C61.76,32.66,61.68,32.62,61.68,32.71Z" transform="translate(-30.14)"/><path class="cls-16" d="M60.95,35.41s-.07,0-.05.07S60.95,35.44,60.95,35.41Z" transform="translate(-30.14)"/><polygon class="cls-16" points="29.82 29.33 29.83 29.4 29.83 29.28 29.82 29.33"/><path class="cls-16" d="M48.64,9.23s-.07,0-.05,0h.09Z" transform="translate(-30.14)"/><path class="cls-16" d="M48.54,9.51a.17.17,0,0,0,.2,0c-.09,0-.06,0-.16-.07a0,0,0,0,1,0-.07s0-.06-.05-.07a.11.11,0,0,0,0,.18S48.56,9.51,48.54,9.51Z" transform="translate(-30.14)"/><path class="cls-16" d="M50,12.93v0A0,0,0,0,0,50,12.93Z" transform="translate(-30.14)"/><path class="cls-16" d="M51.27,14.88h0Z" transform="translate(-30.14)"/><path class="cls-16" d="M51.4,15.27v0S51.4,15.26,51.4,15.27Z" transform="translate(-30.14)"/><path class="cls-16" d="M50,12.93V13S50,13,50,12.93Z" transform="translate(-30.14)"/><path class="cls-16" d="M48.87,9.95l0,0,0,0Z" transform="translate(-30.14)"/><path class="cls-16" d="M49.43,12.1v0h0Z" transform="translate(-30.14)"/><path class="cls-16" d="M49,11.41s.07,0,.1,0a.07.07,0,0,1-.06,0Z" transform="translate(-30.14)"/><path class="cls-16" d="M48.65,10.2l0,0Z" transform="translate(-30.14)"/><path class="cls-16" d="M49.71,12.59l0,0Z" transform="translate(-30.14)"/><path class="cls-16" d="M59.27,32.25h0Z" transform="translate(-30.14)"/><polygon class="cls-16" points="29.09 33.22 29.08 33.21 29.04 33.22 29.09 33.22"/><path class="cls-16" d="M51.69,15.93h0S51.68,15.92,51.69,15.93Z" transform="translate(-30.14)"/><path class="cls-16" d="M54.56,21.87c0-.09.12.08.14-.05C54.68,21.84,54.56,21.77,54.56,21.87Z" transform="translate(-30.14)"/><path class="cls-16" d="M48.87,10v0Z" transform="translate(-30.14)"/><path class="cls-16" d="M54.7,21.82h0Z" transform="translate(-30.14)"/><path class="cls-16" d="M52.51,17.36l0,0Z" transform="translate(-30.14)"/><path class="cls-16" d="M52,16.22v0A.08.08,0,0,0,52,16.22Z" transform="translate(-30.14)"/><path class="cls-16" d="M52.88,17.89s0,0,0,0h0S52.88,17.91,52.88,17.89Z" transform="translate(-30.14)"/><polygon class="cls-16" points="23.03 18.49 23.04 18.48 23.03 18.46 23.03 18.49"/><path class="cls-16" d="M58.57,30.33l0,.05S58.61,30.44,58.57,30.33Z" transform="translate(-30.14)"/><path class="cls-16" d="M48.83,10h0v0Z" transform="translate(-30.14)"/><path class="cls-16" d="M53.39,17.67l0,.1A.5.5,0,0,0,53.39,17.67Z" transform="translate(-30.14)"/><path class="cls-16" d="M56.83,25.82l0,0Z" transform="translate(-30.14)"/><path class="cls-16" d="M53.58,18.06a.16.16,0,0,0,0,.08h0Z" transform="translate(-30.14)"/><path class="cls-16" d="M58.52,30.38h0Z" transform="translate(-30.14)"/><path class="cls-16" d="M58.91,31c0-.1-.1,0-.16,0s0-.08.08-.13-.15-.09-.16-.14,0,0,0,0-.08-.22-.2-.28l0,0a.33.33,0,0,1-.11.06s-.08-.06,0-.1,0,0,.05,0l0,0c.07-.07.05.05.11,0s-.16-.16-.16-.23.08.15.12,0v.12c.1-.12,0,.07.12-.06s-.1-.14-.12-.28-.06,0-.12,0c-.15-.16.14-.23,0-.33s-.17,0-.16-.12h.1c0-.14-.16,0-.15-.19,0,0,.07.09.07.07s-.07,0-.1-.11l.07,0c-.06-.14-.18-.27-.25-.42s.06,0,.07,0a1.55,1.55,0,0,1-.17-.63l-.1,0s0,0,0,0,0,0-.09,0a0,0,0,0,1,0-.05.73.73,0,0,1-.25-.49l0,0c0-.12-.19-.07-.16-.19h0c-.06-.24-.22-.47-.19-.69-.11,0,0-.24-.19-.21,0-.16.05-.13,0-.33,0-.05-.11,0-.15-.09l.07,0L56.82,26l.07-.08,0,0a.06.06,0,0,1,0,.07.22.22,0,0,1,0-.25l-.15-.19s.05,0,.08,0,.07-.05,0-.13,0,0-.06,0a.38.38,0,0,0-.08-.27h.06c-.05-.16-.16-.32-.23-.5a.07.07,0,0,1-.12,0l.07-.05c-.06,0,0,.07-.09,0s.07-.08.11-.05l-.06-.07s0,0,.07,0,0-.17-.08-.18h0c-.07-.18-.13-.24-.19-.38-.07,0-.07,0-.15-.06a1.52,1.52,0,0,0-.08-.37c-.07-.08-.07,0-.12,0s0-.15.07-.11a1.71,1.71,0,0,0-.22-.36s0,.06,0,.06,0-.09,0-.1h0c-.18-.18,0-.57-.23-.69h0l-.14-.15c0-.09.07,0,.08,0-.18-.15-.11-.31-.25-.44.12-.2-.2-.43-.16-.64l0,0c-.06,0,0-.06,0-.1s0,.06-.05,0a5.37,5.37,0,0,1-.38-1.15c0-.14-.24,0-.22-.2h.1c-.21-.23-.24-.56-.44-.79,0,0,0,0,.06,0s-.09-.21-.14-.19,0,0,0-.06-.13-.11-.09-.16,0,0,0,0-.07-.17-.12-.11c0-.11-.12-.18-.12-.27s0-.18-.15-.15c.11,0,0-.21-.08-.25s0-.07.06-.07-.09-.13-.13-.09c.06-.19-.23-.21-.11-.36a6,6,0,0,1-.42-.53c.1,0,.12.2.22.14-.13-.16-.27-.21-.34-.4s.06,0,.08,0c-.13-.15-.18-.35-.31-.47l0,0s0-.08-.07-.05l0,0c0,.08-.2,0-.24,0,.16,0-.05-.17.15-.18a.07.07,0,0,0-.08,0s0-.05.05,0-.11,0-.17-.13,0,0,.07,0a.23.23,0,0,1-.17-.14s0,0,0,0c-.09-.14-.26-.18-.31-.35.12,0,0-.07.07-.13l-.08-.07,0,.06c0-.07-.14-.1-.15-.18l.07,0-.1-.13,0,.1c-.09,0-.09.07-.13,0s0-.07,0-.14h0s-.1,0-.11-.1.09,0,.1-.07-.13-.15-.23-.15a.1.1,0,0,0,.07,0h-.07s0-.05,0-.07-.08.1-.11,0h0c-.06-.13-.19-.2-.23-.33s.08.08.12,0c-.12-.15-.31-.26-.39-.42v0c-.12.05,0-.15-.12-.19s.08,0,.06,0-.17-.19-.3-.32h0a1.74,1.74,0,0,0-.12-.24s-.06,0-.09,0c0-.31-.33-.33-.31-.6,0,0,.06,0,0,0l-.12-.14s0,0,0,.09a.15.15,0,0,1-.11-.07c.07.05.08,0,.09-.09l0,0c0-.13-.11,0-.11-.1h0s-.09-.05-.11-.11.05,0,.1,0-.18-.07-.15-.16l.08.08a.16.16,0,0,0,0-.15h0l0-.13v0c-.2,0-.11-.15-.27-.21.15.06.07,0,.14,0s0-.09,0-.09,0-.11-.11-.14,0-.06,0-.07,0,0-.06,0,0-.29-.18-.4-.18-.11-.27-.23.1,0,.1,0a.22.22,0,0,0-.06-.19s0,0,.06,0-.1,0-.08-.09l.11,0c0-.05-.1-.1-.14-.16s.07,0,.11,0-.09-.18-.16-.18v.05s.05,0,.07,0,0,.1,0,.11l0,0c-.12.09.08.18.09.27h-.11l.11.07s-.07.06-.1,0,.06,0,0,.12h0l.05.06s-.07,0-.07,0c0,.14.14.16.08.23h0c.1.15.08,0,.21.07l-.14.15h.08s0,.05,0,.06,0,0,.09,0,.13.2,0,.27c.07,0,0-.09.08,0-.11.08.06.09,0,.18s-.07-.07-.09,0,0,.15.1.2.1.11.18.19.06.21.08.31h0c.09,0,.13.07.18.13a.1.1,0,0,1-.12,0l0,.06a.11.11,0,0,1,.09,0l-.07,0c.05.08.17.13.2.26.06,0,.1-.18.2-.09s-.07.06-.1,0,0,0,0,0h-.08c0,.06.06,0,.08,0s0,0,0,.06,0,0,0,0a.21.21,0,0,1,0,.15s.06,0,.08,0,0,.06,0,.12,0,.07.11,0,0,0,0,.07.13.19.17.1h0c.15.1.15.31.27.42h0c.08.06.13.17.22.2s0,.08,0,.09.08,0,.11.15,0,0-.07,0c0,.09,0,.13.13.18-.07,0,0,.1,0,.13V14a.45.45,0,0,1,.08.12l-.08,0c0,.22.34.2.28.41.08,0,0-.11.06-.11s0,.22,0,.25.16,0,.21.15a.09.09,0,0,1,.15,0c0,.08,0,.16-.1.13s0,0,0,0-.06,0-.06,0h0c0,.05.07.16,0,.16s.06,0,0-.05c0,.12.09.15.13.27s0-.06,0,0c.06.17.09,0,.16.13s-.1,0,0,.12-.06.05-.1,0,.07.19.09.25l0,0a.2.2,0,0,1,.06.07l0-.06s0,.06,0,.07.07-.07.15,0,.1.1,0,.15c0-.13-.06.05-.13,0a.12.12,0,0,1,0,.07h0c0,.15.11,0,.17.13s-.06.07,0,.08.05-.06.11,0,.07.07.09.11v-.05s.06,0,.11.08,0,0-.05,0,0,.18.1.23-.07,0-.07.09,0,.13.1.21,0-.05.11,0l-.12-.14.13.06c0-.05-.09-.09-.1-.12s.05,0,.08,0c0,.11.12.11.11.22l-.13.07c0,.15.18.17.22.35v-.06c.06,0,.06.09.1.13s0,.06-.06.09.05.11.15.08l0,.1c0,.14.2.08.24.21s-.07.06-.14,0,0,.08.06.07.11.08.09.14.08,0,.09,0h0s.06.06.09,0c-.08.19.18.35.11.51a2.44,2.44,0,0,1,.16.26s0,0,0,0,.16,0,.17.16-.07,0-.08,0,.09.14,0,.27l0,0c0,.09.13.13.17.25h0a.69.69,0,0,1,.26.26c-.07,0-.05,0-.1,0s.09-.06.15,0,0,.12-.08.16l0-.09c-.06.08.05.11.06.16h0c.07.13.16.09.22.24l0,0c.12,0,0,.09.08.14l-.08.06a1.63,1.63,0,0,1,.22.23.86.86,0,0,1-.24-.17c0,.05.08.17.14.18s-.05,0,0-.06a.34.34,0,0,1,.21.2c-.18.06.07.29,0,.42.14.15.13.37.23.58.1-.13,0,.06.17,0s0,.07,0,.07l0,.19c0,.05-.05,0-.08,0s0,.07,0,.16.09,0,.1.08l0-.11c.14.12-.06.18.08.3l-.06,0c.06.07.12.29.27.32,0,0,0,.06-.07,0,.06.19.3.37.29.54h0s.09,0,.07.09,0,0,0,0,.1.07.1.12l-.06,0c0,.2.21.24.3.39-.1,0-.07.2-.06.28h0a2.25,2.25,0,0,0,.36.51c-.06.17.13.44.14.66,0,0,.08,0,.11,0s.12.1,0,.13v0c-.08.07,0,.16,0,.23l.13,0c-.1.27.27.48.16.66,0,0,.07.09.12.13l-.07,0a1.38,1.38,0,0,0,.13.36H56.5c0,.09.24,0,.27.12l-.09.06c.06.16,0,.35.19.48,0,0,0,0-.06,0s0,.32.17.24c-.09,0,.06.17.13.24H57c.11,0,.13,0,.2.13s0,0,0,0,.09,0,.09.15l-.06,0c0,.08,0,.07.11.1a.15.15,0,0,1,0,.2s.11,0,.11.08a0,0,0,0,1-.05,0c0,.16.15.18.13.3l0,0a1.1,1.1,0,0,1-.06-.19c-.06,0,0,.12-.15.08.07.05.22.14.22.24l0,0h0a.07.07,0,0,0,0,.05.23.23,0,0,0,0,.08s0,.11,0,.16.08,0,.11,0,0,0,0,0v0h0l0-.11s.09,0,.07.11l.13,0c-.07.1-.08.23-.13.27s.14.31.3.35,0,.06,0,.08,0,0-.05-.05.1.22.19.21-.1,0,0,.1h0c0,.31.38.35.3.71,0,0,0,0,0,0,0,.36.32.66.3,1,0,.1.07.09.13.14l-.06,0,.12.07c.11.12-.09.3.08.44l0,0c0,.07.09.19,0,.2s.06,0,0,0h0l.12.13c0,.13-.16,0-.1.21s.17.15.19.12a.08.08,0,0,1,0-.09l0,.05c.11,0,.24,0,.27-.19l-.1-.08,0-.05,0,.09c0-.07,0-.08-.06-.11a.1.1,0,0,0,0-.06l-.14-.07s.1,0,.1-.06-.08.08-.14,0,.08-.07,0-.11a0,0,0,0,1,.07,0c-.05,0-.06-.13-.13-.14s-.07-.17,0-.2a.28.28,0,0,1-.13-.11c.15,0-.05-.18.09-.2-.13,0-.13-.21-.23-.31s0,0,0,0,0-.1,0-.15-.15-.07-.23-.1.13,0,.2,0c-.07,0-.12-.11-.18-.06s0-.06.07-.12c-.12,0,0,0-.13-.07s.1-.06,0-.14S58.91,31,58.91,31Zm-1-2.16h0l0,0Zm-.07-.19,0,.08s0,0-.05,0S57.82,28.67,57.83,28.63Zm-.31.57s0,0,0,0l0,0h0Z" transform="translate(-30.14)"/><path class="cls-16" d="M57.63,29.22h0v0h0Z" transform="translate(-30.14)"/><polygon class="cls-16" points="19.89 12.9 19.89 12.91 19.89 12.89 19.89 12.9"/><polygon class="cls-16" points="26.81 26.02 26.8 26.02 26.82 26.03 26.81 26.02"/><path class="cls-16" d="M49.65,11.84v0Z" transform="translate(-30.14)"/><path class="cls-16" d="M49.44,11.43v-.07A.3.3,0,0,0,49.44,11.43Z" transform="translate(-30.14)"/><path class="cls-16" d="M49.31,11.09h0Z" transform="translate(-30.14)"/><path class="cls-16" d="M52.42,16h0Z" transform="translate(-30.14)"/><path class="cls-16" d="M51.39,14.57l.06,0S51.42,14.55,51.39,14.57Z" transform="translate(-30.14)"/><polygon class="cls-16" points="23.25 17.66 23.25 17.66 23.26 17.67 23.25 17.66"/><path class="cls-16" d="M51.49,14.66a.1.1,0,0,0,0-.07A.14.14,0,0,0,51.49,14.66Z" transform="translate(-30.14)"/><polygon class="cls-16" points="18.65 9.64 18.65 9.62 18.64 9.63 18.65 9.64"/><path class="cls-16" d="M48.77,9.63v0Z" transform="translate(-30.14)"/><path class="cls-16" d="M48.73,9.57l0,0S48.76,9.58,48.73,9.57Z" transform="translate(-30.14)"/><path class="cls-16" d="M48.89,10.1h0Z" transform="translate(-30.14)"/><path class="cls-16" d="M48.95,10.23s0-.1,0-.14h0S48.9,10.22,48.95,10.23Z" transform="translate(-30.14)"/><path class="cls-16" d="M48.88,10.91l0-.12s0,.07-.07,0C48.78,11,48.83,10.76,48.88,10.91Z" transform="translate(-30.14)"/><path class="cls-16" d="M49,11.28c0-.05,0,0-.05,0S49,11.34,49,11.28Z" transform="translate(-30.14)"/><path class="cls-16" d="M50.46,13.65l-.06,0S50.42,13.67,50.46,13.65Z" transform="translate(-30.14)"/><polygon class="cls-16" points="20.89 13.9 20.89 13.84 20.83 13.85 20.89 13.9"/><polygon class="cls-16" points="20.68 14.41 20.66 14.4 20.73 14.46 20.68 14.41"/><path class="cls-16" d="M53.06,18.41l.06,0S53,18.37,53.06,18.41Z" transform="translate(-30.14)"/><path class="cls-16" d="M54,20.2s0,.1,0,.11S54,20.21,54,20.2Z" transform="translate(-30.14)"/><polygon class="cls-16" points="26.03 25.76 25.99 25.73 26.04 25.8 26.03 25.76"/><path class="cls-16" d="M47.59,25.22s-.05,0,0,.06l.07,0Z" transform="translate(-30.14)"/><path class="cls-16" d="M47.58,25.42a.26.26,0,0,0,.15-.11c-.07,0-.05,0-.14.07s0,0,0-.06,0,0-.05,0,0,.09.06.08S47.59,25.41,47.58,25.42Z" transform="translate(-30.14)"/><path class="cls-16" d="M49.15,26.72v0Z" transform="translate(-30.14)"/><path class="cls-16" d="M50.2,27.41h0Z" transform="translate(-30.14)"/><path class="cls-16" d="M50.34,27.59h0S50.33,27.6,50.34,27.59Z" transform="translate(-30.14)"/><path class="cls-16" d="M49.15,26.72l0,0S49.16,26.74,49.15,26.72Z" transform="translate(-30.14)"/><path class="cls-16" d="M47.92,25.46h0Z" transform="translate(-30.14)"/><polygon class="cls-16" points="18.5 26.48 18.49 26.48 18.47 26.5 18.5 26.48"/><path class="cls-16" d="M48.27,26.25s0,0,.07-.07l0,0Z" transform="translate(-30.14)"/><path class="cls-16" d="M47.81,25.73h0Z" transform="translate(-30.14)"/><path class="cls-16" d="M48.89,26.66v0Z" transform="translate(-30.14)"/><path class="cls-16" d="M58.74,33h0Z" transform="translate(-30.14)"/><polygon class="cls-16" points="28.99 33.26 28.99 33.27 29.02 33.29 28.99 33.26"/><path class="cls-16" d="M50.62,27.87h0S50.61,27.88,50.62,27.87Z" transform="translate(-30.14)"/><path class="cls-16" d="M53.57,29.89c0-.07.1,0,.1-.12S53.55,29.83,53.57,29.89Z" transform="translate(-30.14)"/><path class="cls-16" d="M47.92,25.47h0Z" transform="translate(-30.14)"/><polygon class="cls-16" points="23.53 29.78 23.53 29.78 23.53 29.77 23.53 29.78"/><path class="cls-16" d="M51.39,28.33v0Z" transform="translate(-30.14)"/><path class="cls-16" d="M50.89,27.88v0Z" transform="translate(-30.14)"/><path class="cls-16" d="M51.74,28.44s0,0,0,0h0S51.74,28.46,51.74,28.44Z" transform="translate(-30.14)"/><polygon class="cls-16" points="21.9 28.65 21.9 28.63 21.89 28.63 21.9 28.65"/><path class="cls-16" d="M57.89,32.57l0,.06S57.95,32.61,57.89,32.57Z" transform="translate(-30.14)"/><path class="cls-16" d="M47.89,25.49l0,0h0Z" transform="translate(-30.14)"/><path class="cls-16" d="M52.06,28l0,0Z" transform="translate(-30.14)"/><path class="cls-16" d="M55.85,31h0Z" transform="translate(-30.14)"/><path class="cls-16" d="M52.25,28.12a.12.12,0,0,0,0,.06h0Z" transform="translate(-30.14)"/><path class="cls-16" d="M57.87,32.64h0Z" transform="translate(-30.14)"/><path class="cls-16" d="M58.26,32.71s-.07.06-.11.1,0-.07,0-.12-.12,0-.14,0,0,0,0,0-.1-.07-.2,0v0l-.07.1s-.07,0,0,0,0,0,0,0h0c0-.08,0,0,.09-.05s-.15,0-.16,0,.09,0,.09-.06l0,.06c0-.13,0,0,.08-.11s-.09,0-.14-.09,0,.06-.08.08.07-.22-.07-.18-.13.11-.14,0l.08-.06c-.05-.06-.12.08-.14,0s.07,0,.06,0-.06,0-.09,0l0-.07c-.07,0-.18,0-.26-.09s0,0,0-.06a.48.48,0,0,1-.24-.27l-.08,0s0,0,0,0,0,0-.06,0,0-.05,0-.06-.25,0-.26-.14h0c0-.06-.15.07-.15,0h0c-.08-.11-.24-.15-.25-.3-.08.07-.07-.12-.17,0,0-.1,0-.11,0-.22s-.09,0-.13,0L56,31l-.09,0,0-.09h0a.06.06,0,0,1,0,.06c-.06,0-.07-.12,0-.15l-.14,0s0,0,.07,0,0-.07-.05-.05,0,0,0,0,0-.1-.1-.11l0,0a2.51,2.51,0,0,0-.25-.16s-.05.11-.08.1l0-.07s0,0-.06.07,0-.09.07-.1h-.05l.05,0s0-.11-.09-.06v0c-.08-.06-.13-.07-.2-.12s-.06,0-.12.05-.05-.14-.12-.18,0,0-.09.06,0-.09,0-.11a.55.55,0,0,0-.22-.09s0,0,0,.06,0,0,0-.07h0c-.16,0-.12-.33-.28-.28h-.12s.05,0,0-.07c-.15,0-.13-.12-.25-.12.06-.19-.21-.14-.21-.3l0,0s0,0,0-.06,0,0,0,.06c-.2-.09-.31-.32-.46-.48s-.17.16-.19,0l.07,0c-.19,0-.26-.2-.44-.22,0,0,0,0,0,0s-.1-.07-.13,0,0,0,0-.07-.11,0-.09,0h0s-.08-.07-.1,0-.11,0-.13-.1-.06-.09-.13,0c.07-.09,0-.13-.09-.11s0,0,0-.08A.07.07,0,0,0,52,28c0-.16-.19,0-.13-.17a1.91,1.91,0,0,1-.37-.09c.07-.09.11.06.17,0-.12,0-.22,0-.3-.06s0,0,.06,0-.17-.12-.29-.12h0s0,0-.05,0h0c0,.08-.15.09-.17.12s-.06-.08.08-.21a.08.08,0,0,0-.06,0s0,0,0-.06-.08,0-.13,0l0,0c-.05,0-.1,0-.14,0s0,0,0,0-.2,0-.26-.06,0,0,0-.13h-.06v0s-.11,0-.13,0l0,0-.08,0,0,.06c-.06,0-.06.1-.1.05s0,0,0-.08h0s-.07,0-.09,0,.06-.09.06-.11-.1,0-.17,0a.18.18,0,0,0,0-.06l0,0s0,0,0-.07S50,27,50,27h0c-.05-.06-.15,0-.19-.1s.06,0,.08-.07-.24,0-.31-.08v0c-.08.11,0-.09-.1-.07s.05-.06,0,0-.13,0-.24-.06l0,0s-.08-.07-.11-.1,0,0-.06.05c0-.23-.27,0-.28-.24,0,0,0,0,0,0l-.1,0c0,.05,0,0,0,.09a.08.08,0,0,1-.09,0c.06,0,.05-.08.05-.12l0,0c0-.11-.07.09-.09,0l0,0s-.07,0-.09,0,0,0,.07-.05-.14.06-.13,0h.07c0-.09,0-.07,0-.1h0l0-.07v0c-.14.11-.1,0-.22,0,.12,0,0,0,.09-.1s0-.06,0-.07,0-.07-.1,0,0,0,0-.07,0,0,0,.06-.05-.17-.2-.13-.15,0-.24,0,.07-.06.07-.06,0-.07-.08-.07,0,0,0-.06-.07.05-.08,0l.09-.05h-.14s.06,0,.09,0a.17.17,0,0,0-.16,0v0s0,0,0,0,0,.05,0,.07h0c-.08.12.09.05.13.09l-.08.06.1,0s0,.08-.07.07,0,0,0,.06h0s0,.06-.05,0,.13,0,.1.09h0c.1,0,.05-.05.17-.08L48,26,48,25.9a0,0,0,0,1,0,0c.06,0,0,0,.06-.06s.12.05.06.15,0-.06.06-.07.06,0,.06.09-.06,0-.06.07c.09-.08.05.07.09.07s.09,0,.15,0,.06.1.09.16h0c.06-.07.1,0,.14,0s0,.06-.08.07l0,0a.08.08,0,0,1,.07,0l0,.05s.13,0,.16.07.05-.18.13-.18,0,.08-.07.08,0,0,0,0l-.06,0s0,0,.06,0,0,0,0,.07,0,0,0,0a.12.12,0,0,1,0,.1s0-.06.06-.05,0,.06,0,.1,0,0,.08,0,0,0,0,.06.11.06.13,0h0c.11,0,.14.13.23.15v0c.06,0,.11,0,.17,0s0,.06,0,.08.06,0,.09,0,0,0-.05,0,0,.08.11.06,0,.09,0,.08V27.1a.14.14,0,0,1,.07,0l-.05.06c0,.14.25-.05.24.14.05,0,0-.06,0-.11s0,.16,0,.17.12-.07.16,0,0-.1.1-.1,0,.14-.05.14,0,0,0,0,0,0,0,0l0,0s.06.07,0,.1,0,0,0-.06.08.05.12.11,0-.05,0,0,.06,0,.13,0-.07.09,0,.09,0,.07-.06.08.07.09.1.12h0l0-.06s0,0,0,0,0-.09.1-.12.08,0,0,.08,0,.07-.1,0a0,0,0,0,1,0,0h0c0,.1.08-.06.14,0s0,.08,0,.08,0-.07.07-.08.06,0,.08,0l0,0s0,0,.09,0,0,0,0,0,0,.11.1.1,0,.07,0,.1,0,.09.1.08,0,0,.08-.07l-.11,0,.1,0s-.07,0-.08,0,0,0,.06-.06.1,0,.1.08l-.08.12c0,.09.15,0,.21.09v0s.05,0,.09,0a.17.17,0,0,0,0,.1s.05,0,.12,0v.08c0,.06.15-.07.2,0s0,.08-.1.08,0,0,.05,0,.09,0,.08,0,.05-.05.07,0v0s.05,0,.07-.06c0,.17.18.11.16.26l.16.07s0,0,0,0,.12-.09.15,0-.06,0-.06.05.09,0,.07.14h0c0,.07.11,0,.16.05v0a.31.31,0,0,1,.23,0c-.05,0,0,0-.07.07s.05-.09.11-.07a.28.28,0,0,1,0,.15l0,0c0,.09.06,0,.07.07l0,0c.07,0,.13,0,.19,0v0c.1-.05,0,.07.08,0l0,.09a.7.7,0,0,1,.2,0,.54.54,0,0,1-.2,0s.09.06.13,0,0,0,0,0a.16.16,0,0,1,.19,0c-.12.15.1.13,0,.28.13,0,.15.15.26.22.06-.14,0,0,.12-.11s0,0,0,0v.13s0,0-.06,0,0,.07,0,.13.07,0,.08,0V30c.12,0,0,.15.1.14l-.05,0c.05,0,.13.11.24,0s0,.06,0,.05.27,0,.29.16l0,0s.07,0,.07,0,0,0,0,0,.08,0,.09,0l0,0c.05.11.19,0,.28.06a.17.17,0,0,0,0,.21h0c.09.09.22.06.34.1s.16.19.21.32c0,0,.06-.07.08-.06s.11,0,0,.06h0c0,.09,0,.1,0,.13l.09-.1c0,.22.28.13.22.3,0,0,.07,0,.11,0l0,.05a.41.41,0,0,0,.16.14l0,0s.18-.12.22-.09l-.05.09c.07.06.09.19.22.17s0,0,0,0,.09.16.17,0c-.06.07.07.07.13.07l0,0c.09,0,.1-.06.17,0s0,.05,0,0,.07,0,.09,0l0,0s0,0,.1,0,.06.07,0,.12.08,0,.09,0a.06.06,0,0,1,0,0c0,.09.14,0,.14.1l0,0-.08-.08c0,.05,0,.09-.09.14.06,0,.18-.05.2,0v0h0s0,0,0,0a.08.08,0,0,0,0,0s0,.06,0,.08.06,0,.07-.09h0l-.05,0s.07,0,.07,0l.1-.07c0,.1,0,.18,0,.24s.16.09.28,0,0,0,0,.07h0c.06,0,.11.07.18,0s-.08,0,0,.08l0,0c0,.21.34,0,.36.22a0,0,0,0,1,0,0c.11.19.37.17.49.37,0,0,.07,0,.12,0l0,.07.09-.06c.09,0,.1.23.25.13v-.05s.14,0,.13,0,0-.05,0,0v0a.42.42,0,0,0,.1-.09c.09,0,0,.16.19.08s0-.19,0-.19a.06.06,0,0,1-.08,0v0a1,1,0,0,0-.25-.2l0,.07,0,0h0s0,0,0,0l0-.05a.26.26,0,0,1,0,.11.56.56,0,0,0,0-.11c0,.05,0,.1,0,.13s0-.09,0,0a.15.15,0,0,1,0-.06s0,0-.05.07-.07,0,0-.1-.06.08-.08.07-.07,0,0-.16c-.07.1-.12,0-.2,0h0s0-.06,0-.09-.11.08-.16.11.08-.09.12-.17c0,.07-.1,0-.12.09a.2.2,0,0,1,0-.12c-.07.1,0,0-.1,0s.05-.1,0-.1S58.26,32.71,58.26,32.71Zm-1.12-.61h0ZM57,32l0,0s0,0,0,0S57,32.07,57,32Zm-.12.52s0,0,0,0h0Z" transform="translate(-30.14)"/><polygon class="cls-16" points="26.87 32.51 26.88 32.51 26.88 32.49 26.86 32.51 26.87 32.51"/><polygon class="cls-16" points="19 26.71 19 26.71 19 26.7 19 26.71"/><polygon class="cls-16" points="25.83 31 25.82 31.02 25.83 31.01 25.83 31"/><path class="cls-16" d="M48.77,26.18a0,0,0,0,0,0,0Z" transform="translate(-30.14)"/><path class="cls-16" d="M48.57,26l0,0Z" transform="translate(-30.14)"/><path class="cls-16" d="M48.43,25.89l0,0h0Z" transform="translate(-30.14)"/><path class="cls-16" d="M51.13,27.47h0Z" transform="translate(-30.14)"/><path class="cls-16" d="M50.24,27.12h0S50.26,27.08,50.24,27.12Z" transform="translate(-30.14)"/><polygon class="cls-16" points="21.92 27.99 21.92 27.99 21.93 27.99 21.92 27.99"/><path class="cls-16" d="M50.32,27.13a0,0,0,0,0,0,0S50.31,27.13,50.32,27.13Z" transform="translate(-30.14)"/><polygon class="cls-16" points="17.66 25.34 17.65 25.33 17.65 25.34 17.66 25.34"/><path class="cls-16" d="M47.78,25.34h0Z" transform="translate(-30.14)"/><path class="cls-16" d="M47.74,25.34h0S47.76,25.32,47.74,25.34Z" transform="translate(-30.14)"/><path class="cls-16" d="M48,25.53l0,0Z" transform="translate(-30.14)"/><path class="cls-16" d="M48,25.57s0-.07,0-.08h0S48,25.6,48,25.57Z" transform="translate(-30.14)"/><path class="cls-16" d="M48.1,26l0-.06S48,26,48,26,48,26,48.1,26Z" transform="translate(-30.14)"/><path class="cls-16" d="M48.24,26.18s0,0,0,0S48.25,26.22,48.24,26.18Z" transform="translate(-30.14)"/><path class="cls-16" d="M49.51,27l0,.05S49.49,27,49.51,27Z" transform="translate(-30.14)"/><polygon class="cls-16" points="19.79 26.86 19.79 26.81 19.75 26.85 19.79 26.86"/><polygon class="cls-16" points="19.7 27.33 19.69 27.34 19.74 27.34 19.7 27.33"/><path class="cls-16" d="M51.95,28.66l0-.07S51.91,28.66,51.95,28.66Z" transform="translate(-30.14)"/><path class="cls-16" d="M52.87,29.23s0,.08,0,.06S52.88,29.23,52.87,29.23Z" transform="translate(-30.14)"/><polygon class="cls-16" points="25.21 31.32 25.18 31.33 25.22 31.33 25.21 31.32"/><path class="cls-16" d="M49.05,31.59s-.07,0-.05,0h.08Z" transform="translate(-30.14)"/><path class="cls-16" d="M48.94,31.75a.29.29,0,0,0,.19,0H49s0,0,0,0,0,0,0,0,0,.07,0,.09Z" transform="translate(-30.14)"/><path class="cls-16" d="M49.69,33.46v0A0,0,0,0,0,49.69,33.46Z" transform="translate(-30.14)"/><path class="cls-16" d="M50.72,34.1h0Z" transform="translate(-30.14)"/><path class="cls-16" d="M50.88,34.25h0Z" transform="translate(-30.14)"/><path class="cls-16" d="M49.69,33.46v0S49.7,33.48,49.69,33.46Z" transform="translate(-30.14)"/><path class="cls-16" d="M49.2,31.94h0Z" transform="translate(-30.14)"/><path class="cls-16" d="M49.3,33.09h0Z" transform="translate(-30.14)"/><path class="cls-16" d="M49.08,32.74s.07,0,.09,0h-.05Z" transform="translate(-30.14)"/><path class="cls-16" d="M49,32.1h0Z" transform="translate(-30.14)"/><path class="cls-16" d="M49.47,33.34l0,0Z" transform="translate(-30.14)"/><path class="cls-16" d="M60,36h0A0,0,0,0,0,60,36Z" transform="translate(-30.14)"/><polygon class="cls-16" points="30.3 36.36 30.3 36.36 30.29 36.4 30.3 36.36"/><path class="cls-16" d="M51.21,34.44h0S51.2,34.44,51.21,34.44Z" transform="translate(-30.14)"/><path class="cls-16" d="M54.42,35.25c0-.07.08-.06,0-.14S54.38,35.2,54.42,35.25Z" transform="translate(-30.14)"/><path class="cls-16" d="M49.19,31.95h0Z" transform="translate(-30.14)"/><polygon class="cls-16" points="24.32 35.11 24.32 35.11 24.32 35.1 24.32 35.11"/><path class="cls-16" d="M52,34.61a.13.13,0,0,0,0,0A.09.09,0,0,0,52,34.61Z" transform="translate(-30.14)"/><path class="cls-16" d="M51.45,34.35h0Z" transform="translate(-30.14)"/><path class="cls-16" d="M52.36,34.6s0,0,0,0h0S52.37,34.61,52.36,34.6Z" transform="translate(-30.14)"/><polygon class="cls-16" points="22.55 34.69 22.54 34.67 22.53 34.67 22.55 34.69"/><path class="cls-16" d="M59,35.83a.35.35,0,0,1,0,.06C59.06,35.85,59.11,35.84,59,35.83Z" transform="translate(-30.14)"/><path class="cls-16" d="M49.16,31.95h0Z" transform="translate(-30.14)"/><path class="cls-16" d="M52.52,34.07l0,0Z" transform="translate(-30.14)"/><path class="cls-16" d="M56.74,35.28h0Z" transform="translate(-30.14)"/><path class="cls-16" d="M52.72,34.12a.12.12,0,0,0,0,.05v0Z" transform="translate(-30.14)"/><path class="cls-16" d="M59.05,35.9h0Z" transform="translate(-30.14)"/><path class="cls-16" d="M59.42,35.79s0,.08-.06.14,0-.07,0-.12-.08.1-.11.09,0,0,0,0-.11,0-.18.06v0A.65.65,0,0,1,59,36s-.05,0,0,0,0,0,0,0l0,0c0-.09,0,0,0-.09s-.12.08-.15,0,.09,0,.06-.1l0,0c0-.14,0,0,0-.13s-.09,0-.15,0,0,.07,0,.11,0-.23-.13-.13-.06.15-.1.09l0-.09c-.07,0-.07.13-.13,0s.06,0,.05,0,0,0-.08,0v-.08c-.07,0-.17,0-.25,0s0,0,0-.08a.39.39,0,0,1-.3-.13l-.05.06s0,0,0,0,0,0,0,.07,0,0,0-.07-.22.08-.27,0l0,0s-.1.13-.13.05h0c-.11-.06-.26,0-.32-.16,0,.1-.11-.08-.15.06,0-.09,0-.11-.11-.18s-.06.08-.1.09l0-.07-.06.07v-.1h0a.07.07,0,0,1,0,.06c-.06,0-.1-.08-.09-.12l-.13,0s0,0,.05,0,0-.08-.06,0,0,0,0,.06a.11.11,0,0,0-.12-.06l0,0a2.13,2.13,0,0,0-.27,0s0,.12,0,.12v-.08s0,0,0,.09,0-.1,0-.12l0,0s0,0,0-.06,0-.1-.1,0v0a2.14,2.14,0,0,0-.21,0c0,.07,0,0-.08.09s-.09-.11-.16-.12,0,.05-.06.09-.05-.07,0-.11a.47.47,0,0,0-.22,0s0,0,0,.06,0,0,0-.07h0c-.14.06-.21-.25-.33-.15h0l-.11,0s0,0,0-.09-.15-.06-.25,0c0-.2-.23,0-.28-.19v0s0,0,0,0,0,0,0,.06c-.2,0-.37-.17-.55-.26s-.1.21-.16.08l0-.07c-.17.06-.29-.08-.45,0,0,0,0,0,0,0s-.11,0-.12,0,0,0,0-.07-.09.05-.09,0,0,0,0,0-.09,0-.09,0-.11,0-.14,0-.08-.06-.12,0c0-.11-.07-.11-.11-.07s0,0,0-.08a.06.06,0,0,0-.09.06c0-.15-.17.07-.16-.11a1.49,1.49,0,0,1-.35,0c0-.11.11,0,.14-.1s-.19.1-.28,0,0,0,0-.06-.18-.06-.28,0l0,0s0,0,0,0h0c0,.08-.11.13-.12.17.07-.13-.07-.06,0-.23a.08.08,0,0,0,0,.06s0,0,0-.07-.06.07-.11.05,0,0,0-.06-.08.08-.12,0,0,0,0,0-.17.09-.24,0,0,0,0-.13h-.05v0s-.09,0-.12,0l0,0H50.8l0,0c-.06,0,0,.11-.08.07s0,0,0-.07h0s-.06,0-.08,0,0-.09,0-.11-.09,0-.15.05a.2.2,0,0,0,0-.07l0,.05s0,0,0-.07,0,.12-.07,0l0,0c0-.05-.14,0-.18-.08s.06,0,.08-.07-.21,0-.27-.06v0c-.08.1,0-.09-.09-.06s.05-.05,0,0-.11,0-.2-.07l0,0s-.05-.07-.07-.11,0,0-.07,0c.07-.21-.23-.1-.16-.28,0,0,0,0,0,0l-.07-.05s0,0,0,.07a.08.08,0,0,1-.08,0c.05,0,.08-.05.1-.08l0,0c.06-.09-.1.06-.08,0h0s-.07,0-.08,0,0,0,.09,0-.14,0-.1-.06l.06,0c.05-.07,0-.06,0-.09h0v0c-.17,0-.07-.07-.2-.07.12,0,.06,0,.13,0s0-.05,0-.06,0-.06-.07-.06,0,0,0,0,0,0-.07,0,0-.16-.09-.19-.15,0-.21-.09.09,0,.09,0,0-.07,0-.09a.1.1,0,0,0,.06,0s-.09,0-.07,0h.1l-.11-.07s.07,0,.1,0-.06-.08-.13-.07l0,0s.05,0,.07,0,0,.05,0,.06l0,0c-.13.06,0,.09.06.13H49l.1,0s-.08,0-.1,0,0,0,0,.06h0l0,0s-.07,0-.06,0,.11.07,0,.12h0c.06.07.07,0,.18,0l-.16.11.07,0s0,0,0,0,0,0,.08,0,.07.1,0,.15c.06,0,0-.06.08,0-.12.06,0,0,0,.1s0,0-.09,0c.11,0,0,.08,0,.1s.07,0,.12.08,0,.12,0,.18h0c.08,0,.1,0,.14,0a.13.13,0,0,1-.1,0l0,0a.08.08,0,0,1,.07,0l-.06,0s.12,0,.13.12.11-.15.18-.12-.07.06-.09.06,0,0,0,0l-.06,0s0,0,.06,0,0,0,0,.06,0,0,0,0a.12.12,0,0,1,0,.1s.05,0,.07,0,0,.05,0,.09,0,0,.09,0,0,0,0,.05.1.08.13,0h0c.11,0,.1.15.19.18v0c.06,0,.1.05.16,0s0,.06,0,.08.06,0,.09,0,0,0-.05,0,0,.09.1.05,0,.09,0,.08v-.06a.14.14,0,0,1,.07,0l0,.07c.05.14.24-.07.25.11,0,0,0-.06,0-.11s0,.16.05.16.1-.09.15,0,0-.11.08-.12,0,.14,0,.15,0,0,0,0,0,0,0,0l0,0s.07.05,0,.1,0,0,0-.06.09,0,.14.08,0-.05,0-.05.05,0,.12,0,0,.1,0,.08,0,.08,0,.1.09.07.12.08h0v-.06s0,0,0,0,0-.1.06-.14.07,0,.06.07,0,.08-.07.07a0,0,0,0,1,0,0v0c0,.09.05-.08.12-.06s0,.09,0,.08,0-.07,0-.1.05,0,.07,0l0,0s0,0,.07,0,0,0,0,0,.05.1.11.06,0,.08,0,.11,0,.07.11,0,0,0,0-.09l-.1,0,.08-.07s-.07,0-.08,0,0,0,0-.08.09,0,.11,0l0,.14c0,.08.13,0,.21,0l0,0c0-.05.05,0,.09,0a.18.18,0,0,0,0,.1s.06,0,.09-.07l0,.07c.06,0,.11-.11.17-.08s0,.09-.07.11,0,0,0,0,.08,0,.09,0,0-.07.05-.06a.06.06,0,0,1,0,0s0,0,0-.08c0,.17.19,0,.21.18h.16s0,0,0,0,.07-.13.13-.06,0,0,0,.07.09,0,.11.1h0c0,.06.1,0,.15,0v0a.29.29,0,0,1,.2-.08c0,.06,0,0,0,.09s0-.1.07-.11a.29.29,0,0,1,0,.14h0c0,.09.06,0,.08,0v0c.07,0,.1-.09.17-.06v0c.07-.08,0,.06.08,0v.1a.67.67,0,0,1,.17-.07.53.53,0,0,1-.16.12s.09,0,.12,0,0,0,0,0,.11-.09.16-.07c-.06.18.13.08.13.24.11,0,.18.08.3.1,0-.15,0,0,.07-.14s0,0,0,0l.05.11s0,0,0,.06,0,.07,0,.12,0-.07.07,0l0-.08c.1-.06,0,.14.14.09l0,0s.15,0,.22-.07,0,.06,0,.07.25-.07.31,0l0,0s.05-.06.06,0,0,0,0,0,.07-.05.08,0l0,0c.08.07.17-.06.26-.06a.17.17,0,0,0,.07.19h0c.11,0,.21,0,.33-.05s.2.11.29.2,0-.08,0-.09.09-.06.06,0h0c0,.1,0,.09.09.1l0-.13c.05.21.28,0,.29.18,0,0,.06,0,.1,0l0,.07A.35.35,0,0,0,57,36l0,0s.11-.18.16-.17V36c.08,0,.14.13.25.06s0,0,0,0,.13.11.16,0c0,.09.08,0,.14,0l0,.07c.06-.08.07-.1.13-.11s0,.06,0,0,0-.06.09,0l0,0s0,0,.08-.05.08,0,.07.1S57.94,36,58,36a.06.06,0,0,1,0,0c.06.06.13-.05.16,0a.09.09,0,0,0,0,0l-.1,0c0,.06,0,.08,0,.16s.14-.13.18-.09v0h0l0,0c0,.05,0,0,.07,0s0-.05,0-.11h-.09s.05-.06.07,0l.06-.1c0,.1.06.17.06.23s.17,0,.25-.11,0,0,0,.06,0,0,0,0,.12,0,.15-.08,0,.08,0,.08l0,0c.11.17.27-.19.39,0a.05.05,0,0,1,0,0c.16.11.37,0,.53.14s.06,0,.1-.06v.08l.06-.08c.08-.05.1.2.21.09V36.4s.11,0,.1,0,0-.05,0,0v0l.09-.06c.06,0,0,.15.07.17s.11-.1.1-.13,0,0,0-.07l0,0c0-.12.05-.23,0-.32l-.06.07V36h0c0-.06,0,0-.06,0a.12.12,0,0,0,0-.06l-.06.1s0-.09,0-.12,0,.1,0,.13,0-.1,0-.06a.07.07,0,0,1,0-.06s-.07,0-.09.07-.09,0-.07-.1-.06.08-.08.08-.09,0-.06-.16c0,.11-.12,0-.19.09s0,0,0,0,0-.05-.05-.08-.07.11-.11.17c0-.1,0-.11,0-.2,0,.08-.08.07-.08.13a.21.21,0,0,1,0-.11c0,.12,0,0-.07.09s0-.12,0-.09S59.42,35.79,59.42,35.79Zm-1.18,0h0Zm-.1,0h0s0,0,0,0S58.15,35.77,58.14,35.75Zm.09.52s0,0,0,0h0Z" transform="translate(-30.14)"/><polygon class="cls-16" points="28.15 36.18 28.15 36.18 28.15 36.16 28.14 36.18 28.15 36.18"/><polygon class="cls-16" points="19.55 33.45 19.55 33.45 19.56 33.44 19.55 33.45"/><polygon class="cls-16" points="26.72 35.28 26.71 35.3 26.72 35.28 26.72 35.28"/><path class="cls-16" d="M49.53,32.87v0Z" transform="translate(-30.14)"/><path class="cls-16" d="M49.43,32.67v0A.11.11,0,0,0,49.43,32.67Z" transform="translate(-30.14)"/><path class="cls-16" d="M49.39,32.5h0Z" transform="translate(-30.14)"/><path class="cls-16" d="M51.56,33.9h0Z" transform="translate(-30.14)"/><path class="cls-16" d="M50.71,33.81l0,0S50.72,33.77,50.71,33.81Z" transform="translate(-30.14)"/><polygon class="cls-16" points="22.38 34.07 22.38 34.07 22.38 34.07 22.38 34.07"/><path class="cls-16" d="M50.78,33.8a0,0,0,0,0,0,0S50.77,33.81,50.78,33.8Z" transform="translate(-30.14)"/><polygon class="cls-16" points="19.02 31.78 19.02 31.77 19.01 31.78 19.02 31.78"/><path class="cls-16" d="M49.15,31.78h0Z" transform="translate(-30.14)"/><path class="cls-16" d="M49.12,31.76h0S49.14,31.75,49.12,31.76Z" transform="translate(-30.14)"/><path class="cls-16" d="M49.2,32h0Z" transform="translate(-30.14)"/><path class="cls-16" d="M49.23,32.08s0-.06,0-.07h0S49.18,32.08,49.23,32.08Z" transform="translate(-30.14)"/><path class="cls-16" d="M49,32.47v-.07s0,0-.07,0S49,32.39,49,32.47Z" transform="translate(-30.14)"/><path class="cls-16" d="M49.08,32.67s0,0-.05,0S49.07,32.7,49.08,32.67Z" transform="translate(-30.14)"/><path class="cls-16" d="M50,33.77l0,.05S50,33.8,50,33.77Z" transform="translate(-30.14)"/><polygon class="cls-16" points="20.27 33.61 20.27 33.56 20.23 33.61 20.27 33.61"/><polygon class="cls-16" points="20.22 34.09 20.2 34.09 20.25 34.09 20.22 34.09"/><path class="cls-16" d="M52.61,34.73v-.08S52.57,34.75,52.61,34.73Z" transform="translate(-30.14)"/><path class="cls-16" d="M53.59,34.92s0,.07,0,0S53.6,34.91,53.59,34.92Z" transform="translate(-30.14)"/><polygon class="cls-16" points="26.3 35.82 26.27 35.84 26.31 35.83 26.3 35.82"/><g class="cls-17"><polyline class="cls-18" points="20.33 48.45 21.36 47.85 20.03 48.73 21.96 47.62 19.18 49.65 23.51 47.15 18.79 50.48 25.09 46.84 18.87 50.52 25.3 46.81 23.74 48.42 26.77 46.67 26.19 47.98 28.49 46.65 28.13 47.92 30.03 46.83 29.82 48.07 31.5 47.09 30.77 48.27 32.4 47.33 30.91 48.3 32.53 47.36 31.07 48.33 32.69 47.4 31.99 48.56 33.56 47.66 33.09 48.97 34.61 48.09 34.21 49.43 35.73 48.55 34.79 49.73 36.31 48.85 35.09 49.88 36.58 49.02 35.96 50.33 37.36 49.52 36.81 50.9 38.13 50.14 37.39 51.29 38.62 50.58 38.03 51.73 39.16 51.07 38.53 52.12 39.59 51.51 39.02 52.54 40.01 51.97 39.65 53.07 40.54 52.56 39.9 53.29 40.75 52.79 40.1 53.46 40.92 52.98 40.88 54.19 41.57 53.8 41.55 54.89 42.16 54.54 41.84 55.2 42.42 54.87 41.99 55.36 42.55 55.04 42.21 55.59 42.73 55.3 42.47 55.86 42.94 55.59 43.12 56.59 43.5 56.37 43.24 56.75 43.62 56.53 43.43 56.98 43.79 56.78 43.93 57.61 44.23 57.44 44.38 58.19 44.64 58.04 44.96 58.93 45.15 58.82 45.5 59.65 45.63 59.57 45.82 60.14 45.94 60.07 46.05 60.49 46.16 60.43 46.3 60.85 46.38 60.8 46.72 61.5 46.78 61.47 46.82 61.65 46.87 61.62 47.28 62.34 47.28 62.34"/></g><g class="cls-19"><polyline class="cls-18" points="54.13 32.35 54.22 32.3 53.8 32.94 54.26 32.67 53.15 34.07 54.3 33.4 52.6 34.99 53.99 34.19 52.44 35.27 53.84 34.46 51.34 37.08 52.78 36.25 51.18 37.33 52.61 36.51 50.48 38.45 51.89 37.63 49.29 40.27 50.66 39.48 48.64 41.26 49.99 40.48 47.51 42.91 48.87 42.13 47.3 43.21 48.67 42.42 46.34 44.55 47.77 43.72 45.93 45.12 47.38 44.28 44.49 46.99 46.18 46.01 44.14 47.43 45.9 46.42 42.84 49.02 44.91 47.83 41.81 50.16 44.26 48.74 40.99 51.07 43.75 49.48 41.2 52.01 42.47 51.28 41.6 52.45 41.71 52.38"/></g><g class="cls-20"><polyline class="cls-18" points="1.99 33.64 2.07 33.59 1.93 33.83 2.15 33.7 1.9 33.93 2.19 33.76 1.83 34.42 2.42 34.08 2.13 35.08 2.84 34.67 2.48 35.66 3.24 35.22 2.66 35.93 3.43 35.48 2.99 36.41 3.77 35.96 3.06 36.51 3.84 36.05 3.62 37.28 4.41 36.83 4 37.81 4.79 37.35 4.34 38.26 5.13 37.8 4.8 38.86 5.58 38.41 5.29 39.5 6.06 39.05 5.43 39.68 6.2 39.24 5.89 40.28 6.66 39.84 6.01 40.43 6.78 39.99 6.42 40.95 7.17 40.51 6.47 41.02 7.23 40.58 6.52 41.09 7.28 40.65 6.94 41.61 7.69 41.18 7.06 41.77 7.81 41.34 7.53 42.36 8.28 41.93 8.2 43.2 8.94 42.77 8.48 43.54 9.21 43.11 8.89 44.05 9.63 43.62 9.18 44.41 9.93 43.98 9.49 44.79 10.24 44.36 10.07 45.51 10.83 45.07 10.51 46.04 11.28 45.59 11.01 46.66 11.8 46.2 11.37 47.09 12.17 46.63 11.7 47.5 12.54 47.02 12.3 48.23 13.19 47.72 12.64 48.65 13.56 48.12 13.21 49.33 14.21 48.74 13.71 49.94 14.81 49.31 14.33 50.67 15.63 49.92 14.5 50.88 15.88 50.09 14.84 51.29 15.1 51.14"/></g><path class="cls-21" d="M38.35,71.24" transform="translate(-30.14)"/></g></g></g></svg>