<svg xmlns="http://www.w3.org/2000/svg" xmlns:xlink="http://www.w3.org/1999/xlink" viewBox="0 0 67.74 79.05"><defs><style>.cls-1,.cls-10,.cls-14,.cls-17,.cls-6,.cls-9{fill:none;}.cls-2{fill:#001440;}.cls-3{fill:#00277f;}.cls-4{fill:#003abf;}.cls-5{opacity:0.7;}.cls-14,.cls-6{stroke:#003abf;}.cls-10,.cls-17,.cls-6,.cls-9{stroke-linecap:round;stroke-linejoin:round;}.cls-6{stroke-width:0.26px;}.cls-7{fill:url(#Nouvelle_nuance_de_motif_7);}.cls-8{fill:url(#Nouvelle_nuance_de_motif_6);}.cls-10,.cls-9{stroke-width:0.28px;}.cls-9{stroke:url(#Nouvelle_nuance_de_motif_7);}.cls-10{stroke:url(#Nouvelle_nuance_de_motif_6);}.cls-11{opacity:0.5;fill:url(#Nouvelle_nuance_de_motif_4);}.cls-12{fill:#fff;}.cls-13{fill:#1d50c6;}.cls-14{stroke-miterlimit:10;stroke-width:0.25px;}.cls-15{fill:#2053c7;}.cls-16{opacity:0.32;}.cls-17{stroke-width:0.28px;stroke:url(#Nouvelle_nuance_de_motif_7-7);}.cls-18{opacity:0.3;}.cls-19{opacity:0.14;}</style><pattern id="Nouvelle_nuance_de_motif_7" data-name="Nouvelle nuance de motif 7" width="70.33" height="70.33" patternTransform="translate(89.94 3.98) scale(0.75 0.86)" patternUnits="userSpaceOnUse" viewBox="0 0 70.33 70.33"><rect class="cls-1" width="70.33" height="70.33"/><rect class="cls-4" width="70.33" height="70.33"/></pattern><pattern id="Nouvelle_nuance_de_motif_6" data-name="Nouvelle nuance de motif 6" width="70.33" height="70.33" patternTransform="translate(27.03 -29.92) scale(0.89)" patternUnits="userSpaceOnUse" viewBox="0 0 70.33 70.33"><rect class="cls-1" width="70.33" height="70.33"/><rect class="cls-3" width="70.33" height="70.33"/></pattern><pattern id="Nouvelle_nuance_de_motif_4" data-name="Nouvelle nuance de motif 4" width="70.33" height="70.33" patternTransform="translate(15.15 -79.48)" patternUnits="userSpaceOnUse" viewBox="0 0 70.33 70.33"><rect class="cls-1" width="70.33" height="70.33"/><rect class="cls-2" width="70.33" height="70.33"/></pattern><pattern id="Nouvelle_nuance_de_motif_7-7" data-name="Nouvelle nuance de motif 7" width="70.33" height="70.33" patternTransform="translate(89.96 4.25) scale(0.75 0.86)" patternUnits="userSpaceOnUse" viewBox="0 0 70.33 70.33"><rect class="cls-1" width="70.33" height="70.33"/><rect class="cls-4" width="70.33" height="70.33"/></pattern></defs><title>contact</title><g id="Calque_2" data-name="Calque 2"><g id="Calque_2-2" data-name="Calque 2"><g class="cls-5"><polyline class="cls-6" points="66.89 78.17 67.61 78.47 66.03 78.02 67.56 78.67 63.67 77.86 66.15 78.92 62.51 77.83 65.07 78.92 61.09 77.8 63.72 78.92 60.38 77.79 63.04 78.92 59.99 77.78 62.67 78.92 57.48 77.74 60.25 78.92 56.28 77.73 59.09 78.92 54.08 77.7 56.96 78.92 53.58 77.69 56.47 78.92 51.3 77.67 54.25 78.92 49.75 77.65 52.75 78.92 48.05 77.63 51.09 78.92 45.24 77.61 48.34 78.92 43.41 77.59 46.55 78.92 42.41 77.58 45.57 78.92 42.18 77.58 45.34 78.92 39.8 77.56 43.01 78.92 38.5 77.55 41.74 78.92 37.66 77.54 40.91 78.92 36.85 77.53 40.12 78.92 34.85 77.52 38.15 78.92 32.89 77.5 36.23 78.92 31.02 77.49 34.38 78.92 28.36 77.47 31.77 78.92 27.59 77.47 31.01 78.92 24.86 77.45 28.32 78.92 22.9 77.44 26.39 78.92 20.25 77.42 23.77 78.92 18.83 77.42 22.37 78.92 18.27 77.41 21.82 78.92 16.37 77.4 19.95 78.92 13.71 77.39 17.32 78.92 12.97 77.39 16.58 78.92 11.96 77.38 15.58 78.92 9.87 77.38 13.51 78.92 8.22 77.37 11.88 78.92 7.44 77.36 11.11 78.92 6.2 77.36 9.87 78.92 5.66 77.36 9.34 78.92 5.18 77.36 8.86 78.92 2.46 77.36 6.14 78.92 1.29 77.61 4.39 78.92 0.85 77.81 3.46 78.92 0.49 78.08 2.48 78.92 0.13 78.74 0.42 78.87"/></g><path class="cls-7" d="M61.91,34.69c-4,7.68-8.6,16-14.25,22.17A7,7,0,0,1,46,58.33l-.08-.07a27.53,27.53,0,0,0-3.11-2.44,17.18,17.18,0,0,0-3.8-2,22.31,22.31,0,0,0-5.7-1,27.78,27.78,0,0,0-4.21-.13A18.42,18.42,0,0,0,19,57.11c-3.81-2.23-6.6-5.55-9.61-9s-5-5.71-6.78-10c.11-.19-.56-1.92-.39-2A40.29,40.29,0,0,1,10,34.75c5.63-.7,11.29.5,16.95.81,5.25.29,10.5-.18,15.75-.26C49.24,35.19,55.39,34.2,61.91,34.69Z"/><path class="cls-8" d="M13.73,35.54a74.73,74.73,0,0,1,7.72.54c1.78.19,3.62.38,5.44.48,1.16.06,2.37.1,3.71.1,2.3,0,4.63-.09,6.88-.19,1.72-.07,3.49-.14,5.23-.17,2.49,0,4.95-.21,7.33-.38,2.65-.18,5.38-.37,8.08-.37.75,0,1.47,0,2.17,0-3.73,7.05-8.12,14.81-13.38,20.58a10.64,10.64,0,0,1-.89.89A29.33,29.33,0,0,0,43.33,55a17.9,17.9,0,0,0-4-2.14,23.06,23.06,0,0,0-6-1c-1-.08-2.08-.17-3.15-.17-.43,0-.83,0-1.22,0a19.08,19.08,0,0,0-10.11,4.19c-3.24-2.05-5.77-5-8.44-8.07l-.35-.4-.27-.32c-2.76-3.2-4.6-5.33-6.26-9.26a6,6,0,0,0-.25-1.07v0a32.43,32.43,0,0,1,5-.8l1.8-.2a28.85,28.85,0,0,1,3.6-.21m0-1a30,30,0,0,0-3.73.22A40.29,40.29,0,0,0,2.17,36c-.18.06.5,1.79.39,2,1.8,4.34,3.84,6.63,6.78,10s5.81,6.81,9.61,9a18.42,18.42,0,0,1,10.1-4.41c.38,0,.76,0,1.15,0,1,0,2,.08,3.06.16a22.31,22.31,0,0,1,5.7,1,17.18,17.18,0,0,1,3.8,2,27.53,27.53,0,0,1,3.11,2.44l.08.07a7,7,0,0,0,1.7-1.48c5.66-6.2,10.22-14.49,14.25-22.17-1.27-.1-2.53-.13-3.78-.13-5.16,0-10.17.66-15.43.75-4,.07-8.07.36-12.1.36-1.22,0-2.44,0-3.65-.09-4.41-.24-8.82-1-13.22-1Z"/><polyline class="cls-9" points="23.55 54.17 57.45 34.6 27.85 52.88 59.42 34.65 29.07 52.67 60.25 34.67 30.73 52.66 61.81 34.71 31.94 52.71 61.31 35.75 33.56 52.83 60.49 37.28 34.75 52.95 59.87 38.45 35.07 52.98 59.7 38.76 36.67 53.22 58.75 40.47 37.89 53.51 57.92 41.95 39.29 53.91 56.9 43.75 39.62 54.06 56.6 44.25 40.66 54.53 55.56 45.93 41.65 55.09 54.48 47.69 42.13 55.39 53.92 48.59 42.34 55.52 53.63 49.01 42.44 55.58 53.49 49.2 43.23 56.15 52.28 50.92 44.04 56.78 50.98 52.77 44.36 57.03 50.31 53.59 45.18 57.68 48.55 55.73 45.47 57.9 47.92 56.49 45.92 58.26 46.4 57.98"/><polyline class="cls-9" points="2.2 36.15 2.45 36.01 2.37 36.99 5.15 35.38 2.47 37.35 6.1 35.25 2.59 37.99 7.7 35.04 3 38.87 10.07 34.78 3.17 39.22 10.93 34.74 3.4 39.7 12.11 34.68 3.82 40.59 14.24 34.57 4.21 41.27 15.68 34.65 4.41 41.58 16.35 34.69 4.45 41.65 16.48 34.7 4.62 41.93 17.09 34.73 4.91 42.37 18.06 34.78 5.06 42.61 18.56 34.82 5.33 43.04 19.42 34.9 5.78 43.67 20.73 35.04 6.2 44.21 21.89 35.15 6.53 44.65 22.82 35.24 6.64 44.78 23.11 35.27 6.88 45.09 23.78 35.33 7 45.25 24.13 35.35 7.61 46 25.8 35.5 7.67 46.06 25.94 35.51 8.32 46.83 27.76 35.6 8.79 47.38 29.15 35.63 8.88 47.48 29.39 35.63 9.21 47.87 30.39 35.65 9.62 48.34 31.59 35.66 10.3 49.13 33.7 35.62 10.68 49.56 34.88 35.59 11.22 50.19 36.61 35.53 11.61 50.63 37.83 35.49 11.98 51.02 38.95 35.45 12.08 51.13 39.24 35.44 12.26 51.32 39.8 35.42 12.84 51.94 41.54 35.37 13.36 52.49 43.11 35.31 13.58 52.73 43.8 35.28 13.66 52.81 44.03 35.27 14.41 53.52 46.19 35.18 15.07 54.12 48.04 35.09 15.48 54.5 49.24 35.01 15.97 54.94 50.66 34.91 16.13 55.08 51.1 34.88 16.3 55.23 51.61 34.85 17.14 55.81 53.63 34.74 17.58 56.12 54.69 34.7 18.34 56.64 56.49 34.62 18.91 57.04 19.51 56.69"/><polyline class="cls-10" points="3.69 36.61 5.96 35.3 5.04 36.34 7.12 35.14 6.63 36.09 8.56 34.97 7.13 36.03 9.06 34.92 9.74 35.73 11.47 34.73 11.97 35.52 13.56 34.6 14.07 35.49 15.48 34.68 15.3 35.55 16.7 34.74 16.09 35.58 17.48 34.78 17.64 35.65 18.96 34.89 19.27 35.81 20.58 35.05 19.61 35.84 20.92 35.09 20.86 35.96 22.16 35.21 21.42 36.02 22.72 35.26 22.26 36.09 23.57 35.34 22.48 36.11 23.79 35.35 24.19 36.26 25.51 35.5 25.15 36.35 26.48 35.58 25.96 36.42 27.32 35.63 26.62 36.48 28.05 35.65 27.47 36.52 28.93 35.67 27.72 36.52 29.18 35.68 29.28 36.56 30.75 35.71 29.52 36.57 31.02 35.71 30.04 36.58 31.58 35.69 30.47 36.59 32.05 35.68 30.98 36.59 32.58 35.67 32.59 36.54 34.17 35.63 32.76 36.54 34.34 35.62 34.05 36.5 35.63 35.59 34.87 36.48 36.45 35.57 36.1 36.45 37.69 35.53 37.48 36.41 39.09 35.48 38.05 36.39 39.66 35.46 38.79 36.37 40.4 35.44 40.02 36.33 41.63 35.4 40.56 36.31 42.18 35.38 40.98 36.3 42.6 35.36 43.24 36.22 44.91 35.26 44.2 36.18 45.87 35.22 45.94 36.12 47.64 35.14 47.42 36.03 49.13 35.05 48.56 35.96 50.28 34.97 48.91 35.94 50.63 34.95 50.34 35.84 52.07 34.85 52.06 35.74 53.75 34.76 54.21 35.6 55.8 34.69 55.3 35.57 56.89 34.65 56.81 35.53 58.38 34.62 58 35.49 59.45 34.66 58.64 35.5 60.06 34.68 59.86 35.53 61.25 34.72 60.2 35.9 61.63 35.08 59.67 36.88 61.11 36.05 58.81 38.49 60.26 37.65 58.75 38.59 60.21 37.75 57.9 40.16 59.38 39.3 57.06 41.61 58.56 40.75 56.28 42.99 57.79 42.11 55.79 43.83 57.32 42.95 54.93 45.24 56.53 44.32 54.51 45.91 56.12 44.98 54.17 46.45 55.79 45.51 53.71 47.19 55.33 46.25 53.44 47.61 55.08 46.66 52.97 48.36 54.61 47.41 52.81 48.6 54.47 47.64 52.66 48.82 54.34 47.84 52.12 49.58 53.91 48.54 50.65 51.64 52.47 50.59 49.49 53.18 51.46 52.04 49.01 53.75 51.11 52.54 47.54 55.53 49.72 54.27 46.27 56.91 48.69 55.51"/><polyline class="cls-10" points="23.54 54.15 27.16 52.05 24.89 53.62 27.78 51.96 27 52.99 29.13 51.76 29.68 52.62 31.14 51.77 30.36 52.61 31.76 51.8 31.13 52.65 32.52 51.84 32.7 52.74 34.05 51.95 33.47 52.79 34.79 52.02 33.81 52.82 35.14 52.05 34.38 52.88 35.69 52.13 36.08 53.06 37.27 52.37 36.44 53.13 37.61 52.46 36.89 53.24 38.05 52.58 37.82 53.46 38.93 52.82 38.51 53.63 39.55 53.03 39.38 53.92 40.32 53.37 39.98 54.19 40.93 53.65 40.22 54.3 41.17 53.75 41.01 54.66 41.86 54.17 41.37 54.89 42.23 54.4 42.06 55.31 42.93 54.82 42.79 55.76 43.62 55.28 43.56 56.37 44.41 55.87 43.91 56.64 44.78 56.14 44.55 57.15 45.44 56.63 45 57.5 45.91 56.98 45.87 58.18 46.8 57.64 45.94 58.24 46.35 58"/><polyline class="cls-10" points="20.56 54.83 22.46 53.74 19.73 55.39 23.52 53.21"/><polyline class="cls-10" points="2.23 36.17 2.48 36.03 2.41 37.01 5.17 35.41 2.51 37.37 3.29 36.92 2.62 38.01 3.44 37.54 3.04 38.88 3.79 38.45 3.21 39.24 3.97 38.8 3.44 39.72 4.2 39.28 3.87 40.6 4.63 40.16 4.25 41.29 5.01 40.85 4.45 41.6 5.21 41.16 4.49 41.66 5.25 41.22 4.67 41.94 5.43 41.51 4.95 42.39 5.71 41.95 5.1 42.63 5.86 42.19 5.38 43.05 6.13 42.62 5.82 43.69 6.59 43.24 6.24 44.23 7.01 43.78 6.58 44.66 7.35 44.22 6.69 44.79 7.45 44.35 6.92 45.1 7.69 44.66 7.05 45.26 7.81 44.82 7.66 46.01 8.44 45.56 7.71 46.07 8.49 45.62 8.37 46.84 9.15 46.4 8.84 47.39 9.62 46.95 8.93 47.49 9.7 47.04 9.26 47.88 10.04 47.44 9.67 48.36 10.45 47.91 10.35 49.14 11.13 48.69 10.73 49.57 11.51 49.12 11.27 50.2 12.06 49.74 11.66 50.64 12.45 50.18 12.03 51.03 12.81 50.59 12.13 51.14 12.9 50.69 12.31 51.33 13.08 50.89 12.89 51.95 13.68 51.49 13.41 52.5 14.22 52.03 13.63 52.74 14.45 52.27 13.71 52.82 14.53 52.34 14.46 53.53 15.26 53.07 15.12 54.13 15.89 53.69 15.54 54.51 16.36 54.03 16.03 54.95 16.9 54.44 16.18 55.08 17.07 54.57 16.36 55.24 17.26 54.72 17.2 55.82 18.06 55.32 17.64 56.13 18.48 55.64 18.4 56.65 25.77 52.39 18.93 57.02 19.49 56.69"/><path class="cls-11" d="M18.79,56.37s11-9.94,26.16,1.1c0,0-1.64-5.24-12.43-6.15S18.79,56.37,18.79,56.37Z"/><path class="cls-12" d="M19.17,57.48A27.87,27.87,0,0,0,17,59.58c-3.4,3.59-6.11,8-8.79,12.43L4.93,77.33a4.78,4.78,0,0,1-1.8-1.69C2,73.91,2,71.55,2,69.37,2,63.23,1.44,57.12,1.35,51a84.33,84.33,0,0,1,.3-9.11c.11-1.19-.07-4.06.57-5.14C4,41.23,6.83,44.59,9.73,48.13S15.43,55.17,19.17,57.48Z"/><polygon class="cls-13" points="19.52 56.91 19.5 56.86 19.35 56.89 19.52 56.91"/><path class="cls-13" d="M18.78,56.71s0,0,0,.08l.52,0C19.22,56.53,18.83,56.87,18.78,56.71Z"/><path class="cls-13" d="M18.69,56.62c-.1-.15-.23-.08-.29-.06C18.51,56.5,18.64,56.76,18.69,56.62Z"/><path class="cls-13" d="M8.4,45.88l0,0S8.41,45.88,8.4,45.88Z"/><path class="cls-13" d="M5.64,43l-.11,0A23.05,23.05,0,0,1,7,44.91l-.06,0c1.18,1.58,2.49,2.86,3.79,4.31l-.09,0a.7.7,0,0,1,.27.17s-.06,0-.09,0c.12.44.86.86.92,1.15.09.08.18.07.18,0a30.37,30.37,0,0,0,3.32,3.32.1.1,0,0,1,0,.15c1.15.71,2.09,1.69,3.16,2.5.09,0-.06-.15.09-.14-.29-.32-.74-.31-1-.66l.09,0c-.19-.22-.16.11-.33-.15s.08-.06,0-.09a9.87,9.87,0,0,0-1.44-1.07c0-.21-.46-.45-.51-.72-.16-.06-.26-.19-.37-.15-1.42-1.57-2.93-3.15-4.32-4.86-.9-.6-1.39-1.79-2.24-2.67a0,0,0,0,1,0,0,5.5,5.5,0,0,1-1-1.09l-.35-.23c-.76-1.21-1.59-2.39-2.34-3.61-.38-.61-.74-1.23-1.07-1.87l-.24-.48c-.1-.2-.23-.47-.34-.73-.22-.53-.45-1.07-.67-1.64L2.32,36c-.16-.16-.44.55-.59.88a5.4,5.4,0,0,0-.39,1.55l-.05.47,0,.32,0,.58,0,1.14c0,.38,0,.72-.05,1.1s0,.76-.06,1.15a20.58,20.58,0,0,0,.07,2.34s0,0-.06-.06c0,.93-.11,1.78-.05,2.66H1c.24,2.17,0,4.53.35,6.61.06,2.55.25,5.42.45,8.11H1.73c.23,2.15,0,4.24.1,6.39A12.83,12.83,0,0,0,3.2,75.78a3,3,0,0,0,1.67,1.52s0,0,.06,0l0-.07L5,77.1l.12-.26c.07-.16.16-.33.26-.49A3.9,3.9,0,0,1,6,75.49a28.18,28.18,0,0,0,4-6.81c1.45-2,2.45-4.29,4.18-6,.51-1,1.69-1.68,2.49-2.64l-.09,0c.47-.18.46-.95.92-.89l0,0c.3,0,.11-.68.36-.63l0-.09c.19-.22.09,0,.28-.08s-.09-.14.08-.22c.27.24.46-.55.75-.26-.11.11.28-.05.08.25.1,0,.43-.38.29-.48s0-.41-.36-.32l0,.14c-.16,0-.1,0-.19,0-.29.25-.46.15-.72.28h0c0,.25-.29.36-.41.45h-.1c-.17,0-.11.52-.21.25-.54.59-1.18,1.23-1.75,1.91,0,.16-.45.5-.18.48a1.9,1.9,0,0,0-.92.69s0,0,0-.07c-.52.19-.14.6-.69.74.16.21-.56.59-.47,1-.08,0-.13,0-.15,0-.48.63-1.06,1.31-1.45,1.85-.15.6-.86,1.1-.88,1.68A4.51,4.51,0,0,0,10,68v-.07a6,6,0,0,0-.81,1.72c-.34,0-.44.28-.67.46-.11.43-.59,1.15-.83,1.77-.17,0-.23.49-.41.42a13.73,13.73,0,0,1-1.35,2.66c-.28.44-.58.87-.88,1.28s-.21.25-.26.27-.08-.09-.08-.11h0c0,.16-.4.12-.67.05,0,0,0,0,.05,0-.27-.21-.33-.58-.54-.82,0,0,0,0,.08,0-.25-.21-.19-.61-.48-.87l0,0L3,74.5c.06,0,.15,0,.18.08a15.11,15.11,0,0,1-.74-4.37c-.08-1.56-.18-3.14-.22-4.71l.06.11L2.2,65s0,0,.06.06a20.82,20.82,0,0,0-.14-2.34s.1.11.13,0c-.2-.55.18-.91-.19-1.17a.08.08,0,0,1,.13,0,40.74,40.74,0,0,1-.28-4.72c-.38-1.29-.15-2.76-.44-4.11h.07a37,37,0,0,1-.06-5.44c0-.75,0-1.27,0-2l.08,0c-.27-1.3.46-2.65.2-4l.11.1c-.16-.21.08-.81-.22-.74l.09-.23a2.15,2.15,0,0,1,0-1.31,6.48,6.48,0,0,0,.2-1.48l0,.19a1.36,1.36,0,0,1,.22-.87c0,.06,0,.11,0,.22h.12l0,.11.11.34a3,3,0,0,0,.38.74,9.82,9.82,0,0,1,.53.91l-.17,0c.35.35.65,1.18,1,1.68H4.1l.24.22-.1.07C4.66,41.84,5.17,42.41,5.64,43Z"/><path class="cls-13" d="M10.81,49.35h0S10.79,49.33,10.81,49.35Z"/><path class="cls-13" d="M18,57.79l.09-.05S18.06,57.77,18,57.79Z"/><path class="cls-14" d="M45.61,58.68l.08.07-.07,0A.76.76,0,0,0,45.61,58.68Z"/><path class="cls-12" d="M62.4,46.2Q62.31,60.39,62,74.6a5.06,5.06,0,0,1-.58,2.76,2.25,2.25,0,0,1-1.13.83c-1.57-3.67-4.74-5.89-7.08-8.91-1.73-2.22-3-4.9-4.66-7.21a24.2,24.2,0,0,0-2.88-3.32,7,7,0,0,0,1.67-1.53,101.94,101.94,0,0,0,14.37-21.4A49.48,49.48,0,0,1,62.4,46.2Z"/><polygon class="cls-13" points="63.07 46.2 63.1 46.16 63 46.04 63.07 46.2"/><path class="cls-13" d="M62.84,45.43s-.05,0-.07,0l.29.45C63.23,45.72,62.73,45.56,62.84,45.43Z"/><path class="cls-13" d="M62.87,45.3c.07-.18-.07-.25-.12-.29C62.86,45.07,62.72,45.34,62.87,45.3Z"/><path class="cls-13" d="M58.57,40.84l0-.05A.06.06,0,0,0,58.57,40.84Z"/><path class="cls-13" d="M56.9,44.53l.07.09a20.62,20.62,0,0,1,1.19-2.09v.07a47.5,47.5,0,0,0,2.7-5.28s0,.08,0,.12A1.25,1.25,0,0,1,61,37s0,.09,0,.14a1.7,1.7,0,0,0,.4-.73c.13-.34.3-.73.33-.66a1.47,1.47,0,0,0,.12-.53l.3,1.41.14.77.12.73.36,2.43a.1.1,0,0,1-.13.08,14,14,0,0,1,.22,4.21c.08.05.08-.14.16,0,.1-.45-.19-.82-.05-1.23l.08.05c0-.3-.19-.06-.1-.37.06-.12.1,0,.1,0a7,7,0,0,0-.19-1.89c.16-.15,0-.68.12-.93-.07-.16-.07-.33-.18-.38,0-.56-.06-1.12-.12-1.68,0-.39-.22-1.58-.39-2.36L62,34.8l0-.16s0-.17,0-.07l-.16.3-.31.6-1.16,2.24c-.21,1.08-1.15,2-1.68,3.14a0,0,0,0,1,0,0,5.52,5.52,0,0,1-.69,1.32l-.1.42c-1.74,2.36-3.24,5-5.08,7.3-2.06,2.68-4.09,4.84-5.93,7.57,0,0,0,0,0-.09a4.57,4.57,0,0,1-.59.62,6.49,6.49,0,0,1-1,.69c.26.31.71.72,1,1l0,0c1.75,1.4,2.85,3.56,4.17,5.25.66,1.12,1.36,2.33,2.18,3.49a23.65,23.65,0,0,0,2.77,3.2l-.05,0a29,29,0,0,1,4.13,5l.87,1.64.06.11a.54.54,0,0,0,.12,0l.25-.11A2.37,2.37,0,0,0,61,78a2.11,2.11,0,0,0,.58-.74c.5-1.12.28-2.32.42-3.46.33-1.41-.31-3.28,0-4.61a28.62,28.62,0,0,0,0-8.12c.21-2.52-.2-5,.18-7.48-.21-1.16.31-2.43.26-3.72l-.08,0c.24-.46-.32-1,0-1.32l0,0c.18-.24-.41-.57-.2-.72l-.09,0c0-.3.1,0,.14-.26s-.16,0-.11-.21c.36,0-.07-.73.34-.74,0,.16.16-.25.24.11,0-.1,0-.6-.14-.56s-.34-.24-.48.06l.13.06c-.13.1-.07.08-.17.11,0,.39-.22.45-.3.73h0c.16.19.06.46,0,.61l-.07.06c-.16.09.3.45,0,.33.06.8,0,1.72,0,2.62.1.13,0,.69.18.49a2,2,0,0,0-.28,1.14s0,0,0-.06c-.29.48.26.57-.1,1,.25.07-.09.82.2,1.07-.06.05-.11.07-.15.05,0,.81-.12,1.7-.14,2.39.21.59-.12,1.42.18,1.92a4.91,4.91,0,0,0-.09,1.67l0-.06a6.47,6.47,0,0,0,.2,1.93c-.29.19-.24.48-.33.76.13.44.08,1.33.19,2-.13.1,0,.55-.14.58a19.7,19.7,0,0,1-.12,6.19v0c.1.26.33.57.47.83,0,0,0,0,0,0,0,.37-.16.7-.13,1.07,0,0,0,0-.06-.06.08.34-.16.71,0,1.11l-.05,0,.06.25c-.06,0-.16,0-.13-.15a5,5,0,0,1-.38,2,1.63,1.63,0,0,1-.26.36,1,1,0,0,1-.16.15c-.14.13-.16,0-.27-.18a22.89,22.89,0,0,0-3-3.92l.12,0L57,73s.06,0,.09,0a22,22,0,0,0-1.69-1.71s.15,0,.1-.08c-.52-.3-.46-.82-.91-.79a.08.08,0,0,1,.1-.07,15.62,15.62,0,0,1-2.88-3.81c-1-1-1.48-2.42-2.46-3.46l.06,0c-.59-.7-1.12-1.46-1.7-2.2-.29-.37-.58-.74-.89-1.1l-.48-.52c-.14-.14-.27-.28-.42-.41s-.1-.07,0-.08a5.72,5.72,0,0,0,1.3-1.25l.07,0c.63-1.19,2-1.92,2.61-3.21l0,.14c0-.27.57-.61.29-.73l.22-.13c.27-1,1.19-1.22,1.67-2.29v.1a2.42,2.42,0,0,1,.5-.73s0,0,0,.1a10.42,10.42,0,0,0,1.74-2.45l0,.17a17.06,17.06,0,0,1,1.07-1.71l0,.07.11-.32.11.06C56.15,45.93,56.48,45.22,56.9,44.53Z"/><path class="cls-13" d="M61,37.17h0S61,37.2,61,37.17Z"/><path class="cls-13" d="M61.82,47.27l0-.1S61.82,47.23,61.82,47.27Z"/><path class="cls-14" d="M45.61,58.68a1,1,0,0,0-.28-.69"/><path class="cls-4" d="M32.35,40.28a12.26,12.26,0,0,1-3.48,5.88l-.36-2.24A56.34,56.34,0,0,1,21.91,47a23.07,23.07,0,0,0,2.5-3.89s-6.39,1.68-10.87.15c0,0,3.42-.47,4.13-2.23,0,0-7.18-.5-7.79-2.56a17.49,17.49,0,0,0,1.79-1.77s-5,0-7.44-1.89l2.46-1.36A12.51,12.51,0,0,1,0,26.11s9,2.29,9.84,1.64L10,25.25l4.78,1.82s-4.28-5.74-2.09-9.48l1.49.17s-.73-3.49-.41-4.52l1.64,1.37S12.76,3,14.23,0c0,0,7.3,5.43,10.57,10.47a7,7,0,0,0-.17-2.41A8.57,8.57,0,0,1,28,11.36s.84-.44.79-1c0,0,2.06.36,3.65,3.13s2.19,4,2.19,4l1.94-4.13,1.64,1.37s4.51-5.9,5.43-8.26a20.82,20.82,0,0,1,1.2,4.82c0,1.62-.18,4.61-.18,4.61l2.7-.8-3.12,7.2,4.91-1.16s-3.72,6.21-5.88,8.32c0,0,5.58-1.5,5.87-2.36,0,0-4,7.75-9.19,9.15,0,0,2.33,1.6,3.32.51a10.92,10.92,0,0,1-4.6,2.73s2,2.81,2.7,2.6l-8.31-1.94"/><path class="cls-12" d="M16.49,28.31s-4.28-5.74-2.09-9.48L15.9,19s-.73-3.49-.41-4.52l1.64,1.37S14.51,4.26,16,1.24c0,0,7.3,5.43,10.57,10.47a7,7,0,0,0-.17-2.41,8.57,8.57,0,0,1,3.34,3.3s.84-.44.79-1c0,0,2.06.36,3.65,3.13s2.19,4,2.19,4l1.94-4.13L39.95,16s4.51-5.9,5.43-8.26a20.82,20.82,0,0,1,1.2,4.82c0,1.62-.18,4.61-.18,4.61l2.7-.8L46,23.56l4.91-1.16S47.17,28.6,45,30.71c0,0,5.58-1.5,5.87-2.36,0,0-4,7.75-9.19,9.15,0,0,2.33,1.6,3.32.51a10.92,10.92,0,0,1-4.6,2.73s2,2.81,2.7,2.6L34.81,41.4,41,56.29l-1.7.19-5.19-15a12.26,12.26,0,0,1-3.48,5.88l-.36-2.24a56.34,56.34,0,0,1-6.61,3.1,23.07,23.07,0,0,0,2.5-3.89s-6.39,1.68-10.87.15c0,0,3.42-.47,4.13-2.23,0,0-7.18-.5-7.79-2.56A17.49,17.49,0,0,0,13.42,38S8.4,38,6,36.08l2.46-1.36a12.51,12.51,0,0,1-6.67-7.36s9,2.29,9.84,1.64l.11-2.51Z"/><path class="cls-15" d="M16.44,28.46c.14,0,.08,0-.3-.18l-.3,0Z"/><path class="cls-15" d="M13.94,27.35c-.46-.13-1-.26-.74-.08.47.09.56.16,1.07.26s.65.28.58.28c.14,0,.58.24.81.27a10.11,10.11,0,0,0-1.77-.69C13.76,27.32,13.9,27.35,13.94,27.35Z"/><path class="cls-15" d="M12.47,40.8l-.21-.16Z"/><path class="cls-15" d="M25.3,45.67a1.13,1.13,0,0,0,.13-.24C25.34,45.57,25.27,45.7,25.3,45.67Z"/><path class="cls-15" d="M24.64,48.17l-.35.13Z"/><path class="cls-15" d="M12.47,40.8c.19.12.39.22.58.33A4.77,4.77,0,0,0,12.47,40.8Z"/><path class="cls-15" d="M11.06,29.32a1.25,1.25,0,0,0,.43-.08,1.28,1.28,0,0,1-.4.07Z"/><path class="cls-15" d="M6.59,36.69l-.2-.11-.23-.11A2.48,2.48,0,0,0,6.59,36.69Z"/><path class="cls-15" d="M4.5,32.2a.58.58,0,0,0,.31.16,1.9,1.9,0,0,1-.33-.25S4.47,32.14,4.5,32.2Z"/><path class="cls-15" d="M9.21,28.87l.23,0Z"/><path class="cls-15" d="M12.4,38.13l.07,0Z"/><path class="cls-15" d="M14.46,19.47h0S14.44,19.52,14.46,19.47Z"/><path class="cls-15" d="M16.48,28.32l-.08-.11h0Z"/><path class="cls-15" d="M30.16,46.73v-.06C30.12,46.46,30.13,46.53,30.16,46.73Z"/><path class="cls-15" d="M48,33.18c-.56.58.76-1.07-.05-.17C48,32.94,47.32,33.92,48,33.18Z"/><path class="cls-15" d="M10.83,29.31l-.35,0Z"/><path class="cls-15" d="M47.94,33h0l-.08.09Z"/><path class="cls-15" d="M37.09,51.05a1.13,1.13,0,0,0,0-.18A.58.58,0,0,0,37.09,51.05Z"/><path class="cls-15" d="M33.06,44.57l.17-.28Z"/><path class="cls-15" d="M40.29,56.57c.16,0,.26,0,.63-.07H40.8A4.15,4.15,0,0,1,40.29,56.57Z"/><path class="cls-15" d="M38.72,50.3l0,.13.09.21Z"/><path class="cls-15" d="M15.88,3.15a2.08,2.08,0,0,1-.09.32C15.85,3.36,15.8,4.38,15.88,3.15Z"/><path class="cls-15" d="M11.06,29.28a.48.48,0,0,1-.22,0h.25S11.11,29.28,11.06,29.28Z"/><path class="cls-15" d="M40.43,56h.06v0l-.07-.18.07.17,0,0Z"/><path class="cls-15" d="M45.29,8.58l0,.08A.21.21,0,0,0,45.29,8.58Z"/><path class="cls-15" d="M39.11,52.68c-.05-.2-.12-.4-.2-.61L38.84,52Z"/><path class="cls-15" d="M15.79,3.47h0Z"/><path class="cls-15" d="M16.58,10.8c-.16-1.06-.17-.48-.25-.7-.21-1.26,0-.6,0-1-.14-.79-.28-1.39-.34-2,0,0,0-.16,0,0a32.59,32.59,0,0,1-.23-3.47.6.6,0,0,1,0-.13c-.06.15-.11.18-.14.14a3.7,3.7,0,0,1,.1-1.06,1.14,1.14,0,0,0,0,.45,2.92,2.92,0,0,1,0-.5c.08-.21.06,0,0,.18a1.46,1.46,0,0,0,0,.51,5.18,5.18,0,0,1,.06-.74A4,4,0,0,1,16,1.78L16,1.53c0-.07,0,0,.07,0l.09.06.42.33c.05.1-.38-.23-.45-.28s-.07-.05-.09-.05l0,.08s0,0,0,0l0,0,.05.06,0,0a.25.25,0,0,0,0,.06L16,1.83A1.38,1.38,0,0,0,16,2l-.06.28c.28-.82-.12.67.15-.08a.93.93,0,0,1,.06-.27.53.53,0,0,1,0-.09l0,0h0l.13.1c.34.25.69.51,1.27,1,.3.18,0-.13.25.06C19.6,4.35,19,4.28,20.31,5.25a5.13,5.13,0,0,1,1.33,1.09l-.35-.2A19,19,0,0,1,23,7.78c-.22-.17-.84-.81-.69-.64.65.77.54.47,1.07,1l0,.18c.54.57,1.1,1.18,1.64,1.83.28.35.49.58.93,1.18l.56.76s.11.17.13.14V12l0-.47c0,.17,0,.7.07.11,0-.4,0-.92,0-1.29l0-.28a1.19,1.19,0,0,0,0-.13s0-.09,0-.08l.09.05.22.16a8.32,8.32,0,0,1,1,.87,10.53,10.53,0,0,1,.81,1l.39.57c.19.24.32.72.69.36a3.19,3.19,0,0,0,.3-.23,2,2,0,0,0,.18-.18,1.33,1.33,0,0,0,.25-.39l0,0s0,0,0,0v0h0s.06,0,0,0-.05-.06,0-.06L31,12l.13.08s0,0-.13,0a5.52,5.52,0,0,1,2.17,1.59,11.15,11.15,0,0,1,1.48,2.43l-.16-.25C35,17,35.26,17,35.73,18l-.11-.18.44.81.27.49c0,.16.08,0,.13-.08l.12-.25.74-1.57.61-1.3.46-1,1.16,1,.29.2.1.07s.07.06.09,0L40.2,16l.61-.81a4.66,4.66,0,0,0,.72-1.09c.93-1.18.71-.8,1.95-2.52.32-.47.39-.75.75-1.35l.07,0,.43-.85.33-.4.15-.3,0-.1s0,0-.09.12-.1.14-.1.11l.26-.53a1.47,1.47,0,0,1,.09.36,2.3,2.3,0,0,1,.06.35,22,22,0,0,1,.67,2.28s-.13-.43-.23-.73c.35,1.21,0,.24.26,1.35,0-.15.05.07.07.1,0,.53-.09,1.9-.08,2.87l0-.19,0,1.23,0,.68,0,.61v.3c0,.08.06,0,.1,0l.15,0,2.23-.68,0,.09c.08-.13.27-.32.15,0a.4.4,0,0,1-.12.08c-.06.26.18-.34,0,.17-.31.68-.29.43-.14,0l-.34.85s0-.16,0-.23c-.1.36-.7,1.41-.83,1.94l0,0-1.8,4.23,1.15-.28c.22-.12.76-.24,1.24-.41L49.64,23l.41-.09.14,0c.15-.06,0,.08,0,.15s-.1.2-.14.27,0,.09,0,.1.06,0,0,.17c-.09,0-.86,1.25-.5.59-.93,1.46-1.18,1.87-2.4,3.69.16-.18.32-.39.26-.26a2.68,2.68,0,0,1-.54.65l.06-.09c-.27.39-.56.8-.89,1.2-.11.15-.45.53-.75.85s-.63.66-1,1c.52-.11,1.21-.29,1.87-.47l1.32-.37a13.68,13.68,0,0,0,2-.74l-.1,0,.34-.16.12-.07.26-.17a.84.84,0,0,0,.19-.19c-.11.19-.11.16-.12.15s-.07,0-.14.14,0,.17-.12.29c-.22.37-.46.73-.69,1.06-.47.66-.92,1.28-1.46,2-.51.48-1.3,1.41-2.26,2.25a9.49,9.49,0,0,1-2.95,1.89h.13a12.31,12.31,0,0,1-1.43.51c.15,0,.85-.28.44-.1l-.35.13-.17.07a1.31,1.31,0,0,0,.15.11c.22.14.43.28.67.42a6.06,6.06,0,0,0,1.13.52,3.27,3.27,0,0,0,1.08.19,1.52,1.52,0,0,0,1.11-.47l-.43-.4a10.67,10.67,0,0,1-3.56,2.29l-.25.09-.34.11-.49.15c-.14.06-.45.06-.23.24l.57.79.34.44a7.52,7.52,0,0,0,1.64,1.65,1,1,0,0,0,.75.15l0-.77a10.73,10.73,0,0,1-2.34-.42l.56,0c-1.08-.22-2.18-.46-3.27-.72l-3.88-.91.78,1.85L35.6,44a2.62,2.62,0,0,1-.23-.43,15.32,15.32,0,0,0,1,2.2c.18.44,0,.12.09.4.22.61.7,1.48.77,1.82,0,.06-.09-.16-.14-.27.19.38.75,1.82.66,1.42.41,1.08.87,2,1.18,2.88.3.52.72,1.83.89,2-.06,0,.08.39.28.88l.33.78.08.19,0,.06.06.1-.05,0s0,0-.08,0-.21,0-.06,0a7.64,7.64,0,0,0-.88.12s-.05-.06-.07,0c-.36-1.45-1.11-2.86-1.22-3.72l-2.4-6.54c.13,0,.81,2.31.89,2.18C36,46,35.49,44.94,34.83,43c-.16-.52.15.27.22.44l-.45-1.25-.3-.87a4.83,4.83,0,0,0-.29-.74,13.56,13.56,0,0,1-.45,1.88l-.11.29-.09.21c-.06.14-.12.28-.18.42a15.36,15.36,0,0,1-.85,1.57,2.78,2.78,0,0,1,.19-.34c-.19.31-.47.69-.41.69s.13-.2.19-.3c.4-.43-.7,1.27-.74,1.33.14-.29-.16.06-.44.36s-.29.27-.19,0a.83.83,0,0,0-.14.25l0,0a.27.27,0,0,1,0-.05.32.32,0,0,1,0-.07s0,0,0,0c0-.16-.07-.22-.13-.46L30.6,46l-.13-.79a5.08,5.08,0,0,1,.15.51l-.19-.89-.88.51-.8.41s-.07,0,.2-.14l-2.08,1.12c-.34.18-.68.35-1,.53l-.58.26-.31.13-.22.08c.34-.25-.37.11-.2-.06,0,0-.15.07-.12,0l.11-.17-.21.21.19-.27.24-.37c.23-.34.44-.67.67-1l-.34.58c.31-.47.62-.94.9-1.44-.17.27-.35.54-.53.8.44-.81-.14,0,.5-1a2.58,2.58,0,0,0,.33-.76l-.67.12h0a10.09,10.09,0,0,1-1.57.34c-.17,0,.12-.12,0-.13-.42.16-2.07.3-2.61.41.18,0,.19-.08.13-.09l-.36.08c-.41,0-.47,0-.41,0-1.24,0,.4.12-1.08.09l.3,0c-.7,0-1.37,0-2-.08L17,44.83c-.24-.05-.5-.09-.71-.16l-.16-.05s.16,0,.3,0,.46.1.36,0l-.25-.05a3.42,3.42,0,0,1-.37-.1l.38-.1a8.46,8.46,0,0,0,1.54-.64,3.26,3.26,0,0,0,1.48-1.47,2.66,2.66,0,0,1-.24.39c0-.08.14-.29.19-.48L19,42.16l-.52-.08c-.33-.05-.67-.1-1-.13.23,0,.32,0,.25,0a22.15,22.15,0,0,1-4.5-1l.24.06a6.09,6.09,0,0,1-1-.5,1.69,1.69,0,0,1-.69-.73l.27-.23c.16-.19.51-.51.27-.35.24-.19.41-.33.68-.59a4.74,4.74,0,0,0,.38-.41l.17-.21c.05-.07.14-.16.1-.18l-1,0-.73,0c-.46,0-.92-.07-1.37-.13A9.58,9.58,0,0,1,8,37c.25.1.62.16.41.11a8.16,8.16,0,0,1-1.76-.72,2.16,2.16,0,0,0,.54.37,4,4,0,0,1-1.11-.58c.38.24.37.21.29.12l-.15-.15c-.06,0,0,0,.07-.06l.11,0c-.06,0,0,0,0,0,.37-.15.45-.22.49-.29s.16-.17.78-.48l0,.06c.27-.17.68-.39.88-.56-.17-.07-.34-.15-.5-.23s.37.14.65.23c0,0,0,0,0,0s.06,0,0,0c-.48-.2-.92-.39-1.21-.55a4.41,4.41,0,0,1-.9-.57c.28.18.69.43,1,.58l-1.16-.83,0,0c-.35-.27-.69-.54-1-.84l.24.23A9.77,9.77,0,0,1,3.3,30.45c.85,1,.17.14.29.17-.17-.29-.44-.72-.34-.61a14,14,0,0,1-.92-1.65s-.07-.17-.1-.31,0-.14,0-.12c-.13-.32,0,.06-.05.07A3.94,3.94,0,0,1,2,27.57L3.55,28a20.6,20.6,0,0,0,2.08.44c1.53.28,1.83.26,3.26.46.47.11-.41,0-.41,0a10.56,10.56,0,0,0,2.11.27c-.15,0,0,0,.23.08a2,2,0,0,0,.55-.07l.25-.11c.12,0,.05-.27.09-.45a2.89,2.89,0,0,1,0,.29c0,.06,0,.16,0,.21l-.24.11.17-.07c.05,0,.13,0,.12-.11a3.33,3.33,0,0,0,0-.36v-.53c0-.35,0-.71,0-1.07.05-.19,0,.44.06.7V26.72l.42.13a2.59,2.59,0,0,0,.38.1l-.48-.21c.28.1.09.1-.06.05l-.28-.09a.84.84,0,0,1-.08.36v-.43a4.71,4.71,0,0,0-.1,1.27v.91c0,.08,0,.2,0,.23l-.24.09a3.2,3.2,0,0,1-.44,0,3,3,0,0,0,.42-.14,4.57,4.57,0,0,1-1.06.1c-.22-.05-.37-.12.14-.09-.73-.12-.66,0-1.28-.17-.07,0,0,0,0,0l-.72-.08c.14,0-.11-.09.33,0-1.27-.27-2.08-.31-2.55-.48l.11,0c-1.78-.35-.19,0-1.53-.16L4,27.76l-.19,0c-.18,0-.54-.14-.47-.15-.69-.11.11.06-.3,0s-.85-.23-1.33-.36a13.24,13.24,0,0,1,.45,1.37c.19.27-.32-.8.12.06a6,6,0,0,0,.92,1.7c-.2-.17-.61-.85-.2-.12.35.36.95,1.31,1.46,1.8.08,0,1.11,1,2.12,1.66a3.32,3.32,0,0,0,.51.36l.58.35.46.24c-.22.14-.48.26-.82.44l0,0a3.56,3.56,0,0,1-.7.47L6,36s-.14.07-.15.1l.17.11.32.22a.45.45,0,0,1-.23-.08l-.24-.14-.16-.1c-.05,0,0,0,0-.05L5.8,36c-.3.08,0,.2.15.3l.45.31c.22.07.4.2.87.38l-.21,0a15.06,15.06,0,0,0,3.27.9c.08-.05-1-.34.37-.16,0,0,.09.11-.27.07.12,0,.42,0,.66.08l-.56,0a5.69,5.69,0,0,0,.79.06s.35.07.28.1-.41-.06-.6-.07c.53.08,1.18.16,1.4.21,0,0,0,0,0,0h.29l.35,0s0,0,0,.05l-.16.14a.94.94,0,0,1-.16.2c-.12.12-.24.26-.22.28a1.57,1.57,0,0,1-.38.28c-.13.14-.29.29-.69.64a2.92,2.92,0,0,0,.34.59,2.82,2.82,0,0,0,.33.31c.2.13.28.17.13,0l-.11-.08.07,0h0a9.07,9.07,0,0,0,2.47,1,18,18,0,0,0,2.6.54v0c.66.08,1.57.18,2,.2a1.24,1.24,0,0,1-.31.55c-.2.22-.57.41-.48.31a5,5,0,0,1-.72.45,5.79,5.79,0,0,1-1.09.39c.81-.32-.23.06.78-.31-.3.12-.46.16-.75.25s-.59.15-.94.22a.93.93,0,0,1-.44.28s0,0,0,0c-.12-.1.07.08.25.28s.58.14.79.19c-.24-.07-.47-.12-.7-.21l-.06-.06.08.06c.32.1.61.14.89.21l.42.1.34.05-.27,0a24.6,24.6,0,0,0,5.38.07c.54-.11-1.14.06-.65-.05,1-.06,2-.1,2.26-.14a8.26,8.26,0,0,0,1.79-.44s0,.12-.06.18.34-.38-.1.47-.73.92-.42.41c.12-.19.18-.28.19-.27l.19-.37s0-.08-.07.06l0,.12c-.25.39-1,1.47-.86,1.19-.39.6-.13.28.18-.15l-.76,1L23,48.7s.15,0,.26-.07l.32-.1.69-.23c-.27.08-.46.11-.2,0a6.92,6.92,0,0,0,1.45-.6,4.12,4.12,0,0,1,.72-.39c.66-.27-.18.21.94-.37.71-.31.18,0-.08.16,1-.56,1.94-.93,2.53-1.23l-.53.3.82-.44s-.21.06-.3.09l.31-.15s0,0,0,0,0-.08.13-.22a.27.27,0,0,1,0,.09,2.3,2.3,0,0,0,0,.27l.08.49a5.9,5.9,0,0,1,.1.91l-.1-.64,0-.2c0-.07,0,0,0,0s0,.17-.13-.45l.07.4.09.64c0,.1,0-.08-.06-.26.09.66.15,1.09.2,1.36l0,.09.06-.07.11-.13.18-.22.39-.48.6-.71c-.09.18.29-.21.43-.42-.37.48-.24.18.08-.28a8.29,8.29,0,0,0,.84-1.31c-.1.16-.21.32-.32.48.07-.19.34-.59.63-1.19.06,0-.26.55-.14.34s.35-.7.54-1.11l.22-.48a1.61,1.61,0,0,0,.1-.36v0c0-.07,0,0,0,.07v.1a.83.83,0,0,0,0,.19.54.54,0,0,1,.07.15l.1.35a11.81,11.81,0,0,0,.4,1.18c-.06-.35-.09-.4.24.38l-.69-1.86.5,1.17-.5-1.37.14.27s0-.09,0-.19c.17.76.58,1.5.83,2.41l-.15,0c.4,1.37.9,2.36,1.47,4.12l-.17-.57c.14.21.38,1.07.6,1.63-.06,0,0,.32.1.57,0,0,.44,1.28.59,1.4l.21.8c.46,1.42.69,1.56,1.14,2.92-.19-.39,0,.24-.36-.66a5.06,5.06,0,0,0,.32.86c0,.06.1.3.18.52l.91-.13c.25,0,.47-.06.76-.08l.4-.09c-.07-.14-.16-.32-.28-.61,0-.08,0,0,0,0s-.36-.77-.23-.33c-.42-1.42-1.59-3.8-2-5l-1.28-3c0,.05,0,0,.09.16-.46-1.23-.44-.69-1-2.08-.22-.73.34.71.19.26.07-.25-.71-1.65-1-2.61l.1.22a10.09,10.09,0,0,0-.38-.94l-.12-.27-.1-.21-.15-.31.48.1s-.06,0,0,0c.85.11,2.44.46,3.61.71-.38,0-.54-.09-.33,0,.53.11-.13-.14.92.09A8.24,8.24,0,0,1,41,43l-1-.23a15.48,15.48,0,0,0,1.8.43l-.08,0c.65.15,1,.21,1.37.27v-.38a.78.78,0,0,1-.52-.21,5.1,5.1,0,0,1-.79-.74l.09.15c-.67-.61-.48-.62-1.07-1.26a.29.29,0,0,1,0-.16s-.11-.09-.05-.1l.17-.07.3-.12.4-.17a12.15,12.15,0,0,0,1.56-.88,7.14,7.14,0,0,1-1.08.7c-.22.12-.45.23-.67.33l-.49.21.12,0,.3-.11c.21-.08.44-.19.66-.29a5.72,5.72,0,0,0,.93-.55,4.61,4.61,0,0,1-.69.4,19.28,19.28,0,0,0,2.35-1.73c0,.08.21-.06.54-.37l-.26-.24a1.47,1.47,0,0,1-1.5.19,4.35,4.35,0,0,1-.79-.33c-.1-.06-.16-.12-.16-.15-.17,0,0-.09.1-.13a3.16,3.16,0,0,0,.48-.21l.73-.37.7-.44a15.2,15.2,0,0,0,2.66-2.28c-.72.54.49-.53.26-.53.38-.43.51-.61.55-.64.4-.43.77-.87,1.14-1.33s-.29.46-.24.44c.76-1,.36-.39.88-1.06-.14.11.18-.41.58-1l-.61.82.53-.86.55-.85c.19-.29.37-.59.58-1l.34-.65,0-.09,0,.07-.09.15c0-.06,0-.06,0-.16,0,.08,0,.06,0,.11s.06-.09.08-.13.1-.17,0-.05l0-.06,0,.07-.08.13,0-.09,0,0,.05-.11c-.35.25-.81.59-1.12.8a7.19,7.19,0,0,1-1,.63l-.59.26-.47.19c-.63.25-1.22.47-1.56.63-.16,0-.37.05,0-.08l-1.12.36,1.94-2.59-.06.16a11.29,11.29,0,0,1,.66-1s-.06.16,0,0,.54-.93.85-1.37l-.22.41c.6-.87,1-1.57,1.39-2.24l.42-.73.21-.37.1-.18c0-.06.11-.15,0-.1l-1.67.43a13.25,13.25,0,0,0-2.46.41l0,0-.51.12-.07,0,1.64-4.12c.15-.27.32-.63.51-1l.89-2-2.76.81-.14,0a.36.36,0,0,1,0-.11l.06-1c0,.35-.08-.06-.08-.47s0-1.48.08-1.39V14a6.85,6.85,0,0,0,0-2.4l-.15-.12a11.1,11.1,0,0,0-.39-1.88c-.09-.33-.2-.66-.31-1C45.78,8,45.58,7.46,45.4,7c-.23.51-.45,1.08-.67,1.49s-.29.52-.42.75a8.22,8.22,0,0,1-.73,1.06c-.26.47-.63,1-.91,1.48l0-.06L40.25,15l.18-.33a6.45,6.45,0,0,0-.37.55,2,2,0,0,0-.12.21.48.48,0,0,1,0,.09c0,.11-.07.06-.15,0a4.08,4.08,0,0,1-.46-.34L39.16,15l-1-.8L37,16.56l-.48,1-.12.26a.79.79,0,0,0,0,.11l-.06.19a.7.7,0,0,1,0-.18l0,.06,0-.09,0,0-.12-.22-.25-.47c-.33-.6-.61-1.06-.6-.89a12.44,12.44,0,0,0-1.48-2.48l.15.09a12.1,12.1,0,0,0-1.49-1.43c-.22-.18-.15-.2.12.05a3,3,0,0,0-.7-.5c-.19-.09-.38-.22-.91-.44l.41.13c-.45-.22-1-.39-1.06-.28a3.06,3.06,0,0,1,0,.33.58.58,0,0,1-.1.23,1.4,1.4,0,0,1-.32.31c-.05,0-.12.12-.17.06l-.12-.2c-.15-.25-.37-.6-.38-.66a12,12,0,0,1-.85-.87c0-.07.12.07.19.14a6.81,6.81,0,0,0-1.24-1.11,6.08,6.08,0,0,0-.74-.45l-.35-.17c-.09-.05,0,0,0,0l-.08,0a2.89,2.89,0,0,1,.24.87.92.92,0,0,0,0,.23,3.51,3.51,0,0,0-.07-.51l-.12-.34L26,9h.12s0,0,.08,0l.36.18a5.06,5.06,0,0,1,.59.36l.21.14.1.08.06,0s-.16-.19-.39-.37-.29-.26.31.1A5.79,5.79,0,0,0,26.58,9l-.44-.19L26,8.8h0l-.18,0a3.62,3.62,0,0,1,.51,1.71,1.69,1.69,0,0,1,0,.37s0,0,0,0v-.05c0,.11,0,0-.07,0s-.1-.17-.14-.24a10.59,10.59,0,0,0-1-1.33c0,.08-.45-.44-.09.08,0-.06.07.07.29.32l.14.16,0,0,.7.9a4.54,4.54,0,0,1-.35-.38c-.14-.17-.29-.37-.45-.6l-.54-.47c-.36-.6-1.24-1.61-1.33-1.78A30.38,30.38,0,0,0,20,4.36a2.22,2.22,0,0,1-.46-.48c.2.16.42.36.54.43a22.21,22.21,0,0,0-2.2-1.74c-.83-.73.54.32-.65-.62l.18.11c-.29-.25-.54-.47-.84-.7L15.9.88s0,0-.05,0l0,.09-.06.18-.12.35-.11.34,0,.24-.07.48c0,.32,0,.63,0,1,0,1.27.13,2.55.21,4.21a2.38,2.38,0,0,1,0-.39c.11,1.41.32,2.84.57,4.27l.4,2.14.36,1.75-.8-.68c-.25-.22-.49-.42-.73-.59a3,3,0,0,0-.16.89A6.14,6.14,0,0,0,15.44,17l0,.24.26,1.08.12.6c-.24,0-.45-.07-.77-.12s-.81-.32-.9.25a4,4,0,0,0-.5,2.13,1.65,1.65,0,0,1,.07-.26,12.66,12.66,0,0,0,.17,2.15,2,2,0,0,1,.15.5l0,0a13.86,13.86,0,0,0,.67,1.63c.55,1.24-.27-.11.65,1.66a6.66,6.66,0,0,0,1.1,1.47,2.63,2.63,0,0,1-.39-.69l.39.55c.18,0,.53.39-.29-1q-.32-.46-.62-.95l-.12-.35c.14.28.3.56.45.84a8.64,8.64,0,0,0-.61-1.11,2.54,2.54,0,0,0-.14-.46c-.19-.32-.35-.65-.52-1,0-.14.25.43,0-.27-.2-.48.05.51-.24-.3a4.51,4.51,0,0,0-.2-1c0-.09.05,0,.13.27a6.46,6.46,0,0,1-.19-1c0-.33,0-.63-.08-.77,0-.55.29-1.83.44-1.71l.07-.21c0-.07,0-.12.06-.14h.08l.23,0,.44,0c-.25,0-.25,0-.13,0l.39.05.67.08-.15-.76L16,18.1c0-.23,0-.38,0-.32a8.67,8.67,0,0,1-.3-1.66l0-.53v-.37a1,1,0,0,1,0-.17s.07,0,.11.05a.12.12,0,0,1-.08,0l.1.1,0,0,.11.11.78.7a3.58,3.58,0,0,1,.75.5L17,14.68c0-.44,0-.31.08-.12s.23.81.22.56a1.32,1.32,0,0,1-.13-.4l-.13-.51c-.09-.33-.16-.64-.17-.49a4.07,4.07,0,0,1-.06-.92c-.14-.09-.13-.6-.3-1.13a6.09,6.09,0,0,0-.13-1.3C16.39,9.88,16.58,10.8,16.58,10.8Zm10.18.71h0c0,.29,0,.57,0,.71C26.73,12.09,26.74,11.86,26.75,11.51Zm0-1.77s-.08-.05-.09,0a.64.64,0,0,1,0,.13,1.92,1.92,0,0,1,0,.24s0,0-.07-.16c0,0,0,0,0-.11a.5.5,0,0,0,0-.11S26.72,9.72,26.75,9.73Zm-1,.3a1.92,1.92,0,0,1,.29.4L25.64,10l0,0Z"/><path class="cls-15" d="M25.27,9.61l-.09-.1.12.16.09.08Z"/><path class="cls-15" d="M12.22,40.62l0,0-.07-.06Z"/><polygon class="cls-15" points="44.33 10.31 44.31 10.3 44.22 10.47 44.33 10.31"/><path class="cls-15" d="M6.41,36l.11,0Z"/><path class="cls-15" d="M6.37,33.33l-.55-.44Z"/><path class="cls-15" d="M3.66,30.66l-.07,0h0Z"/><path class="cls-15" d="M32.53,44.56l.07-.13C32.76,44.12,32.65,44.33,32.53,44.56Z"/><path class="cls-15" d="M25.57,44.41l.79-.22A3.38,3.38,0,0,0,25.57,44.41Z"/><polygon class="cls-15" points="40.39 56 40.39 56 40.43 55.99 40.39 56"/><path class="cls-15" d="M26,45.15a4.14,4.14,0,0,0,.27-.53c.05-.14.17-.37.14-.43s-.11.32-.17.47S26,45,26,45.15Z"/><path class="cls-15" d="M12.08,26.86l.08,0h0Z"/><path class="cls-15" d="M12.18,26.89l.2.07Z"/><path class="cls-15" d="M12.79,27.1,12.38,27A2.82,2.82,0,0,0,12.79,27.1Z"/><path class="cls-15" d="M9.36,29.15l-.06,0Z"/><path class="cls-15" d="M7.82,28.91c.37.07.91.22,1.43.28H9.3C9.05,29.18,8.17,28.93,7.82,28.91Z"/><path class="cls-15" d="M1.69,27.5l-.1-.31,1.22.32-.28-.11s.09,0,.36.06l-.77-.22c-.11,0-.07,0,0,0s.25.12-.52-.07Z"/><path class="cls-15" d="M3.67,31.22c-.46-.55,0,0-.06,0C3.91,31.57,4,31.65,3.67,31.22Z"/><path class="cls-15" d="M18.19,43.37l0-.09C17.79,43.56,18.22,43.31,18.19,43.37Z"/><path class="cls-15" d="M17.67,44.87l-.51-.11-.2,0C17.11,44.81,17.44,44.84,17.67,44.87Z"/><polygon class="cls-15" points="20.95 45.42 20.72 45.44 21.63 45.37 20.95 45.42"/><path class="cls-15" d="M39.26,51.45v.18C39.41,52,39.52,52,39.26,51.45Z"/><path class="cls-15" d="M41.92,42.3a8.87,8.87,0,0,0-.74-.91A11.24,11.24,0,0,0,41.92,42.3Z"/><polygon class="cls-15" points="46.53 10.37 46.66 10.79 46.43 10 46.53 10.37"/><path class="cls-12" d="M60.22,78.11a5.69,5.69,0,0,1-1.65.24c-16,.47-32-1.32-48-.35-1.89.12-4,.15-5.68-.75l3.24-5.33c2.68-4.39,5.39-8.83,8.79-12.43a27.87,27.87,0,0,1,2.2-2.09A17.65,17.65,0,0,1,29,52.85a25.9,25.9,0,0,1,4.14.13,20.9,20.9,0,0,1,5.6,1,16.6,16.6,0,0,1,3.73,2.09c1.06.76,3.1,2.61,3.13,2.6A24.2,24.2,0,0,1,48.47,62c1.66,2.31,2.94,5,4.66,7.21C55.47,72.23,58.65,74.45,60.22,78.11Z"/><polygon class="cls-13" points="60.83 77.85 60.84 77.78 60.67 77.66 60.83 77.85"/><path class="cls-13" d="M60.13,76.94s0,0,0,.08c.19.14.38.3.56.46C60.68,77.12,60.12,77.16,60.13,76.94Z"/><path class="cls-13" d="M60.07,76.76a.37.37,0,0,0-.31-.3C59.9,76.47,60,76.88,60.07,76.76Z"/><path class="cls-13" d="M47,59.52l.06.05A.12.12,0,0,0,47,59.52Z"/><path class="cls-13" d="M42.41,56.12l-.11.06a18.14,18.14,0,0,1,2.63,2.06l-.08,0,.33.29.16.14.08.07,0,0,0,0a.2.2,0,0,0,.16,0l-.18,0a29.49,29.49,0,0,1,4.66,5.65s-.07,0-.1-.06a1.32,1.32,0,0,1,.31.32s-.07,0-.1,0c.15.6,1,1.43,1.07,1.82.1.13.21.15.21,0a26,26,0,0,0,2,2.71,26.31,26.31,0,0,0,2.36,2.41c.06.09,0,.14,0,.17a15.34,15.34,0,0,1,3.9,4.47c.11,0,0-.22.14-.09-.26-.62-.82-.88-1.06-1.43h.1c-.22-.37-.2,0-.4-.36-.06-.17.1,0,.06-.09a10.73,10.73,0,0,0-1.89-1.89c0-.26-.65-.69-.76-1-.2-.12-.35-.3-.49-.28a33,33,0,0,1-2.89-3.55c-.88-1.27-1.69-2.62-2.52-4-1-1.09-1.76-2.79-3.06-4,0,0,0,0,0,0-.34-.28-.77-.68-1.16-1.06l-.21.22a.44.44,0,0,1-.07-.26c0-.09.06,0,.09-.05a.29.29,0,0,1,.14.05l0,0,0,0-.1-.09-.19-.18-.52-.28a18.15,18.15,0,0,0-5-3.73,18.53,18.53,0,0,0-6.19-1.44c-1.18-.12-2.33-.26-3.49-.29a13.16,13.16,0,0,0-3.43.34,14.53,14.53,0,0,0-6.06,3.13s-.05,0,0-.1a21.28,21.28,0,0,0-2.93,2.49l0,0a39.8,39.8,0,0,0-5.85,7.5c-2.07,3-4.14,6.6-6.09,9.93l0,0-.58,1c-.15.34-.68.78-.06.89a7.9,7.9,0,0,0,2.24.65,21,21,0,0,0,4.6,0c3.17,0,6.51-.59,9.72-.38,2,.31,4.59-.31,6.44.06A58.49,58.49,0,0,0,39.49,78c3.52.29,7-.05,10.45.34,1.62-.21,3.4.3,5.21.22l-.07-.08c.65.24,1.43-.36,1.84,0l-.07,0c.35.17.78-.44,1-.23l.05-.09c.41,0,.05.1.37.13.12,0,0-.16.29-.12.08.37,1-.14,1.07.23-.24,0,.4.09-.12.26.16,0,.92-.18.79-.33s.19-.43-.24-.43l0,.15c-.17-.09-.12,0-.19-.12-.51.09-.61-.11-1-.16,0,0,0,0,0,0a1.29,1.29,0,0,1-.84.07l-.09-.07c-.13-.15-.62.32-.46,0-1.11.09-2.4.11-3.65.12-.17.1-1,0-.68.19a3.92,3.92,0,0,0-1.59-.27.07.07,0,0,1,.08,0c-.67-.29-.8.26-1.42-.1-.1.25-1.14-.09-1.5.19-.08-.06-.1-.11-.07-.15-1.13,0-2.38-.14-3.33-.17-.82.2-2-.15-2.69.13a9.6,9.6,0,0,0-2.34-.14l.08,0a12.5,12.5,0,0,0-2.7.13c-.26-.3-.66-.25-1.05-.36-.62.11-1.85,0-2.79.12-.14-.14-.77,0-.82-.16a42.36,42.36,0,0,1-8.68-.24h0c-.37.1-.79.33-1.16.46,0,0,0,0,0,0-.51,0-1-.16-1.5-.13,0,0,0,0,.09-.06-.48.09-1-.15-1.56,0l0-.05-.36.07c0-.06,0-.16.21-.14-2.2,0-4.44.09-6.69.25L10,77.67a12.35,12.35,0,0,1-3.29-.12l.17,0a7.46,7.46,0,0,1-.84-.08s.06,0,.1,0l-.57-.23-.19-.08c-.07,0,0-.1,0-.16l.09-.19.19-.36c.14-.24.27-.48.42-.71,0,0,0,.19.1.08.27-.78.86-1,.76-1.52a.07.07,0,0,1,.1.08c1.06-2,2.25-3.93,3.5-5.8.72-1.76,2.12-3.34,3.07-5.05l0,0a19.73,19.73,0,0,1,2.35-3.06c.87-1,1.9-1.81,2.82-2.73a26.2,26.2,0,0,1,2.24-1.83l.07.05c1.36-1.31,3.42-1.71,5.12-2.54l-.09.14c.23-.26,1.12-.23,1-.48l.35,0c1.24-.62,2.36-.11,3.94-.27l-.11.06a4,4,0,0,1,1.23.05s0,0-.13,0c1.3.39,2.8.19,4.17.47l-.18.1a9,9,0,0,1,2.69.7l-.07,0,.44.1,0,.12A20.67,20.67,0,0,1,42.41,56.12Z"/><path class="cls-13" d="M50.26,64.65h0S50.24,64.63,50.26,64.65Z"/><path class="cls-13" d="M58.72,77.78l.14,0S58.76,77.79,58.72,77.78Z"/><path class="cls-15" d="M38.38,20.72s-.07,0-.05.06l.09,0Z"/><path class="cls-15" d="M38.27,21.16c0,.07.13.15.2.09-.09-.06-.06-.09-.16-.15s0-.11,0-.11,0-.1,0-.13a.27.27,0,0,0,0,.29S38.29,21.16,38.27,21.16Z"/><path class="cls-15" d="M38.16,27.25v0Z"/><path class="cls-15" d="M37.57,31s0,0,0,0S37.57,31,37.57,31Z"/><path class="cls-15" d="M37.36,31.6v0S37.36,31.59,37.36,31.6Z"/><path class="cls-15" d="M38.16,27.25l0,.1S38.15,27.3,38.16,27.25Z"/><path class="cls-15" d="M38.56,22l0-.05V22Z"/><path class="cls-15" d="M38.21,25.59v0l0,0Z"/><path class="cls-15" d="M38.23,24.32s.07,0,.1.05a.09.09,0,0,1,0-.06Z"/><path class="cls-15" d="M38.29,22.29v0Z"/><path class="cls-15" d="M38.14,26.5h0Z"/><path class="cls-15" d="M32.47,21.83h0S32.47,21.82,32.47,21.83Z"/><polygon class="cls-15" points="32.38 20.31 32.4 20.33 32.43 20.32 32.38 20.31"/><path class="cls-15" d="M37,32.73h0S37,32.71,37,32.73Z"/><path class="cls-15" d="M34.27,39.86c0,.14-.17-.13-.14.06C34.14,39.89,34.31,40,34.27,39.86Z"/><path class="cls-15" d="M38.55,22v.05A.14.14,0,0,0,38.55,22Z"/><polygon class="cls-15" points="34.13 39.92 34.13 39.92 34.13 39.94 34.13 39.92"/><path class="cls-15" d="M36.41,35.38l0,0Z"/><path class="cls-15" d="M37,33.44l0,0Z"/><path class="cls-15" d="M36.23,36.42a.12.12,0,0,0,0,.07h0A.06.06,0,0,1,36.23,36.42Z"/><polygon class="cls-15" points="35.93 37.48 35.95 37.46 35.95 37.42 35.93 37.48"/><path class="cls-15" d="M33.19,25.05l.05-.06S33.16,24.86,33.19,25.05Z"/><path class="cls-15" d="M38.52,22a0,0,0,0,1,0,0v0Z"/><path class="cls-15" d="M36.75,36.61l-.06.17A1.35,1.35,0,0,0,36.75,36.61Z"/><path class="cls-15" d="M33.38,32.81v0A.06.06,0,0,0,33.38,32.81Z"/><path class="cls-15" d="M36.56,37.28a.27.27,0,0,0-.07.08v0Z"/><path class="cls-15" d="M33.25,25h0Z"/><path class="cls-15" d="M32.88,23.9c0,.16.1.06.16.08.06.19,0,.1-.08.18s.15.19.16.28,0,0,0,0,.07.38.18.51l0,0a.21.21,0,0,1,.12,0c0,.07.08.13,0,.16s0,0-.05-.06l0,.07c-.08.08,0-.1-.11-.09a1.37,1.37,0,0,1,.14.43c-.08,0-.07-.26-.12-.1v-.18c-.11.16,0-.11-.13,0s.08.25.09.49c.05,0,.07,0,.12,0,.13.32-.18.29,0,.52.06.06.17.07.14.25l-.1,0c0,.23.15.11.11.36,0,0,0-.18-.06-.14s.06.1.08.22l-.08,0c0,.24.12.5.16.77,0,0-.06-.06-.08,0a3.51,3.51,0,0,1,0,1.05l.08.12s0,.05,0,0c0,.13,0,0,.08.07s0,.1-.06.05a1.75,1.75,0,0,1,.07.88l0,0c0,.18.15.21.08.38v0a4.53,4.53,0,0,1-.11,1.15c.1.07-.07.38.07.42a1.92,1.92,0,0,0-.2.46c0,.08.08.14.08.24h-.08l.06.15-.1.06v.1s0-.08.07-.07a.46.46,0,0,1-.16.36v.37s0-.08,0-.13c0,.21-.09,0-.05.21,0,0,0,0,.06,0a1,1,0,0,0-.12.43l0,0c-.07.27-.09.58-.15.88,0-.11.13-.06.12,0l-.09,0c0,.07,0-.09.09,0s-.1.06-.12,0v.15s0,0-.06,0-.12.23,0,.33h0c-.05.31,0,.46-.06.72.07,0,0,.11.09.19a2.75,2.75,0,0,0-.11.63c0,.16.06,0,.1.12s-.05.25-.1.12a2.31,2.31,0,0,0,.14.72s0-.09,0-.07,0,.15,0,.15v0c.16.36.08,1,.33,1.19h0l.2.26c.06.14-.08-.06-.07.06.25.27.24.5.44.71a.73.73,0,0,0,.18.48l.16.25a2.54,2.54,0,0,1,.18.4v-.07c.09.08.07.17.11.28,0-.06-.05-.18,0-.13.19.31.35.63.53,1l.39-1,.21-.55.12-.31c.08-.23-.18-.2,0-.46l.05.11c0-.49.3-.94.35-1.42,0,0,0,0,0,.08s.11-.35.06-.37,0,0,.08,0,0-.26.07-.3,0,0,0,.05.09-.29,0-.25c.08-.16.06-.34.14-.46s.12-.28,0-.34c.11,0,.17-.28.15-.4,0,0,.06-.08.09,0,0-.12,0-.24,0-.24.19-.19,0-.49.22-.57,0-.38.09-.74.15-1.08.11,0-.08.37,0,.39a3.3,3.3,0,0,1,.09-.84c0-.08,0,.06,0,.09,0-.33.16-.61.17-.91,0,0,0,0,0,.07s0-.13,0-.13v.06c-.09.07-.1-.26-.14-.27.12.13.1-.27.25-.08,0,0,0-.09,0-.09s0-.06.07,0c0-.21-.05-.15,0-.33,0,0,0,0,0,.07a.55.55,0,0,1,0-.35s0,0,0,0a3.39,3.39,0,0,1,.07-.75c.09.11.06-.09.15-.09v-.16l-.06.05c0-.14,0-.27,0-.38l0,.11,0-.26-.06.14c0-.15-.12,0-.06-.18,0,0,0-.14.09-.2h0a.36.36,0,0,1,0-.24s.1,0,.12,0,0-.32,0-.42a.07.07,0,0,0,.07,0L38,30c0-.06,0-.07.08-.05,0-.19-.13,0,0-.18,0,0,0,0,0,.05.06-.22,0-.45.09-.65.1,0,0,.19.08.13,0-.31,0-.64,0-.93l0,.05c-.13-.06.09-.21,0-.37,0,0,.07.06.05,0a3.32,3.32,0,0,0,0-.72l0,0a3,3,0,0,0,.07-.44s0-.11-.07-.07c.22-.38,0-.76.14-1.1,0,0,0,.1,0,.07l0-.3c-.06,0,0,0-.08.1a.33.33,0,0,1-.05-.2c0,.14.09,0,.13-.05s0,0-.05,0c.11-.15-.12,0,0-.24h0a.8.8,0,0,1,0-.24c.07,0,0,.09.08.09s-.12-.24,0-.35c0,.05,0,.13,0,.18a.33.33,0,0,0,.08-.22h0l0-.21,0,.05c-.18-.15,0-.31-.15-.51.11.2.06,0,.14,0s0-.13.07-.11,0-.16,0-.3,0-.1.06-.08,0,0-.07,0c-.08-.19.09-.46,0-.74s-.14-.28-.2-.5.09.06.09.06a.57.57,0,0,0,0-.33s0,0,.06,0-.09-.05-.07-.18a.36.36,0,0,1,.11.08l-.12-.32s.07.06.1.1c0-.12-.07-.32-.14-.35l0,.08s.05,0,.07,0,0,.16,0,.17l0-.08c-.13.1.06.32.06.48l-.11-.06.1.16s-.08.07-.1,0c0,.12,0,.1,0,.2s0,0,0,0l0,.11s-.07,0-.06,0c0,.2.1.32,0,.4v0c0,.28.08,0,.18.23l-.18.15.08,0s0,.09,0,.08,0,0,.08,0,0,.38-.08.42c.06,0,0-.13.09,0-.13,0,0,.17,0,.3-.07,0,0-.16-.09,0,.11.08,0,.25,0,.35s0,.23.07.41a3.09,3.09,0,0,0-.1.5h0c.09,0,.07.21.08.33s-.08,0-.1-.1v.12a.22.22,0,0,1,.05.14l-.07,0a1.43,1.43,0,0,1,0,.52c.06,0,.19-.15.22.07,0,0-.09,0-.1,0s0,.07,0,.1l-.05-.09c0,.09,0,.05,0,.12s0,.05-.08,0,0-.06,0-.09a.4.4,0,0,1-.09.21s.07,0,.07.07-.06,0-.1.14,0,.14.06.15,0,.05-.06.07,0,.38.07.29v0h0c0,.27-.1.54-.1.81h0a2.34,2.34,0,0,0,0,.47s-.06.1-.08.08a.5.5,0,0,1,0,.3c0-.13,0,0,0-.13,0,.15-.09.18,0,.36-.05-.07-.1.1-.09.18l.06-.1a1.21,1.21,0,0,1,0,.23l-.08-.05c-.15.3.09.6-.13.81,0,.09.07-.16.12-.08s-.18.27-.19.32.09.21,0,.41c0,0,.12,0,.12.13s-.15.15-.16.06,0-.05,0,0,0-.11,0-.06l0,0c0,.07-.08.27-.11.21,0,.11,0,.06.07,0-.07.18-.06.29-.13.47,0,0,.06,0,.06,0-.09.27,0,.13,0,.33s-.1-.06-.1.14-.08,0-.1,0c0,.18-.1.32-.13.41v-.1a.54.54,0,0,1,0,.15l.07,0c0,.05,0,.1-.05.09s.11,0,.13.1,0,.22-.1.23c.08-.22-.08,0-.05-.18a.32.32,0,0,1,0,.13s0,0,0,0c-.12.2.06.12,0,.34,0,0-.09,0-.09.07s.08,0,.1.06,0,.16,0,.23l0-.08s0,.11,0,.21,0-.1,0-.06-.13.23-.12.4-.08,0-.12,0-.11.17-.11.36c.07,0,.06,0,.08.09l0-.31,0,.21c0-.09,0-.2,0-.25,0,.1,0,.09.07.06-.12.1,0,.26-.11.38l-.14,0c-.12.2,0,.4-.13.66l0-.08c0,.05,0,.17,0,.27s-.08,0-.12.06-.06.2,0,.25l-.1.11c-.09.21.07.29,0,.5,0-.08-.09,0-.09-.14,0,.07,0,.13,0,.14s0,.22-.05.27.06.06,0,.14h0s0,.13.07.08c-.21.18-.17.61-.35.77,0,.16-.07.35-.11.49,0,0,0,0,0,0-.1.18.1.16,0,.36s0-.13-.06-.07-.06.27-.19.39v0c-.09.1,0,.29-.09.47h0a1.61,1.61,0,0,1,0,.58c0-.07,0-.09-.08-.08s.11,0,.07.17-.11.15-.18.14l0-.15c-.11.05-.06.19-.1.27l0,0c-.06.23,0,.27-.05.51l0,0c.05.16-.09.11-.06.24l-.1,0a1.65,1.65,0,0,1,0,.45c0-.2,0-.36,0-.44a.54.54,0,0,0,0,.24s0-.09,0-.09a1.07,1.07,0,0,1,0,.5.61.61,0,0,0,0-.2c0-.16-.13-.23-.11-.41,0,0,0,0-.06,0l-.07-.15a4.35,4.35,0,0,0-.24-.48c-.06.19-.06-.09-.18,0-.05-.07-.07-.1-.06-.11l-.05-.28c0-.08.07.06.1,0s0-.1,0-.23c0,0-.1,0-.13-.13v.17c-.2-.2,0-.26-.18-.46l.08.05c-.09-.11-.2-.44-.36-.52,0,0,0-.07.07,0-.1-.3-.34-.63-.3-.89l0,0c0-.05-.08-.09-.05-.17s0,0,0,0a.36.36,0,0,1-.06-.23l0,.06c0-.3-.11-.47-.12-.74.11,0,.16-.24.19-.36h0a9.59,9.59,0,0,0,0-1,7,7,0,0,0,.32-1s-.08,0-.08-.09,0-.24.07-.21v0c.11,0,.12-.21.15-.34l-.13,0c.26-.3.09-.91.29-1.07,0-.09,0-.19,0-.28h.07a2.85,2.85,0,0,0,.07-.65l0,.06c0-.17-.19-.22-.19-.37l.11,0a2.35,2.35,0,0,0,0-.85.06.06,0,0,1,0,.06c0-.13.08-.52-.07-.47.09,0,0-.29,0-.44l.07,0a.52.52,0,0,1-.14-.31s.05,0,0,0c0-.14-.07-.11,0-.28l0,.06c0-.15,0-.13-.08-.21s0-.28.07-.3a.18.18,0,0,1-.08-.18s0,0,0,0c0-.25-.1-.36,0-.53a0,0,0,0,0,0,0,2.56,2.56,0,0,1,0,.34c.06,0,.07-.16.16,0a1.15,1.15,0,0,1-.16-.49l0,0v0a.18.18,0,0,0,0-.1.6.6,0,0,0,0-.13c.05,0,0-.18,0-.26s-.07-.09-.12,0,0,0,0,.07v0h0l0,.19a.21.21,0,0,1,0-.21l-.12-.1c.09-.11.12-.33.18-.36-.06-.23-.09-.56-.24-.69s0-.08,0-.11,0,.08,0,.1-.06-.4-.16-.42c0-.17.1.08,0-.15l0,0c.08-.48-.34-.71-.24-1.24,0,0,0,.06,0,.07,0-.59-.3-1.16-.31-1.75,0-.17-.07-.17-.14-.26l.06-.05L33,22.14c-.12-.22.08-.45-.13-.72l0,.05c0-.11-.12-.33-.06-.33s-.06,0,0-.07h0l-.14-.24c0-.21.16,0,.08-.31,0-.1-.21-.28-.22-.23s0,.12,0,.13l-.05-.09c-.12,0-.25,0-.26.24l.12.15,0,.07,0-.14c0,.1,0,.13.08.18a.12.12,0,0,0,0,.09l.16.13s-.11,0-.1.07.08-.1.15,0-.08.08,0,.17,0,0-.07,0,.08.22.15.25.1.28,0,.3a.53.53,0,0,1,.15.2c-.16-.11.07.29-.08.29.14.08.14.37.25.54,0,0,0,0,0,0a.67.67,0,0,1,0,.22c.1,0,.16.15.24.23s-.13-.05-.21,0c.08,0,.13.21.18.15,0,.11,0,.09-.08.16.12,0,0,.09.13.16s-.11.06,0,.21S32.88,23.9,32.88,23.9Zm.72,3.78h0v0Zm0,.32v-.14a0,0,0,0,1,.05,0S33.64,28,33.62,28Zm.44-.72c0,.05,0,.07,0,.08l0-.09h0Z"/><polygon class="cls-15" points="33.96 27.2 33.95 27.18 33.94 27.21 33.96 27.23 33.96 27.2"/><polygon class="cls-15" points="38.18 27.21 38.18 27.22 38.19 27.2 38.18 27.21"/><polygon class="cls-15" points="33.41 32.45 33.42 32.45 33.41 32.42 33.41 32.45"/><path class="cls-15" d="M38.54,25.43l0,0Z"/><path class="cls-15" d="M38.58,24.65l0-.11A.75.75,0,0,0,38.58,24.65Z"/><path class="cls-15" d="M38.61,24.05h0Z"/><path class="cls-15" d="M37.47,33.51v0C37.47,33.59,37.48,33.55,37.47,33.51Z"/><path class="cls-15" d="M37.9,30.7a.63.63,0,0,1,0,.1S37.94,30.71,37.9,30.7Z"/><polygon class="cls-15" points="36.76 36.6 36.76 36.59 36.75 36.61 36.76 36.6"/><path class="cls-15" d="M37.89,30.93a.25.25,0,0,0,0-.13A.38.38,0,0,0,37.89,30.93Z"/><polygon class="cls-15" points="38.51 21.45 38.51 21.42 38.49 21.42 38.51 21.45"/><path class="cls-15" d="M38.5,21.42v0S38.49,21.41,38.5,21.42Z"/><path class="cls-15" d="M38.46,21.32l0,.07S38.48,21.33,38.46,21.32Z"/><path class="cls-15" d="M38.55,22.24h0Z"/><path class="cls-15" d="M38.57,22.48a.7.7,0,0,0,0-.23h0S38.52,22.43,38.57,22.48Z"/><path class="cls-15" d="M38.3,23.5l0-.2s-.06.08-.07,0C38.17,23.55,38.31,23.24,38.3,23.5Z"/><path class="cls-15" d="M38.26,24.12c0-.11,0,0-.05,0S38.24,24.2,38.26,24.12Z"/><path class="cls-15" d="M38,28.6l-.06,0C37.9,28.66,37.93,28.58,38,28.6Z"/><polygon class="cls-15" points="38.16 29.5 38.22 29.42 38.16 29.38 38.16 29.5"/><polygon class="cls-15" points="37.64 29.93 37.64 29.89 37.63 30.03 37.64 29.93"/><path class="cls-15" d="M35.92,37.27H36C36,37.21,35.93,37.17,35.92,37.27Z"/><path class="cls-15" d="M35.05,40.42a.16.16,0,0,0-.08.17C35,40.52,35.05,40.46,35.05,40.42Z"/><polygon class="cls-15" points="33.88 33.41 33.89 33.48 33.9 33.35 33.88 33.41"/><path class="cls-15" d="M21,10.52s-.07,0-.05,0H21Z"/><path class="cls-15" d="M20.92,10.83a.16.16,0,0,0,.2,0c-.09,0-.06,0-.16-.08a.05.05,0,0,1,0-.08s0-.07-.05-.08a.14.14,0,0,0,0,.2S20.94,10.83,20.92,10.83Z"/><path class="cls-15" d="M22.63,14.72v0A.06.06,0,0,0,22.63,14.72Z"/><path class="cls-15" d="M24.05,16.94l0,0Z"/><path class="cls-15" d="M24.21,17.37v0S24.2,17.37,24.21,17.37Z"/><path class="cls-15" d="M22.63,14.72l0,.07S22.64,14.76,22.63,14.72Z"/><path class="cls-15" d="M21.26,11.34l0,0,0,0Z"/><path class="cls-15" d="M22,13.77v0h0Z"/><path class="cls-15" d="M21.51,13s.07,0,.1,0a.07.07,0,0,1-.06,0Z"/><path class="cls-15" d="M21.06,11.62l0,0Z"/><path class="cls-15" d="M22.28,14.33l0,0Z"/><path class="cls-15" d="M33.1,36.75h0Z"/><polygon class="cls-15" points="33.09 37.85 33.09 37.83 33.05 37.84 33.09 37.85"/><path class="cls-15" d="M24.55,18.12h0S24.54,18.11,24.55,18.12Z"/><path class="cls-15" d="M27.81,24.9c0-.1.13.1.14,0C27.93,24.87,27.81,24.79,27.81,24.9Z"/><path class="cls-15" d="M21.26,11.36v0Z"/><polygon class="cls-15" points="27.95 24.85 27.95 24.85 27.95 24.84 27.95 24.85"/><path class="cls-15" d="M25.48,19.76l0,0Z"/><path class="cls-15" d="M24.91,18.47v0A.1.1,0,0,0,24.91,18.47Z"/><path class="cls-15" d="M25.89,20.37s0,0,0,0h0S25.89,20.39,25.89,20.37Z"/><polygon class="cls-15" points="26.22 21.06 26.22 21.04 26.21 21.02 26.22 21.06"/><path class="cls-15" d="M32.3,34.56l0,.05S32.35,34.69,32.3,34.56Z"/><path class="cls-15" d="M21.23,11.35h0v0Z"/><path class="cls-15" d="M26.4,20.16l0,.11A.65.65,0,0,0,26.4,20.16Z"/><path class="cls-15" d="M30.33,29.43l0,0Z"/><path class="cls-15" d="M26.61,20.59a.17.17,0,0,0,0,.08h0Z"/><path class="cls-15" d="M32.25,34.62h0Z"/><path class="cls-15" d="M32.68,35.32c0-.11-.1,0-.16,0s0-.08.07-.14-.15-.11-.17-.17,0,0,0,0-.1-.25-.22-.32l0,0a.29.29,0,0,1-.11.06s-.09-.07,0-.11,0,0,.06,0l0,0c.07-.08.05.06.11,0s-.17-.18-.18-.27.09.17.13,0v.13c.09-.14,0,.08.12-.06s-.1-.16-.14-.32-.06,0-.12,0c-.16-.19.14-.25,0-.37s-.18,0-.16-.14H32c0-.15-.16,0-.16-.22,0,0,.07.11.08.08s-.08-.05-.11-.13l.07,0c-.07-.16-.2-.31-.28-.48,0,0,.06,0,.07,0a2,2,0,0,1-.21-.71l-.1-.06s0,0,0,0,0,0-.09,0,0-.08,0-.06a.94.94,0,0,1-.27-.56l0,0c0-.13-.19-.08-.17-.22l0,0a2.6,2.6,0,0,1-.23-.78c-.11,0-.06-.28-.2-.24a1,1,0,0,0,0-.37c0-.06-.12,0-.16-.11l.07,0-.11-.06.07-.08,0-.06s0,.07,0,.07a.27.27,0,0,1,0-.29L30.14,29s.06,0,.09.05c-.13-.1.07-.05,0-.14s0,0-.06,0a.48.48,0,0,0-.09-.3h.06c-.06-.18-.18-.37-.26-.57a.06.06,0,0,1-.12,0l.07-.05c-.06,0,0,.07-.09,0s.06-.09.11-.05L29.72,28s0,0,.07,0,0-.19-.09-.21h0c-.08-.2-.15-.28-.22-.44-.07,0-.08,0-.15-.07a2,2,0,0,0-.1-.42c-.07-.09-.07,0-.12,0s0-.17.06-.12a2.21,2.21,0,0,0-.24-.41s0,.06,0,.06,0-.1,0-.11h0c-.19-.21-.07-.64-.27-.78h0l-.15-.17c0-.1.07,0,.08,0-.19-.18-.13-.35-.27-.5.11-.21-.22-.49-.19-.72l0,0c-.06,0,0-.07,0-.11s0,.07,0,0a7,7,0,0,1-.45-1.3c-.06-.16-.25,0-.24-.23l.1,0c-.23-.27-.28-.63-.49-.9,0,0,0,0,.06,0s-.1-.24-.15-.22,0,0,0-.07-.14-.13-.1-.19,0,0,0,0-.08-.2-.13-.13c0-.13-.13-.2-.13-.31s-.06-.21-.17-.18c.11,0,0-.24-.09-.28s0-.08.06-.07-.1-.14-.14-.11c0-.21-.24-.25-.13-.41-.17-.21-.32-.41-.46-.61.1,0,.13.23.23.17-.15-.18-.29-.25-.37-.46,0-.06.06,0,.08,0-.15-.18-.2-.39-.35-.54l0,0s0-.09-.07-.06l0,0c0,.09-.21-.06-.25,0,.16,0-.07-.19.15-.19a.07.07,0,0,0-.09,0s0-.06.05,0-.12,0-.18-.15,0,0,.08,0a.28.28,0,0,1-.19-.17s0,0,0,0c-.1-.16-.28-.21-.34-.41.12,0,0-.08.07-.14l-.08-.08V17c-.05-.08-.15-.12-.17-.21l.07,0-.11-.14,0,.11c-.09-.06-.09.07-.14-.05s-.05-.08,0-.15h0a.19.19,0,0,1-.12-.12s.09,0,.1-.06-.14-.18-.24-.18a.09.09,0,0,0,.07,0h-.07s0-.06,0-.07-.07.1-.12-.06h0c-.07-.15-.21-.23-.26-.37s.09.09.13,0a3.78,3.78,0,0,1-.44-.48v0c-.13.05,0-.16-.14-.21s.08,0,.06,0a1.7,1.7,0,0,0-.34-.37h0a2.28,2.28,0,0,0-.14-.27s-.07,0-.09,0c0-.33-.37-.39-.36-.68,0,0,.06,0,0,0l-.13-.16s0,0,0,.1a.19.19,0,0,1-.12-.09c.08.06.08,0,.09-.1l0,0c0-.14-.11,0-.12-.12h0s-.1-.07-.12-.12.06,0,.11,0-.19-.08-.17-.18.06.07.09.09a.19.19,0,0,0,0-.17h0l0-.14v0c-.2,0-.12-.18-.29-.25.16.08.07,0,.14,0s0-.1,0-.1,0-.12-.12-.17,0-.07,0-.08,0,0-.06,0,0-.32-.21-.46-.19-.14-.28-.27.1,0,.1,0a.28.28,0,0,0-.07-.21s0,0,.06,0-.1,0-.09-.1a.34.34,0,0,1,.11,0c0-.06-.11-.12-.15-.19s.07,0,.11,0S21.09,11,21,11V11s.05,0,.07,0,0,.11,0,.12l0,0c-.12.09.08.21.11.31H21l.12.08s-.07.07-.1,0,.06.06,0,.14h0l.05.06s-.07,0-.07,0c0,.16.15.19.09.27h0c.11.17.08,0,.22.09l-.14.16h.08s0,.06,0,.06,0,0,.09,0,.14.23,0,.3c.07,0,0-.1.08,0-.11.08.07.1.05.2s-.08-.09-.09,0,.06.17.11.22.11.13.19.23.07.23.1.35h0c.09,0,.14.09.2.15a.1.1,0,0,1-.12,0l0,.07a.13.13,0,0,1,.1.06l-.07,0c.06.09.18.15.22.29.06,0,.09-.19.21-.08s-.07.06-.11,0,0,0,0,.05l-.08,0c0,.07.06,0,.08,0s0,.05,0,.07,0,0,0-.06a.25.25,0,0,1,0,.17.06.06,0,0,1,.08,0c.06.09,0,.06,0,.13s.05.08.11,0,0,.05,0,.07.15.22.18.12h0c.16.11.18.35.31.48h0c.08.08.15.19.24.23s0,.09,0,.09.09.05.12.17c-.08,0,0,0-.07-.05,0,.1,0,.14.15.2-.07,0,0,.11,0,.14v-.09a.59.59,0,0,1,.09.13l-.08,0c0,.24.37.24.32.47.08,0,0-.12.05-.12s0,.25,0,.27.17,0,.23.18c0,0,.07-.09.15,0s0,.17-.09.13,0,0,0,0-.06-.05-.07,0h0c0,.06.08.18,0,.17s.06,0,0-.05c0,.13.11.17.15.3,0,0,0-.06,0,0,.07.19.09,0,.17.15s-.11,0,0,.13-.06.06-.1,0c.11.08.08.22.11.28l-.05,0a.26.26,0,0,1,.06.08l0-.06s0,.07,0,.08.07-.08.16,0,.11.12,0,.17c-.06-.15-.06.05-.14-.06a.16.16,0,0,1,0,.08h0c0,.17.11,0,.19.15a.06.06,0,0,0,0,.09c0-.06,0-.06.11,0s.08.08.1.13l0-.06s.07,0,.11.1-.05,0-.05,0,0,.19.11.27-.07,0-.07.09,0,.15.11.24c0-.06,0-.06.11,0l-.14-.17.14.08c0-.06-.1-.1-.11-.14s.06,0,.09,0c0,.12.13.13.12.25l-.13.07c0,.16.19.2.25.4v-.07c.06,0,.06.1.11.15s0,.06-.06.1.06.13.16.1l0,.11c0,.15.21.1.26.25-.07,0-.07.06-.15,0s0,.09.07.08.12.1.1.16.08,0,.1,0h0s.07.07.1,0c-.07.21.2.39.14.58a3.11,3.11,0,0,1,.18.3s0,0,0,0c0,.15.16,0,.18.19s-.07-.06-.08,0,.1.17.06.3l0,0c0,.1.14.16.18.28h0a.85.85,0,0,1,.28.31c-.07,0-.05,0-.1,0s.09-.06.15,0,0,.14-.07.17l0-.1c-.06.09.06.13.07.19h0c.08.15.17.11.23.28l0,0c.13.05,0,.1.09.16l-.08.07a2,2,0,0,1,.24.27,1,1,0,0,1-.25-.2c0,.06.09.2.15.21s-.05,0-.05-.07a.42.42,0,0,1,.23.24c-.18.06.09.33,0,.47.15.18.15.42.26.66.1-.14,0,.07.17,0s0,.08,0,.08v.21c0,.06-.05,0-.08,0s0,.08,0,.18.09,0,.1.09l0-.13c.15.14-.05.2.09.34l-.07,0c.06.08.14.33.29.37,0,0,0,.06-.07,0,.07.22.32.43.32.62h0s.09,0,.08.11,0,0,0,0,.11.08.11.14l-.06,0c0,.23.23.28.33.45-.1,0-.07.22,0,.31h0a2.88,2.88,0,0,0,.39.59c-.05.19.15.49.18.74,0,0,.08,0,.11,0s.13.12,0,.15v0c-.08.08,0,.18,0,.26l.13,0c-.09.29.3.56.19.74.05,0,.08.11.13.15l-.07,0a1.79,1.79,0,0,0,.15.41l-.06,0c0,.11.24.06.28.15l-.09.07c.07.18.06.4.22.54a.05.05,0,0,1-.06,0c0,.09.06.36.19.27-.09,0,.06.19.14.27h-.07c.12.05.14,0,.21.15s0,0,0,0,.09,0,.1.17l-.06,0c0,.1.05.08.12.11a.18.18,0,0,1,0,.22.11.11,0,0,1,.11.09s0,0-.05,0c0,.17.16.21.14.34a.05.05,0,0,0,0,0,1.41,1.41,0,0,1-.07-.22c-.06,0,0,.13-.15.08.08.06.23.17.24.28l0,0h0a.09.09,0,0,0,0,.06.29.29,0,0,0,0,.09s0,.13,0,.18.08,0,.11,0,0,0,0,0v0h0l-.05-.12s.09.06.08.13l.13,0c-.07.1-.07.26-.12.3s.16.36.32.41,0,.06,0,.09,0-.05-.05-.06.11.26.2.25-.1,0,0,.11h0c0,.35.4.41.34.81,0,0,0,0,0-.05.05.41.35.76.35,1.18,0,.12.07.11.14.16l-.06,0,.12.08c.11.14-.08.33.1.5l0,0c0,.08.1.22,0,.23s.06,0,0,0h0l.12.16c0,.15-.16,0-.1.23s.18.18.2.14,0-.08,0-.1l0,.06c.11,0,.25,0,.27-.2l-.11-.1,0-.06,0,.1c0-.07,0-.09-.07-.12a.1.1,0,0,0,0-.07l-.14-.08s.1,0,.1-.06-.08.08-.14,0,.08-.07,0-.12a0,0,0,0,1,.07,0c-.05,0-.07-.15-.13-.16s-.08-.19,0-.22a.33.33,0,0,1-.14-.13c.16.06-.06-.2.08-.22-.14,0-.14-.25-.24-.35s0,0,0,0a.39.39,0,0,1,0-.16c-.1,0-.16-.08-.23-.12s.13,0,.2,0-.13-.13-.18-.08,0-.07.07-.13c-.12,0,0-.06-.13-.09s.1-.06,0-.16S32.68,35.32,32.68,35.32Zm-1.13-2.47h0l0,.05Zm-.08-.21,0,.09s0,0-.05,0S31.47,32.67,31.47,32.63Zm-.29.62s0,0,0-.06l0,.06h0Z"/><path class="cls-15" d="M31.3,33.28h0v0h0Z"/><path class="cls-15" d="M22.62,14.69h0Z"/><polygon class="cls-15" points="30.45 29.65 30.44 29.66 30.46 29.67 30.45 29.65"/><path class="cls-15" d="M22.17,13.5a0,0,0,0,0,0,0Z"/><path class="cls-15" d="M21.92,13v-.08A.37.37,0,0,0,21.92,13Z"/><path class="cls-15" d="M21.77,12.65h0Z"/><path class="cls-15" d="M25.31,18.22h0Z"/><path class="cls-15" d="M24.15,16.6l.06,0S24.18,16.58,24.15,16.6Z"/><polygon class="cls-15" points="26.4 20.14 26.39 20.14 26.4 20.16 26.4 20.14"/><path class="cls-15" d="M24.26,16.72a.12.12,0,0,0,0-.08A.19.19,0,0,0,24.26,16.72Z"/><polygon class="cls-15" points="21.17 10.99 21.17 10.97 21.16 10.97 21.17 10.99"/><path class="cls-15" d="M21.16,11v0S21.15,11,21.16,11Z"/><path class="cls-15" d="M21.11,10.91l0,0S21.14,10.92,21.11,10.91Z"/><path class="cls-15" d="M21.29,11.51h0Z"/><path class="cls-15" d="M21.36,11.67s0-.11,0-.16h0S21.3,11.65,21.36,11.67Z"/><path class="cls-15" d="M21.32,12.43l0-.14s0,.08-.07,0C21.22,12.51,21.26,12.25,21.32,12.43Z"/><path class="cls-15" d="M21.48,12.84c0-.06,0,0-.05,0S21.48,12.9,21.48,12.84Z"/><path class="cls-15" d="M23.12,15.54l-.06,0S23.08,15.56,23.12,15.54Z"/><polygon class="cls-15" points="23.73 15.85 23.73 15.78 23.67 15.79 23.73 15.85"/><polygon class="cls-15" points="23.55 16.4 23.53 16.38 23.6 16.45 23.55 16.4"/><path class="cls-15" d="M26.1,21l.06,0S26.05,20.91,26.1,21Z"/><path class="cls-15" d="M27.11,23a.09.09,0,0,0,0,.13S27.13,23,27.11,23Z"/><polygon class="cls-15" points="29.64 29.33 29.6 29.3 29.65 29.37 29.64 29.33"/><path class="cls-15" d="M19.82,28.74s-.05,0,0,.06l.07,0Z"/><path class="cls-15" d="M19.82,29a.24.24,0,0,0,.16-.11c-.07,0-.06,0-.14.06s0,0,0-.07,0,0-.06,0,0,.1.07.08S19.84,29,19.82,29Z"/><path class="cls-15" d="M21.62,30.43v0Z"/><path class="cls-15" d="M22.82,31.2h0Z"/><path class="cls-15" d="M23,31.41h0S23,31.41,23,31.41Z"/><path class="cls-15" d="M21.62,30.43l0,0S21.63,30.45,21.62,30.43Z"/><path class="cls-15" d="M20.19,29h0Z"/><polygon class="cls-15" points="21.04 30.15 21.03 30.14 21.01 30.16 21.04 30.15"/><path class="cls-15" d="M20.63,29.88s.05,0,.07-.07l0,0Z"/><path class="cls-15" d="M20.09,29.31h0Z"/><path class="cls-15" d="M21.33,30.35v0Z"/><path class="cls-15" d="M32.53,37.68h0Z"/><polygon class="cls-15" points="32.98 37.89 32.97 37.9 33 37.92 32.98 37.89"/><path class="cls-15" d="M23.31,31.71h0S23.31,31.72,23.31,31.71Z"/><path class="cls-15" d="M26.67,34c0-.08.11,0,.1-.12S26.65,34,26.67,34Z"/><path class="cls-15" d="M20.19,29h0Z"/><polygon class="cls-15" points="26.77 33.91 26.77 33.91 26.76 33.9 26.77 33.91"/><path class="cls-15" d="M24.19,32.24v0Z"/><path class="cls-15" d="M23.61,31.73v0Z"/><path class="cls-15" d="M24.57,32.38s0,0,0,0h0S24.58,32.39,24.57,32.38Z"/><polygon class="cls-15" points="24.91 32.61 24.91 32.6 24.9 32.59 24.91 32.61"/><path class="cls-15" d="M31.55,37.14l0,.06S31.61,37.18,31.55,37.14Z"/><path class="cls-15" d="M20.17,29.05l0,0h0Z"/><path class="cls-15" d="M24.9,31.93l0,0Z"/><path class="cls-15" d="M29.22,35.3h0Z"/><path class="cls-15" d="M25.12,32.08a.12.12,0,0,0,0,.06h0Z"/><path class="cls-15" d="M31.52,37.2h0Z"/><path class="cls-15" d="M32,37.31s-.07.06-.11.1,0-.07,0-.13-.13,0-.15,0,0,0,0,0-.11-.08-.22,0v0a.53.53,0,0,1-.07.11s-.08,0,0,0,0,0,0,0h0c0-.08,0,0,.09,0s-.16,0-.18,0,.1,0,.1-.05l0,.07c0-.14,0,0,.08-.11s-.1,0-.16-.1,0,.06-.08.08.06-.23-.09-.2-.13.11-.15,0l.08-.06c-.06-.06-.13.08-.16,0s.07,0,.07,0-.07,0-.1,0l0-.07c-.08,0-.2-.06-.29-.11s.05,0,0-.06a.61.61,0,0,1-.28-.3l-.08,0s0,0,0,0,0,0-.07,0,0-.06,0-.06-.27,0-.3-.17h0c0-.07-.16.07-.16,0h0c-.1-.12-.27-.17-.3-.33-.08.07-.09-.13-.19,0,0-.11,0-.12-.05-.23s-.1,0-.14,0l0-.06-.09,0,0-.09h0a.06.06,0,0,1,0,.06c-.07,0-.08-.13-.06-.16l-.15,0s0,0,.07,0,0-.07-.06-.06,0,0,0,0-.06-.11-.12-.13l0,0a3.21,3.21,0,0,0-.28-.19s0,.11-.08.1l0-.07s0,0-.06.07,0-.09.07-.1h-.06l.05,0s0-.12-.1-.07v0c-.09-.07-.15-.08-.23-.14s-.06,0-.12,0-.07-.15-.14-.2-.05,0-.1.05,0-.1,0-.11a.69.69,0,0,0-.24-.11s0,0,0,.06,0-.05,0-.08h0c-.17,0-.15-.35-.32-.32h0l-.14,0s.06,0,0-.07c-.17,0-.15-.14-.28-.14.05-.2-.24-.17-.25-.33l0,0s0,0,0-.06,0,.05,0,.06c-.23-.1-.36-.35-.54-.53s-.18.15-.21,0l.08,0c-.21,0-.3-.22-.5-.26,0,0,0,0,0,0s-.11-.08-.14,0,0,0,0-.07-.12,0-.1-.05h0s-.09-.07-.11,0-.12,0-.14-.11-.07-.1-.15,0c.07-.09,0-.14-.11-.12s0-.05,0-.08-.09,0-.12,0c0-.16-.21,0-.16-.18a2.41,2.41,0,0,1-.41-.12c.07-.09.13.07.19,0-.13,0-.24,0-.33-.08s0,0,.06,0-.2-.14-.32-.15h0s0,0-.06,0h0c0,.08-.16.08-.18.12s-.07-.09.08-.21a.07.07,0,0,0-.06,0s0,0,0-.06-.09,0-.15,0l.05,0c-.06,0-.11,0-.15,0s0,0,0,0-.22,0-.29-.08c.08-.08,0,0,0-.13h-.07V31s-.12,0-.14,0h.05l-.09,0,0,.06c-.07,0-.06.1-.1,0s0,0,0-.09h0s-.08,0-.1,0,.06-.08.06-.11-.12,0-.19,0a.16.16,0,0,0,0-.06l-.05,0s0,0,0-.07,0,.11-.09,0h0c-.06-.07-.16-.05-.22-.12s.07,0,.09-.07-.26,0-.35-.1v0c-.08.11,0-.1-.12-.07s.05-.05,0,0-.15-.05-.27-.08l0,0s-.09-.08-.12-.11-.05,0-.06.05c0-.24-.3-.06-.32-.27,0,0,0,0,0,0l-.11,0c0,.05,0,0,0,.09a.09.09,0,0,1-.1,0c.06,0,.05-.08.05-.12l0,0c0-.12-.07.09-.1,0l0,0s-.08,0-.1,0,0,0,.08-.05-.15.05-.14,0H21c0-.09,0-.08,0-.11h0l0-.07v0c-.15.11-.11,0-.24,0,.12,0,0,0,.1-.1s0-.07,0-.08,0-.07-.11,0,0,0,0-.07,0,0,0,.06-.07-.18-.22-.16-.16,0-.25,0,.07-.05.07-.05a.09.09,0,0,0-.09-.08s0,0,0-.06-.08.05-.09,0l.09-.05H20s.06,0,.09,0-.12-.05-.17,0v0s0,0,0,0S20,29,20,29h0c-.07.13.11.06.14.11l-.09.06.1,0s0,.08-.07.07.05,0,0,.06h0s0,.06-.05,0,.14,0,.12.1h0c.11,0,.06-.05.17-.07l-.07.18.06-.05a0,0,0,0,1,0,0c.06,0,0,0,.06-.06s.13.06.07.17,0-.07.06-.06.07,0,.07.1-.07,0-.06.07c.09-.07.06.08.11.08s.09,0,.17,0,.08.11.11.18h0c.06-.07.11,0,.16,0s-.05.06-.09.06l0,0a.08.08,0,0,1,.08,0l0,.05c.05,0,.15,0,.18.08s0-.18.14-.18,0,.08-.07.08,0,0,0,0l-.06,0s0,0,.06,0,0,0,0,.07,0,0,0,0a.13.13,0,0,1,0,.11s0-.06.06,0,0,.06,0,.1,0,0,.08,0,0,0,0,.06.13.07.14,0h0c.12,0,.16.14.26.17v0c.07,0,.12.05.19,0s0,.06,0,.08.07,0,.1.05,0,0-.06,0,0,.09.12.06a0,0,0,0,0,0,.09v-.06a.18.18,0,0,1,.07,0l-.06.06c.05.15.28,0,.27.16.06,0,0-.07,0-.11s0,.17,0,.18.12-.07.18,0,0-.1.1-.1,0,.14,0,.14a0,0,0,0,1,0,0s0,0,0,0l0,0s.07.08,0,.11,0,0,0-.06.09.06.14.12,0-.06,0,0,.07,0,.14,0-.07.08,0,.09,0,.07-.06.08.09.1.11.13h0l.05,0v-.06s0,0,0,0,0-.09.1-.12.09,0,.05.09,0,.07-.1,0a0,0,0,0,1,0,0h0c0,.1.08-.06.15,0s0,.08,0,.08,0-.07.07-.08.06,0,.09,0l0,0s.05,0,.09,0,0,0,0,0,0,.12.12.11,0,.07,0,.1,0,.09.11.09,0-.05.08-.07l-.12,0,.11,0s-.08,0-.09,0,0,0,.06-.06c0,.1.11,0,.12.09l-.08.12c0,.1.16,0,.23.11v0s.06,0,.1,0a.16.16,0,0,0,0,.1s.06,0,.13,0v.08c.06.07.16-.06.22,0s0,.08-.11.08,0,0,.06,0,.1,0,.1,0,.05-.05.08,0v0s.06,0,.07-.06c0,.18.2.13.19.28l.17.08s0,0,0,0,.12-.09.16,0-.06,0-.06,0,.1,0,.09.15h0c0,.07.12,0,.18.07v0a.35.35,0,0,1,.25,0c-.06,0,0,0-.07.07s.05-.09.12-.07a.27.27,0,0,1,0,.15l0,0c0,.09.06,0,.08.07l0,0c.08,0,.14,0,.21,0v0c.1,0,0,.07.09,0l0,.09a.81.81,0,0,1,.22,0,.57.57,0,0,1-.22,0s.1.07.14,0,0,0,0,0a.18.18,0,0,1,.2,0c-.13.15.12.15.07.3.14,0,.17.17.29.25.05-.15,0,0,.12-.1s0,0,0,0l0,.13s0,0-.06,0,0,.07,0,.13.07,0,.09,0v-.09c.13,0,0,.16.12.15l-.06,0c.06,0,.15.12.27.05s0,.06,0,.05.3.07.33.19l0,0s.08,0,.08,0,0,0,0,0,.09,0,.1,0l0,0c.07.11.21,0,.31.08a.18.18,0,0,0,0,.22h0c.1.1.25.08.38.13s.19.21.25.35c0,0,.06-.07.08-.06s.11,0,0,.07h0c0,.09,0,.11.06.14l.09-.1c0,.23.31.16.26.34,0,0,.08,0,.12,0l0,.05a.53.53,0,0,0,.18.16l0,0s.19-.11.23-.08l-.05.09c.08.06.11.2.25.19,0,0,0,0,0,0s.11.18.18.05c-.06.07.08.08.15.08l-.05,0c.09,0,.11-.06.18,0s0,.05,0,0,.07,0,.1,0l0,0s.05,0,.11,0,.07.08,0,.13.09,0,.1,0a.05.05,0,0,1,0,0c0,.09.16,0,.16.11a.08.08,0,0,0,0,0l-.09-.09c0,.05,0,.1-.09.14.07,0,.2,0,.22,0v0h0s0,0,0,0a.1.1,0,0,0,0,0s0,.06.06.08.06,0,.07-.09h0l-.06,0s.08,0,.08,0l.1-.06c0,.1,0,.19,0,.25s.18.11.31,0,0,0,0,.07,0,0-.05,0,.13.09.19,0-.08,0,0,.09h0c0,.23.37,0,.41.26a0,0,0,0,1,0,0c.14.2.42.2.56.42,0,.05.08,0,.14,0l0,.08.1-.05c.1,0,.11.24.28.14v-.05s.15,0,.15,0,0-.06,0,0v0a.44.44,0,0,0,.11-.1c.1,0,0,.16.21.08s.05-.21,0-.21a.07.07,0,0,1-.09,0l0,0a.94.94,0,0,0-.26-.19.24.24,0,0,1,0,.07l0,0h0s0,0,0,0l0-.05a.28.28,0,0,1,0,.11.38.38,0,0,0,0-.11c0,.05,0,.1,0,.14s0-.09,0,0a.11.11,0,0,1,0-.06s0,0-.06.07-.09,0-.06-.11-.06.08-.09.07-.09,0,0-.17c-.08.09-.13,0-.22,0h0s0-.06,0-.09-.11.07-.17.11.08-.08.12-.17c0,.07-.11,0-.13.09s0,0,0-.12c-.07.1,0,0-.11,0s.05-.1,0-.1S32,37.31,32,37.31Zm-1.26-.72h0l0,0Zm-.1-.08,0,0s0,0,0,0S30.6,36.55,30.59,36.52Zm-.1.54s0,0,0,0h0Z"/><polygon class="cls-15" points="30.58 37.01 30.59 37.02 30.59 36.99 30.57 37.01 30.58 37.01"/><polygon class="cls-15" points="21.61 30.41 21.61 30.41 21.61 30.4 21.61 30.41"/><polygon class="cls-15" points="29.35 35.36 29.34 35.37 29.35 35.36 29.35 35.36"/><path class="cls-15" d="M21.16,29.84a0,0,0,0,0,0,0Z"/><path class="cls-15" d="M20.93,29.67l0,0Z"/><polygon class="cls-15" points="20.77 29.51 20.75 29.53 20.75 29.54 20.77 29.51"/><path class="cls-15" d="M23.85,31.33h0Z"/><path class="cls-15" d="M22.85,30.91h0S22.87,30.87,22.85,30.91Z"/><polygon class="cls-15" points="24.9 31.93 24.9 31.93 24.9 31.93 24.9 31.93"/><path class="cls-15" d="M22.94,30.92a0,0,0,0,0,0,0S22.92,30.92,22.94,30.92Z"/><polygon class="cls-15" points="20.05 28.89 20.04 28.88 20.03 28.89 20.05 28.89"/><path class="cls-15" d="M20,28.89h0Z"/><path class="cls-15" d="M20,28.88h0S20,28.87,20,28.88Z"/><path class="cls-15" d="M20.25,29.1l0,0Z"/><path class="cls-15" d="M20.32,29.16s0-.08,0-.08h0S20.28,29.18,20.32,29.16Z"/><path class="cls-15" d="M20.42,29.64l0-.06s0,.07,0,.05S20.35,29.57,20.42,29.64Z"/><path class="cls-15" d="M20.59,29.81s0,0,0,0S20.6,29.85,20.59,29.81Z"/><path class="cls-15" d="M22,30.73l0,.05S22,30.77,22,30.73Z"/><polygon class="cls-15" points="22.48 30.62 22.48 30.57 22.44 30.61 22.48 30.62"/><polygon class="cls-15" points="22.42 31.11 22.4 31.11 22.46 31.11 22.42 31.11"/><path class="cls-15" d="M24.82,32.62l0-.07S24.77,32.62,24.82,32.62Z"/><path class="cls-15" d="M25.86,33.28s0,.08,0,.06S25.88,33.28,25.86,33.28Z"/><polygon class="cls-15" points="28.7 35.65 28.66 35.65 28.71 35.66 28.7 35.65"/><path class="cls-15" d="M21.48,36s-.07,0-.05,0h.08Z"/><path class="cls-15" d="M21.37,36.17a.26.26,0,0,0,.19,0c-.08,0-.05,0-.15,0s0,0,0,0,0,0,0,0,0,.08,0,.1Z"/><path class="cls-15" d="M22.24,38.11v0A0,0,0,0,0,22.24,38.11Z"/><path class="cls-15" d="M23.4,38.82h0Z"/><path class="cls-15" d="M23.59,39h0Z"/><path class="cls-15" d="M22.24,38.11v0S22.25,38.13,22.24,38.11Z"/><path class="cls-15" d="M21.64,36.39h0Z"/><path class="cls-15" d="M21.8,37.69h0Z"/><path class="cls-15" d="M21.55,37.29s.07,0,.1,0H21.6Z"/><path class="cls-15" d="M21.4,36.57h0Z"/><path class="cls-15" d="M22,38l0,0Z"/><path class="cls-15" d="M34,41h0A0,0,0,0,0,34,41Z"/><polygon class="cls-15" points="34.48 41.42 34.47 41.42 34.46 41.46 34.48 41.42"/><path class="cls-15" d="M24,39.18h0S24,39.19,24,39.18Z"/><path class="cls-15" d="M27.62,40.12c0-.07.09-.06,0-.14S27.58,40.07,27.62,40.12Z"/><path class="cls-15" d="M21.63,36.4v0Z"/><polygon class="cls-15" points="27.67 39.98 27.67 39.98 27.66 39.97 27.67 39.98"/><path class="cls-15" d="M24.9,39.39a.12.12,0,0,0,0,0A.08.08,0,0,0,24.9,39.39Z"/><path class="cls-15" d="M24.24,39.11h0Z"/><path class="cls-15" d="M25.28,39.39s0,0,0,0h0S25.28,39.41,25.28,39.39Z"/><polygon class="cls-15" points="25.64 39.49 25.64 39.48 25.63 39.48 25.64 39.49"/><path class="cls-15" d="M32.88,40.86a.32.32,0,0,1,0,.07C32.89,40.88,32.95,40.87,32.88,40.86Z"/><path class="cls-15" d="M21.6,36.4h0Z"/><path class="cls-15" d="M25.44,38.86l.06,0Z"/><path class="cls-15" d="M30.25,40.23h0Z"/><path class="cls-15" d="M25.67,38.92a.12.12,0,0,0,0,.06v0Z"/><path class="cls-15" d="M32.89,40.93h0Z"/><path class="cls-15" d="M33.3,40.83c-.06,0,0,.08-.06.13s0-.07,0-.12-.09.09-.12.09,0,0,0,0-.13,0-.2.06v0a.57.57,0,0,1,0,.13s-.06,0-.06,0,0,0,0,0l0,0c0-.09,0,0,.05-.09s-.13.08-.17,0,.1,0,.06-.09l.05,0c0-.14,0,0,0-.13s-.1,0-.17,0,0,.07,0,.11,0-.23-.15-.13-.06.15-.11.09l0-.09c-.07,0-.07.13-.14,0s.07,0,.06,0,0,0-.09,0v-.08c-.08,0-.19,0-.28,0s0,0,0-.08a.5.5,0,0,1-.34-.14l-.06.06s0,0,0,0,0,0,0,.07,0,0,0-.07-.25.08-.31,0l0,0c-.05,0-.11.13-.15,0h0c-.13-.07-.29,0-.37-.17,0,.1-.12-.08-.17.06-.06-.09,0-.11-.13-.19s-.07.08-.11.08l0-.07-.07.06v-.1h0a.06.06,0,0,1,0,.06c-.06,0-.11-.09-.11-.12l-.14,0s0,0,.06,0,0-.08-.07,0,0,0,0,.06a.13.13,0,0,0-.14-.07l0,0a2.76,2.76,0,0,0-.3-.06s0,.12,0,.12V40s0,0,0,.09,0-.1,0-.12h-.05s0,0,0-.06-.06-.1-.11,0v0c-.1,0-.16,0-.24,0s0,0-.09.09-.11-.11-.19-.12,0,.05-.07.09-.06-.08,0-.11a.59.59,0,0,0-.24,0s0,0,0,.06,0,0,0-.07h0c-.15.06-.24-.26-.38-.16h0l-.12,0s0,0,0-.09-.17-.06-.29,0c0-.2-.26-.06-.33-.2v0s0,0,0,0,0,0,0,.07a1.75,1.75,0,0,1-.63-.28c-.08,0-.11.21-.18.08l.05-.07c-.19.05-.33-.09-.51-.05,0,0,0,0,0,0s-.12,0-.14,0,0,0,0-.07-.1.05-.11,0,0,0,0,0-.1,0-.1,0-.12,0-.16-.05-.09-.06-.13,0c0-.11-.08-.12-.13-.08s0,0,0-.08-.09,0-.1.06c0-.15-.19.06-.19-.12a1.84,1.84,0,0,1-.39,0c0-.11.13,0,.16-.09s-.21.09-.31,0,0,0,0-.06-.21-.07-.32,0l0,0s0,0-.05,0h0c0,.08-.12.13-.13.17.07-.13-.09-.06,0-.23a.08.08,0,0,0,0,.06s0,0,0-.07-.07.07-.13,0,0,0,0-.06-.09.08-.13,0,0,0,0,0-.19.08-.27,0,0,0,0-.13h-.06v0s-.1,0-.13,0l0,0h-.09l0,0c-.06,0,0,.11-.09.07s0,0,0-.08h0s-.07,0-.09,0,0-.09,0-.11-.11,0-.17,0a.17.17,0,0,0,0-.07l0,.05s0,0,0-.07,0,.12-.08,0l0,0c-.06-.06-.15,0-.2-.09s.06,0,.08-.07-.24,0-.3-.08v0c-.09.1,0-.09-.1-.07s.06-.05,0,0-.12-.05-.23-.09l0,0s-.06-.08-.08-.12,0,0-.07,0c.06-.22-.25-.12-.19-.32,0,0,0,0,0,0l-.08-.06s0,0,0,.07a.09.09,0,0,1-.09,0c.06,0,.08-.05.09-.08l0,0c.06-.1-.1.05-.08,0h0s-.08,0-.08,0,0,0,.09,0-.15,0-.11-.07l.06,0c0-.07,0-.07,0-.1h0v-.05c-.18,0-.08-.08-.21-.09.13,0,.06,0,.13,0s0-.06,0-.06,0-.07-.08-.07,0,0,0,0,0,0-.06,0,0-.18-.1-.22-.15,0-.22-.11.09,0,.09,0a.08.08,0,0,0,0-.11s0,0,.06,0-.09,0-.07,0h.1l-.12-.08s.07,0,.1,0-.07-.1-.14-.09l0,0s.05,0,.07,0,0,.06,0,.07l0,0c-.13.07.05.1.06.15h-.11l.1,0s-.07,0-.1,0,0,0,0,.07h0l0,0s-.07,0-.06,0,.11.08,0,.13h0c.07.08.07,0,.18,0l-.16.11.07,0a0,0,0,0,1,0,0c.06,0,0,0,.08,0s.08.11,0,.17c.06,0,0-.06.08,0-.11.07,0,0,0,.11s-.05,0-.09,0c.11,0,0,.09.05.12s.07.06.13.1,0,.13,0,.2h0c.09,0,.1,0,.14.05a.12.12,0,0,1-.1,0l0,0a.08.08,0,0,1,.07,0l-.06,0s.13,0,.14.13.11-.15.18-.12-.07.06-.09.06,0,0,0,0H22s0,0,.06,0,0,0,0,.06,0,0,0,0A.13.13,0,0,1,22,38s.05,0,.07,0,0,.05,0,.1,0,0,.09,0,0,0,0,.06.11.09.14,0h0c.12,0,.12.17.22.2v0c.06,0,.11.06.18,0s0,.06,0,.08.07,0,.1.05,0,0-.05,0,0,.09.12.06a0,0,0,0,0,0,.09v-.06a.18.18,0,0,1,.07,0l-.05.07c.07.15.26-.06.28.12.05,0,0-.06,0-.11s.05.16.07.17.11-.09.17,0,0-.11.08-.12,0,.14,0,.15a0,0,0,0,1,0,0s0,0,0,0l0,0s.08.06.05.1,0,0,0-.06.1,0,.16.08,0-.06,0-.05.06,0,.13,0,0,.1,0,.08,0,.08,0,.1.1.07.13.09h0v-.06s0,0,0,0,0-.1.06-.14.08,0,.07.07,0,.08-.08.07a0,0,0,0,1,0,0v0c.06.09.06-.08.13-.05s0,.09,0,.08,0-.08,0-.1.06,0,.08,0l0,0s0,0,.08,0,0,0,0,0,.06.1.13.06,0,.08,0,.11,0,.08.12,0,0,0,0-.09h-.11l.09-.07s-.07,0-.09,0,0,0,0-.08.1,0,.13,0l0,.14c.06.08.15,0,.24,0l0,0c0-.05.06,0,.1,0a.17.17,0,0,0,0,.1s.07,0,.1-.07l0,.07c.07,0,.12-.11.19-.08s0,.09-.07.11,0,0,.05,0,.09,0,.1,0,0-.07.06-.06a.06.06,0,0,1,0,0s.05,0,0-.08c0,.17.22,0,.25.19h.18s0,0,0,0,.08-.13.14-.06-.05,0,0,.07.1,0,.13.11h0c0,.06.11,0,.17,0a.06.06,0,0,0,0,0,.32.32,0,0,1,.22-.08c0,.06,0,0,0,.09s0-.1.08-.1a.28.28,0,0,1,0,.15h-.05c0,.09.07,0,.09,0v0c.08,0,.11-.08.2-.05v0c.07-.08,0,.06.09,0v.1a.76.76,0,0,1,.19-.07.55.55,0,0,1-.18.11s.11,0,.14,0,0,0,0,0a.17.17,0,0,1,.18-.07c-.06.18.15.09.15.25.13,0,.21.09.34.11,0-.16,0,0,.07-.14s0,0,0,0l.07.11s0,0,0,.06,0,.07,0,.12,0-.07.07,0l0-.08c.11-.05,0,.14.16.09l0,0c.05,0,.17,0,.25-.06s0,.06,0,.07.28-.06.35,0l0,0s.05-.06.07,0,0,0,0,0,.07,0,.09,0l0,0c.1.08.19-.05.29-.05a.17.17,0,0,0,.09.19h0c.12,0,.24,0,.37,0s.23.12.33.21,0-.08,0-.09.1-.05.07,0h0c0,.1.06.09.1.11l0-.13c.07.22.32,0,.34.2,0,0,.07,0,.11,0l0,.07a.45.45,0,0,0,.21.07l0,0c.05,0,.12-.18.17-.17v.11c.09,0,.17.14.28.07s0,0,0,0,.15.11.17,0c0,.09.1,0,.16,0l0,.07c.07-.08.07-.1.14-.11s0,.06,0,0,.05-.05.1,0l0,0s0,0,.09-.05.09,0,.08.1.05-.08.08-.05a.06.06,0,0,1,0,0c.07.07.14,0,.18,0a.08.08,0,0,0,0,0l-.11,0c0,.06,0,.09,0,.16s.15-.12.2-.08v0h0l0,0c0,.05.05,0,.08.05s0-.05,0-.11h-.1s.06-.05.08,0l.06-.1c0,.1.07.17.07.23s.2,0,.27-.1,0,0,0,.06,0,0,0,0,.14,0,.17-.07,0,.08,0,.08l0,0c.13.18.3-.18.44,0a0,0,0,0,1,0,0c.19.12.42,0,.6.16s.07,0,.11-.06v.08l.07-.08c.09-.05.12.2.24.1v-.05s.12,0,.11,0,0-.05,0,0v0l.1-.06c.07,0,0,.15.08.17s.12-.1.11-.13a.06.06,0,0,1,0-.07l0,0c0-.12.06-.23,0-.32l-.07.06V41.1h.05c0-.06,0,0-.07,0a.11.11,0,0,0,0-.06l-.07.1s0-.09,0-.12,0,.1,0,.13,0-.1,0-.06a.07.07,0,0,1,0-.06s-.08,0-.1.06-.1,0-.09-.1-.06.08-.09.08-.1,0-.07-.16c-.05.11-.14,0-.22.09s0,0,0,0,0-.05-.06-.08-.08.11-.12.16c0-.1,0-.11,0-.2,0,.08-.09.07-.09.13a.19.19,0,0,1,0-.12c0,.12,0,0-.08.08s0-.12-.05-.09S33.3,40.83,33.3,40.83ZM32,40.77h0Zm-.11,0h0s0,0,0,0S31.86,40.77,31.85,40.75Zm.12.53s0,0,0,0h0Z"/><polygon class="cls-15" points="32.02 41.19 32.03 41.19 32.02 41.17 32.01 41.19 32.02 41.19"/><polygon class="cls-15" points="22.24 38.09 22.24 38.1 22.24 38.09 22.24 38.09"/><polygon class="cls-15" points="30.38 40.23 30.37 40.25 30.39 40.24 30.38 40.23"/><path class="cls-15" d="M22,37.46v0Z"/><path class="cls-15" d="M21.92,37.23v0A.12.12,0,0,0,21.92,37.23Z"/><path class="cls-15" d="M21.86,37h0Z"/><path class="cls-15" d="M24.35,38.65h0Z"/><path class="cls-15" d="M23.38,38.53l0,0S23.4,38.49,23.38,38.53Z"/><polygon class="cls-15" points="25.43 38.86 25.43 38.86 25.43 38.86 25.43 38.86"/><path class="cls-15" d="M23.46,38.53a0,0,0,0,0,0,0S23.45,38.53,23.46,38.53Z"/><polygon class="cls-15" points="21.59 36.22 21.59 36.21 21.58 36.21 21.59 36.22"/><path class="cls-15" d="M21.58,36.21h0Z"/><path class="cls-15" d="M21.55,36.18l0,0S21.57,36.18,21.55,36.18Z"/><path class="cls-15" d="M21.64,36.48h0Z"/><path class="cls-15" d="M21.67,36.56s0-.06,0-.08h0S21.63,36.55,21.67,36.56Z"/><path class="cls-15" d="M21.5,37v-.07s0,.05-.07,0S21.47,36.9,21.5,37Z"/><path class="cls-15" d="M21.55,37.21s0,0-.05,0S21.54,37.25,21.55,37.21Z"/><path class="cls-15" d="M22.61,38.45l0,.05S22.59,38.48,22.61,38.45Z"/><polygon class="cls-15" points="23.03 38.31 23.03 38.26 22.99 38.31 23.03 38.31"/><polygon class="cls-15" points="23 38.8 22.98 38.8 23.04 38.8 23 38.8"/><path class="cls-15" d="M25.56,39.53v-.08S25.52,39.55,25.56,39.53Z"/><path class="cls-15" d="M26.68,39.75s0,.07.05,0S26.69,39.75,26.68,39.75Z"/><polygon class="cls-15" points="29.92 40.77 29.89 40.78 29.94 40.77 29.92 40.77"/><g class="cls-16"><polyline class="cls-17" points="23.15 55.16 24.22 54.54 22.83 55.45 24.83 54.29 21.94 56.39 26.48 53.77 21.3 57.36 28.14 53.42 21.32 57.44 28.37 53.38 25.79 55.57 29.89 53.2 28.86 54.77 31.67 53.15 31.03 54.58 33.39 53.22 32.84 54.66 34.93 53.45 33.95 54.76 35.9 53.64 34.12 54.78 36.04 53.67 34.27 54.82 36.19 53.72 35.22 55.04 37.08 53.96 36.46 55.35 38.28 54.3 37.63 55.79 39.39 54.77 38.3 56.03 40.02 55.04 38.64 56.17 40.35 55.18 39.51 56.62 41.26 55.6 40.48 57.12 42.13 56.17 41.13 57.47 42.72 56.55 41.76 57.91 43.29 57.02 42.31 58.27 43.75 57.44 42.86 58.65 44.23 57.87 43.57 59.14 44.82 58.42 43.82 59.35 45.03 58.65 44.02 59.53 45.21 58.85 44.85 60.24 45.91 59.62 45.61 60.89 46.56 60.34 45.94 61.17 46.82 60.67 46.11 61.32 46.95 60.83 46.34 61.55 47.15 61.08 46.59 61.82 47.38 61.36 47.27 62.53 47.98 62.12 47.41 62.68 48.1 62.28 47.62 62.9 48.29 62.52 48.18 63.49 48.75 63.16 48.7 64.03 49.18 63.76 49.3 64.76 49.72 64.51 49.85 65.47 50.23 65.25 50.22 65.93 50.56 65.74 50.48 66.27 50.79 66.09 50.76 66.61 51.03 66.45 51.24 67.22 51.45 67.1 51.35 67.37 51.55 67.25 51.91 68.15 52.06 68.06 52.23 68.64 52.37 68.56 52.66 69.29 52.77 69.23 52.82 69.52 52.91 69.46 53.13 69.99 53.2 69.95 53.4 70.41 53.45 70.38 53.88 71.13 53.88 71.12"/></g><g class="cls-18"><polyline class="cls-17" points="61.63 36.83 61.72 36.78 61.3 37.42 61.76 37.15 60.65 38.54 61.81 37.87 60.11 39.47 61.65 38.58 59.94 39.74 61.53 38.83 58.86 41.55 60.52 40.59 58.7 41.8 60.36 40.84 58.02 42.9 59.66 41.95 56.89 44.69 58.47 43.78 56.24 45.68 57.81 44.77 55.16 47.31 56.71 46.41 54.97 47.59 56.51 46.7 54.07 48.89 55.63 47.99 53.66 49.47 55.25 48.55 52.4 51.23 54.06 50.27 52.11 51.64 53.78 50.67 50.93 53.16 52.81 52.07 50.14 54.16 52.17 52.99 49.51 54.95 51.66 53.71 47.59 57.13 50.4 55.51 46.38 58.62 49.46 56.84 46.79 59.13 48.56 58.11 47.34 59.76 47.46 59.69"/></g><g class="cls-19"><polyline class="cls-17" points="2.22 38.3 2.31 38.25 2.15 38.49 2.38 38.36 2.12 38.6 2.42 38.42 2 39.12 2.65 38.74 2.27 39.8 3.07 39.33 2.62 40.38 3.47 39.89 2.79 40.65 3.66 40.15 3.12 41.13 4 40.62 3.18 41.23 4.07 40.72 3.73 42.02 4.64 41.49 4.12 42.54 5.02 42.02 4.45 42.99 5.35 42.47 4.9 43.6 5.8 43.08 5.39 44.24 6.29 43.72 5.53 44.42 6.42 43.9 5.98 45.02 6.87 44.51 6.1 45.17 6.99 44.66 6.51 45.69 7.39 45.18 6.56 45.76 7.44 45.25 6.61 45.83 7.49 45.32 7.03 46.36 7.9 45.85 7.15 46.51 8.02 46.01 7.62 47.11 8.48 46.61 8.28 47.95 9.14 47.45 8.55 48.29 9.41 47.79 8.96 48.8 9.81 48.31 9.25 49.17 10.1 48.67 9.56 49.55 10.41 49.06 10.14 50.26 10.99 49.77 10.57 50.8 11.43 50.3 11.07 51.41 11.93 50.92 11.43 51.85 12.29 51.35 11.76 52.26 12.64 51.75 12.36 52.99 13.26 52.47 12.7 53.41 13.61 52.88 13.26 54.09 14.21 53.54 13.76 54.7 14.76 54.13 14.37 55.44 15.42 54.84 14.54 55.65 15.62 55.03 15.07 56.29 16.24 55.62 15.54 56.85 16.79 56.13 15.78 57.15 17.09 56.39 15.99 57.39 17.37 56.59 16.35 57.83 17.88 56.95 16.86 58.44 17.13 58.29"/></g></g></g></svg>