<svg xmlns="http://www.w3.org/2000/svg" viewBox="0 0 37.98 37.25"><defs><style>.cls-1{fill:#2053c7;}</style></defs><title>feuille_1</title><g id="Calque_2" data-name="Calque 2"><g id="Calque_2-2" data-name="Calque 2"><path class="cls-1" d="M14.14,30.39c-.12,0-.26.11-.09.31l.38,0Z"/><path class="cls-1" d="M14.51,32.15c.29.17.71.31.87,0-.42-.08-.35-.21-.84-.28-.17-.19-.14-.43,0-.46-.12,0-.14-.37-.39-.37a1.06,1.06,0,0,0,.57,1C14.69,32.17,14.57,32.14,14.51,32.15Z"/><path class="cls-1" d="M26.55,31.33l.12.1A.43.43,0,0,0,26.55,31.33Z"/><path class="cls-1" d="M30.45,27.16c-.06,0,0,.06,0,.08S30.5,27.17,30.45,27.16Z"/><path class="cls-1" d="M32.46,26.75l-.15,0C32.38,26.8,32.44,26.79,32.46,26.75Z"/><path class="cls-1" d="M26.55,31.33l-.31-.26C26.17,31.15,26.39,31.22,26.55,31.33Z"/><path class="cls-1" d="M17,34.6a.63.63,0,0,0-.19-.14l.14.16Z"/><path class="cls-1" d="M23.29,33.81h-.13l-.11.14Z"/><path class="cls-1" d="M19.86,32.63c0-.09-.3,0-.43,0a.37.37,0,0,1,.26.15A.52.52,0,0,0,19.86,32.63Z"/><path class="cls-1" d="M16.88,35.57s.08,0,0,0S16.89,35.58,16.88,35.57Z"/><path class="cls-1" d="M27.09,33.34a.22.22,0,0,0,.07.09A.15.15,0,0,0,27.09,33.34Z"/><path class="cls-1" d="M10.2,31.54l0,0S10.18,31.57,10.2,31.54Z"/><path class="cls-1" d="M13.2,30.52l-.06.06a1,1,0,0,0,.07.14Z"/><path class="cls-1" d="M33.55,24.34h0C33.45,24.46,33.5,24.41,33.55,24.34Z"/><path class="cls-1" d="M20.61,2.95c.52-.22-.29.84.42.44C20.89,3.38,21.16,2.56,20.61,2.95Z"/><path class="cls-1" d="M17,34.74l.11.18A.71.71,0,0,0,17,34.74Z"/><path class="cls-1" d="M21,3.39h0l.07,0Z"/><path class="cls-1" d="M29.76,19.29a.35.35,0,0,0,.13.11S29.85,19.34,29.76,19.29Z"/><path class="cls-1" d="M35.53,21.11l.18-.25A2.29,2.29,0,0,0,35.53,21.11Z"/><path class="cls-1" d="M27.63,18.66s0-.05-.13,0a.09.09,0,0,0,0,0C27.56,18.66,27.6,18.62,27.63,18.66Z"/><path class="cls-1" d="M27.23,17.59l-.07,0v.07Z"/><path class="cls-1" d="M5.08,24.34a.83.83,0,0,1,0,.31C5.14,24.46,5.62,24.82,5.08,24.34Z"/><path class="cls-1" d="M16.84,34.69a.17.17,0,0,1,.17,0l-.09-.12S16.84,34.65,16.84,34.69Z"/><path class="cls-1" d="M26.08,21.57,24.9,22C25.21,21.87,25.64,21.73,26.08,21.57Z"/><path class="cls-1" d="M5,10.87H5S5,10.9,5,10.87Z"/><path class="cls-1" d="M24.17,20.18a6.5,6.5,0,0,0,.44-.82s0-.08,0-.09Z"/><path class="cls-1" d="M5,24.65H5Z"/><path class="cls-1" d="M8,29.56a1.37,1.37,0,0,0,.49-.26l3.24-3.14-3.15.44c-.17,0-.19.3-.35.39-.68-.31-.14-.41-.25-.71-.44-.17-.93-.11-1.2-.34,0-.06,0-.12.08-.14-.58-.07-1.15-.9-1.81-1a.21.21,0,0,1,0-.12.88.88,0,0,1-.29.43c-.22-.19-.55-.22-.45-.46.12.13.2.08.31.08l-.28-.14c.07-.43.37.22.55,0-.48-.32-1.16-.64-1.34-1.07.2-.27.73.72.59.09.11.19.22.4.34.59,0-.73.25.32.35-.41-.47-.7-.76-.61-1.12-1.34-.25-.06-.21.2-.46.13A1.45,1.45,0,0,1,3,22.24l-1.18,1c.78.54.25,1.21,1.39,1.31.41-.11.57-.42,1.44-.07a4.26,4.26,0,0,1-.38.34,1.28,1.28,0,0,0,1-.12,3.48,3.48,0,0,1,.56-.35L7,23.77,6.1,23a1.13,1.13,0,0,1-.24-.39,1,1,0,0,1,.39.26l1.14,1-1.52.66c-.16.07-.26.11-.16.09l.19,0,1-.07-.54-1.71c-.15-.47-.43-.09-.7-.43l.21-.29c-.31-.35-.66-.7-1-1.07-.17-.19-.34-.38-.49-.57a3.62,3.62,0,0,1-.28-.35c.13,0,.26,0,.33,0a.61.61,0,0,1-.19-.36.24.24,0,0,1,0-.17s.15,0,.21,0,.24.11.43.14L7.24,20,5.55,17.45,5.26,17l-.53-.16c-.07-.09,0-.24.09-.19-.21-.44-.16.1-.39,0s-.09-.39.09-.31a5.05,5.05,0,0,1-1.15-1.15,2,2,0,0,1-.45-1.41l.11.11a.44.44,0,0,0-.09-.3L1.56,14.78c.41,0,.68-.32,1.13,0H2.55c.31.12.64.22,1,.32l1.68.49-.62-1.67a7.14,7.14,0,0,1-.41-1.67,3.8,3.8,0,0,1,0-.79.34.34,0,0,1,.19-.24.28.28,0,0,1-.11-.41c.05-.12.08-.22-.16-.7.19,0,.28.13.37.23a1.83,1.83,0,0,1,.26.37c0,.06,0-.17,0-.38s0-.36.05-.35l0,.62a1.15,1.15,0,0,1,.11-.43,6.38,6.38,0,0,1,0,.69l.07,0a1.56,1.56,0,0,1,0-.41c.09,0,.17.24.18.42a.61.61,0,0,1-.09.4.47.47,0,0,1,.13.07l.27.28L6,12.2c-.12,0-.31-.14-.49-.27.37.25.32.33.27.4a.12.12,0,0,0,0,.13,1.67,1.67,0,0,0,.4.4c0-.18.18-.06.24-.09a1.83,1.83,0,0,0,.3.52,1.88,1.88,0,0,0,.53.54,2.86,2.86,0,0,0,.65.36l.18.07.09,0s.05,0,.08-.05L8.51,14l-.14.32c.66-.44,1.37-1,2.06-1.48l-2.22-.46c.29.57.61,1.17.88,1.78-.09-.45.29-.5.47-.19l-.24.27c.28.13,0-.4.38-.06.16.44-.21.44-.42.24l.33.47c-.08.07-.18,0-.3,0,.19.09.17.51.27.83l1.27,4,1.6-4.4a.38.38,0,0,0,0-.37h.1a12.41,12.41,0,0,1,.66-2.38c-.24-.13,0-.42-.1-.75a5.18,5.18,0,0,1,1.48-1.15c.3-.29,0-.26.13-.49a.25.25,0,0,0,.21.11l-1-.34c.09.24.25.5,0,.33l.54.62,1.1,1.26.8-1.35c.26-.44.46-.84.88-1.59-.17,0-.3.14-.32,0s.42-.34.49-.23l0,.06a1.66,1.66,0,0,1,.24-.38,1,1,0,0,1,.14-.13l.06,0h0s0,0,0,0l-.08-.16L16.45,7.8a13.18,13.18,0,0,1-.11,1.52l-.32,3,2.43-2.5a3.88,3.88,0,0,0,1.2-1.75l0,.07L20.13,7c.37-.44,0,.39.33.14.44-1.33,1.3-1.64,1.77-2.64a1.32,1.32,0,0,0,.37-.12h.14c.07,0,.09,0,.13-.11A.86.86,0,0,1,23,4c.05,0,.13-.07,0,.15L23,4.35l.15-.3c.16-.21-.08.24-.11.3A4.19,4.19,0,0,1,23.26,4a1,1,0,0,1,.09.49v.82c0,.32,0,.65,0,1A34.9,34.9,0,0,1,22.89,10c-.15.83.82.64.29,1.6l-1.35,2.45L25,12.68l.09,0a.79.79,0,0,1,0,.11l-.33,1.09L23.08,11.6l-.21-.29v.25l.1,3.91,2.18-2.56.65-.76c.11-.13.22-.27.34-.44a2.48,2.48,0,0,0,.43-.84L24.18,11a2.81,2.81,0,0,1,.1.52,5.68,5.68,0,0,1,0,.67c0,.45-.06.91-.1,1.38l-.12,1.2L25,15c.2,0,.19,0,.21,0l.07,0,0,0-.08.11s0,.06-.06.06a.35.35,0,0,0,0,.07c0,.06.05,0,.11,0a.68.68,0,0,0,.23-.06c0,.1-.16.12-.24.2s0,0,.09.13.12.32,0,.39-.08-.09-.09-.14c.13.19-.14.9.16.76a1.72,1.72,0,0,0-.08.2L25.3,17l-.21.83a7.86,7.86,0,0,1-.48,1.52c.1.21-.08.7-.24,1.17s-.28.88,0,.66a2,2,0,0,0-.44.64l-.1.22c0,.06-.11.2,0,.15l.41-.12a10.81,10.81,0,0,0,1.85-.85c-.35.27.54,0,.13.3.92-.34,1.74-.72,1.6-.92a3.29,3.29,0,0,0,1.26-.27l-1.68-1.07c.08.58.42,1.09.2,1.49l-.21.39,1.55.68a.66.66,0,0,1,.19.13l2.18-.65.48-.14.23-.1.51-.19a.76.76,0,0,1-.45.34c-.12,0-.26.08-.22.31a3.26,3.26,0,0,1,.53-.42,3.11,3.11,0,0,1,.81-.36l.11,0a4.49,4.49,0,0,1-.61.42,2.66,2.66,0,0,1,.41-.19,1.64,1.64,0,0,1-.13.27.61.61,0,0,0-.12.5.2.2,0,0,1-.13-.06c0,.07-.19.14.09.14l0-.07c.26-.08.45,0,.52.14s0,.38.08.42c-.44-.39-.73.47-1.08-.21a.32.32,0,0,0,.11.27c-.17.1-.29.1-.23-.16-.51.62-.15.59-.69,1.08-.07-.08,0-.2,0-.34a2.16,2.16,0,0,1-.56,1l-.75.7.88.46.25.16c-.06,0,0,.14-.2,0a12.83,12.83,0,0,0,1.76.6l.06-1a3.61,3.61,0,0,1-1.09.45c.16-.53-.43,0-.62-.31l-.55.34.3.07a7.67,7.67,0,0,0-.89.47,3,3,0,0,1-.93.4l.4-.32-1.33.6.94-.22c-.45.39.62.26-.3.52a12.36,12.36,0,0,1-1.33.28h0a.63.63,0,0,1-.16.22,1.55,1.55,0,0,1,.54.33c-.12.07-.9-.07-1,0a5,5,0,0,1,1.29.56,3.5,3.5,0,0,0,1.21.49c-.21,0-.46,0-.47.08l.55,0c.18.21.19.26,0,.32.85.58.17-.45,1,.28-.09,0-.08,0-.27-.05.17.13.35.25.53.36l.15-1a12,12,0,0,1-2.05.53c-.32-.31.7-.25.35-.5a18.57,18.57,0,0,1-3.53,1h.22c-.09.55-.89-.13-1.43.15.14,0,.16-.31.13-.25a5.54,5.54,0,0,0-.62,0L21.32,30l2.29,1.12a18.7,18.7,0,0,0,2.12.78l-.2.05a7.69,7.69,0,0,0,1.67.86c.21-.07.56,0,.39-.22a.79.79,0,0,0,.73.12l3.84-1-4.25-.06c-1.39,0-2.51,1.14-3.84.68.16,0,.37-.16.24-.15-.38.09-.76.15-1.14.2.1.23.15.14.41.3a1.16,1.16,0,0,1-.77.26c.53-.16,0-.37-.23-.5,0,.07,0,.15,0,.22-.59-.45-.12.47-1,.12l.06-.11a2.24,2.24,0,0,1-1,0c-.08-.29.35,0,.41-.26-.44-.07-1,.29-1.35-.12.22,0,.48.09.69.07a1.4,1.4,0,0,0-.69-.53l0,0-.48-.37-1.2-.91.13,1.66v.18l0-.18.18-1.77.84,1,0,.05-.09,0-1.08.44.21.17a1.83,1.83,0,0,1,.59.88,1.18,1.18,0,0,0,.82.82c-.47-.12-.54-.18-.54-.07s.12.25,0,.33c.12.3.69.63.5.63l.66,0-.07-1.63a.89.89,0,0,0-.76,0c0-.1-.37-.06-.26-.29-.45,0,.08.19,0,.3-.73.2-1.41-.59-2.27-.79l-1.12-.26,0,.76a1.68,1.68,0,0,0,0,.29,7.83,7.83,0,0,0,.59,2.11c-.09.35-.41-.2-.38-.21a1.13,1.13,0,0,0,0,.42.71.71,0,0,0,.34.53l1.57,1-1-1.62a2.83,2.83,0,0,0-.42-.5c.12,0,.13-.09.15-.26-.22-.3-.43,0-.57-.51a1.41,1.41,0,0,1,.53.11c-.3-.32-.69-.59-1-.92.08-.19.36.09.54.17-.33-.39-.82-1-1.13-1l.09.33c-.11-.15.15-.2.26-.11.41.26.25.58.18.65l-.22-.24c-.31.58.76,1,1.07,1.61h-.49l.64.38c0,.18-.16.38-.39.14.05.37.21.34.3.48l.18-.19s0-.06,0-.14,0,0,.07,0a1,1,0,0,1-.18-.35c.1.07.28-.08.25.15.17-.67-.28-1.24.05-1.49l0,.07c0-.95-.21-.38-.42-.76l0,0,.16,0a1,1,0,0,1,.28,0,6.45,6.45,0,0,0,.21.93l.22-.24c.11.06.32.15.24.26.49-.05,0-.15.28-.25.47.46,1.53.21,1.6.69.23-.21-.52-.24.1-.33.08.35.36.23.69.16V34a.3.3,0,0,1-.37-.13c.26-.14.34,0,.25-.28-.15.19-.32,0-.37-.18a2.48,2.48,0,0,0-.15-.63c-.2.07-.33-.21-.4-.57l-.53.37a3.47,3.47,0,0,0,.9.36s.27.23.71.38,1,.28,1.32.39l0,.06c.17-.36.88-.23,1.39-.33,0,.22-.11.31-.4.41h.5a1,1,0,0,1,.58-.25l-.11.28a12.73,12.73,0,0,1,2.13-.39c0-.26-.75-.59.06-.91.06.13.13.36-.08.45.07,0,.24-.16.4-.13l-.3.29c.39,0,.16-.22.45-.26,0,.19.25.09.24.26s-.27,0-.37.07a1.84,1.84,0,0,1,.94.11c-.06-.1-.06-.26.18-.34.62-.18.27.18.67.17.07-.1.23-.13.37-.21L28,32.09a.49.49,0,0,1-.08-.38.18.18,0,0,0,0-.09s0,0,0,0v.08c-.08,0-.09-.16-.12-.25-.24.1-1.29-.47-1.09,0l.07.05h-.05a8.14,8.14,0,0,1-2.51-1.37L24,31l.4,0V31a6.31,6.31,0,0,0,1.86-.49c.19,0,.47.11.41.24a2.27,2.27,0,0,1,1.23-.25c-.45.26.2.12-.47.22.64,0,.82.09,1.43-.31-.18.3.54.21.81.07l-.47-.08a5.34,5.34,0,0,1,.92-.2l-.09.36a2.44,2.44,0,0,0,1.3-.3l3.46-1.69-3.17-.18a2,2,0,0,1-.61-.1c-.19-.07-.34-.2-.14-.34-.5,0,.07.24-.42.26a.2.2,0,0,1,0-.34c.1-.09.27-.12.24-.14s-.07-.08-.25-.12-.67-.18-.21-.27c-.23,0-.91-.11-.54-.37.58-.18,1.05.12,1,.25a.22.22,0,0,1-.19,0c0,.07-.08.13.21.16l-.13-.08c.3,0,.58-.11.68.06,0-.14-.07-.18-.28-.17a1,1,0,0,0,.45-.09,5.47,5.47,0,0,1,.94-.33c-.14,0-.3-.1-.18-.15,1.12-.29.39-.4,1.09-.73a.31.31,0,0,1,.16,0l.41.27-.35-1.35c-.05-.21.3-.2-.34-.4-.36-.34.06-.33.27-.32a2.69,2.69,0,0,1-1.31-.9l.25,2.22.13-.09-.09.14-.26-2.33.22.06-.21-.07.27,2.36a3.43,3.43,0,0,1,.27-.27l-.32,0c.19-.12.34-.25.4-.18.07-.27-.39-.17-.2-.64.3-.11.58-.71.87-.55-.77.56.3.16-.26.74a1.39,1.39,0,0,1,.42-.38s0,.07,0,.12c.44-.21.43-.32.5-.56s.06-.41.56-.93c.05.22.57-.14.67-.35-.37.48-.46.12-.33-.28.63-.69.36-.75.58-1.1l-.32.41c-.14-.11.08-.43.24-.85.21-.1-.09.37.07.19-.07-.2.18-.49.47-.87a2.92,2.92,0,0,0,.65-1.12c.36-.48.53-.36.82-.78,0-.06,0-.17,0-.18a.08.08,0,0,1,0-.06s0-.09.08-.2l.21-.33a2.8,2.8,0,0,0,.23-.41,11.83,11.83,0,0,0-1.12.47c0,.23.1.16-1.36.92l1.57-.66c0,.16.11.17.15.29a4.34,4.34,0,0,0-.56,0l-.71.37.48-.19c.07.07.19.05.26.09s.13,0,.13.08c-.48.18-.39.11-.68.42.17-.23.11-.28-.05-.31-.69.31-1.38.69-1.67.62l.85-.9a22.41,22.41,0,0,0-2.31.72c-.37.12-.72.25-1.08.34l-.52.12-.4,0,.38,0c-.11.26-.68.15-1,.3,0-.2-.23-.24-.41-.33,0,.14-.82.11-.87.51l-.35-.13,1,.78.07-.18c0-.67-.33-.89-.53-1.29l-.43-.85-.31.38a.7.7,0,0,1-.38.23c.15-.28,0-.36.18-.61-.12,0-.21,0-.22.19,0-.05-.12,0-.25.16s-.29.22-.29.12c-.12.14-.31.42-.52.48a.65.65,0,0,1,.1-.14c-.08.13-.49.32-.53.56a.22.22,0,0,0-.06-.17l-.07,0s0,0,0,0l0-.09a3.27,3.27,0,0,0,.19-.62,1.67,1.67,0,0,1,.53-1.07l0-.28c0-.16.06-.37.08-.56a8.39,8.39,0,0,0,.06-1.1c.06,0,.1,0,.07.13a.72.72,0,0,0-.22-.78c-.17-.16-.29-.27-.37-.83.06-.76.35.48.33.07.23-.21.14-.56-.09-.87l-.28-.07c-.09,0-.19-.07-.22,0a1.1,1.1,0,0,1-.5.05l-.23,0-.11,0-.05,0s0,0,0,0l0-.17V13h0s0,0,0,.06l0,.15c0,.06,0,0,0,0h.17l-.15,0h0s0,0,0-.06l0-.21h0s0,0,0,0l.68,1.18a11.4,11.4,0,0,0,0-1.91s.06,0,.1,0c-.25-.45-.39-1.1-.7-1.76l-.37-.79-.34.84a2.13,2.13,0,0,1-.22.42c-.05-.33.07-.31-.19-.38-.15.24.4.19,0,.71-.22,0-.58.23-.79.14l1.07.63a.15.15,0,0,1,.1,0V12l-1.22-.72.38-.37a.5.5,0,0,0-.47.26l1.47.86a2,2,0,0,1,0-.61l.15.07c.11-1-.29-1.08-.17-2.13l-.13.1c-.36-.59.24-.47,0-1.06l.4-.16c-.09-.39-.36-1.34-.47-2a5.92,5.92,0,0,1,.63,1.67,3.09,3.09,0,0,0-.24-1.48c0,.15.15.34.08.49a3.37,3.37,0,0,1-.52-1.8c.19,0,.3-.09.35-.28a2.83,2.83,0,0,0,0-.87,8.76,8.76,0,0,1,.06-2.51A9.89,9.89,0,0,1,25,0c-.12,0-.18,0-.33,0l-.47.2c-.3.13-.57.24-.87.39A6.09,6.09,0,0,0,21.43,2c.88-.08-.48.54,0,.9l-.29.36c-.06.06-.09.09-.12.09-.33.2-.66.4-1,.62s.11-.35,0-.42c-.54.6-.42.1-.87.42.24,0,.08.41-.26.72l.61-.34c-.41,1.08-1,.46-1.39,1.56l0-.4C17.93,6.08,17,7.29,17.06,8c-.11,0-.33.07-.23-.17a5.4,5.4,0,0,0-.42.68l2.33.56c-.09-.49-.22-1-.34-1.48L18,5.94l-1.17.83a4.39,4.39,0,0,0-.93.93,4.08,4.08,0,0,1-.62.63l-.05-.18c-.13.24-.05.54-.37.71,0,0-.06-.17-.14-.08a3.07,3.07,0,0,1-.32.81l1.69-.08a.74.74,0,0,1-.1-.17l.21.08-1.91.09V9.41l-.07.08,2-.09a3.3,3.3,0,0,0-.69-.81l-.75-.64-.5.22a5,5,0,0,0-1.85,1.7c-.34-.34-1.25.58-1.57,1.09l0,0a5.51,5.51,0,0,0-.7,2.05A17.93,17.93,0,0,0,10,15l1.79-.25-.16-.25a10.16,10.16,0,0,0-1-3.17l-.52-1.35-1.47.94a.39.39,0,0,1-.27.09.61.61,0,0,1,0,.53s-.06,0-.09.09l-.05.09-.06,0c-.07,0-.12,0-.05-.29l0,0c0-.58,0-.42-.11-.6l-.44.3a2.49,2.49,0,0,0-.4-1.08C6.92,9.61,6.46,9,6.07,8.43A10.46,10.46,0,0,1,4.29,5.16a1.56,1.56,0,0,1-.22-.22,4.1,4.1,0,0,0-.42,1l-.08-.48c-.33.59-.54,1-.77,1.46l-.34.77a11.56,11.56,0,0,0-.31,1.13,4.7,4.7,0,0,1-.07-.54,2.41,2.41,0,0,0,.09,1.45A3.56,3.56,0,0,1,2.52,11a2.67,2.67,0,0,0-.42.21v1c0,.29,0,.58.05.86a4,4,0,0,0,.52,1.7l1.41-1.58H3.76A.24.24,0,0,1,4,13c-.51-.16-1.89-.84-1.87-.23a.11.11,0,0,0,0-.1l-.28-.4L.79,13.87a1.22,1.22,0,0,0,.17.91,4.87,4.87,0,0,0,.67,1l-.3,0a3.12,3.12,0,0,1,1.16.9c.07.17-.1.26-.17,0,.22.58.47.24.79.9l-.3-.1c.36.5.41.4.78.52a1.93,1.93,0,0,1,.59.82l.32-1.08a.93.93,0,0,1-.37-.19.9.9,0,0,1-.94.26c-.15-.1,0-.16.07-.18a6.77,6.77,0,0,0-.68-.08l-.31.31a1.77,1.77,0,0,0-.09.53,3.73,3.73,0,0,0,0,.48c0,.15,0,.3,0,.47a.13.13,0,0,0-.15.11,2.45,2.45,0,0,1,0-1.25l.12-.35c0-.07.06,0,.05,0-.22-.27-.54.66-.61-.28A3.78,3.78,0,0,0,1.68,19c.18.54.41,1.05.56,1.49a.35.35,0,0,1,0,.14l-.07-.09a1.66,1.66,0,0,0,.32.55l.09.21,0,.13a1.39,1.39,0,0,0,.12.24c-.14.18.32.72.51,1,.21-.18.43.19.38-.27,0,.05-.07,0-.2-.2a.59.59,0,0,0-.1-.1h0c-.13-.17-.29-.41-.46-.68a1,1,0,0,1,.58.69l.63.1c-.07.58.29,1.38.19,1.63l.38.36L5,22.53a.94.94,0,0,1-.63.11,3.12,3.12,0,0,0-1,.05c-.25-.06-.18-.27-.21-.39.15,0,.29.11.39.08A4.06,4.06,0,0,1,2.74,22L0,20.61,1.63,22.9c.21.29.41.51.59.47.26.7-.52-.17.09.65L2.15,24A3.36,3.36,0,0,0,4,25.84,5.13,5.13,0,0,1,6,27.54c-.09-.12-.14-.19-.12-.25a7.76,7.76,0,0,0,1.55,1.17l0-1.09a8.37,8.37,0,0,1-1.4.44,13.37,13.37,0,0,1-1.57.29l-1.65.19,1.47.79c.64.35,1.24.62,1.81,1s.74.12,1.18.08l0,.33.76-.12a2.11,2.11,0,0,1,1.14.53L9,30a2.2,2.2,0,0,0-1,1.23l-.43,1.46,1-.39.07,0-.07-.09-.74-.87h.43l-.06.07-.55.67.91,0c.48,0,1.34-.19,1.29,0,0,0,.12-.23.31-.15l0,.15a10.69,10.69,0,0,0,1.05-.49c.88-.15,0,.68,1.32.26.47-.22,1.1-1.08.87-1.07s-.5.17-.58,0l.33-.28a1.88,1.88,0,0,0-.31-.62c-.14-.17-.34-.26-.79-.23a5.43,5.43,0,0,1-.46.5l-.26-.15.48-.19c-.35-.09-.45.15-.62.33a.46.46,0,0,0-.32-.17c-.15.2-.32.39-.5.58-.11-.17.2-.41-.22-.43-.25.25.35.35-.11.57-.34-.16-.27-.35-.61-.13-.06-.12,0-.19.14-.27-.3.18-.83.12-1,.37l-.07,0,.77,1.49c.37-.2.59-1,.91-.69a1.85,1.85,0,0,1,.09-.56l.47-1.64-1,.08a1.5,1.5,0,0,1-.45,0C10,29,8.13,29,8.45,28.48c-.56.32-1.55-.29-2.33-.32.05,0,.15-.06.21,0a2,2,0,0,1-.63-.55c-.12.21-.41.23-.67.22L4.71,29.5a2.68,2.68,0,0,0,.49-.31c.6.29-.26.51,0,.84-.07-.31.92-.46.68-.7.46.16.38,0,.66.33,0-.5.38-.16.68-.54a.84.84,0,0,1,.5.17c.08,0,.11.07.57-.2h.12l.36.13-.29-2.45a.09.09,0,0,1,.05-.09l1.75-.89L8.42,29.2a1.06,1.06,0,0,1-.27.25ZM4,20.09H4l.09.15Zm-.22-.67a.75.75,0,0,0,0,.3c-.11,0-.24-.06-.27-.14C3.61,19.64,3.64,19.47,3.74,19.42ZM2.88,22.1c-.15-.17-.15-.26-.12-.32s.13.19.24.31H3A.34.34,0,0,1,2.88,22.1Z"/><path class="cls-1" d="M3.41,22.22l.07.06a1.18,1.18,0,0,0,0-.14H3.34Z"/><path class="cls-1" d="M26.7,31.44l0,0a.16.16,0,0,1,0,.06A.19.19,0,0,1,26.7,31.44Z"/><polygon class="cls-1" points="4.79 10.79 4.78 10.65 4.77 10.75 4.79 10.79"/><path class="cls-1" d="M22.58,32.53a.18.18,0,0,0-.09-.07S22.53,32.51,22.58,32.53Z"/><path class="cls-1" d="M19.76,32l-.3-.26A2.37,2.37,0,0,0,19.76,32Z"/><path class="cls-1" d="M19.09,34.32a.26.26,0,0,0,.13,0h0Z"/><path class="cls-1" d="M32.73,21.68a0,0,0,0,0,0,0C32.68,21.62,32.69,21.65,32.73,21.68Z"/><path class="cls-1" d="M27.57,27.15a.65.65,0,0,1,.19-.22C27.47,27,27.26,27.1,27.57,27.15Z"/><path class="cls-1" d="M26.21,21.53h0l-.14,0Z"/><path class="cls-1" d="M28.43,26.67a1.76,1.76,0,0,0-.67.26A2.78,2.78,0,0,0,28.43,26.67Z"/><path class="cls-1" d="M15.87,32.78l-.05-.1h0Z"/><path class="cls-1" d="M15.77,32.68l-.1-.09C15.71,32.64,15.73,32.69,15.77,32.68Z"/><path class="cls-1" d="M15.47,32.4l.2.19C15.63,32.51,15.57,32.41,15.47,32.4Z"/><path class="cls-1" d="M16.07,36.22l-.14,0A.14.14,0,0,0,16.07,36.22Z"/><path class="cls-1" d="M15.75,34.82c0,.13-.07.29-.1.5a1.19,1.19,0,0,0,.16.84l.11,0a.91.91,0,0,1-.19-.78C15.78,35.16,15.83,34.95,15.75,34.82Z"/><path class="cls-1" d="M18.84,34.48A8.33,8.33,0,0,1,18,34.2c.11.15.27.34-.12.26C18.9,35.05,17.75,34.19,18.84,34.48Z"/><path class="cls-1" d="M20,33.24c.21.2.12-.1.19-.11C20,33,20,33,20,33.24Z"/><path class="cls-1" d="M26.84,30.84v.26C27.17,31,26.83,31,26.84,30.84Z"/><polygon class="cls-1" points="29.97 28.85 29.62 28.77 29.52 29.03 29.97 28.85"/><polygon class="cls-1" points="31.31 28.11 31.39 28.12 31.11 28.06 31.31 28.11"/><path class="cls-1" d="M27.41,17.86l-.39.2C27.05,18.16,27.49,17.93,27.41,17.86Z"/><path class="cls-1" d="M25.29,9.5a.66.66,0,0,0,.14-.76A5.5,5.5,0,0,0,25.29,9.5Z"/><polygon class="cls-1" points="7.57 10.42 7.8 10.57 7.46 10.22 7.57 10.42"/></g></g></svg>