<svg xmlns="http://www.w3.org/2000/svg" viewBox="0 0 123.62 72.5"><defs><style>.cls-1{fill:#003abf;}.cls-2,.cls-6{fill:#fff;}.cls-3,.cls-5{fill:none;}.cls-3{stroke:#908fb2;}.cls-3,.cls-6{stroke-linejoin:round;}.cls-4{fill:#00277f;}.cls-6{stroke:#00277f;stroke-linecap:round;}</style></defs><title>visiter-forets</title><g id="Calque_2" data-name="Calque 2"><g id="Calque_2-2" data-name="Calque 2"><path class="cls-1" d="M88.51,39.91c-.24,1.16-.44,2.33-.63,3.49,0-1.16,0-2.34-.07-3.53Z"/><path class="cls-1" d="M88.51,39.91c-.24,1.16-.44,2.33-.63,3.49,0-1.16,0-2.34-.07-3.53Z"/><polygon class="cls-1" points="99.62 28.71 99.62 28.72 99.61 28.71 99.62 28.71"/><path class="cls-1" d="M123.41,25.4a1.71,1.71,0,0,1-.46,1.07c-.31.25-.89.16-1-.24a9.94,9.94,0,0,1-4.31,4.68,6.69,6.69,0,0,1-.38,3.22,2.24,2.24,0,0,1-2.65,1.3,5.4,5.4,0,0,1-3.09,3.47c.15.3-.15.66-.48.75s-.68,0-1,.16a4.4,4.4,0,0,0-.76.47,3.75,3.75,0,0,1-1.35.41l-1.8.32a5.63,5.63,0,0,1-3.33-.11l-.58.1c0-.13-.09-.26-.13-.38a2.3,2.3,0,0,1-3.3-.57.65.65,0,0,1-.76.5c-.33-.07-.78.2-.7-.13l.55-1.93h0a11.22,11.22,0,0,1,.9-1.26,6.54,6.54,0,0,0,1.31-2.31,2.72,2.72,0,0,0,.07-.91,11.16,11.16,0,0,0-.5-1.78h0a2.58,2.58,0,0,1-.11-.78c0-.82.54-1.66.21-2.41a1.19,1.19,0,0,0-.2-.3h0a2.53,2.53,0,0,0-2.13-.5,14.19,14.19,0,0,0-3,.7l-6.79,2h0c-.27,0-.54,0-.82.05a10.77,10.77,0,0,0-1.8.29h0l-.32.11a3,3,0,0,0-1.21.8,3.2,3.2,0,0,0-.43.65l-3.81,3a1.38,1.38,0,0,0-.44.35,3.52,3.52,0,0,0-.62,1.19,7.5,7.5,0,0,1-.3.78l-1.06,1.06c-.46.17-.94.49-1.4.66a.81.81,0,0,1-.66.95,2.21,2.21,0,0,1-1.25-.23,62.79,62.79,0,0,1-8.05-3.83l-3-2.66a8.85,8.85,0,0,1-2.1-2.38,8.07,8.07,0,0,1-.63-4,35.48,35.48,0,0,1,2.69-12.36,40.93,40.93,0,0,1,3.68-6.84q1-1.49,2.07-2.91C70.22,3,73,.34,76.34.6c3.12.24,5.71,3,8.84,2.94,1.94-.07,3.64-1.24,5.32-2.21S94.22-.44,96,.28c1.43.58,2.59,2.07,4.13,1.91.72-.07,1.6-.47,2.06.09.31.39.15,1,.4,1.43s1.07.58,1.66.77c1.59.51,2.23,2.28,2.57,4a1.33,1.33,0,0,0-.27.11.8.8,0,0,0-.38,1l-.13.48.9-.91c0-.22-.08-.45-.13-.68a3.1,3.1,0,0,1,.87-.08h3.91a16.91,16.91,0,0,1,4.82.47,5.77,5.77,0,0,1,3.7,2.93c.67,1.44.5,3.16,1.1,4.63.31.76.81,1.43,1.09,2.21a2.19,2.19,0,0,1-.33,2.3,2.32,2.32,0,0,1,1.56,1.87A6.82,6.82,0,0,1,123.41,25.4Z"/><path class="cls-1" d="M106.05,10.06l.13-.48a.8.8,0,0,1,.38-1,1.33,1.33,0,0,1,.27-.11c0,.23.09.46.13.68Z"/><path class="cls-1" d="M100.15,34.91a6.54,6.54,0,0,1-1.31,2.31,11.22,11.22,0,0,0-.9,1.26h0a3.46,3.46,0,0,0-.55,1.93A10.44,10.44,0,0,0,91.69,46a29.9,29.9,0,0,0-1.84,8.48,133.15,133.15,0,0,0-.72,15.92l-7.5,1.15A100.59,100.59,0,0,0,83.56,60a33.71,33.71,0,0,0-.28-11.46,15,15,0,0,0-6.46-9.33,1.69,1.69,0,0,0,1.06-1.06,7.5,7.5,0,0,0,.3-.78,3.52,3.52,0,0,1,.62-1.19l.52.55a35.44,35.44,0,0,1,2.3,2.76A35,35,0,0,1,86,47c.05-2.37,0-4.79-.13-7.23-.15-2.86-.44-5.72-.8-8.48a10.77,10.77,0,0,1,1.8-.29c.27,0,.54-.05.82-.05h0c.06,2.91.13,5.95.19,8.93,0,1.19,0,2.37.07,3.53.19-1.16.39-2.33.63-3.49a28,28,0,0,1,1.17-4.24,15.21,15.21,0,0,1,4.76-6.75,14.19,14.19,0,0,1,3-.7,2.53,2.53,0,0,1,2.13.5,23.15,23.15,0,0,0-7.87,10.94l7.88-10.94a1.19,1.19,0,0,1,.2.3c.33.74-.18,1.59-.21,2.41a2.58,2.58,0,0,0,.11.78h0a11.16,11.16,0,0,1,.5,1.78A2.72,2.72,0,0,1,100.15,34.91Z"/><line class="cls-1" x1="99.62" y1="28.72" x2="99.61" y2="28.71"/><path class="cls-1" d="M79.24,35.86l-.44.35A1.38,1.38,0,0,1,79.24,35.86Z"/><path class="cls-1" d="M106.05,10.06l.13-.48a.8.8,0,0,1,.38-1,1.33,1.33,0,0,1,.27-.11c0,.23.09.46.13.68Z"/><path class="cls-2" d="M89.69,41.11c-.23,1.13-.41,2.27-.6,3.41,0-1.14,0-2.29-.07-3.45Z"/><path class="cls-3" d="M89.69,41.11c-.23,1.13-.41,2.27-.6,3.41,0-1.14,0-2.29-.07-3.45Z"/><path class="cls-2" d="M89.69,41.11c-.23,1.13-.41,2.27-.6,3.41,0-1.14,0-2.29-.07-3.45Z"/><path class="cls-3" d="M89.69,41.11c-.23,1.13-.41,2.27-.6,3.41,0-1.14,0-2.29-.07-3.45Z"/><polygon class="cls-2" points="100.22 30.18 100.22 30.18 100.22 30.18 100.22 30.18"/><polygon class="cls-3" points="100.22 30.18 100.22 30.18 100.22 30.18 100.22 30.18"/><path class="cls-2" d="M104.76,41.88a2.79,2.79,0,0,1-1.24-.25.5.5,0,0,0-.22-.05h-.09l-.13,0a.5.5,0,0,0-.33-.29l-.12,0a.5.5,0,0,0-.32.12,1.47,1.47,0,0,1-1,.33A1.65,1.65,0,0,1,99.92,41a.5.5,0,0,0-.43-.25H99.4a.5.5,0,0,0-.41.4.13.13,0,0,1-.11.1l-.15,0,.36-1.3a10.78,10.78,0,0,1,.79-1.13,6.91,6.91,0,0,0,1.33-2.45,3.23,3.23,0,0,0,.08-1,5.43,5.43,0,0,0-.31-1.24c-.06-.18-.12-.36-.17-.55v0a2.1,2.1,0,0,1-.09-.62,4.1,4.1,0,0,1,.14-.79,2.74,2.74,0,0,0,0-1.78,1.71,1.71,0,0,0-.25-.4l-.07-.08a2.43,2.43,0,0,0-1.84-.65,4.92,4.92,0,0,0-.58,0,13.72,13.72,0,0,0-3,.71l-6.35,1.95c-.25,0-.5,0-.75.05a10.47,10.47,0,0,0-1.77.29l-.08,0-.28.1a3.29,3.29,0,0,0-1.38.94,3.41,3.41,0,0,0-.42.63l-3.5,2.85a1.83,1.83,0,0,0-.53.44,3.86,3.86,0,0,0-.68,1.33c-.07.2-.14.42-.23.63l-.87.9c-.2.08-.4.19-.6.3a5.14,5.14,0,0,1-.62.3.5.5,0,0,0-.3.63.15.15,0,0,1,0,.1.4.4,0,0,1-.24.18H76.4a2.17,2.17,0,0,1-.76-.21,58.58,58.58,0,0,1-7.53-3.69L65.33,35.1a8.27,8.27,0,0,1-1.88-2.18,7.7,7.7,0,0,1-.54-3.64,34.84,34.84,0,0,1,2.51-11.91,40.06,40.06,0,0,1,3.45-6.6c.62-1,1.28-1.92,1.94-2.82,2.39-3.2,4.65-4.76,6.91-4.76l.38,0a10.18,10.18,0,0,1,3.76,1.39,9.93,9.93,0,0,0,4.5,1.49h.19a9.81,9.81,0,0,0,4.63-1.84l.65-.39a7.23,7.23,0,0,1,3.57-1.23,3.22,3.22,0,0,1,1.23.24,7.24,7.24,0,0,1,1.31.8,4.57,4.57,0,0,0,2.57,1.12l.28,0c.18,0,.38-.06.57-.1a3.4,3.4,0,0,1,.64-.1c.21,0,.26.06.29.1a1.17,1.17,0,0,1,.12.49,2.23,2.23,0,0,0,.21.84,2,2,0,0,0,1.47.89l.39.1c1,.32,1.7,2.64,1.83,3.36a3.68,3.68,0,0,0-.46,1.55.5.5,0,0,0,.85.41l.86-.89a.5.5,0,0,0,.14-.32.82.82,0,0,1,.27-.28l1.72,0h1.92a15.28,15.28,0,0,1,4.43.44,5,5,0,0,1,3.2,2.58,8.14,8.14,0,0,1,.52,2.23,10,10,0,0,0,.51,2.28,9.65,9.65,0,0,0,.51,1,7.51,7.51,0,0,1,.51,1.09,1.74,1.74,0,0,1-.19,1.73.5.5,0,0,0,.23.84,1.78,1.78,0,0,1,1.11,1.44,6.47,6.47,0,0,1-.13,2.34,1.37,1.37,0,0,1-.27.76h-.12a.44.44,0,0,0-.41-.39h-.05a.52.52,0,0,0-.45.34,9.08,9.08,0,0,1-3.88,4.33.5.5,0,0,0-.26.46,6.18,6.18,0,0,1-.31,2.91,1.83,1.83,0,0,1-1.49,1.09,1,1,0,0,1-.38-.08.5.5,0,0,0-.68.33,4.74,4.74,0,0,1-2.64,3.06.5.5,0,0,0-.26.67h0s-.08,0-.12.05a1.77,1.77,0,0,1-.34,0,2.31,2.31,0,0,0-.63.12,2.44,2.44,0,0,0-.6.35l-.21.15a3.08,3.08,0,0,1-1.1.33l-1.72.31A9.51,9.51,0,0,1,104.76,41.88Z"/><path class="cls-4" d="M95.39,3.11a2.67,2.67,0,0,1,1,.2,6.92,6.92,0,0,1,1.22.75,5,5,0,0,0,2.86,1.21l.33,0c.2,0,.41-.06.63-.11l.43-.08,0,.14a2.72,2.72,0,0,0,.27,1A2.5,2.5,0,0,0,104,7.35l.35.09c.57.19,1.26,1.89,1.46,2.79a4.77,4.77,0,0,0-.43,1.58,1,1,0,0,0,1.71.83l.86-.89a1,1,0,0,0,.25-.44h3.44a14.9,14.9,0,0,1,4.28.42,4.5,4.5,0,0,1,2.9,2.32,7.81,7.81,0,0,1,.48,2.09,10.36,10.36,0,0,0,.54,2.39,10.1,10.1,0,0,0,.53,1.1,7.14,7.14,0,0,1,.48,1,1.3,1.3,0,0,1-.06,1.21,1,1,0,0,0,.45,1.69,1.31,1.31,0,0,1,.74,1.05,6.15,6.15,0,0,1-.13,2.16v0l-.22-.05h-.13a1,1,0,0,0-.92.6,8.58,8.58,0,0,1-3.66,4.09,1,1,0,0,0-.51.92,5.84,5.84,0,0,1-.26,2.67,1.37,1.37,0,0,1-1,.81.46.46,0,0,1-.18,0,1,1,0,0,0-1.35.65,4.23,4.23,0,0,1-2.35,2.73,1,1,0,0,0-.59.73,2.73,2.73,0,0,0-.76.15,2.89,2.89,0,0,0-.72.42l-.18.13a2.81,2.81,0,0,1-.93.27l-.85.15-.85.15a9.18,9.18,0,0,1-1.53.18,2.31,2.31,0,0,1-1-.2,1.71,1.71,0,0,1-.87-.34,1,1,0,0,0-.9.21,1,1,0,0,1-.63.21,1.14,1.14,0,0,1-1-.52,1,1,0,0,0-.83-.5l0-.13a11,11,0,0,1,.73-1,7.32,7.32,0,0,0,1.42-2.62,3.75,3.75,0,0,0,.09-1.22,5.93,5.93,0,0,0-.33-1.35c-.06-.17-.11-.33-.16-.5l0-.07a1.61,1.61,0,0,1-.07-.47,3.77,3.77,0,0,1,.13-.69,3.19,3.19,0,0,0,0-2.11,2.19,2.19,0,0,0-.29-.48l-.12-.13a2.92,2.92,0,0,0-2.2-.8,5.38,5.38,0,0,0-.64,0,14,14,0,0,0-3.06.72l-6.31,1.93c-.25,0-.49,0-.73.06a11.12,11.12,0,0,0-1.83.3l-.15,0-.25.09-.06,0a3.65,3.65,0,0,0-2,1.7l-3.39,2.77a2.33,2.33,0,0,0-.62.53,4.34,4.34,0,0,0-.77,1.49c-.06.18-.12.35-.18.52l-.73.76c-.19.09-.37.18-.54.27a4.91,4.91,0,0,1-.55.27,1,1,0,0,0-.65.87,3.22,3.22,0,0,1-.45-.16,58,58,0,0,1-7.42-3.63l-1.51-1.39-1.23-1.13a7.76,7.76,0,0,1-1.77-2,7.27,7.27,0,0,1-.49-3.4,34.35,34.35,0,0,1,2.48-11.74A39.54,39.54,0,0,1,69.28,11c.62-1,1.27-1.9,1.92-2.79,2.25-3,4.44-4.56,6.51-4.56h.34A9.84,9.84,0,0,1,81.63,5a10.3,10.3,0,0,0,4.73,1.55h.2a10.33,10.33,0,0,0,4.87-1.91l.65-.39a6.77,6.77,0,0,1,3.31-1.16m12.82,8.12h0M95.39,2.11a7.87,7.87,0,0,0-3.82,1.3c-1.6.94-3.21,2.09-5,2.16h-.17c-2.89,0-5.31-2.64-8.22-2.88l-.42,0c-3,0-5.47,2.49-7.31,5q-1,1.39-2,2.85a40.41,40.41,0,0,0-3.49,6.68A35.56,35.56,0,0,0,62.4,29.26a8.1,8.1,0,0,0,.6,3.88,8.57,8.57,0,0,0,2,2.33l2.82,2.6a58.83,58.83,0,0,0,7.64,3.75,2.55,2.55,0,0,0,.95.25l.24,0a.79.79,0,0,0,.63-.92c.43-.16.9-.48,1.33-.64l1-1a7.47,7.47,0,0,0,.29-.77,3.48,3.48,0,0,1,.58-1.16,1.32,1.32,0,0,1,.42-.34l3.62-3a3.13,3.13,0,0,1,.41-.63,2.79,2.79,0,0,1,1.15-.79l.31-.11h0a9.94,9.94,0,0,1,1.71-.28,7.63,7.63,0,0,1,.78-.05h0l6.44-2a13.13,13.13,0,0,1,2.89-.68,4.38,4.38,0,0,1,.52,0,2,2,0,0,1,1.5.52h0a1.17,1.17,0,0,1,.19.3c.31.73-.17,1.55-.2,2.35a2.59,2.59,0,0,0,.11.77h0a11.16,11.16,0,0,1,.48,1.74,2.74,2.74,0,0,1-.07.89,6.44,6.44,0,0,1-1.25,2.26,11,11,0,0,0-.85,1.23h0l-.52,1.89c0,.13,0,.17.11.17s.28-.05.43-.05h.23a.63.63,0,0,0,.6-.5,2.14,2.14,0,0,0,1.85,1,2,2,0,0,0,1.28-.45c0,.12.08.24.13.37l.55-.1a3.29,3.29,0,0,0,1.46.3,10,10,0,0,0,1.7-.19l1.71-.31a3.49,3.49,0,0,0,1.28-.4,4.15,4.15,0,0,1,.72-.46c.3-.11.64-.07.94-.16s.59-.44.45-.73a5.22,5.22,0,0,0,2.93-3.39,1.46,1.46,0,0,0,.57.11A2.33,2.33,0,0,0,117,35.47a6.72,6.72,0,0,0,.36-3.14,9.61,9.61,0,0,0,4.09-4.57.47.47,0,0,0,.5.37.63.63,0,0,0,.4-.14,1.7,1.7,0,0,0,.44-1.05,6.86,6.86,0,0,0,.13-2.52,2.25,2.25,0,0,0-1.48-1.83,2.19,2.19,0,0,0,.31-2.25c-.26-.76-.74-1.41-1-2.16-.57-1.44-.41-3.12-1-4.52a5.51,5.51,0,0,0-3.51-2.86,15.6,15.6,0,0,0-4.57-.46H107.9c-.28,0-.74.53-.71.75l-.86.89s.17-1.25.48-1.44c.08,0-.68-3.51-2.19-4-.57-.18-1.28-.21-1.58-.75s-.08-1-.37-1.4A.8.8,0,0,0,102,4c-.4,0-.86.16-1.27.2h-.23c-1.34,0-2.4-1.34-3.69-1.88a3.69,3.69,0,0,0-1.42-.27Z"/><path class="cls-2" d="M83.8,71.47a102,102,0,0,0,1.69-10.63,34.69,34.69,0,0,0-.28-11.36,15.38,15.38,0,0,0-5.69-9,2.89,2.89,0,0,0,.54-.85,8,8,0,0,0,.3-.81,4.2,4.2,0,0,1,.19-.49l0,0a34.89,34.89,0,0,1,6.22,9.85.5.5,0,0,0,.46.31h.09a.5.5,0,0,0,.41-.48c.05-2.3,0-4.69-.13-7.1s-.37-5.2-.71-7.88c.37-.08.77-.12,1.21-.17l.22,0,.24,11.66a.5.5,0,0,0,.47.49h0a.5.5,0,0,0,.49-.42c.18-1.13.37-2.28.59-3.39a27.18,27.18,0,0,1,1.09-4.08,14.31,14.31,0,0,1,4.28-6.32,12.74,12.74,0,0,1,2.71-.63l.46,0a2.43,2.43,0,0,1,.64.08,23,23,0,0,0-7.08,10.49.5.5,0,0,0,.89.44L100,31.41c0,.13-.06.27-.09.42a4.86,4.86,0,0,0-.17,1,3,3,0,0,0,.12.88v0c.06.22.13.43.2.64a4.64,4.64,0,0,1,.26,1,2.25,2.25,0,0,1-.06.72,6.07,6.07,0,0,1-1.16,2.08,11.53,11.53,0,0,0-.87,1.25l0,0h0a4.18,4.18,0,0,0-.58,1.82,10.47,10.47,0,0,0-5.37,5.62,30.7,30.7,0,0,0-1.78,8.42,135.15,135.15,0,0,0-.69,15.19Z"/><path class="cls-4" d="M98.06,30.71a23.53,23.53,0,0,0-6.26,9.85,1,1,0,0,0,1.77.88l5.68-8.12a4,4,0,0,0,.1.49v0c.06.23.13.45.21.68a4.32,4.32,0,0,1,.24.89,1.75,1.75,0,0,1,0,.57,5.66,5.66,0,0,1-1.07,1.88,12,12,0,0,0-.9,1.3l0,.06h0A4.89,4.89,0,0,0,97.14,41a10.89,10.89,0,0,0-5.36,5.76A31.14,31.14,0,0,0,90,55.29a135.77,135.77,0,0,0-.7,14.81l-4.83.76c.67-3.26,1.19-6.61,1.55-10a35.14,35.14,0,0,0-.29-11.53,16.08,16.08,0,0,0-5.47-9,3.82,3.82,0,0,0,.28-.54c.08-.18.16-.37.22-.56.55.64,1.09,1.32,1.61,2a33.6,33.6,0,0,1,4,7.08,1,1,0,0,0,.93.62l.18,0a1,1,0,0,0,.82-1c0-1,0-1.95,0-2.94a1,1,0,0,0,.74.41h.07a1,1,0,0,0,1-.84v-.07c.18-1.09.36-2.21.58-3.3a26.78,26.78,0,0,1,1.07-4,13.89,13.89,0,0,1,4.05-6.05,12.16,12.16,0,0,1,2.27-.54m-10.2,2.71L87.92,36l0,2.22c-.12-1.57-.28-3.17-.48-4.78l.38,0m10.86-3.77a4.38,4.38,0,0,0-.52,0,13.13,13.13,0,0,0-2.89.68A14.87,14.87,0,0,0,90.8,37a28,28,0,0,0-1.11,4.15c-.23,1.13-.41,2.27-.6,3.41,0-1.14,0-2.29-.07-3.45-.06-2.91-.12-5.88-.18-8.73h0a7.63,7.63,0,0,0-.78.05,9.94,9.94,0,0,0-1.71.28c.35,2.7.62,5.5.76,8.29.13,2.38.18,4.75.13,7.06A35.36,35.36,0,0,0,81,38l-.49-.54a3.48,3.48,0,0,0-.58,1.16,7.47,7.47,0,0,1-.29.77,1.63,1.63,0,0,1-1,1,14.63,14.63,0,0,1,6.13,9.12A33.92,33.92,0,0,1,85,60.79a101,101,0,0,1-1.84,11.29L90.27,71A134,134,0,0,1,91,55.39a30,30,0,0,1,1.75-8.28,10.05,10.05,0,0,1,5.4-5.5,3.46,3.46,0,0,1,.52-1.89h0a11,11,0,0,1,.85-1.23,6.44,6.44,0,0,0,1.25-2.26,2.74,2.74,0,0,0,.07-.89,11.16,11.16,0,0,0-.48-1.74h0a2.59,2.59,0,0,1-.11-.77c0-.8.51-1.62.2-2.35a1.17,1.17,0,0,0-.19-.3L92.75,40.87a22.62,22.62,0,0,1,7.47-10.69,2,2,0,0,0-1.5-.52Zm-9.86,2.69h0Z"/><path class="cls-5" d="M100.22,30.18"/><path class="cls-1" d="M81.94,28.3c-.56.56,1.13,2.82,1.13,2.82L81.38,32.8l1.69,1.69-1.69,3.94A3.94,3.94,0,0,0,78,41.25c-1.13,2.82-5.07,1.13-5.07,1.13h-4.5a3.54,3.54,0,0,0-2,1.18h0l-4,2.8c-1.84.41-5.24,3.33-5.24,3.33s-.56,4.5,0,6.19-2.82-1.13-4.5-2.82-2.25-2.25-2.82-1.69-2.82,1.13-5.07-.56,0-3.38,0-6.76-2.25-.56-3.94-3.38,0-3.94,2.25-4.5,1.69-2.82.56-6.19a4.44,4.44,0,0,1,1.13-5.07s6.19,0,7.32-.56,2.82-4.5,2.25-7.32,3.94-.56,4.5,1.13,4.5,2.25,5.07-.56,1.13-1.13,6.19-1.13,3.38,0,5.07,2.25,0,3.38,2.25,2.25,6.19,2.25,5.63,3.38S82.5,27.73,81.94,28.3Z"/><path class="cls-1" d="M72.93,71.65H63.36S65.61,61,64.49,57.57s-7.32-7.88-7.32-7.88,3.4-2.92,5.24-3.33l-.73.51s5.07,6.76,7.32,6.19-.56-9.57-1.69-10.13l-.89.62a3.54,3.54,0,0,1,2-1.18h4.5S70.12,70.52,72.93,71.65Z"/><path class="cls-2" d="M57.94,55.71a23.41,23.41,0,0,1-3.58-3c-1.45-1.45-2-2-2.73-2a1.1,1.1,0,0,0-.79.36,2.48,2.48,0,0,1-1.55.42,4.75,4.75,0,0,1-2.87-1c-1.07-.8-.91-1.45-.43-3a10.79,10.79,0,0,0,.63-3.38c0-2.08-.88-2.32-1.93-2.41a2.22,2.22,0,0,1-2.08-1.23,2.68,2.68,0,0,1-.51-2.3c.26-.64,1.07-1.12,2.46-1.47a2.4,2.4,0,0,0,1.62-1.14c.69-1.26.12-3.24-.7-5.7a4,4,0,0,1,.84-4.41c1.38,0,6.24-.06,7.36-.62,1.37-.68,3.13-4.83,2.52-7.86-.09-.45,0-.61,0-.64a.46.46,0,0,1,.33-.09,4.53,4.53,0,0,1,3.18,2.12,3.1,3.1,0,0,0,3,1.75,2.9,2.9,0,0,0,3-2.37c.25-1.23.42-1.23.7-1.23a7.11,7.11,0,0,1,1,.14,21.75,21.75,0,0,0,4,.37c3.49,0,3.49,0,3.83.67A8.17,8.17,0,0,0,76.12,19a3.72,3.72,0,0,1,.79,2c0,.32.12.93.76.93A3.4,3.4,0,0,0,79,21.42a1.78,1.78,0,0,1,.8-.17,5.74,5.74,0,0,1,3.86,2.22c.29.41.31.63.29.66a8.55,8.55,0,0,0-.58,2.17,5,5,0,0,1-.45,1.64c-.67.67.13,2.12.82,3.12l-1.39,1.39a.5.5,0,0,0,0,.71l1.45,1.45L82.37,38a4.56,4.56,0,0,0-3.5,3.1,2.09,2.09,0,0,1-2.18,1.31,6.52,6.52,0,0,1-2.23-.46.5.5,0,0,0-.2,0h-4.5a4,4,0,0,0-2.36,1.32L63.53,45.9c-1.95.51-5.21,3.29-5.35,3.41a.5.5,0,0,0-.17.32A24.48,24.48,0,0,0,57.94,55.71Z"/><path class="cls-4" d="M56.65,16.53h0m0,.18a4.18,4.18,0,0,1,2.6,1.77,3.56,3.56,0,0,0,3.48,2.09,3.42,3.42,0,0,0,3.51-2.77,4.24,4.24,0,0,1,.22-.82,7.49,7.49,0,0,1,.94.13,22.19,22.19,0,0,0,4.05.37,20.15,20.15,0,0,1,3.23.11c0,.06.1.18.15.29a8.76,8.76,0,0,0,.89,1.45,3.23,3.23,0,0,1,.7,1.73c.12.91.54,1.37,1.25,1.37a3.66,3.66,0,0,0,1.55-.55,1.29,1.29,0,0,1,.58-.12,5.23,5.23,0,0,1,3.64,2.31,9.78,9.78,0,0,0-.55,2.15,8.33,8.33,0,0,1-.31,1.38c-.68.68-.5,1.83.53,3.41L82,32.09a1,1,0,0,0,0,1.41l1.21,1.21L82,37.53a5.13,5.13,0,0,0-3.61,3.35,1.58,1.58,0,0,1-1.72,1,6,6,0,0,1-2-.42,1,1,0,0,0-.39-.08h-4.5a4.23,4.23,0,0,0-2.66,1.42l-3.79,2.65c-2,.58-5.11,3.19-5.46,3.49a1,1,0,0,0-.34.64,30.74,30.74,0,0,0-.22,5.08,28.09,28.09,0,0,1-2.58-2.28c-1.51-1.51-2.19-2.19-3.08-2.19a1.59,1.59,0,0,0-1.14.5,2.2,2.2,0,0,1-1.2.28A4.26,4.26,0,0,1,46.72,50c-.76-.57-.74-.89-.26-2.43a11.21,11.21,0,0,0,.66-3.53c0-2.5-1.23-2.81-2.39-2.91a1.75,1.75,0,0,1-1.69-1,2.43,2.43,0,0,1-.48-1.85c.14-.33.61-.8,2.12-1.17a2.88,2.88,0,0,0,1.93-1.38c.79-1.44.19-3.52-.66-6.1a3.61,3.61,0,0,1,.57-3.75c1.84,0,6.22-.09,7.37-.67,1.68-.84,3.4-5.33,2.79-8.41,0-.05,0-.1,0-.13m9.86.19h0m-10-1.19c-.64,0-1,.37-.85,1.34.56,2.82-1.13,6.76-2.25,7.32s-7.32.56-7.32.56A4.44,4.44,0,0,0,45,30c1.13,3.38,1.69,5.63-.56,6.19s-3.94,1.69-2.25,4.5,3.94,0,3.94,3.38-2.25,5.07,0,6.76a5.27,5.27,0,0,0,3.17,1.13,2.89,2.89,0,0,0,1.9-.56.61.61,0,0,1,.44-.21c.48,0,1.11.63,2.38,1.9s3.68,3.34,4.37,3.34c.19,0,.25-.15.13-.52-.56-1.69,0-6.19,0-6.19s3.4-2.92,5.24-3.33l4-2.8h0a3.54,3.54,0,0,1,2-1.18h4.5a7,7,0,0,0,2.42.5,2.6,2.6,0,0,0,2.65-1.63,3.94,3.94,0,0,1,3.38-2.82l1.69-3.94L82.72,32.8l1.69-1.69s-1.69-2.25-1.13-2.82.56-2.82,1.13-3.94c.48-1-2.37-3.6-4.6-3.6a2.27,2.27,0,0,0-1,.23,3.49,3.49,0,0,1-1.1.44c-.49,0,.09-1-1.15-2.69-1.69-2.25,0-2.25-5.07-2.25a39.66,39.66,0,0,1-5-.5c-.68,0-.93.35-1.19,1.63a2.41,2.41,0,0,1-2.53,2,2.64,2.64,0,0,1-2.53-1.41,4.91,4.91,0,0,0-3.66-2.46Z"/><path class="cls-2" d="M65.31,71.15c.46-2.34,2-10.7,1-13.73s-5.45-6.56-7-7.74a24.32,24.32,0,0,1,3.4-2.36c.83,1.09,4.92,6.29,7.33,6.29a1.67,1.67,0,0,0,.41,0c.47-.12,1.05-.53,1.19-1.81A18.12,18.12,0,0,0,69.37,43a1,1,0,0,1,.4-.1h4c-.64,6.5-2.13,23.89-.38,28.28Z"/><path class="cls-4" d="M73.17,43.37c-.21,2.27-.69,7.7-1,13.17-.41,8.29-.13,12.21.35,14.11H65.92c.58-3,1.84-10.44.85-13.39-.93-2.79-4.78-6.1-6.65-7.59A24.07,24.07,0,0,1,62.58,48c1.49,1.92,5,6.14,7.46,6.14a2.17,2.17,0,0,0,.53-.06c.51-.13,1.39-.59,1.57-2.24a19.18,19.18,0,0,0-2-8.43h3m1.1-1h-4.5a3.54,3.54,0,0,0-2,1.18l.89-.62c1.13.56,3.94,9.57,1.69,10.13a1.16,1.16,0,0,1-.28,0c-2.37,0-7-6.23-7-6.23l.73-.51c-1.84.41-5.24,3.33-5.24,3.33s6.19,4.5,7.32,7.88S64.7,71.65,64.7,71.65h9.57c-2.82-1.13,0-29.28,0-29.28Zm-10.53,4h0Z"/><path class="cls-1" d="M46.84,72.34H27.69a.49.49,0,0,1-.45-.68c1.14-2.63,4.93-12.17,2-17.08-3.44-5.73-8-10.09-9.17-10.31,0,0-1.15-1.15,0-1.72s2.29-.57,2.29-1.15.57,0,.57,0,6.88,9.17,8.59,9.17,4.4-9.13.69-11.83a.48.48,0,0,1,.11-.86,18.93,18.93,0,0,0,3.48-1.66.49.49,0,0,1,.69.19c.7,1.4,2.65,5.67,2.54,9.33a.49.49,0,0,0,.71.45c2-1,7.46-4.26,8.4-9.82a2.88,2.88,0,0,1,.22.28,1.55,1.55,0,0,0,2.14.49.48.48,0,0,0,.18-.16c.18-.27.62-1,.25-1.59s.22-1.13.78-1,.6,3,1.72,3.24l.11,0s-9.41,15.24-8.84,19.83c.49,3.89.15,11.51,2.49,14.07A.49.49,0,0,1,46.84,72.34Z"/><path class="cls-1" d="M63,32.66c-.1.56-1.44,1.48-1.44,1.48s-1.69-.32-1.34.91-.88,1.58-1.44,1.48-1.69-.32-1.79.24-2.31.69-3.48.51l-.11,0C52.29,37,52.26,34.13,51.7,34s-1.23.35-.78,1-.32,1.69-.32,1.69a1.59,1.59,0,0,1-2.25-.42,2.88,2.88,0,0,0-.22-.28h0a.89.89,0,0,0-1.47,0s-.21,1.12-1.9.81a2.55,2.55,0,0,1-1.93-2.11,1.79,1.79,0,0,1-.78,1,2.84,2.84,0,0,1-1.79.24s-.14-2.9-3.58-.61l-.42.28a18.19,18.19,0,0,1-5,2.28,8.16,8.16,0,0,1-2,.31c-1.15,0-4,1.15-5.16,1.15s-1.15,1.72-1.15,1.72-.57-.57-.57,0-1.15.57-2.29,1.15,0,1.72,0,1.72c-2.86-.57-1.15,1.72-2.29,1.15s-1.15-1.72-2.29-1.15-1.15.57-1.72.57-1.15-1.15-1.15-2.29-1.15-1.15-2.29-1.15-1.72.57-1.72,0a1.23,1.23,0,0,0-1.15-1.15c-.57,0-1.72,0-1.72-1.15s0-1.15-.57-1.72-1.15.57-1.72.57-.57-2.29-.57-2.29a8.24,8.24,0,0,1-1.72-1.15c-.57-.57,1.15-1.72,1.15-2.86s-1.15.57-1.72,0A3.45,3.45,0,0,1,0,29c0-.57,3.44-1.15,4-1.72s-.57-.57-1.15-1.72.57-1.72,2.29-3.44,5.16.57,5.16.57-1.15-5.16.57-5.16A7,7,0,0,0,13.75,17s-.57-1.72,0-2.29,2.29,1.15,2.86.57-1.15-4,1.15-4,3.44,2.29,4,1.15.57-4.58,1.72-4.58.57.57,1.72.57.57-1.72,1.72-1.72a5.8,5.8,0,0,1,4,2.29c.57,1.15,3.44,1.15,4,.57s0-2.29,1.72-2.29S39,7.26,39,8.4s-1.15,3.44,0,2.86,3.44-1.15,4-1.72,2.29-1.15,2.29,0a1.6,1.6,0,0,1-.9,1.51c.56.11.46.67.35,1.23s.35,1.23,1.58.88.78-1,1.34-.91.46.67.92,1.34.35,1.23,1.58.88,1.23-.35,1.34-.91,1.8-.25,2.25.42l.92,1.34c.46.67.56.1.67-.46s.67-.46,1.23-.35.56.1,1,.77.45.67.56.11,1.23-.35,1.9-.81,1.12.21,1,.77.46.67.35,1.23a.56.56,0,0,0,.46.67s1,.78.91,1.34-.56-.11-.77,1,.46.67,1,.77.35,1.23.35,1.23-.11.57-.21,1.13a.56.56,0,0,0,.46.67A2,2,0,0,1,64,24.67a2.11,2.11,0,0,1-.88,1.58c-.67.46-.32,1.69.14,2.36L64.12,30C64.58,30.62,63.14,32.1,63,32.66Z"/><path class="cls-6" d="M51.15,71.92,31.69,72S37.42,60.1,34,54.43s-8-10-9.17-10.21c0,0-1.15-1.13,0-1.7s2.29-.57,2.29-1.13.57,0,.57,0,6.88,9.07,8.59,9.07S41.12,39.95,36,38.25A18.28,18.28,0,0,0,41,36s3.29,6,2.72,10.5c0,0,8-3.28,9.17-10.08a2.86,2.86,0,0,1,.22.27,1.6,1.6,0,0,0,2.25.42s.77-1,.32-1.67.22-1.12.78-1,.6,3,1.72,3.21l.11,0s-9.41,15.08-8.84,19.62c.49,3.85-.2,11.33,2,13.84A.49.49,0,0,1,51.15,71.92Z"/><path class="cls-6" d="M67.79,33.07c-.1.56-1.44,1.46-1.44,1.46s-1.69-.32-1.34.9S64.12,37,63.56,36.9s-1.69-.32-1.79.24-2.31.69-3.48.5l-.11,0c-1.12-.22-1.16-3.1-1.72-3.21s-1.23.35-.78,1-.32,1.67-.32,1.67a1.6,1.6,0,0,1-2.25-.42,2.86,2.86,0,0,0-.22-.27h0a.9.9,0,0,0-1.47,0s-.21,1.11-1.9.8a2.53,2.53,0,0,1-1.93-2.09,1.77,1.77,0,0,1-.78,1,2.87,2.87,0,0,1-1.79.24s-.14-2.87-3.58-.6L41,36a18.28,18.28,0,0,1-5,2.26,8.24,8.24,0,0,1-2,.31c-1.15,0-4,1.13-5.16,1.13s-1.15,1.7-1.15,1.7-.57-.57-.57,0S26,42,24.82,42.52s0,1.7,0,1.7c-2.86-.57-1.15,1.7-2.29,1.13s-1.15-1.7-2.29-1.13-1.15.57-1.72.57-1.15-1.13-1.15-2.27-1.15-1.13-2.29-1.13-1.72.57-1.72,0a1.23,1.23,0,0,0-1.15-1.13c-.57,0-1.72,0-1.72-1.13s0-1.13-.57-1.7S8.77,38,8.2,38s-.57-2.27-.57-2.27a8.25,8.25,0,0,1-1.72-1.13c-.57-.57,1.15-1.7,1.15-2.83s-1.15.57-1.72,0a3.38,3.38,0,0,1-.57-2.27c0-.57,3.44-1.13,4-1.7s-.57-.57-1.15-1.7.57-1.7,2.29-3.4,5.16.57,5.16.57-1.15-5.1.57-5.1a7,7,0,0,0,2.86-.57s-.57-1.7,0-2.27,2.29,1.13,2.86.57-1.15-4,1.15-4,3.44,2.27,4,1.13.57-4.54,1.72-4.54.57.57,1.72.57.57-1.7,1.72-1.7a5.81,5.81,0,0,1,4,2.27c.57,1.13,3.44,1.13,4,.57s0-2.27,1.72-2.27,2.29,0,2.29,1.13-1.15,3.4,0,2.83,3.44-1.13,4-1.7S50,9.07,50,10.2a1.59,1.59,0,0,1-.9,1.5c.56.11.46.66.35,1.22s.35,1.22,1.58.87.78-1,1.34-.9.46.66.92,1.32.35,1.22,1.58.87,1.23-.35,1.34-.9,1.8-.24,2.25.42l.92,1.33c.46.66.56.1.67-.45s.67-.45,1.23-.35.56.1,1,.77.45.66.56.11,1.23-.35,1.9-.8,1.12.21,1,.77.46.66.35,1.22a.56.56,0,0,0,.46.66s1,.77.91,1.33-.56-.11-.77,1,.46.66,1,.77.35,1.22.35,1.22-.11.56-.21,1.12a.56.56,0,0,0,.46.66,2,2,0,0,1,.35,1.22,2.09,2.09,0,0,1-.88,1.56c-.67.45-.32,1.67.14,2.34l.91,1.32C69.34,31.06,67.9,32.52,67.79,33.07Z"/></g></g></svg>