<svg xmlns="http://www.w3.org/2000/svg" viewBox="0 0 127.91 75"><defs><style>.cls-1{fill:#003abf;}.cls-2,.cls-6{fill:#fff;}.cls-3,.cls-5{fill:none;}.cls-3{stroke:#908fb2;}.cls-3,.cls-6{stroke-linejoin:round;}.cls-4{fill:#00277f;}.cls-6{stroke:#00277f;stroke-linecap:round;}</style></defs><title>arbre-icone-2</title><g id="Calque_2" data-name="Calque 2"><g id="Calque_2-2" data-name="Calque 2"><path class="cls-1" d="M91.58,41.29c-.25,1.2-.45,2.41-.65,3.61,0-1.2,0-2.42-.08-3.65Z"/><path class="cls-1" d="M91.58,41.29c-.25,1.2-.45,2.41-.65,3.61,0-1.2,0-2.42-.08-3.65Z"/><polygon class="cls-1" points="103.07 29.71 103.07 29.72 103.06 29.71 103.07 29.71"/><path class="cls-1" d="M127.69,26.28a1.77,1.77,0,0,1-.48,1.11c-.32.26-.92.17-1-.24A10.28,10.28,0,0,1,121.76,32a6.92,6.92,0,0,1-.39,3.33,2.31,2.31,0,0,1-2.74,1.34,5.58,5.58,0,0,1-3.2,3.59c.15.31-.16.68-.49.78s-.7,0-1,.17a4.55,4.55,0,0,0-.78.48,3.88,3.88,0,0,1-1.4.43l-1.86.33a5.82,5.82,0,0,1-3.44-.11l-.6.1c0-.13-.09-.27-.14-.39a2.38,2.38,0,0,1-3.42-.59.68.68,0,0,1-.78.52c-.34-.07-.8.21-.72-.13l.57-2h0a11.61,11.61,0,0,1,.93-1.3,6.77,6.77,0,0,0,1.36-2.39,2.82,2.82,0,0,0,.08-.94,11.54,11.54,0,0,0-.52-1.84h0a2.67,2.67,0,0,1-.12-.81c0-.85.55-1.72.21-2.49a1.23,1.23,0,0,0-.21-.31h0a2.61,2.61,0,0,0-2.2-.52,14.68,14.68,0,0,0-3.15.72l-7,2.09h0c-.28,0-.56,0-.85.06a11.14,11.14,0,0,0-1.86.3h0l-.33.11a3.05,3.05,0,0,0-1.25.83,3.31,3.31,0,0,0-.44.67L82,37.1a1.43,1.43,0,0,0-.46.36,3.65,3.65,0,0,0-.64,1.23,7.76,7.76,0,0,1-.31.81l-1.1,1.1c-.47.17-1,.51-1.45.68a.84.84,0,0,1-.69,1,2.29,2.29,0,0,1-1.3-.24,65,65,0,0,1-8.33-4l-3.08-2.75a9.15,9.15,0,0,1-2.17-2.46,8.35,8.35,0,0,1-.65-4.11A36.71,36.71,0,0,1,64.6,15.95a42.35,42.35,0,0,1,3.81-7.08q1-1.54,2.14-3c2.11-2.75,5-5.5,8.43-5.24,3.23.25,5.91,3.15,9.14,3,2-.07,3.76-1.29,5.5-2.29S97.48-.46,99.35.29c1.48.6,2.68,2.15,4.27,2,.74-.08,1.66-.49,2.13.1.32.41.16,1,.41,1.48s1.1.6,1.72.8c1.64.52,2.31,2.36,2.66,4.13a1.38,1.38,0,0,0-.28.12.82.82,0,0,0-.39,1l-.14.5.94-.94c0-.23-.08-.47-.13-.71a3.21,3.21,0,0,1,.9-.08h4a17.5,17.5,0,0,1,5,.49,6,6,0,0,1,3.83,3c.69,1.49.52,3.27,1.14,4.79.32.79.84,1.48,1.12,2.29a2.27,2.27,0,0,1-.34,2.38,2.4,2.4,0,0,1,1.61,1.94A7.06,7.06,0,0,1,127.69,26.28Z"/><path class="cls-1" d="M109.73,10.41l.14-.5a.82.82,0,0,1,.39-1,1.38,1.38,0,0,1,.28-.12c0,.24.1.48.13.71Z"/><path class="cls-1" d="M103.62,36.12a6.77,6.77,0,0,1-1.36,2.39,11.61,11.61,0,0,0-.93,1.3h0a3.58,3.58,0,0,0-.57,2,10.8,10.8,0,0,0-5.89,5.82A30.94,30.94,0,0,0,93,56.4a137.76,137.76,0,0,0-.75,16.48l-7.76,1.19a104.07,104.07,0,0,0,2-12,34.88,34.88,0,0,0-.29-11.85,15.48,15.48,0,0,0-6.68-9.66,1.75,1.75,0,0,0,1.1-1.1,7.76,7.76,0,0,0,.31-.81,3.65,3.65,0,0,1,.64-1.23l.53.57a36.67,36.67,0,0,1,2.38,2.85,36.2,36.2,0,0,1,4.49,7.73c.06-2.45,0-5-.14-7.48-.16-3-.45-5.92-.83-8.78a11.14,11.14,0,0,1,1.86-.3c.28,0,.56-.06.85-.06h0c.06,3,.13,6.15.19,9.24,0,1.23,0,2.45.08,3.65.2-1.2.4-2.41.65-3.61a29,29,0,0,1,1.21-4.39,15.74,15.74,0,0,1,4.92-7,14.68,14.68,0,0,1,3.15-.72,2.61,2.61,0,0,1,2.2.52A24,24,0,0,0,94.92,41l8.15-11.31a1.23,1.23,0,0,1,.21.31c.34.77-.19,1.64-.21,2.49a2.67,2.67,0,0,0,.12.81h0a11.54,11.54,0,0,1,.52,1.84A2.82,2.82,0,0,1,103.62,36.12Z"/><line class="cls-1" x1="103.07" y1="29.72" x2="103.06" y2="29.71"/><path class="cls-1" d="M82,37.1l-.46.36A1.43,1.43,0,0,1,82,37.1Z"/><path class="cls-1" d="M109.73,10.41l.14-.5a.82.82,0,0,1,.39-1,1.38,1.38,0,0,1,.28-.12c0,.24.1.48.13.71Z"/><path class="cls-2" d="M92.79,42.54c-.24,1.17-.43,2.35-.62,3.53,0-1.18,0-2.36-.07-3.57Z"/><path class="cls-3" d="M92.79,42.54c-.24,1.17-.43,2.35-.62,3.53,0-1.18,0-2.36-.07-3.57Z"/><path class="cls-2" d="M92.79,42.54c-.24,1.17-.43,2.35-.62,3.53,0-1.18,0-2.36-.07-3.57Z"/><path class="cls-3" d="M92.79,42.54c-.24,1.17-.43,2.35-.62,3.53,0-1.18,0-2.36-.07-3.57Z"/><polygon class="cls-2" points="103.7 31.22 103.7 31.23 103.69 31.22 103.7 31.22"/><polygon class="cls-3" points="103.7 31.22 103.7 31.23 103.69 31.22 103.7 31.22"/><path class="cls-2" d="M108.39,43.35a2.9,2.9,0,0,1-1.29-.26.5.5,0,0,0-.22,0h-.09l-.15,0a.5.5,0,0,0-.34-.3l-.12,0a.5.5,0,0,0-.33.12,1.54,1.54,0,0,1-1,.35,1.72,1.72,0,0,1-1.48-.8.5.5,0,0,0-.43-.25h-.08a.5.5,0,0,0-.41.4.16.16,0,0,1-.13.11l-.18,0,.38-1.37a11,11,0,0,1,.82-1.18,7.12,7.12,0,0,0,1.38-2.53,3.3,3.3,0,0,0,.08-1.07,5.62,5.62,0,0,0-.32-1.29c-.06-.19-.13-.38-.18-.57v0a2.18,2.18,0,0,1-.09-.65,4.26,4.26,0,0,1,.14-.82,2.82,2.82,0,0,0,0-1.83,1.82,1.82,0,0,0-.25-.41l-.07-.08a2.5,2.5,0,0,0-1.89-.67,5,5,0,0,0-.6,0,14.13,14.13,0,0,0-3.1.73l-6.58,2c-.26,0-.51,0-.76.05a11.12,11.12,0,0,0-1.85.3l-.08,0-.29.1a3.39,3.39,0,0,0-1.42,1,3.52,3.52,0,0,0-.43.66l-3.62,3a1.9,1.9,0,0,0-.54.45,4,4,0,0,0-.7,1.38c-.07.21-.15.44-.24.66l-.9.93c-.2.09-.41.2-.62.31a5.24,5.24,0,0,1-.64.31.5.5,0,0,0-.3.63.17.17,0,0,1,0,.12.43.43,0,0,1-.25.19H79a2.24,2.24,0,0,1-.79-.22A60.39,60.39,0,0,1,70.46,39l-2.88-2.65a8.59,8.59,0,0,1-2-2.26,8,8,0,0,1-.56-3.78A36,36,0,0,1,67.66,18a41.41,41.41,0,0,1,3.57-6.83c.65-1,1.32-2,2-2.92,2.47-3.32,4.81-4.93,7.16-4.93l.4,0a10.56,10.56,0,0,1,3.9,1.44,10.26,10.26,0,0,0,4.64,1.54h.19a10.16,10.16,0,0,0,4.79-1.9L95,4a7.5,7.5,0,0,1,3.7-1.27,3.34,3.34,0,0,1,1.28.25,7.54,7.54,0,0,1,1.36.83A4.71,4.71,0,0,0,104,4.91l.29,0c.19,0,.39-.06.59-.1a3.54,3.54,0,0,1,.67-.1c.21,0,.27.06.31.11a1.19,1.19,0,0,1,.12.52,2.31,2.31,0,0,0,.22.86,2.09,2.09,0,0,0,1.51.91l.4.11c1,.34,1.78,2.76,1.91,3.5a4,4,0,0,0-.48,1.6.5.5,0,0,0,.86.41l.89-.92a.5.5,0,0,0,.14-.33.87.87,0,0,1,.29-.3l1.85,0h1.92a15.82,15.82,0,0,1,4.58.46,5.18,5.18,0,0,1,3.33,2.68,8.45,8.45,0,0,1,.54,2.31,10.26,10.26,0,0,0,.53,2.35,9.77,9.77,0,0,0,.53,1.08,7.76,7.76,0,0,1,.53,1.13,1.82,1.82,0,0,1-.2,1.81.5.5,0,0,0,.23.84,1.86,1.86,0,0,1,1.16,1.5,6.7,6.7,0,0,1-.13,2.42,1.42,1.42,0,0,1-.29.79h-.15a.45.45,0,0,0-.41-.39h-.05a.51.51,0,0,0-.45.33,9.41,9.41,0,0,1-4,4.49.5.5,0,0,0-.25.46,6.55,6.55,0,0,1-.32,3,1.91,1.91,0,0,1-1.56,1.14,1,1,0,0,1-.4-.08.49.49,0,0,0-.19,0,.5.5,0,0,0-.48.37,4.93,4.93,0,0,1-2.74,3.18.5.5,0,0,0-.26.67h0s-.09.06-.15.07a1.89,1.89,0,0,1-.35.05,2.39,2.39,0,0,0-.65.12,2.5,2.5,0,0,0-.61.36l-.22.15a3.18,3.18,0,0,1-1.14.35l-1.78.32A10,10,0,0,1,108.39,43.35Z"/><path class="cls-4" d="M98.69,3.19a2.79,2.79,0,0,1,1.09.2,7.19,7.19,0,0,1,1.26.78A5.16,5.16,0,0,0,104,5.41l.34,0c.21,0,.43-.07.65-.11a4.17,4.17,0,0,1,.48-.08l0,.18a2.75,2.75,0,0,0,.28,1,2.56,2.56,0,0,0,1.83,1.16l.37.1c.63.21,1.33,2,1.53,2.92a4.86,4.86,0,0,0-.45,1.64,1,1,0,0,0,1.71.83l.89-.92a1,1,0,0,0,.26-.47h3.59a15.44,15.44,0,0,1,4.44.43,4.69,4.69,0,0,1,3,2.41,8.1,8.1,0,0,1,.5,2.17,10.69,10.69,0,0,0,.56,2.47,10.42,10.42,0,0,0,.55,1.14,7.41,7.41,0,0,1,.5,1.06,1.36,1.36,0,0,1-.07,1.29,1,1,0,0,0,.45,1.69,1.39,1.39,0,0,1,.8,1.12,6.38,6.38,0,0,1-.14,2.25v.09a1,1,0,0,0-.26-.07h-.13a1,1,0,0,0-.92.6,8.91,8.91,0,0,1-3.8,4.25,1,1,0,0,0-.51.92,6.07,6.07,0,0,1-.27,2.78,1.44,1.44,0,0,1-1.11.86.51.51,0,0,1-.2,0,1,1,0,0,0-1.35.65A4.41,4.41,0,0,1,115,40.59a1,1,0,0,0-.6.75h0a2.81,2.81,0,0,0-.78.15,3,3,0,0,0-.74.43l-.19.13a2.92,2.92,0,0,1-1,.28l-.88.16-.88.16a9.53,9.53,0,0,1-1.59.18,2.43,2.43,0,0,1-1.07-.21,1,1,0,0,0-.44-.1h0a1,1,0,0,0-1.34,0,1,1,0,0,1-.68.23,1.21,1.21,0,0,1-1.05-.55,1,1,0,0,0-.86-.5h0l0-.18a11.38,11.38,0,0,1,.76-1.07,7.54,7.54,0,0,0,1.46-2.7,3.85,3.85,0,0,0,.1-1.25,6.11,6.11,0,0,0-.34-1.39c-.06-.17-.12-.34-.17-.52l0-.07a1.7,1.7,0,0,1-.08-.49,3.92,3.92,0,0,1,.13-.72,3.27,3.27,0,0,0,0-2.16,2.24,2.24,0,0,0-.3-.49l-.12-.13a3,3,0,0,0-2.25-.82,5.53,5.53,0,0,0-.66,0,14.45,14.45,0,0,0-3.16.74l-6.53,2c-.26,0-.5,0-.76.06a11.48,11.48,0,0,0-1.89.31l-.15,0-.26.09-.06,0a3.74,3.74,0,0,0-2,1.75l-3.51,2.87a2.38,2.38,0,0,0-.64.55,4.46,4.46,0,0,0-.79,1.53c-.06.19-.12.37-.19.54l-.77.79c-.2.09-.38.19-.57.29a5.11,5.11,0,0,1-.58.28,1,1,0,0,0-.66.91,3,3,0,0,1-.51-.17,60,60,0,0,1-7.68-3.76l-1.57-1.44L67.91,36a8.06,8.06,0,0,1-1.84-2.12,7.55,7.55,0,0,1-.51-3.54,35.58,35.58,0,0,1,2.57-12.16,40.94,40.94,0,0,1,3.52-6.75c.64-1,1.31-2,2-2.89C76,5.37,78.26,3.77,80.41,3.77h.36a10.21,10.21,0,0,1,3.71,1.38,10.63,10.63,0,0,0,4.88,1.6h.21a10.51,10.51,0,0,0,5-2l.67-.4a7,7,0,0,1,3.44-1.2m13.25,8.41h0M98.69,2.19a8.14,8.14,0,0,0-4,1.34c-1.65,1-3.32,2.17-5.22,2.23h-.17c-3,0-5.49-2.73-8.5-3l-.44,0c-3.07,0-5.66,2.57-7.57,5.14q-1.07,1.44-2,2.95a41.81,41.81,0,0,0-3.61,6.92,36.8,36.8,0,0,0-2.64,12.5,8.38,8.38,0,0,0,.62,4,8.87,8.87,0,0,0,2.06,2.41l2.92,2.69a60.86,60.86,0,0,0,7.9,3.88,2.64,2.64,0,0,0,1,.26l.25,0a.82.82,0,0,0,.65-1c.45-.16.93-.49,1.37-.66l1-1.07a7.73,7.73,0,0,0,.3-.79,3.6,3.6,0,0,1,.61-1.2,1.36,1.36,0,0,1,.43-.36l3.74-3.05a3.24,3.24,0,0,1,.42-.66A2.89,2.89,0,0,1,89,33.92l.32-.11h0a10.29,10.29,0,0,1,1.77-.29,7.9,7.9,0,0,1,.8-.05h0l6.67-2a13.58,13.58,0,0,1,3-.7,4.54,4.54,0,0,1,.54,0,2,2,0,0,1,1.55.54h0a1.21,1.21,0,0,1,.2.31c.32.75-.18,1.61-.2,2.43a2.68,2.68,0,0,0,.11.79h0a11.55,11.55,0,0,1,.49,1.8,2.83,2.83,0,0,1-.07.92,6.67,6.67,0,0,1-1.29,2.34,11.33,11.33,0,0,0-.88,1.27h0l-.54,2c0,.13,0,.17.11.17s.29-.05.45-.05h.24a.65.65,0,0,0,.62-.52,2.22,2.22,0,0,0,1.91,1,2,2,0,0,0,1.33-.47c0,.12.09.25.13.38l.57-.1a3.41,3.41,0,0,0,1.51.31,10.34,10.34,0,0,0,1.76-.2l1.77-.32a3.61,3.61,0,0,0,1.33-.42,4.29,4.29,0,0,1,.74-.47c.31-.12.66-.07,1-.16s.61-.45.47-.76a5.41,5.41,0,0,0,3-3.51,1.51,1.51,0,0,0,.59.12,2.41,2.41,0,0,0,2-1.43,7,7,0,0,0,.37-3.25,9.94,9.94,0,0,0,4.24-4.73.49.49,0,0,0,.52.38.65.65,0,0,0,.41-.14,1.75,1.75,0,0,0,.45-1.09,7.1,7.1,0,0,0,.13-2.6,2.33,2.33,0,0,0-1.53-1.89A2.27,2.27,0,0,0,126,21c-.27-.79-.76-1.46-1.07-2.23-.59-1.49-.42-3.23-1.08-4.68a5.7,5.7,0,0,0-3.64-3,16.14,16.14,0,0,0-4.73-.48h-3.83c-.29,0-.76.55-.73.77l-.89.92s.17-1.29.5-1.49c.09,0-.7-3.64-2.26-4.15-.59-.19-1.33-.22-1.63-.78s-.09-1.05-.39-1.45a.83.83,0,0,0-.7-.3c-.41,0-.89.16-1.32.21H104c-1.39,0-2.49-1.38-3.81-1.94a3.82,3.82,0,0,0-1.47-.28Z"/><path class="cls-2" d="M86.68,74a105.53,105.53,0,0,0,1.75-11,35.86,35.86,0,0,0-.29-11.75,15.89,15.89,0,0,0-5.9-9.31,2.93,2.93,0,0,0,.57-.88,8.14,8.14,0,0,0,.31-.84,4.44,4.44,0,0,1,.21-.54l.06.06a36.17,36.17,0,0,1,6.43,10.2.5.5,0,0,0,.46.31h.09a.5.5,0,0,0,.41-.48c.05-2.38,0-4.85-.13-7.34s-.39-5.39-.74-8.17c.43-.09.89-.14,1.27-.18l.24,0,.25,12.08a.5.5,0,0,0,.47.49h0a.5.5,0,0,0,.49-.42c.2-1.21.38-2.37.62-3.51a28.18,28.18,0,0,1,1.13-4.22,14.83,14.83,0,0,1,4.44-6.55,13.15,13.15,0,0,1,2.8-.65l.48,0a2.48,2.48,0,0,1,.7.09,23.83,23.83,0,0,0-7.35,10.86.5.5,0,0,0,.89.44l7.1-10.15c0,.16-.07.33-.11.51a5,5,0,0,0-.17,1,3.14,3.14,0,0,0,.12.91v0c.06.22.13.44.21.66a4.79,4.79,0,0,1,.27,1.05,2.32,2.32,0,0,1-.06.75,6.28,6.28,0,0,1-1.2,2.16,11.72,11.72,0,0,0-.9,1.29l0,0h0a4.29,4.29,0,0,0-.6,1.88,10.82,10.82,0,0,0-5.55,5.81,31.78,31.78,0,0,0-1.84,8.71A139.74,139.74,0,0,0,92.89,73Z"/><path class="cls-4" d="M101.56,31.73A24.31,24.31,0,0,0,95,42a1,1,0,0,0,1.77.88l5.93-8.48a4,4,0,0,0,.11.59v0c.06.24.14.47.22.7a4.49,4.49,0,0,1,.25.93,1.84,1.84,0,0,1,0,.6,5.88,5.88,0,0,1-1.11,2,12.4,12.4,0,0,0-.93,1.34l0,.06h0a5,5,0,0,0-.64,1.81A11.23,11.23,0,0,0,95,48.36a32.19,32.19,0,0,0-1.88,8.85,140.4,140.4,0,0,0-.73,15.35l-5.07.8C88,70,88.56,66.49,88.93,63a36.32,36.32,0,0,0-.3-11.92A16.59,16.59,0,0,0,83,41.79a3.88,3.88,0,0,0,.31-.58c.1-.21.17-.42.25-.63.58.67,1.15,1.4,1.71,2.15a34.8,34.8,0,0,1,4.14,7.34,1,1,0,0,0,.93.62l.18,0a1,1,0,0,0,.82-1c0-1,0-2.1,0-3.16a1,1,0,0,0,.8.51h.07a1,1,0,0,0,1-.84v-.08c.18-1.12.37-2.29.6-3.41a27.74,27.74,0,0,1,1.11-4.14,14.4,14.4,0,0,1,4.21-6.28,12.62,12.62,0,0,1,2.47-.58M90.94,34.55,91,37.28c0,1.21.05,2.43.07,3.64-.14-2.06-.34-4.18-.6-6.32l.47-.06m11.2-3.86a4.54,4.54,0,0,0-.54,0,13.58,13.58,0,0,0-3,.7,15.39,15.39,0,0,0-4.67,6.83,29,29,0,0,0-1.15,4.29c-.24,1.17-.43,2.35-.62,3.53,0-1.18,0-2.36-.07-3.57-.06-3-.12-6.08-.18-9h0a7.9,7.9,0,0,0-.8.05,10.29,10.29,0,0,0-1.77.29c.36,2.79.64,5.69.79,8.58.14,2.46.18,4.91.13,7.31a36.6,36.6,0,0,0-6.52-10.34l-.51-.55a3.6,3.6,0,0,0-.61,1.2,7.73,7.73,0,0,1-.3.79,1.69,1.69,0,0,1-1,1.07,15.14,15.14,0,0,1,6.34,9.44,35.09,35.09,0,0,1,.28,11.58A104.5,104.5,0,0,1,86,74.57l7.37-1.16a138.65,138.65,0,0,1,.71-16.1,31,31,0,0,1,1.81-8.57,10.4,10.4,0,0,1,5.59-5.69,3.58,3.58,0,0,1,.54-2h0a11.33,11.33,0,0,1,.88-1.27,6.67,6.67,0,0,0,1.29-2.34,2.83,2.83,0,0,0,.07-.92,11.55,11.55,0,0,0-.49-1.8h0a2.68,2.68,0,0,1-.11-.79c0-.83.53-1.68.2-2.43a1.21,1.21,0,0,0-.2-.31L96,42.29a23.4,23.4,0,0,1,7.73-11.06,2,2,0,0,0-1.55-.54Zm-10.2,2.78h0Z"/><path class="cls-5" d="M103.7,31.23"/><path class="cls-1" d="M84.78,29.28c-.58.58,1.17,2.91,1.17,2.91L84.2,33.94l1.75,1.75L84.2,39.76s-2.33,0-3.5,2.91-5.24,1.17-5.24,1.17H70.8a3.66,3.66,0,0,0-2.09,1.22h0L64.57,48c-1.9.43-5.42,3.44-5.42,3.44s-.58,4.66,0,6.41-2.91-1.17-4.66-2.91-2.33-2.33-2.91-1.75-2.91,1.17-5.24-.58,0-3.5,0-7S44,45,42.26,42.09s0-4.08,2.33-4.66,1.75-2.91.58-6.41a4.6,4.6,0,0,1,1.17-5.24s6.41,0,7.57-.58,2.91-4.66,2.33-7.57,4.08-.58,4.66,1.17,4.66,2.33,5.24-.58S67.3,17,72.55,17s3.5,0,5.24,2.33,0,3.5,2.33,2.33,6.41,2.33,5.83,3.5S85.36,28.69,84.78,29.28Z"/><path class="cls-1" d="M75.46,74.13h-9.9s2.33-11.07,1.17-14.56-7.57-8.16-7.57-8.16,3.52-3,5.42-3.44l-.76.53s5.24,7,7.57,6.41S70.8,45,69.63,44.42l-.92.64a3.66,3.66,0,0,1,2.09-1.22h4.66S72.55,73,75.46,74.13Z"/><path class="cls-2" d="M60,57.67a23.88,23.88,0,0,1-3.75-3.12c-1.49-1.49-2.11-2.11-2.81-2.11a1.13,1.13,0,0,0-.81.36,2.58,2.58,0,0,1-1.61.44,4.93,4.93,0,0,1-3-1.07c-1.11-.83-1-1.51-.45-3.1a11.15,11.15,0,0,0,.65-3.49c0-2.14-.9-2.38-2-2.48a2.31,2.31,0,0,1-2.17-1.28,2.78,2.78,0,0,1-.53-2.39c.28-.67,1.11-1.17,2.55-1.53a2.46,2.46,0,0,0,1.66-1.17c.71-1.3.12-3.34-.72-5.88a4.19,4.19,0,0,1,.88-4.58c1.42,0,6.46-.06,7.61-.64,1.41-.7,3.22-5,2.6-8.12a.93.93,0,0,1,0-.68.49.49,0,0,1,.35-.1A4.61,4.61,0,0,1,61.81,19a3.19,3.19,0,0,0,3.1,1.8A3,3,0,0,0,68,18.31c.26-1.28.44-1.28.74-1.28a7.34,7.34,0,0,1,1.07.14,22.54,22.54,0,0,0,4.1.38c3.62,0,3.62,0,4,.71a8.49,8.49,0,0,0,.87,1.42,3.87,3.87,0,0,1,.82,2c0,.33.12.95.77.95a3.51,3.51,0,0,0,1.36-.51,1.85,1.85,0,0,1,.84-.18,6,6,0,0,1,4.07,2.39c.26.38.26.58.25.62a8.84,8.84,0,0,0-.6,2.24,5.19,5.19,0,0,1-.47,1.71c-.69.69.14,2.19.86,3.21l-1.45,1.45a.5.5,0,0,0,0,.71l1.51,1.51-1.5,3.5a4.7,4.7,0,0,0-3.62,3.2,2.18,2.18,0,0,1-2.27,1.37A6.7,6.7,0,0,1,77,43.38a.51.51,0,0,0-.2,0H72.19a4.08,4.08,0,0,0-2.43,1.36l-4,2.81c-2,.52-5.39,3.4-5.53,3.53a.5.5,0,0,0-.17.32C60,51.54,59.51,55.68,60,57.67Z"/><path class="cls-4" d="M58.58,17.09h0m0,.16a4.35,4.35,0,0,1,2.76,1.86,3.65,3.65,0,0,0,3.57,2.14,3.46,3.46,0,0,0,3.6-2.84,4.13,4.13,0,0,1,.24-.88h0a7.43,7.43,0,0,1,1,.13,22.93,22.93,0,0,0,4.19.39,22.32,22.32,0,0,1,3.35.1,2.84,2.84,0,0,1,.18.33,9,9,0,0,0,.91,1.5,3.37,3.37,0,0,1,.73,1.8c.12.92.54,1.38,1.26,1.38A3.76,3.76,0,0,0,82,22.6a1.37,1.37,0,0,1,.61-.13,5.39,5.39,0,0,1,3.8,2.42,10,10,0,0,0-.58,2.23,8.12,8.12,0,0,1-.33,1.44c-.7.7-.5,1.87.57,3.51l-1.15,1.15a1,1,0,0,0,0,1.41l1.27,1.27-1.26,2.94a5.27,5.27,0,0,0-3.72,3.45,1.66,1.66,0,0,1-1.81,1.06,6.26,6.26,0,0,1-2.11-.44,1,1,0,0,0-.39-.08H72.19a4.35,4.35,0,0,0-2.73,1.46L65.53,47c-2.09.6-5.28,3.29-5.64,3.61a1,1,0,0,0-.34.64,31.42,31.42,0,0,0-.22,5.32,28.88,28.88,0,0,1-2.74-2.41c-1.6-1.6-2.26-2.26-3.16-2.26a1.61,1.61,0,0,0-1.16.51,2.28,2.28,0,0,1-1.26.29,4.44,4.44,0,0,1-2.68-1c-.84-.63-.76-1-.28-2.55a11.57,11.57,0,0,0,.68-3.64c0-2.56-1.26-2.88-2.44-3a1.84,1.84,0,0,1-1.78-1,2.54,2.54,0,0,1-.5-1.94c.14-.35.64-.84,2.21-1.23a2.94,2.94,0,0,0,2-1.41c.81-1.47.2-3.62-.69-6.28a3.76,3.76,0,0,1,.61-3.93c1.9,0,6.44-.09,7.63-.69,1.73-.86,3.5-5.49,2.86-8.66a1.65,1.65,0,0,1,0-.18m10.21.21h0M58.5,16.25c-.66,0-1.08.38-.88,1.38.58,2.91-1.17,7-2.33,7.57s-7.57.58-7.57.58A4.6,4.6,0,0,0,46.56,31c1.17,3.5,1.75,5.83-.58,6.41s-4.08,1.75-2.33,4.66,4.08,0,4.08,3.5-2.33,5.24,0,7A5.46,5.46,0,0,0,51,53.74a3,3,0,0,0,2-.58.63.63,0,0,1,.46-.22c.49,0,1.15.66,2.46,2s3.81,3.45,4.52,3.45c.2,0,.26-.16.14-.54-.58-1.75,0-6.41,0-6.41S64.05,48.4,66,48l4.14-2.9h0a3.66,3.66,0,0,1,2.09-1.22h4.66a7.23,7.23,0,0,0,2.51.52,2.7,2.7,0,0,0,2.74-1.68c1.17-2.91,3.5-2.91,3.5-2.91l1.75-4.08-1.75-1.75,1.75-1.75s-1.75-2.33-1.17-2.91.58-2.91,1.17-4.08c.5-1-2.45-3.73-4.76-3.73a2.35,2.35,0,0,0-1.06.23,3.61,3.61,0,0,1-1.14.46c-.5,0,.09-1.08-1.19-2.79C77.43,17,79.18,17,73.93,17a41,41,0,0,1-5.18-.52c-.7,0-1,.36-1.23,1.68a2.49,2.49,0,0,1-2.62,2,2.73,2.73,0,0,1-2.62-1.46,5.08,5.08,0,0,0-3.78-2.55Z"/><path class="cls-2" d="M67.56,73.63c.47-2.39,2.08-11.08,1-14.22s-5.67-6.81-7.24-8a25.19,25.19,0,0,1,3.55-2.46c.84,1.1,5.08,6.51,7.58,6.51a1.74,1.74,0,0,0,.41,0c.48-.12,1.08-.54,1.22-1.86a18.68,18.68,0,0,0-2.37-9.08,1.09,1.09,0,0,1,.44-.12h4.11c-.66,6.73-2.22,24.81-.39,29.29Z"/><path class="cls-4" d="M75.75,44.84c-.22,2.32-.71,8-1,13.66-.42,8.66-.13,12.69.37,14.63h-7c.6-3.1,1.91-10.82.89-13.88-1-2.89-5-6.34-6.91-7.86a24.91,24.91,0,0,1,2.61-1.81c1.53,2,5.21,6.36,7.71,6.36a2.21,2.21,0,0,0,.54-.06c.63-.16,1.42-.68,1.6-2.29.23-2.09-.83-6.5-2.05-8.75h3.19m1.1-1H72.19a3.66,3.66,0,0,0-2.09,1.22l.92-.64c1.17.58,4.08,9.9,1.75,10.49a1.2,1.2,0,0,1-.29,0c-2.45,0-7.28-6.44-7.28-6.44L66,48c-1.9.43-5.42,3.44-5.42,3.44s6.41,4.66,7.57,8.16-1.17,14.56-1.17,14.56h9.9c-2.91-1.17,0-30.29,0-30.29ZM66,48h0Z"/><path class="cls-1" d="M48.46,74.85H28.65a.51.51,0,0,1-.47-.71c1.18-2.72,5.1-12.59,2.05-17.67C26.68,50.54,21.91,46,20.75,45.8c0,0-1.19-1.19,0-1.78s2.37-.59,2.37-1.19.59,0,.59,0,7.11,9.49,8.89,9.49,4.55-9.44.72-12.24a.5.5,0,0,1,.11-.89A19.58,19.58,0,0,0,37,37.48a.51.51,0,0,1,.72.2c.72,1.45,2.74,5.86,2.62,9.65a.5.5,0,0,0,.73.46c2.11-1.07,7.72-4.41,8.69-10.16a3,3,0,0,1,.23.28,1.6,1.6,0,0,0,2.22.5.5.5,0,0,0,.18-.17c.19-.28.64-1.08.25-1.65s.23-1.17.81-1.06.62,3.13,1.78,3.36l.12,0s-9.73,15.77-9.14,20.51c.5,4,.15,11.91,2.58,14.55A.51.51,0,0,1,48.46,74.85Z"/><path class="cls-1" d="M65.21,33.79c-.11.58-1.49,1.53-1.49,1.53S62,35,62.33,36.27s-.91,1.64-1.49,1.53S59.09,37.46,59,38s-2.4.72-3.6.53l-.12,0c-1.16-.23-1.2-3.24-1.78-3.36s-1.27.36-.81,1.06S52.35,38,52.35,38A1.64,1.64,0,0,1,50,37.56a3,3,0,0,0-.23-.28h0a.93.93,0,0,0-1.52,0s-.22,1.16-2,.84a2.64,2.64,0,0,1-2-2.19,1.85,1.85,0,0,1-.81,1.06,2.94,2.94,0,0,1-1.86.25s-.15-3-3.71-.63l-.44.28a18.82,18.82,0,0,1-5.22,2.36,8.44,8.44,0,0,1-2.05.32c-1.19,0-4.15,1.19-5.34,1.19s-1.19,1.78-1.19,1.78-.59-.59-.59,0-1.19.59-2.37,1.19,0,1.78,0,1.78c-3-.59-1.19,1.78-2.37,1.19S17.19,44.86,16,45.45s-1.19.59-1.78.59S13,44.86,13,43.67s-1.19-1.19-2.37-1.19-1.78.59-1.78,0A1.28,1.28,0,0,0,7.71,41.3c-.59,0-1.78,0-1.78-1.19s0-1.19-.59-1.78-1.19.59-1.78.59S3,36.56,3,36.56a8.53,8.53,0,0,1-1.78-1.19c-.59-.59,1.19-1.78,1.19-3s-1.19.59-1.78,0A3.56,3.56,0,0,1,0,30c0-.59,3.56-1.19,4.15-1.78S3.56,27.66,3,26.48s.59-1.78,2.37-3.56,5.34.59,5.34.59-1.19-5.34.59-5.34a7.19,7.19,0,0,0,3-.59s-.59-1.78,0-2.37,2.37,1.19,3,.59S16,11.66,18.38,11.66s3.56,2.37,4.15,1.19.59-4.74,1.78-4.74.59.59,1.78.59.59-1.78,1.78-1.78A6,6,0,0,1,32,9.29c.59,1.19,3.56,1.19,4.15.59s0-2.37,1.78-2.37,2.37,0,2.37,1.19-1.19,3.56,0,3,3.56-1.19,4.15-1.78,2.37-1.19,2.37,0a1.66,1.66,0,0,1-.93,1.57c.58.11.47.69.36,1.27s.36,1.27,1.64.91.81-1.06,1.39-.94.47.69.95,1.38.36,1.27,1.64.91,1.27-.36,1.38-.94,1.86-.25,2.33.44l.95,1.39c.47.69.58.11.69-.47s.69-.47,1.27-.36.58.11,1.06.8.47.69.58.11,1.27-.36,2-.84,1.16.22,1.06.8.47.69.36,1.27a.58.58,0,0,0,.47.69s1.06.81.94,1.39-.58-.11-.8,1.06.47.69,1.06.8.36,1.27.36,1.27-.11.59-.22,1.17a.58.58,0,0,0,.47.69,2.08,2.08,0,0,1,.36,1.27,2.19,2.19,0,0,1-.91,1.64c-.69.47-.33,1.75.14,2.44L66.35,31C66.82,31.68,65.33,33.21,65.21,33.79Z"/><path class="cls-6" d="M52.92,74.41l-20.13.08s5.93-12.32,2.37-18.19S26.84,46,25.68,45.75c0,0-1.19-1.17,0-1.76S28,43.41,28,42.82s.59,0,.59,0,7.11,9.39,8.89,9.39,5-10.88-.32-12.64a18.92,18.92,0,0,0,5.22-2.33s3.4,6.17,2.81,10.86c0,0,8.29-3.4,9.49-10.43A3,3,0,0,1,55,38a1.66,1.66,0,0,0,2.33.43s.8-1,.33-1.73.23-1.16.81-1,.62,3.1,1.78,3.32l.12,0s-9.73,15.6-9.14,20.3c.5,4-.21,11.72,2.11,14.32A.5.5,0,0,1,52.92,74.41Z"/><path class="cls-6" d="M70.14,34.22c-.11.57-1.49,1.51-1.49,1.51s-1.75-.33-1.39.93-.91,1.62-1.49,1.51-1.75-.33-1.86.25-2.4.71-3.6.52l-.12,0c-1.16-.22-1.2-3.21-1.78-3.32s-1.27.36-.81,1-.33,1.73-.33,1.73A1.66,1.66,0,0,1,55,38a3,3,0,0,0-.23-.28h0a.93.93,0,0,0-1.52,0s-.22,1.15-2,.83a2.62,2.62,0,0,1-2-2.16,1.83,1.83,0,0,1-.81,1,3,3,0,0,1-1.86.25s-.15-3-3.71-.62l-.44.28a18.92,18.92,0,0,1-5.22,2.33,8.53,8.53,0,0,1-2.05.32c-1.19,0-4.15,1.17-5.34,1.17s-1.19,1.76-1.19,1.76-.59-.59-.59,0-1.19.59-2.37,1.17,0,1.76,0,1.76c-3-.59-1.19,1.76-2.37,1.17s-1.19-1.76-2.37-1.17-1.19.59-1.78.59S18,45.17,18,44s-1.19-1.17-2.37-1.17-1.78.59-1.78,0a1.27,1.27,0,0,0-1.19-1.17c-.59,0-1.78,0-1.78-1.17s0-1.17-.59-1.76-1.19.59-1.78.59S7.89,37,7.89,37a8.54,8.54,0,0,1-1.78-1.17C5.52,35.19,7.3,34,7.3,32.85s-1.19.59-1.78,0a3.5,3.5,0,0,1-.59-2.35c0-.59,3.56-1.17,4.15-1.76S8.48,28.15,7.89,27s.59-1.76,2.37-3.52S15.6,24,15.6,24s-1.19-5.28.59-5.28a7.26,7.26,0,0,0,3-.59s-.59-1.76,0-2.35,2.37,1.17,3,.59-1.19-4.11,1.19-4.11,3.56,2.35,4.15,1.17S28,8.8,29.23,8.8s.59.59,1.78.59.59-1.76,1.78-1.76A6,6,0,0,1,36.94,10c.59,1.17,3.56,1.17,4.15.59s0-2.35,1.78-2.35,2.37,0,2.37,1.17-1.19,3.52,0,2.93,3.56-1.17,4.15-1.76,2.37-1.17,2.37,0a1.64,1.64,0,0,1-.93,1.55c.58.11.47.69.36,1.26s.36,1.26,1.64.9.81-1,1.39-.93.47.69.95,1.37.36,1.26,1.64.9,1.27-.36,1.38-.93,1.86-.25,2.33.43l.95,1.37c.47.69.58.11.69-.47s.69-.47,1.27-.36.58.11,1.06.79.47.69.58.11,1.27-.36,2-.83,1.16.22,1.06.79.47.69.36,1.26a.58.58,0,0,0,.47.69s1.06.8.94,1.37-.58-.11-.8,1,.47.69,1.06.79.36,1.26.36,1.26-.11.58-.22,1.16a.58.58,0,0,0,.47.69A2,2,0,0,1,71.1,26a2.16,2.16,0,0,1-.91,1.62c-.69.47-.33,1.73.14,2.42l.94,1.37C71.75,32.13,70.25,33.65,70.14,34.22Z"/></g></g></svg>